<svg id="Archive_open" data-name="Archive open" xmlns="http://www.w3.org/2000/svg" xmlns:xlink="http://www.w3.org/1999/xlink" viewBox="0 0 146.63 90.83"><defs><style>.cls-1{fill:url(#linear-gradient);}.cls-2{fill:#f6f6f6;}.cls-3{fill:#e6e6e6;}.cls-4{fill:#fff;}.cls-5{fill:url(#linear-gradient-2);}.cls-6{fill:url(#linear-gradient-3);}.cls-7{fill:url(#linear-gradient-4);}.cls-8{fill:#c6c6c6;}.cls-9{fill:#ededed;}.cls-10{fill:#ffde00;}.cls-11{fill:#383432;opacity:0.15;}.cls-12{fill:#dadada;}.cls-13{fill:#3f3426;}.cls-14{opacity:0.3;}</style><linearGradient id="linear-gradient" x1="163.44" y1="352.6" x2="163.44" y2="406.98" gradientTransform="matrix(-1, 0, 0, 1, 236.75, -377.18)" gradientUnits="userSpaceOnUse"><stop offset="0" stop-color="#9c9c9c"/><stop offset="1" stop-color="#5f5f5f"/></linearGradient><linearGradient id="linear-gradient-2" x1="1059.99" y1="380.04" x2="1059.99" y2="394.66" gradientUnits="userSpaceOnUse"><stop offset="0" stop-color="#91c8dd"/><stop offset="1" stop-color="#0087ba"/></linearGradient><linearGradient id="linear-gradient-3" x1="1081.33" y1="374.99" x2="1081.33" y2="389.61" xlink:href="#linear-gradient-2"/><linearGradient id="linear-gradient-4" x1="1102.67" y1="369.83" x2="1102.67" y2="384.46" xlink:href="#linear-gradient-2"/></defs><title>archive_open</title><polygon class="cls-1" points="7.79 23.15 138.84 23.15 130.25 2.74 16.38 2.74 7.79 23.15"/><polygon class="cls-2" points="17.35 9.19 129.2 9.19 128.26 6.61 18.3 6.61 17.35 9.19"/><polygon class="cls-3" points="18.3 6.61 128.26 6.61 127.31 4.02 19.25 4.02 18.3 6.61"/><polygon class="cls-2" points="15.46 14.37 131.1 14.37 130.15 11.78 16.4 11.78 15.46 14.37"/><polygon class="cls-3" points="16.4 11.78 130.15 11.78 129.2 9.19 17.35 9.19 16.4 11.78"/><polygon class="cls-2" points="14.51 16.95 13.56 19.54 133 19.54 132.05 16.95 14.51 16.95"/><polygon class="cls-3" points="14.51 16.95 132.05 16.95 131.1 14.37 15.46 14.37 14.51 16.95"/><rect class="cls-4" x="13.56" y="19.54" width="119.43" height="3.6"/><path class="cls-5" d="M1067.39,392.87l-0.69-3.54a2,2,0,0,0-2-2h-9.51a2,2,0,0,0-2,2l-0.69,3.54h14.79Z" transform="translate(-1033.42 -377.18)"/><path class="cls-6" d="M1088.72,387.82l-0.69-3.54a2,2,0,0,0-2-2h-9.51a2,2,0,0,0-2,2l-0.69,3.54h14.79Z" transform="translate(-1033.42 -377.18)"/><path class="cls-7" d="M1110.06,382.67l-0.69-3.54a2,2,0,0,0-2-2h-9.51a2,2,0,0,0-2,2l-0.69,3.54h14.79Z" transform="translate(-1033.42 -377.18)"/><polygon class="cls-8" points="7.7 23.1 4.87 23.1 14.11 2.74 16.93 2.74 7.7 23.1"/><polygon class="cls-8" points="129.6 2.74 132.52 2.74 141.76 23.15 138.84 23.15 129.6 2.74"/><g id="Drawer"><polygon class="cls-9" points="1.54 80.8 145.09 80.8 146.63 25.51 0 25.51 1.54 80.8"/><polygon class="cls-8" points="145.04 23.15 1.59 23.15 0 25.51 146.63 25.51 145.04 23.15"/><rect class="cls-10" x="50.34" y="43.66" width="45.94" height="19.93"/><rect class="cls-4" x="55.54" y="45.81" width="35.55" height="15.63"/><polygon class="cls-11" points="91.09 47.19 91.09 45.81 55.54 45.81 55.54 61.44 56.2 61.44 56.2 47.19 91.09 47.19"/><rect class="cls-12" x="59.55" y="52.16" width="12.13" height="2.89"/><rect class="cls-12" x="74.37" y="52.16" width="6.16" height="2.89"/><circle class="cls-10" cx="119.57" cy="53.62" r="12.05"/><polygon class="cls-13" points="117.83 45.59 121.01 45.59 121.01 53.47 119.96 54.52 121.3 55.85 121.3 61.66 117.83 61.66 117.83 52.14 119.53 52.14 119.53 49.79 117.83 49.79 117.83 45.59"/></g><rect class="cls-14" x="11.64" y="80.8" width="123.95" height="10.03"/></svg>