<svg id="Archiver_drawer_knife" data-name="Archiver drawer knife" xmlns="http://www.w3.org/2000/svg" xmlns:xlink="http://www.w3.org/1999/xlink" viewBox="0 0 147.24 121.74"><defs><style>.cls-1{fill:url(#linear-gradient);}.cls-2{fill:#f6f6f6;}.cls-3{fill:#e6e6e6;}.cls-4{fill:#fff;}.cls-5{fill:url(#linear-gradient-2);}.cls-6{fill:url(#linear-gradient-3);}.cls-7{fill:url(#linear-gradient-4);}.cls-8{fill:#c6c6c6;}.cls-9{fill:#d4155b;}.cls-10{fill:#cdcccc;}.cls-11{fill:#d7d7d7;}.cls-12{fill:#e84989;}.cls-13{fill:#a81759;}.cls-14{fill:#ededed;}.cls-15{fill:#ffde00;}.cls-16{fill:#383432;opacity:0.15;}.cls-17{fill:#dadada;}.cls-18{fill:#3f3426;}.cls-19{opacity:0.3;}</style><linearGradient id="linear-gradient" x1="163.44" y1="352.6" x2="163.44" y2="406.98" gradientTransform="matrix(-1, 0, 0, 1, 236.75, -346.27)" gradientUnits="userSpaceOnUse"><stop offset="0" stop-color="#9c9c9c"/><stop offset="1" stop-color="#5f5f5f"/></linearGradient><linearGradient id="linear-gradient-2" x1="1059.99" y1="380.04" x2="1059.99" y2="394.66" gradientUnits="userSpaceOnUse"><stop offset="0" stop-color="#91c8dd"/><stop offset="1" stop-color="#0087ba"/></linearGradient><linearGradient id="linear-gradient-3" x1="1081.33" y1="374.99" x2="1081.33" y2="389.61" xlink:href="#linear-gradient-2"/><linearGradient id="linear-gradient-4" x1="1102.67" y1="369.83" x2="1102.67" y2="384.46" xlink:href="#linear-gradient-2"/></defs><title>archive_open_knife</title><polygon class="cls-1" points="7.79 54.06 138.84 54.06 130.25 33.66 16.38 33.66 7.79 54.06"/><polygon class="cls-2" points="17.35 40.11 129.2 40.11 128.26 37.52 18.3 37.52 17.35 40.11"/><polygon class="cls-3" points="18.3 37.52 128.26 37.52 127.31 34.94 19.25 34.94 18.3 37.52"/><polygon class="cls-2" points="15.46 45.28 131.1 45.28 130.15 42.7 16.4 42.7 15.46 45.28"/><polygon class="cls-3" points="16.4 42.7 130.15 42.7 129.2 40.11 17.35 40.11 16.4 42.7"/><polygon class="cls-2" points="14.51 47.87 13.56 50.46 133 50.46 132.05 47.87 14.51 47.87"/><polygon class="cls-3" points="14.51 47.87 132.05 47.87 131.1 45.28 15.46 45.28 14.51 47.87"/><rect class="cls-4" x="13.56" y="50.46" width="119.43" height="3.6"/><path class="cls-5" d="M1067.39,392.87l-0.69-3.54a2,2,0,0,0-2-2h-9.51a2,2,0,0,0-2,2l-0.69,3.54h14.79Z" transform="translate(-1033.42 -346.27)"/><path class="cls-6" d="M1088.72,387.82l-0.69-3.54a2,2,0,0,0-2-2h-9.51a2,2,0,0,0-2,2l-0.69,3.54h14.79Z" transform="translate(-1033.42 -346.27)"/><path class="cls-7" d="M1110.06,382.67l-0.69-3.54a2,2,0,0,0-2-2h-9.51a2,2,0,0,0-2,2l-0.69,3.54h14.79Z" transform="translate(-1033.42 -346.27)"/><polygon class="cls-8" points="7.7 54.02 4.87 54.02 14.11 33.66 16.93 33.66 7.7 54.02"/><polygon class="cls-8" points="129.6 33.66 132.52 33.66 141.76 54.06 138.84 54.06 129.6 33.66"/><g id="knife"><path class="cls-9" d="M1159.65,347.9l-15.87,36.89,15.39,6.62,12.5-29a5.64,5.64,0,0,1,7.41-2.95l0.25,0.12,1.15-2.68c0.66-1.53-.43-3.49-2.43-4.35l-13.57-5.84C1162.48,345.81,1160.31,346.37,1159.65,347.9Z" transform="translate(-1033.42 -346.27)"/><path class="cls-10" d="M1141.53,396.27l8.68,8.83,0.65-1.51-8.68-8.83Z" transform="translate(-1033.42 -346.27)"/><path class="cls-10" d="M1135.12,411.17l8.68,8.83,3.75-8.71-8.68-8.83Z" transform="translate(-1033.42 -346.27)"/><path class="cls-10" d="M1124.45,436a26.93,26.93,0,0,0,7.94-1.85l-5-5.06Z" transform="translate(-1033.42 -346.27)"/><path class="cls-10" d="M1129.29,424.73l7.11,7.23a15.08,15.08,0,0,0,2.17-1.88l-8.06-8.2Z" transform="translate(-1033.42 -346.27)"/><path class="cls-10" d="M1143.12,392.59l8.68,8.83,1-2.34-8.68-8.83Z" transform="translate(-1033.42 -346.27)"/><path class="cls-10" d="M1154.39,395.39l2.19-5.09-10.53-4.53-0.34.79Z" transform="translate(-1033.42 -346.27)"/><path class="cls-11" d="M1127.42,429.08l5,5.06a19.56,19.56,0,0,0,4-2.18l-7.11-7.23Z" transform="translate(-1033.42 -346.27)"/><path class="cls-11" d="M1130.52,421.89l8.06,8.2a13,13,0,0,0,2.54-3.82l2.69-6.26-8.68-8.83Z" transform="translate(-1033.42 -346.27)"/><path class="cls-11" d="M1142.18,394.77l8.68,8.83,0.94-2.18-8.68-8.83Z" transform="translate(-1033.42 -346.27)"/><path class="cls-11" d="M1144.13,390.25l8.68,8.83,1.58-3.68-8.68-8.83Z" transform="translate(-1033.42 -346.27)"/><path class="cls-10" d="M1138.87,402.47l8.68,8.83,2.66-6.19-8.68-8.83Z" transform="translate(-1033.42 -346.27)"/><rect class="cls-12" x="1151.6" y="377.64" width="3.13" height="12.24" rx="1.07" ry="1.07" transform="translate(-688.53 945.11) rotate(-66.72)"/><rect class="cls-13" x="1151.99" y="376.72" width="3.13" height="12.24" rx="1.07" ry="1.07" transform="translate(-687.44 944.91) rotate(-66.72)"/><rect class="cls-12" x="1153.76" y="372.61" width="3.13" height="12.24" rx="1.07" ry="1.07" transform="translate(-682.6 944.05) rotate(-66.72)"/><rect class="cls-13" x="1154.15" y="371.69" width="3.13" height="12.24" rx="1.07" ry="1.07" transform="translate(-681.52 943.86) rotate(-66.72)"/><rect class="cls-12" x="1155.92" y="367.59" width="3.13" height="12.24" rx="1.07" ry="1.07" transform="translate(-676.68 943) rotate(-66.72)"/><rect class="cls-13" x="1156.31" y="366.67" width="3.13" height="12.24" rx="1.07" ry="1.07" transform="translate(-675.59 942.81) rotate(-66.72)"/><rect class="cls-12" x="1158.08" y="362.56" width="3.13" height="12.24" rx="1.07" ry="1.07" transform="translate(-670.75 941.95) rotate(-66.72)"/><rect class="cls-13" x="1158.48" y="361.64" width="3.13" height="12.24" rx="1.07" ry="1.07" transform="translate(-669.67 941.75) rotate(-66.72)"/><rect class="cls-12" x="1160.24" y="357.53" width="3.13" height="12.24" rx="1.07" ry="1.07" transform="translate(-664.83 940.89) rotate(-66.72)"/><rect class="cls-13" x="1160.64" y="356.62" width="3.13" height="12.24" rx="1.07" ry="1.07" transform="translate(-663.75 940.7) rotate(-66.72)"/><rect class="cls-12" x="1162.41" y="352.51" width="3.13" height="12.24" rx="1.07" ry="1.07" transform="translate(-658.91 939.84) rotate(-66.72)"/><rect class="cls-13" x="1162.8" y="351.59" width="3.13" height="12.24" rx="1.07" ry="1.07" transform="translate(-657.82 939.65) rotate(-66.72)"/></g><g id="Drawer"><polygon class="cls-14" points="1.54 111.71 145.09 111.71 146.63 56.42 0 56.42 1.54 111.71"/><polygon class="cls-8" points="145.04 54.06 1.59 54.06 0 56.42 146.63 56.42 145.04 54.06"/><rect class="cls-15" x="50.34" y="74.57" width="45.94" height="19.93"/><rect class="cls-4" x="55.54" y="76.73" width="35.55" height="15.63"/><polygon class="cls-16" points="91.09 78.1 91.09 76.73 55.54 76.73 55.54 92.35 56.2 92.35 56.2 78.1 91.09 78.1"/><rect class="cls-17" x="59.55" y="83.08" width="12.13" height="2.89"/><rect class="cls-17" x="74.37" y="83.08" width="6.16" height="2.89"/><circle class="cls-15" cx="119.57" cy="84.54" r="12.05"/><polygon class="cls-18" points="117.83 76.5 121.01 76.5 121.01 84.38 119.96 85.43 121.3 86.77 121.3 92.58 117.83 92.58 117.83 83.05 119.53 83.05 119.53 80.7 117.83 80.7 117.83 76.5"/></g><rect class="cls-19" x="11.64" y="111.71" width="123.95" height="10.03"/></svg>