<svg id="Archiver" xmlns="http://www.w3.org/2000/svg" xmlns:xlink="http://www.w3.org/1999/xlink" viewBox="0 0 123.95 180.98"><defs><style>.cls-1{fill:#c6c6c6;}.cls-2{fill:url(#linear-gradient);}.cls-3{fill:#ededed;}.cls-4{fill:#ffde00;}.cls-5{fill:#fff;}.cls-6{fill:#383432;}.cls-6,.cls-7{opacity:0.15;}.cls-17,.cls-7{fill:#1d1d1b;}.cls-8{fill:#dadada;}.cls-9{fill:#c9e5de;}.cls-10{fill:#9dc3b5;}.cls-11{fill:#729686;}.cls-12{fill:#eee6d0;}.cls-13,.cls-14{fill:#706f6f;}.cls-14{opacity:0.42;}.cls-15{fill:#f6f6f6;}.cls-16{fill:#f9d5e7;}.cls-17{opacity:0.27;}.cls-18{fill:#3f3426;}</style><linearGradient id="linear-gradient" x1="163.13" y1="351.19" x2="163.13" y2="617.9" gradientTransform="matrix(-1, 0, 0, 1, 225.11, -340.78)" gradientUnits="userSpaceOnUse"><stop offset="0.36" stop-color="#e0e0e0"/><stop offset="1" stop-color="#9c9c9c"/></linearGradient></defs><title>archive</title><polygon class="cls-1" points="0 27.39 123.95 27.39 115.82 8.5 8.13 8.5 0 27.39"/><rect class="cls-2" y="27.39" width="123.95" height="153.59"/><rect class="cls-3" x="3.85" y="102.97" width="116.24" height="43.83"/><polygon class="cls-1" points="118.84 102.43 5.11 102.43 3.85 103.26 120.1 103.26 118.84 102.43"/><rect class="cls-4" x="43.76" y="117.36" width="36.42" height="15.8"/><rect class="cls-5" x="47.88" y="119.06" width="28.18" height="12.39"/><polygon class="cls-6" points="76.06 120.15 76.06 119.06 47.88 119.06 47.88 131.45 48.4 131.45 48.4 120.15 76.06 120.15"/><rect class="cls-7" x="3.85" y="146.8" width="116.24" height="1.44"/><rect class="cls-8" x="51.66" y="124.79" width="4.04" height="2.43"/><rect class="cls-8" x="58.63" y="124.79" width="7.75" height="2.43"/><rect class="cls-3" x="4.38" y="39.52" width="116.24" height="43.83"/><polygon class="cls-1" points="119.37 38.98 5.64 38.98 4.38 39.81 120.62 39.81 119.37 38.98"/><rect class="cls-4" x="44.29" y="53.91" width="36.42" height="15.8"/><rect class="cls-5" x="48.41" y="55.62" width="28.18" height="12.39"/><polygon class="cls-6" points="76.59 56.71 76.59 55.62 48.41 55.62 48.41 68 48.93 68 48.93 56.71 76.59 56.71"/><rect class="cls-7" x="4.38" y="83.35" width="116.24" height="1.44"/><rect class="cls-8" x="52.18" y="61.34" width="4.04" height="2.43"/><rect class="cls-8" x="59.16" y="61.34" width="7.75" height="2.43"/><rect class="cls-5" x="56.34" y="13.05" width="57.96" height="1.62"/><rect class="cls-3" x="56.34" y="14.66" width="57.96" height="1.62"/><rect class="cls-5" x="56.34" y="16.29" width="57.96" height="1.62"/><rect class="cls-3" x="56.34" y="17.91" width="57.96" height="1.62"/><rect class="cls-5" x="56.34" y="19.53" width="57.96" height="1.62"/><rect class="cls-3" x="56.34" y="21.15" width="57.96" height="1.62"/><rect class="cls-3" x="56.34" y="11.36" width="57.96" height="1.62"/><polygon class="cls-5" points="109.64 1.4 61 1.4 56.34 11.36 114.3 11.36 109.64 1.4"/><polygon class="cls-7" points="103.45 10.47 102.91 9.78 102.91 9.78 101.57 8.07 100.98 9.3 101.18 8.89 101.57 8.07 88.65 1.97 88.27 2.79 87.88 3.62 87.87 3.62 88.65 1.97 87.83 1.58 86.29 0.85 85.13 3.33 86.66 4.05 86.87 4.15 87.48 4.44 100.4 10.54 102.58 10.49 102.58 10.49 103.45 10.47"/><rect class="cls-9" x="1139.93" y="338.22" width="0.91" height="14.28" transform="translate(-703.64 888.56) rotate(-64.74)"/><rect class="cls-10" x="1139.54" y="339.04" width="0.91" height="14.28" transform="translate(-705.12 888.22) rotate(-64.71)"/><rect class="cls-11" x="1139.15" y="339.87" width="0.91" height="14.28" transform="translate(-706.2 888.23) rotate(-64.7)"/><polygon class="cls-12" points="101.97 7.22 103.85 9.62 100.8 9.69 101.97 7.22"/><polygon class="cls-13" points="103.31 8.93 102.98 9.64 103.85 9.62 103.31 8.93"/><polygon class="cls-14" points="101.19 8.87 103.85 9.62 100.8 9.69 101.19 8.87"/><rect class="cls-15" x="1131.76" y="342.48" width="2.74" height="0.91" transform="translate(-706.13 880.14) rotate(-64.71)"/><rect class="cls-16" x="1130.58" y="341.53" width="2.74" height="1.7" transform="translate(-706.09 878.95) rotate(-64.72)"/><rect class="cls-17" x="1131.52" y="342.1" width="0.91" height="2.61" transform="translate(-707.2 879.37) rotate(-64.71)"/><circle class="cls-4" cx="101.61" cy="62.23" r="9.14"/><polygon class="cls-18" points="100.29 56.13 102.7 56.13 102.7 62.1 101.91 62.9 102.92 63.92 102.92 68.32 100.29 68.32 100.29 61.1 101.58 61.1 101.58 59.32 100.29 59.32 100.29 56.13"/></svg>