<svg xmlns="http://www.w3.org/2000/svg" xmlns:xlink="http://www.w3.org/1999/xlink" viewBox="0 0 130 91.91"><defs><style>.cls-1{isolation:isolate;}.cls-2{fill:#12100b;opacity:0.15;}.cls-3{fill:#dadada;}.cls-4{fill:#c6c6c6;}.cls-5{fill:url(#linear-gradient);}.cls-6{fill:#b2b2b2;}.cls-7{fill:#f6f6f6;}.cls-13,.cls-14,.cls-15,.cls-8{mix-blend-mode:multiply;}.cls-8{fill:url(#linear-gradient-2);}.cls-9{fill:#ededed;}.cls-10{fill:#878787;}.cls-11{fill:#fff;}.cls-12{fill:#f5b3c0;}.cls-13{fill:url(#linear-gradient-3);}.cls-14{fill:url(#linear-gradient-4);}.cls-15{fill:url(#linear-gradient-5);}</style><linearGradient id="linear-gradient" x1="32.1" y1="36.71" x2="122.9" y2="127.51" gradientUnits="userSpaceOnUse"><stop offset="0" stop-color="#c39065"/><stop offset="1" stop-color="#95745c"/></linearGradient><linearGradient id="linear-gradient-2" x1="30.49" y1="33.23" x2="46.43" y2="33.23" gradientUnits="userSpaceOnUse"><stop offset="0" stop-color="#1ab0d8"/><stop offset="1" stop-color="#006e98"/></linearGradient><linearGradient id="linear-gradient-3" x1="97.75" y1="33.23" x2="113.69" y2="33.23" gradientUnits="userSpaceOnUse"><stop offset="0" stop-color="#a4cfe6"/><stop offset="1" stop-color="#829ac2"/></linearGradient><linearGradient id="linear-gradient-4" x1="46.47" y1="33.23" x2="62.41" y2="33.23" gradientUnits="userSpaceOnUse"><stop offset="0" stop-color="#f6a667"/><stop offset="1" stop-color="#c46572"/></linearGradient><linearGradient id="linear-gradient-5" x1="278.82" y1="222.96" x2="311.55" y2="235.71" gradientTransform="translate(417.27 -122.8) rotate(71.41)" xlink:href="#linear-gradient-2"/></defs><title>binder_shelf</title><g class="cls-1"><g id="Binder_shelf" data-name="Binder shelf"><rect class="cls-2" x="1.6" y="66.22" width="128.4" height="8.37"/><rect class="cls-2" x="16.28" y="73" width="9.39" height="18.91"/><rect class="cls-3" x="15.96" y="73" width="9.39" height="18.59"/><circle class="cls-2" cx="20.98" cy="77.13" r="1.83"/><circle class="cls-2" cx="20.98" cy="87.12" r="1.83"/><circle class="cls-4" cx="20.66" cy="76.81" r="1.83"/><circle class="cls-4" cx="20.66" cy="86.8" r="1.83"/><rect class="cls-2" x="103.05" y="73" width="9.39" height="18.91"/><rect class="cls-3" x="102.73" y="73" width="9.39" height="18.59"/><circle class="cls-2" cx="107.75" cy="77.13" r="1.83"/><circle class="cls-2" cx="107.75" cy="87.12" r="1.83"/><circle class="cls-4" cx="107.43" cy="76.81" r="1.83"/><circle class="cls-4" cx="107.43" cy="86.8" r="1.83"/><rect class="cls-5" y="64.63" width="128.4" height="8.37"/><rect class="cls-3" x="31.66" y="1.84" width="13.59" height="62.78"/><rect class="cls-6" x="45.26" y="1.84" width="1.21" height="62.78"/><rect class="cls-7" x="30.53" y="1.84" width="1.21" height="62.78"/><rect class="cls-8" x="30.49" y="1.84" width="15.94" height="62.78"/><circle class="cls-9" cx="38.46" cy="49.52" r="3.45"/><circle class="cls-10" cx="38.46" cy="49.52" r="2.65"/><path class="cls-11" d="M254.32,244.33v3.6a2.65,2.65,0,0,1-.79.58v-4.76A2.65,2.65,0,0,1,254.32,244.33Z" transform="translate(-213.91 -196.6)"/><path class="cls-11" d="M252.37,243.48a2.58,2.58,0,0,1,.39,0v5.24a2.4,2.4,0,0,1-.79,0v-5.24A2.59,2.59,0,0,1,252.37,243.48Z" transform="translate(-213.91 -196.6)"/><path class="cls-11" d="M251.22,243.74v4.77a2.64,2.64,0,0,1-.79-0.58v-3.6A2.64,2.64,0,0,1,251.22,243.74Z" transform="translate(-213.91 -196.6)"/><rect class="cls-11" x="33.12" y="7.73" width="10.68" height="21.47"/><rect class="cls-12" x="33.12" y="13.08" width="10.68" height="0.79"/><rect class="cls-12" x="33.12" y="16.17" width="10.68" height="0.79"/><rect class="cls-3" x="98.93" y="1.84" width="13.59" height="62.78"/><rect class="cls-6" x="112.52" y="1.84" width="1.21" height="62.78"/><rect class="cls-7" x="97.79" y="1.84" width="1.21" height="62.78"/><rect class="cls-13" x="97.75" y="1.84" width="15.94" height="62.78"/><circle class="cls-9" cx="105.72" cy="49.52" r="3.45"/><circle class="cls-10" cx="105.72" cy="49.52" r="2.65"/><path class="cls-11" d="M321.58,244.33v3.6a2.64,2.64,0,0,1-.79.58v-4.76A2.64,2.64,0,0,1,321.58,244.33Z" transform="translate(-213.91 -196.6)"/><path class="cls-11" d="M319.64,243.48a2.57,2.57,0,0,1,.39,0v5.24a2.4,2.4,0,0,1-.79,0v-5.24A2.6,2.6,0,0,1,319.64,243.48Z" transform="translate(-213.91 -196.6)"/><path class="cls-11" d="M318.48,243.74v4.77a2.64,2.64,0,0,1-.79-0.58v-3.6A2.64,2.64,0,0,1,318.48,243.74Z" transform="translate(-213.91 -196.6)"/><rect class="cls-11" x="100.38" y="7.73" width="10.68" height="21.47"/><rect class="cls-12" x="100.38" y="13.08" width="10.68" height="0.79"/><rect class="cls-12" x="100.38" y="16.17" width="10.68" height="0.79"/><rect class="cls-3" x="47.64" y="1.84" width="13.59" height="62.78"/><rect class="cls-6" x="61.23" y="1.84" width="1.21" height="62.78"/><rect class="cls-7" x="46.51" y="1.84" width="1.21" height="62.78"/><rect class="cls-14" x="46.47" y="1.84" width="15.94" height="62.78"/><circle class="cls-9" cx="54.44" cy="49.52" r="3.45"/><circle class="cls-10" cx="54.44" cy="49.52" r="2.65"/><path class="cls-11" d="M270.3,244.33v3.6a2.65,2.65,0,0,1-.79.58v-4.76A2.65,2.65,0,0,1,270.3,244.33Z" transform="translate(-213.91 -196.6)"/><path class="cls-11" d="M268.35,243.48a2.57,2.57,0,0,1,.39,0v5.24a2.4,2.4,0,0,1-.79,0v-5.24A2.59,2.59,0,0,1,268.35,243.48Z" transform="translate(-213.91 -196.6)"/><path class="cls-11" d="M267.2,243.74v4.77a2.64,2.64,0,0,1-.79-0.58v-3.6A2.64,2.64,0,0,1,267.2,243.74Z" transform="translate(-213.91 -196.6)"/><rect class="cls-11" x="49.1" y="7.73" width="10.68" height="21.47"/><rect class="cls-12" x="49.1" y="13.08" width="10.68" height="0.79"/><rect class="cls-12" x="49.1" y="16.17" width="10.68" height="0.79"/><rect class="cls-3" x="262.68" y="222.1" width="62.78" height="13.59" transform="matrix(0.32, -0.95, 0.95, 0.32, -230.55, 238.04)"/><rect class="cls-6" x="269.69" y="230.65" width="62.78" height="1.21" transform="translate(-228.01 246.3) rotate(-71.41)"/><rect class="cls-7" x="255.74" y="225.96" width="62.78" height="1.21" transform="translate(-233.06 229.88) rotate(-71.41)"/><rect class="cls-15" x="262.68" y="220.93" width="62.78" height="15.94" transform="translate(-230.55 238.05) rotate(-71.41)"/><circle class="cls-9" cx="288.88" cy="244.34" r="3.45" transform="translate(-248.73 243.63) rotate(-71.41)"/><circle class="cls-10" cx="288.88" cy="244.34" r="2.65" transform="translate(-248.72 243.64) rotate(-71.41)"/><path class="cls-11" d="M291.29,243.25l-1.15,3.41a2.64,2.64,0,0,1-.93.3l1.52-4.52A2.68,2.68,0,0,1,291.29,243.25Z" transform="translate(-213.91 -196.6)"/><path class="cls-11" d="M289.72,241.82a2.74,2.74,0,0,1,.36.16l-1.67,5a2.59,2.59,0,0,1-.38-0.09,2.66,2.66,0,0,1-.36-0.16l1.67-5A2.58,2.58,0,0,1,289.72,241.82Z" transform="translate(-213.91 -196.6)"/><path class="cls-11" d="M288.54,241.71L287,246.23a2.67,2.67,0,0,1-.56-0.8l1.15-3.41A2.64,2.64,0,0,1,288.54,241.71Z" transform="translate(-213.91 -196.6)"/><rect class="cls-11" x="288.05" y="209.55" width="21.47" height="10.68" transform="translate(-214.06 232.98) rotate(-71.41)"/><rect class="cls-12" x="299.97" y="204.83" width="0.79" height="10.68" transform="matrix(0.32, -0.95, 0.95, 0.32, -208.51, 231.26)"/><rect class="cls-12" x="298.99" y="207.76" width="0.79" height="10.68" transform="translate(-211.95 232.32) rotate(-71.41)"/></g></g></svg>