<svg id="Business_card" data-name="Business card" xmlns="http://www.w3.org/2000/svg" viewBox="0 0 68.95 26.73"><defs><style>.cls-1{fill:#1d1d1b;opacity:0.27;}.cls-2{fill:#fff;}.cls-3{fill:#9dc3b5;}.cls-4{fill:#dadada;}.cls-5{fill:#ededed;}</style></defs><title>business_card</title><polygon class="cls-1" points="3.26 1.69 15.12 20.18 18.97 26.17 68.95 26.73 65.11 20.74 53.24 2.25 3.26 1.69"/><polygon class="cls-2" points="65.69 25.04 15.7 24.48 0 0 49.98 0.56 65.69 25.04"/><path class="cls-3" d="M820.68,611.5c-3.51,0-5,2.09-3.27,4.75a11.87,11.87,0,0,0,6.12,4.3c-1.64-2.78-1-3.19-.41-3.16,0.31,0,.28-0.26.15-0.57a4.39,4.39,0,0,1-1.8-1.35h0a2.85,2.85,0,0,1-.88-1.37c0.06-.47,1.67-0.92,1.1-1.47s2.89,1.36,3.32,2.87h0a1,1,0,0,1-.08,1.33,1.35,1.35,0,0,0,.88.58c0.58,0,1.74.42,3.67,3.2,1.49-.79,1.84-2.37.66-4.22C828.43,613.73,824.2,611.54,820.68,611.5Z" transform="translate(-780.3 -608.19)"/><polygon class="cls-4" points="33.1 5.13 8.16 4.85 7.19 3.33 32.13 3.61 33.1 5.13"/><polygon class="cls-4" points="54.99 16.25 15.19 15.8 14.22 14.29 54.02 14.73 54.99 16.25"/><polygon class="cls-5" points="65.69 25.04 15.7 24.48 11.86 18.49 61.84 19.05 65.69 25.04"/><polygon class="cls-4" points="32.37 22.45 19.36 22.3 18.39 20.78 31.39 20.93 32.37 22.45"/><polygon class="cls-4" points="59.16 22.75 46.16 22.6 45.18 21.09 58.19 21.23 59.16 22.75"/><polygon class="cls-4" points="23.17 8.12 10.17 7.97 9.19 6.45 22.2 6.6 23.17 8.12"/></svg>