<svg id="Cable" xmlns="http://www.w3.org/2000/svg" xmlns:xlink="http://www.w3.org/1999/xlink" viewBox="0 0 61.93 79.35"><defs><style>.cls-1{opacity:0.15;}.cls-2{fill:url(#linear-gradient);}.cls-3,.cls-5{fill:#fff;}.cls-3{opacity:0.9;}.cls-4{fill:#1d1d1b;opacity:0.1;}.cls-5{opacity:0.49;}.cls-6{fill:url(#linear-gradient-2);}.cls-11,.cls-12,.cls-13,.cls-7,.cls-8,.cls-9{opacity:0.7;}.cls-7{fill:url(#linear-gradient-3);}.cls-8{fill:url(#linear-gradient-4);}.cls-9{fill:url(#linear-gradient-5);}.cls-10{fill:url(#linear-gradient-6);}.cls-11{fill:url(#linear-gradient-7);}.cls-12{fill:url(#linear-gradient-8);}.cls-13{fill:url(#linear-gradient-9);}</style><linearGradient id="linear-gradient" x1="437.74" y1="430.24" x2="511.97" y2="430.24" gradientTransform="translate(-23.33 143.09) rotate(-18.54)" gradientUnits="userSpaceOnUse"><stop offset="0" stop-color="#a4c616"/><stop offset="0.25" stop-color="#9fc318"/><stop offset="0.52" stop-color="#92bb1e"/><stop offset="0.8" stop-color="#7cad27"/><stop offset="1" stop-color="#68a030"/></linearGradient><linearGradient id="linear-gradient-2" x1="-317.11" y1="-944.06" x2="-317.11" y2="-940.6" gradientTransform="matrix(0.99, 0.11, 0.11, -0.99, 952.67, -471.54)" gradientUnits="userSpaceOnUse"><stop offset="0.33" stop-color="#fff"/><stop offset="0.61" stop-color="#fcfcfc"/><stop offset="0.8" stop-color="#f3f3f3"/><stop offset="0.97" stop-color="#e4e4e4"/><stop offset="1" stop-color="#e0e0e0"/></linearGradient><linearGradient id="linear-gradient-3" x1="-319.13" y1="-948.89" x2="-316.91" y2="-946.67" gradientTransform="matrix(0.99, 0.11, 0.11, -0.99, 952.67, -471.54)" gradientUnits="userSpaceOnUse"><stop offset="0" stop-color="#ffd52e"/><stop offset="1" stop-color="#f8aa30"/></linearGradient><linearGradient id="linear-gradient-4" x1="-317.51" y1="-948.89" x2="-315.29" y2="-946.67" xlink:href="#linear-gradient-3"/><linearGradient id="linear-gradient-5" x1="-315.88" y1="-948.89" x2="-313.66" y2="-946.67" xlink:href="#linear-gradient-3"/><linearGradient id="linear-gradient-6" x1="-1253.78" y1="179.54" x2="-1253.78" y2="182.99" gradientTransform="matrix(-0.99, -0.11, -0.11, 0.99, -637.05, 54.24)" xlink:href="#linear-gradient-2"/><linearGradient id="linear-gradient-7" x1="-1255.8" y1="174.7" x2="-1253.58" y2="176.92" gradientTransform="matrix(-0.99, -0.11, -0.11, 0.99, -637.05, 54.24)" xlink:href="#linear-gradient-3"/><linearGradient id="linear-gradient-8" x1="-1254.18" y1="174.7" x2="-1251.96" y2="176.92" gradientTransform="matrix(-0.99, -0.11, -0.11, 0.99, -637.05, 54.24)" xlink:href="#linear-gradient-3"/><linearGradient id="linear-gradient-9" x1="-1252.56" y1="174.7" x2="-1250.34" y2="176.92" gradientTransform="matrix(-0.99, -0.11, -0.11, 0.99, -637.05, 54.24)" xlink:href="#linear-gradient-3"/></defs><title>cable</title><path class="cls-1" d="M595,361.91l-1.82-.19-0.21,0h0l-4.22-.45-0.88,8.22,1.57,0.17-0.07.42,0,0.34a0.52,0.52,0,0,0,.46.57h0.08c-0.7,5.14-2.16,11.74-4.78,13.6-1.23.87-3.45,1.35-5.8,1.86-6.21,1.34-14.71,3.18-15.94,14.26h0c-1.09,9.47-8.07,11-14.24,12.31-2.68.58-5,1.08-6.59,2.21-2.25,1.59-4,5.51-5.12,11.65-0.2,1.07-.37,2.11-0.5,3.08a0.51,0.51,0,0,0-.54.46l0,0.34,0,0.43-1.57-.17-0.88,8.22,1.74,0.19,0.29,0h0l4.22,0.45,0.88-8.22-1.57-.17,0.07-.42,0-.34a0.52,0.52,0,0,0-.46-0.57h0c0.72-5.07,2.18-11.38,4.72-13.19,1.23-.87,3.45-1.35,5.8-1.86,6.21-1.34,14.71-3.18,15.94-14.26h0c1.09-9.47,8.07-11,14.24-12.31,2.68-.58,5-1.08,6.59-2.21,2.25-1.59,4-5.51,5.12-11.65,0.23-1.23.41-2.41,0.56-3.5a0.51,0.51,0,0,0,.49-0.46l0-.34,0-.43,1.57,0.17Z" transform="translate(-533.1 -360.53)"/><path class="cls-2" d="M589.51,366.55c-0.4,4.95-1.87,15-5.19,17.31-1.23.87-3.45,1.35-5.8,1.86-6.21,1.34-14.71,3.18-15.94,14.26h0c-1.09,9.47-8.07,11-14.24,12.31-2.68.58-5,1.08-6.59,2.21-2.25,1.59-4,5.51-5.12,11.65-0.55,2.94-.83,5.66-1,7.2l2.15,0.23c0.4-4.95,1.87-15,5.19-17.31,1.23-.87,3.45-1.35,5.8-1.86,6.21-1.34,14.71-3.18,15.94-14.26h0c1.09-9.47,8.07-11,14.24-12.31,2.68-.58,5-1.08,6.59-2.21,2.25-1.59,4-5.51,5.12-11.65,0.55-2.94.83-5.66,1-7.2Z" transform="translate(-533.1 -360.53)"/><rect class="cls-3" x="532.53" y="431.59" width="8.27" height="6.28" transform="translate(-485.84 561.52) rotate(-83.89)"/><path class="cls-4" d="M535.42,433.32l0.15-3.3,0-.34a0.52,0.52,0,0,1,.57-0.46l2.14,0.23a0.52,0.52,0,0,1,.46.57l0,0.34-0.56,3.26Z" transform="translate(-533.1 -360.53)"/><path class="cls-5" d="M535.81,429.7a0.52,0.52,0,0,1,.57-0.46l1.73,0.19a0.51,0.51,0,0,1,.46.57l-0.39,3.62-2.76-.3Z" transform="translate(-533.1 -360.53)"/><path class="cls-6" d="M535.77,430a0.52,0.52,0,0,1,.57-0.46l1.73,0.19a0.52,0.52,0,0,1,.46.57l-0.35,3.28-2.76-.3Z" transform="translate(-533.1 -360.53)"/><path class="cls-7" d="M534.29,436.79a0.52,0.52,0,0,1,.57-0.46h0a0.52,0.52,0,0,1,.46.57l-0.19,1.82-1-.11Z" transform="translate(-533.1 -360.53)"/><path class="cls-8" d="M535.91,437a0.52,0.52,0,0,1,.57-0.46h0a0.52,0.52,0,0,1,.46.57l-0.19,1.82-1-.11Z" transform="translate(-533.1 -360.53)"/><path class="cls-9" d="M537.52,437.14a0.52,0.52,0,0,1,.57-0.46h0a0.52,0.52,0,0,1,.46.57l-0.19,1.82-1-.11Z" transform="translate(-533.1 -360.53)"/><rect class="cls-3" x="586.53" y="361.84" width="8.27" height="6.28" transform="translate(-368.23 552.89) rotate(-83.89)"/><path class="cls-4" d="M591.91,366.39l-0.15,3.3,0,0.34a0.52,0.52,0,0,1-.57.46l-2.14-.23a0.52,0.52,0,0,1-.46-0.57l0-.34,0.56-3.26Z" transform="translate(-533.1 -360.53)"/><path class="cls-5" d="M591.53,370a0.52,0.52,0,0,1-.57.46l-1.73-.19a0.51,0.51,0,0,1-.46-0.57l0.39-3.62,2.76,0.3Z" transform="translate(-533.1 -360.53)"/><path class="cls-10" d="M591.56,369.66a0.52,0.52,0,0,1-.57.46l-1.73-.19a0.52,0.52,0,0,1-.46-0.57l0.35-3.28,2.76,0.3Z" transform="translate(-533.1 -360.53)"/><path class="cls-11" d="M593,362.91a0.52,0.52,0,0,1-.57.46h0a0.52,0.52,0,0,1-.46-0.57l0.19-1.82,1,0.11Z" transform="translate(-533.1 -360.53)"/><path class="cls-12" d="M591.43,362.74a0.52,0.52,0,0,1-.57.46h0a0.52,0.52,0,0,1-.46-0.57l0.19-1.82,1,0.11Z" transform="translate(-533.1 -360.53)"/><path class="cls-13" d="M589.82,362.57a0.52,0.52,0,0,1-.57.46h0a0.52,0.52,0,0,1-.46-0.57l0.19-1.82,1,0.11Z" transform="translate(-533.1 -360.53)"/></svg>