<svg id="Calendar" xmlns="http://www.w3.org/2000/svg" viewBox="0 0 85.4 78.9"><defs><style>.cls-1,.cls-4{opacity:0.15;}.cls-2,.cls-4{fill:#12100b;}.cls-3{fill:none;stroke:#7d4e24;stroke-miterlimit:10;stroke-width:2px;}.cls-5{fill:#dadada;}.cls-6{fill:#fff;}.cls-7{fill:#e7f2fb;}.cls-8{fill:#e0696a;}.cls-9{fill:#303030;}</style></defs><title>calendar</title><g class="cls-1"><polygon class="cls-2" points="53.05 14.72 40.89 3.82 30.29 15.64 29.73 15.13 40.84 2.75 53.55 14.16 53.05 14.72"/></g><polyline class="cls-3" points="28.88 14.37 39.73 2.27 52.17 13.43"/><circle class="cls-4" cx="949.54" cy="225.72" r="2.27" transform="matrix(1, -0.05, 0.05, 1, -919.49, -170.73)"/><circle class="cls-5" cx="948.41" cy="224.71" r="2.27" transform="translate(-919.44 -170.8) rotate(-3.1)"/><polygon class="cls-1" points="1.13 14.79 1.15 15.13 1.81 27.24 4.6 78.9 85.4 74.52 82.6 22.87 81.94 10.76 81.93 10.41 1.13 14.79"/><rect class="cls-6" x="910.35" y="233.97" width="80.91" height="64.2" transform="translate(-921.67 -170.61) rotate(-3.1)"/><rect class="cls-7" x="914.53" y="252.88" width="9.28" height="7.58" transform="translate(-921.21 -172.33) rotate(-3.1)"/><rect class="cls-7" x="924.88" y="252.32" width="9.28" height="7.58" transform="translate(-921.17 -171.77) rotate(-3.1)"/><rect class="cls-7" x="935.22" y="251.76" width="9.28" height="7.58" transform="translate(-921.12 -171.21) rotate(-3.1)"/><rect class="cls-7" x="945.56" y="251.2" width="9.28" height="7.58" transform="translate(-921.08 -170.66) rotate(-3.1)"/><rect class="cls-7" x="955.91" y="250.64" width="9.28" height="7.58" transform="translate(-921.03 -170.1) rotate(-3.1)"/><rect class="cls-7" x="966.25" y="250.08" width="9.28" height="7.58" transform="translate(-920.98 -169.54) rotate(-3.1)"/><rect class="cls-7" x="976.6" y="249.52" width="9.28" height="7.58" transform="translate(-920.94 -168.98) rotate(-3.1)"/><rect class="cls-7" x="915" y="261.52" width="9.28" height="7.58" transform="translate(-921.68 -172.29) rotate(-3.1)"/><rect class="cls-7" x="925.34" y="260.96" width="9.28" height="7.58" transform="translate(-921.63 -171.74) rotate(-3.1)"/><rect class="cls-7" x="935.69" y="260.4" width="9.28" height="7.58" transform="translate(-921.59 -171.18) rotate(-3.1)"/><rect class="cls-7" x="946.03" y="259.84" width="9.28" height="7.58" transform="translate(-921.54 -170.62) rotate(-3.1)"/><rect class="cls-7" x="956.38" y="259.28" width="9.28" height="7.58" transform="translate(-921.5 -170.06) rotate(-3.1)"/><rect class="cls-7" x="966.72" y="258.72" width="9.28" height="7.58" transform="translate(-921.45 -169.5) rotate(-3.1)"/><rect class="cls-7" x="977.06" y="258.16" width="9.28" height="7.58" transform="translate(-921.41 -168.94) rotate(-3.1)"/><rect class="cls-7" x="915.47" y="270.16" width="9.28" height="7.58" transform="translate(-922.15 -172.26) rotate(-3.1)"/><rect class="cls-7" x="925.81" y="269.6" width="9.28" height="7.58" transform="translate(-922.1 -171.7) rotate(-3.1)"/><rect class="cls-7" x="936.16" y="269.04" width="9.28" height="7.58" transform="translate(-922.05 -171.14) rotate(-3.1)"/><rect class="cls-7" x="946.5" y="268.48" width="9.28" height="7.58" transform="translate(-922.01 -170.58) rotate(-3.1)"/><rect class="cls-7" x="956.85" y="267.92" width="9.28" height="7.58" transform="translate(-921.96 -170.02) rotate(-3.1)"/><rect class="cls-7" x="967.19" y="267.36" width="9.28" height="7.58" transform="translate(-921.92 -169.46) rotate(-3.1)"/><rect class="cls-7" x="977.53" y="266.8" width="9.28" height="7.58" transform="translate(-921.87 -168.9) rotate(-3.1)"/><rect class="cls-7" x="915.94" y="278.8" width="9.28" height="7.58" transform="translate(-922.61 -172.22) rotate(-3.1)"/><rect class="cls-7" x="926.28" y="278.24" width="9.28" height="7.58" transform="translate(-922.57 -171.66) rotate(-3.1)"/><rect class="cls-7" x="936.63" y="277.68" width="9.28" height="7.58" transform="translate(-922.52 -171.1) rotate(-3.1)"/><rect class="cls-7" x="946.97" y="277.12" width="9.28" height="7.58" transform="translate(-922.48 -170.54) rotate(-3.1)"/><rect class="cls-7" x="957.31" y="276.56" width="9.28" height="7.58" transform="translate(-922.43 -169.98) rotate(-3.1)"/><rect class="cls-7" x="967.66" y="276" width="9.28" height="7.58" transform="translate(-922.39 -169.42) rotate(-3.1)"/><rect class="cls-7" x="978" y="275.44" width="9.28" height="7.58" transform="translate(-922.34 -168.87) rotate(-3.1)"/><rect class="cls-7" x="916.41" y="287.44" width="9.28" height="7.58" transform="translate(-923.08 -172.18) rotate(-3.1)"/><rect class="cls-7" x="926.75" y="286.88" width="9.28" height="7.58" transform="translate(-923.03 -171.62) rotate(-3.1)"/><rect class="cls-7" x="937.09" y="286.32" width="9.28" height="7.58" transform="translate(-922.99 -171.06) rotate(-3.1)"/><rect class="cls-5" x="947.44" y="285.76" width="9.28" height="7.58" transform="translate(-922.94 -170.5) rotate(-3.1)"/><rect class="cls-5" x="957.78" y="285.2" width="9.28" height="7.58" transform="translate(-922.9 -169.95) rotate(-3.1)"/><rect class="cls-5" x="968.13" y="284.64" width="9.28" height="7.58" transform="translate(-922.85 -169.39) rotate(-3.1)"/><rect class="cls-5" x="978.47" y="284.08" width="9.28" height="7.58" transform="translate(-922.81 -168.83) rotate(-3.1)"/><rect class="cls-8" x="908.94" y="234.01" width="80.91" height="12.13" transform="translate(-920.27 -170.72) rotate(-3.1)"/><rect class="cls-9" x="913.71" y="239.05" width="26.15" height="4.49" transform="translate(-920.37 -171.94) rotate(-3.1)"/></svg>