<svg id="Computer_table" data-name="Computer table" xmlns="http://www.w3.org/2000/svg" xmlns:xlink="http://www.w3.org/1999/xlink" viewBox="0 0 191.65 217.36"><defs><style>.cls-1{fill:#ededed;}.cls-2{fill:#333435;}.cls-3,.cls-7{fill:#fff;}.cls-4{fill:url(#linear-gradient);}.cls-5{fill:#c6c6c6;}.cls-6{fill:#dadada;}.cls-7{opacity:0.4;}.cls-8{fill:#c39065;}.cls-9{fill:url(#linear-gradient-2);}.cls-10{fill:url(#linear-gradient-3);}.cls-11{fill:url(#linear-gradient-4);}.cls-12{fill:#383432;opacity:0.2;}</style><linearGradient id="linear-gradient" x1="133" y1="37.99" x2="143.11" y2="37.99" gradientUnits="userSpaceOnUse"><stop offset="0" stop-color="#91c8dd"/><stop offset="1" stop-color="#0087ba"/></linearGradient><linearGradient id="linear-gradient-2" x1="311.86" y1="402.2" x2="311.86" y2="436.65" gradientUnits="userSpaceOnUse"><stop offset="0" stop-color="#c39065"/><stop offset="1" stop-color="#95745c"/></linearGradient><linearGradient id="linear-gradient-3" x1="14.31" y1="174.76" x2="33.93" y2="174.76" xlink:href="#linear-gradient-2"/><linearGradient id="linear-gradient-4" x1="149.69" y1="176.14" x2="168.79" y2="176.14" xlink:href="#linear-gradient-2"/></defs><title>computer_table</title><rect class="cls-1" x="56.13" y="3.45" width="126.85" height="84"/><rect class="cls-2" x="56.13" y="12.25" width="126.85" height="66.4"/><rect class="cls-1" x="60.75" y="16.65" width="117.6" height="57.6" rx="1.6" ry="1.6"/><rect class="cls-3" x="90.62" y="27.67" width="57.87" height="46.58"/><polygon class="cls-4" points="138.06 32.94 139.85 36.21 143.12 37.99 139.85 39.78 138.06 43.05 136.27 39.78 133 37.99 136.27 36.21 138.06 32.94"/><path class="cls-5" d="M383.27,335.66v-0.54a4.69,4.69,0,0,0-9.38,0v0.54h-1v9.14h11.47v-9.14h-1Zm-7.57-.54a2.88,2.88,0,0,1,5.76,0v0.54H375.7v-0.54Zm4.06,7.3H377.4l0.23-1.7a1.51,1.51,0,1,1,1.89,0Z" transform="translate(-215.47 -302.76)"/><rect class="cls-1" x="95.77" y="32.94" width="11.73" height="1.91"/><rect class="cls-6" x="95.77" y="37.99" width="17.87" height="4.04"/><rect class="cls-1" x="95.88" y="48.74" width="47.34" height="2.22"/><rect class="cls-1" x="95.88" y="53.23" width="47.34" height="2.22"/><rect class="cls-1" x="95.88" y="57.72" width="47.34" height="2.22"/><rect class="cls-1" x="95.88" y="62.21" width="47.34" height="2.22"/><rect class="cls-1" x="100.97" y="87.45" width="37.16" height="20.22"/><polygon class="cls-1" points="151.15 112.47 87.95 112.47 91.4 107.67 147.71 107.67 151.15 112.47"/><rect class="cls-6" x="100.97" y="105.54" width="37.16" height="2.13"/><rect class="cls-6" x="100.97" y="87.45" width="37.16" height="3.96"/><circle class="cls-5" cx="68.75" cy="30.46" r="2.6"/><circle class="cls-5" cx="76.22" cy="30.46" r="2.6"/><circle class="cls-5" cx="83.69" cy="30.46" r="2.6"/><rect class="cls-7" x="56.13" y="12.25" width="63.42" height="66.4"/><polygon class="cls-5" points="178.98 0 60.13 0 56.13 3.45 182.98 3.45 178.98 0"/><path class="cls-8" d="M217.51,421.41H406.21c0.37-1.73.68-3.58,0.91-5.53H215.47a42.89,42.89,0,0,0,3.6,13.68A53.9,53.9,0,0,1,217.51,421.41Z" transform="translate(-215.47 -302.76)"/><path class="cls-9" d="M219.06,429.56c1.67,3.36,3.74,5.36,6,5.36H397.54c3.7,0,6.93-5.43,8.67-13.5H217.51A53.9,53.9,0,0,0,219.06,429.56Z" transform="translate(-215.47 -302.76)"/><polygon class="cls-8" points="20.44 132.16 25.85 217.36 27.9 217.36 22.49 132.16 20.44 132.16"/><polygon class="cls-10" points="22.49 132.16 27.9 217.36 33.43 217.36 33.43 132.16 22.49 132.16"/><rect class="cls-8" x="158.22" y="134.92" width="2.04" height="82.44"/><polygon class="cls-11" points="160.26 217.36 165.79 217.36 171.03 134.92 160.26 134.92 160.26 217.36"/><polygon class="cls-12" points="160.26 132.16 158.22 132.16 158.22 134.92 160.26 134.92 171.03 134.92 171.2 132.16 160.26 132.16"/></svg>