<svg id="Copy_machine" data-name="Copy machine" xmlns="http://www.w3.org/2000/svg" xmlns:xlink="http://www.w3.org/1999/xlink" viewBox="0 0 146.73 218.32"><defs><style>.cls-1{fill:#c6c6c6;}.cls-2{fill:url(#linear-gradient);}.cls-3{fill:url(#linear-gradient-2);}.cls-4{fill:url(#linear-gradient-3);}.cls-5{fill:#575756;}.cls-6{fill:url(#linear-gradient-4);}.cls-7{fill:url(#linear-gradient-5);}.cls-8{fill:url(#linear-gradient-6);}.cls-9{fill:url(#linear-gradient-7);}.cls-10{fill:url(#linear-gradient-8);}.cls-11{fill:url(#linear-gradient-9);}.cls-12{fill:url(#linear-gradient-10);}.cls-13{fill:url(#linear-gradient-11);}.cls-14{fill:url(#linear-gradient-12);}.cls-15{fill:url(#linear-gradient-13);}.cls-16{fill:#f6f6f6;}.cls-17{fill:url(#linear-gradient-14);}.cls-18{fill:#d67753;}.cls-19{fill:#f9db52;}.cls-20{fill:#5da2bf;}.cls-21{fill:#3c3c3b;}.cls-22{fill:url(#linear-gradient-15);}.cls-23{fill:url(#linear-gradient-16);}.cls-24{fill:url(#linear-gradient-17);}.cls-25{fill:url(#linear-gradient-18);}.cls-26{fill:url(#linear-gradient-19);}.cls-27{fill:url(#linear-gradient-20);}.cls-28{fill:url(#linear-gradient-21);}.cls-29{fill:url(#linear-gradient-22);}.cls-30{fill:url(#linear-gradient-23);}.cls-31{fill:url(#linear-gradient-24);}.cls-32{fill:url(#linear-gradient-25);}.cls-33{fill:url(#linear-gradient-26);}.cls-34{opacity:0.33;}.cls-35{fill:#1d1d1b;}.cls-36{fill:#ededed;}.cls-37{fill:#1d71b8;}.cls-38{fill:#b2b2b2;}.cls-39{fill:#878787;}.cls-40{fill:#dadada;stroke:#b2b2b2;stroke-miterlimit:10;stroke-width:0.49px;}.cls-41{fill:#9d9d9c;}.cls-42{fill:url(#linear-gradient-27);}</style><linearGradient id="linear-gradient" x1="1001.35" y1="371.32" x2="1001.35" y2="694.5" gradientTransform="translate(-927.98 -334.05)" gradientUnits="userSpaceOnUse"><stop offset="0" stop-color="#e0e0e0"/><stop offset="1" stop-color="#9c9c9c"/></linearGradient><linearGradient id="linear-gradient-2" x1="995.61" y1="431.11" x2="995.61" y2="461.42" xlink:href="#linear-gradient"/><linearGradient id="linear-gradient-3" x1="995.61" y1="505.04" x2="995.61" y2="648.95" xlink:href="#linear-gradient"/><linearGradient id="linear-gradient-4" x1="995.61" y1="403.33" x2="995.61" y2="422.27" xlink:href="#linear-gradient"/><linearGradient id="linear-gradient-5" x1="995.61" y1="419.35" x2="995.61" y2="428.96" xlink:href="#linear-gradient"/><linearGradient id="linear-gradient-6" x1="995.99" y1="499.99" x2="995.99" y2="429.57" gradientTransform="translate(-927.98 -334.05)" gradientUnits="userSpaceOnUse"><stop offset="0.53" stop-color="#e6f5fe"/><stop offset="0.65" stop-color="#fff"/><stop offset="0.74" stop-color="#c8cfd4"/><stop offset="0.85" stop-color="#b5c2c9"/><stop offset="0.87" stop-color="#b4c1c8" stop-opacity="0.98"/><stop offset="0.89" stop-color="#b3bfc5" stop-opacity="0.91"/><stop offset="0.91" stop-color="#b0bac0" stop-opacity="0.79"/><stop offset="0.94" stop-color="#acb4b9" stop-opacity="0.64"/><stop offset="0.96" stop-color="#a7acaf" stop-opacity="0.43"/><stop offset="0.98" stop-color="#a1a3a4" stop-opacity="0.18"/><stop offset="1" stop-color="#9c9c9c" stop-opacity="0"/></linearGradient><linearGradient id="linear-gradient-7" x1="1064.04" y1="495.07" x2="1064.04" y2="501.74" gradientTransform="translate(-64.18)" gradientUnits="userSpaceOnUse"><stop offset="0" stop-color="#e0e0e0"/><stop offset="1" stop-color="#696969"/></linearGradient><linearGradient id="linear-gradient-8" x1="1064.04" y1="498.93" x2="1064.04" y2="505.61" xlink:href="#linear-gradient-7"/><linearGradient id="linear-gradient-9" x1="1064.04" y1="502.8" x2="1064.04" y2="509.48" xlink:href="#linear-gradient-7"/><linearGradient id="linear-gradient-10" x1="1064.04" y1="506.67" x2="1064.04" y2="513.35" xlink:href="#linear-gradient-7"/><linearGradient id="linear-gradient-11" x1="1064.04" y1="510.54" x2="1064.04" y2="517.22" xlink:href="#linear-gradient-7"/><linearGradient id="linear-gradient-12" x1="1001.34" y1="332.9" x2="1001.34" y2="362.48" xlink:href="#linear-gradient"/><linearGradient id="linear-gradient-13" x1="1001.35" y1="349.44" x2="1001.35" y2="373.63" xlink:href="#linear-gradient"/><linearGradient id="linear-gradient-14" x1="1023.98" y1="371.06" x2="1023.98" y2="407.45" gradientTransform="translate(-64.18)" gradientUnits="userSpaceOnUse"><stop offset="0" stop-color="#656565"/><stop offset="1" stop-color="#343434"/></linearGradient><linearGradient id="linear-gradient-15" x1="1034.21" y1="379.42" x2="1038.71" y2="379.42" gradientTransform="translate(-927.98 -334.05)" xlink:href="#linear-gradient-7"/><linearGradient id="linear-gradient-16" x1="1040.35" y1="379.42" x2="1044.86" y2="379.42" gradientTransform="translate(-927.98 -334.05)" xlink:href="#linear-gradient-7"/><linearGradient id="linear-gradient-17" x1="1046.5" y1="379.42" x2="1051" y2="379.42" gradientTransform="translate(-927.98 -334.05)" xlink:href="#linear-gradient-7"/><linearGradient id="linear-gradient-18" x1="1034.21" y1="386.15" x2="1038.71" y2="386.15" gradientTransform="translate(-927.98 -334.05)" xlink:href="#linear-gradient-7"/><linearGradient id="linear-gradient-19" x1="1040.35" y1="386.15" x2="1044.86" y2="386.15" gradientTransform="translate(-927.98 -334.05)" xlink:href="#linear-gradient-7"/><linearGradient id="linear-gradient-20" x1="1046.5" y1="386.15" x2="1051" y2="386.15" gradientTransform="translate(-927.98 -334.05)" xlink:href="#linear-gradient-7"/><linearGradient id="linear-gradient-21" x1="1034.21" y1="392.88" x2="1038.71" y2="392.88" gradientTransform="translate(-927.98 -334.05)" xlink:href="#linear-gradient-7"/><linearGradient id="linear-gradient-22" x1="1040.35" y1="392.88" x2="1044.86" y2="392.88" gradientTransform="translate(-927.98 -334.05)" xlink:href="#linear-gradient-7"/><linearGradient id="linear-gradient-23" x1="1046.5" y1="392.88" x2="1051" y2="392.88" gradientTransform="translate(-927.98 -334.05)" xlink:href="#linear-gradient-7"/><linearGradient id="linear-gradient-24" x1="1046.5" y1="399.61" x2="1051" y2="399.61" gradientTransform="translate(-927.98 -334.05)" xlink:href="#linear-gradient-7"/><linearGradient id="linear-gradient-25" x1="1040.35" y1="399.61" x2="1044.86" y2="399.61" gradientTransform="translate(-927.98 -334.05)" xlink:href="#linear-gradient-7"/><linearGradient id="linear-gradient-26" x1="1034.21" y1="399.61" x2="1038.71" y2="399.61" gradientTransform="translate(-927.98 -334.05)" xlink:href="#linear-gradient-7"/><linearGradient id="linear-gradient-27" x1="1013.88" y1="489.9" x2="1013.88" y2="558.14" gradientTransform="translate(-927.98 -334.05)" gradientUnits="userSpaceOnUse"><stop offset="0" stop-color="#91c8dd"/><stop offset="1" stop-color="#0087ba"/></linearGradient></defs><title>copy_machine</title><polygon class="cls-1" points="146.73 24.28 0 24.28 9.62 1.92 137.11 1.92 146.73 24.28"/><rect class="cls-2" y="24.28" width="146.73" height="186.1"/><polygon class="cls-3" points="129.89 123.66 5.37 123.66 13.53 112.29 121.72 112.29 129.89 123.66"/><rect class="cls-4" x="5.37" y="123.66" width="124.52" height="94.66"/><rect class="cls-5" x="13.53" y="81.4" width="108.19" height="30.88"/><polygon class="cls-6" points="129.89 82.14 5.37 82.14 13.53 79.02 121.72 79.02 129.89 82.14"/><rect class="cls-7" x="5.37" y="82.14" width="124.52" height="6.32"/><polygon class="cls-8" points="107.77 184.99 28.24 184.99 28.24 122.12 35.56 93.41 100.45 93.41 107.77 121.64 107.77 184.99"/><path class="cls-9" d="M1004.26,501.24a1.33,1.33,0,1,0,0-2.5H993.69v2.5h10.57Z" transform="translate(-863.8 -334.05)"/><path class="cls-10" d="M1004.26,505.11a1.33,1.33,0,1,0,0-2.5H993.69v2.5h10.57Z" transform="translate(-863.8 -334.05)"/><path class="cls-11" d="M1004.26,509a1.33,1.33,0,1,0,0-2.51H993.69V509h10.57Z" transform="translate(-863.8 -334.05)"/><path class="cls-12" d="M1004.26,512.84a1.33,1.33,0,1,0,0-2.51H993.69v2.51h10.57Z" transform="translate(-863.8 -334.05)"/><path class="cls-13" d="M1004.26,516.71a1.33,1.33,0,1,0,0-2.51H993.69v2.51h10.57Z" transform="translate(-863.8 -334.05)"/><polygon class="cls-14" points="139.63 15.01 7.11 15.01 13.39 0 133.34 0 139.63 15.01"/><polygon class="cls-15" points="141.36 20.41 5.37 20.41 7.11 15.01 139.63 15.01 141.36 20.41"/><rect class="cls-1" y="34.6" width="146.73" height="0.96"/><rect class="cls-16" y="35.56" width="146.73" height="0.96"/><path class="cls-17" d="M1005.63,400.47c0,2.53-2.71,4.58-6,4.58H920c-3.34,0-6-2-6-4.58v-21c0-2.53,2.71-4.57,6-4.57h79.57c3.34,0,6,2,6,4.57v21Z" transform="translate(-863.8 -334.05)"/><path class="cls-18" d="M1001.59,390.73a2.78,2.78,0,0,1-2.78,2.78h-5.68a2.78,2.78,0,0,1-2.78-2.78h0a2.78,2.78,0,0,1,2.78-2.78h5.68a2.78,2.78,0,0,1,2.78,2.78h0Z" transform="translate(-863.8 -334.05)"/><path class="cls-19" d="M1001.59,382.76a2.78,2.78,0,0,1-2.78,2.78h-5.68a2.78,2.78,0,0,1-2.78-2.78h0a2.78,2.78,0,0,1,2.78-2.78h5.68a2.78,2.78,0,0,1,2.78,2.78h0Z" transform="translate(-863.8 -334.05)"/><path class="cls-20" d="M1001.59,398.7a2.78,2.78,0,0,1-2.78,2.78h-5.68a2.78,2.78,0,0,1-2.78-2.78h0a2.78,2.78,0,0,1,2.78-2.78h5.68a2.78,2.78,0,0,1,2.78,2.78h0Z" transform="translate(-863.8 -334.05)"/><circle class="cls-21" cx="108.48" cy="45.95" r="2.25"/><circle class="cls-22" cx="108.48" cy="45.37" r="2.25"/><circle class="cls-21" cx="114.63" cy="45.95" r="2.25"/><circle class="cls-23" cx="114.63" cy="45.37" r="2.25"/><circle class="cls-21" cx="120.77" cy="45.95" r="2.25"/><circle class="cls-24" cx="120.77" cy="45.37" r="2.25"/><circle class="cls-21" cx="108.48" cy="52.68" r="2.25"/><circle class="cls-25" cx="108.48" cy="52.1" r="2.25"/><circle class="cls-21" cx="114.63" cy="52.68" r="2.25"/><circle class="cls-26" cx="114.63" cy="52.1" r="2.25"/><circle class="cls-21" cx="120.77" cy="52.68" r="2.25"/><circle class="cls-27" cx="120.77" cy="52.1" r="2.25"/><circle class="cls-21" cx="108.48" cy="59.41" r="2.25"/><circle class="cls-28" cx="108.48" cy="58.82" r="2.25"/><circle class="cls-21" cx="114.63" cy="59.41" r="2.25"/><circle class="cls-29" cx="114.63" cy="58.82" r="2.25"/><circle class="cls-21" cx="120.77" cy="59.41" r="2.25"/><circle class="cls-30" cx="120.77" cy="58.82" r="2.25"/><circle class="cls-21" cx="120.77" cy="66.13" r="2.25"/><circle class="cls-31" cx="120.77" cy="65.55" r="2.25"/><circle class="cls-21" cx="114.63" cy="66.13" r="2.25"/><circle class="cls-32" cx="114.63" cy="65.55" r="2.25"/><circle class="cls-21" cx="108.48" cy="66.13" r="2.25"/><circle class="cls-33" cx="108.48" cy="65.55" r="2.25"/><g class="cls-34"><path class="cls-35" d="M1001.59,390.73a2.78,2.78,0,0,1-2.78,2.78h-5.68a2.78,2.78,0,0,1-2.78-2.78h0a2.78,2.78,0,0,1,2.78-2.78h5.68a2.78,2.78,0,0,1,2.78,2.78h0Z" transform="translate(-863.8 -334.05)"/><path class="cls-35" d="M1001.59,382.76a2.78,2.78,0,0,1-2.78,2.78h-5.68a2.78,2.78,0,0,1-2.78-2.78h0a2.78,2.78,0,0,1,2.78-2.78h5.68a2.78,2.78,0,0,1,2.78,2.78h0Z" transform="translate(-863.8 -334.05)"/><path class="cls-35" d="M1001.59,398.7a2.78,2.78,0,0,1-2.78,2.78h-5.68a2.78,2.78,0,0,1-2.78-2.78h0a2.78,2.78,0,0,1,2.78-2.78h5.68a2.78,2.78,0,0,1,2.78,2.78h0Z" transform="translate(-863.8 -334.05)"/></g><path class="cls-18" d="M1001.59,389.77a2.78,2.78,0,0,1-2.78,2.78h-5.68a2.78,2.78,0,0,1-2.78-2.78h0a2.78,2.78,0,0,1,2.78-2.78h5.68a2.78,2.78,0,0,1,2.78,2.78h0Z" transform="translate(-863.8 -334.05)"/><path class="cls-19" d="M1001.59,381.8a2.78,2.78,0,0,1-2.78,2.78h-5.68a2.78,2.78,0,0,1-2.78-2.78h0a2.78,2.78,0,0,1,2.78-2.78h5.68a2.78,2.78,0,0,1,2.78,2.78h0Z" transform="translate(-863.8 -334.05)"/><path class="cls-20" d="M1001.59,397.74a2.78,2.78,0,0,1-2.78,2.78h-5.68a2.78,2.78,0,0,1-2.78-2.78h0a2.78,2.78,0,0,1,2.78-2.78h5.68a2.78,2.78,0,0,1,2.78,2.78h0Z" transform="translate(-863.8 -334.05)"/><rect class="cls-36" x="53.6" y="43.76" width="48.34" height="24.33"/><path class="cls-5" d="M965.19,378.36V401.6H917.94V378.36h47.25m1.09-1.09H916.86v25.42h49.42V377.27h0Z" transform="translate(-863.8 -334.05)"/><rect class="cls-37" x="54.14" y="44.31" width="47.25" height="3.65"/><rect class="cls-36" x="56.36" y="50.85" width="18.98" height="9.37"/><path class="cls-38" d="M938.9,385.15V394H920.41v-8.88H938.9m0.49-.49H919.92v9.86h19.47v-9.86h0Z" transform="translate(-863.8 -334.05)"/><rect class="cls-37" x="56.6" y="51.16" width="18.49" height="1.81"/><rect class="cls-1" x="57.84" y="55.83" width="12.33" height="0.96"/><rect class="cls-1" x="57.84" y="57.6" width="15.04" height="0.96"/><rect class="cls-39" x="57.84" y="54.07" width="4.36" height="0.96"/><rect class="cls-39" x="63.34" y="54.07" width="7.89" height="0.96"/><rect class="cls-36" x="79.86" y="50.92" width="18.98" height="14.26"/><path class="cls-1" d="M962.4,385.22V399H943.91V385.22H962.4m0.49-.49H943.42v14.75h19.47V384.73h0Z" transform="translate(-863.8 -334.05)"/><rect class="cls-37" x="80.11" y="51.16" width="18.49" height="1.81"/><rect class="cls-1" x="81.26" y="55.83" width="13.39" height="0.96"/><rect class="cls-1" x="81.26" y="57.6" width="12.33" height="0.96"/><rect class="cls-39" x="81.26" y="54.07" width="5.41" height="0.96"/><rect class="cls-39" x="87.95" y="54.07" width="1.96" height="0.96"/><rect class="cls-39" x="81.26" y="60.14" width="7.89" height="0.96"/><rect class="cls-1" x="81.26" y="61.9" width="12.33" height="0.96"/><rect class="cls-39" x="91.16" y="54.07" width="3" height="0.96"/><rect class="cls-40" x="56.48" y="61.51" width="18.61" height="3.35"/><rect class="cls-36" x="56.5" y="45.48" width="5.76" height="1.27"/><rect class="cls-36" x="63.78" y="45.48" width="10.43" height="1.27"/><rect class="cls-41" x="35.78" y="128.99" width="64.44" height="2.6"/><rect class="cls-41" x="35.78" y="134.19" width="64.44" height="2.6"/><rect class="cls-41" x="35.78" y="139.38" width="64.44" height="2.6"/><rect class="cls-41" x="35.78" y="144.58" width="64.44" height="2.6"/><rect class="cls-41" x="35.78" y="149.78" width="64.44" height="2.6"/><rect class="cls-41" x="35.78" y="154.97" width="32.22" height="2.6"/><rect class="cls-41" x="35.78" y="160.17" width="32.22" height="2.6"/><rect class="cls-41" x="35.78" y="165.36" width="32.22" height="2.6"/><rect class="cls-41" x="35.78" y="170.56" width="32.22" height="2.6"/><rect class="cls-41" x="35.78" y="175.76" width="32.22" height="2.6"/><rect class="cls-41" x="35.78" y="123.99" width="64.44" height="2.6"/><rect class="cls-42" x="71.57" y="154.97" width="28.65" height="23.38"/><polygon class="cls-41" points="37.42 115.52 98.94 115.52 98.51 112.92 37.83 112.92 37.42 115.52"/><polygon class="cls-41" points="36.6 120.71 99.78 120.71 99.36 118.12 37.01 118.12 36.6 120.71"/><polygon class="cls-41" points="38.24 110.32 98.09 110.32 97.67 107.72 38.65 107.72 38.24 110.32"/><rect class="cls-38" y="195.79" width="5.37" height="0.96"/><rect class="cls-38" x="129.89" y="195.79" width="16.84" height="0.96"/><rect class="cls-38" x="5.37" y="203.73" width="124.52" height="0.96"/></svg>