<svg id="Door" xmlns="http://www.w3.org/2000/svg" viewBox="0 0 106.78 388.85"><defs><style>.cls-1{fill:#703232;}.cls-2{fill:#e6e6e6;}</style></defs><title>door</title><path class="cls-1" d="M52.52,606.25l83.66-80.86C129.56,363.35,117.72,226,117.72,226c-9.39-.45-81.62-8.56-81.63-8.56h0C36.66,340.79,52.52,606.25,52.52,606.25Z" transform="translate(-36.09 -217.4)"/><path class="cls-2" d="M117.16,410.72a21.66,21.66,0,0,0,4.6,1c1.82,0.09,16.89-10.27,16.89-10.27s3.1-.12,4.23,5.48c0,0-17,9.48-18.67,9.87s-8.45-2.18-9.23-2.25S112.56,409.67,117.16,410.72Z" transform="translate(-36.09 -217.4)"/></svg>