<svg id="Door_list" data-name="Door list" xmlns="http://www.w3.org/2000/svg" viewBox="0 0 131.37 424.92"><defs><style>.cls-1{fill:#d6bd85;}.cls-2{fill:#f5d38e;}</style></defs><title>door_list</title><path class="cls-1" d="M13.94,202.18s-4,322.57,4.54,413.76l15.88,7.55c-9.09-85.4-10.9-424.92-10.9-424.92Z" transform="translate(-13 -198.57)"/><path class="cls-2" d="M36.09,217.09h0l0.07-16.93h0l-12.68-1.59s1.8,339.52,10.9,424.92L36.09,217.1h0Z" transform="translate(-13 -198.57)"/><path class="cls-2" d="M125.65,521.48L47.91,583l4.46,19.4s-15.71-262-16.27-385.34L34.36,623.49l110-106.33s-11.31-258.66-18.51-300c0,0-61.61-12.48-89.7-17l-0.07,16.93s72.23,8.11,81.63,8.56c0,0,11.71,134.42,18.33,296.46Z" transform="translate(-13 -198.57)"/><path class="cls-1" d="M136.17,525.08l-10.52-3.61s-6.27-124.87-17.42-296.63l9.48,0.81S145.42,476,136.17,525.08Z" transform="translate(-13 -198.57)"/></svg>