<?xml version="1.0" encoding="utf-8"?>
<!-- Generator: Adobe Illustrator 19.2.1, SVG Export Plug-In . SVG Version: 6.00 Build 0)  -->
<svg version="1.1" id="Layer_1" xmlns="http://www.w3.org/2000/svg" xmlns:xlink="http://www.w3.org/1999/xlink" x="0px" y="0px"
	 viewBox="0 0 1200 800" style="enable-background:new 0 0 1200 800;" xml:space="preserve">
<style type="text/css">
	.st0{fill:url(#SVGID_1_);}
	.st1{opacity:0.15;fill:#383432;}
	.st2{fill:url(#SVGID_2_);}
	.st3{fill:#FFFFFF;}
	.st4{fill:#68A030;}
	.st5{fill:url(#SVGID_3_);}
	.st6{fill:url(#SVGID_4_);}
	.st7{fill:url(#SVGID_5_);}
	.st8{fill:url(#SVGID_6_);}
	.st9{fill:#F8BDA7;}
	.st10{fill:url(#SVGID_7_);}
	.st11{fill:url(#SVGID_8_);}
	.st12{fill:url(#SVGID_9_);}
	.st13{fill:url(#SVGID_10_);}
	.st14{opacity:0.2;fill:#383432;}
	.st15{fill:#B7A4D0;}
	.st16{fill:#A390C0;}
	.st17{fill:#957DB1;}
	.st18{fill:#8A77A7;}
	.st19{fill:url(#SVGID_11_);}
	.st20{opacity:0.6;fill:#010202;}
	.st21{fill:url(#SVGID_12_);}
	.st22{fill:url(#SVGID_13_);}
	.st23{fill:url(#SVGID_14_);}
	.st24{fill:url(#SVGID_15_);}
	.st25{fill:url(#SVGID_16_);}
	.st26{fill:url(#SVGID_17_);}
	.st27{fill:url(#SVGID_18_);}
	.st28{fill:url(#SVGID_19_);}
	.st29{fill:url(#SVGID_20_);}
	.st30{fill:url(#SVGID_21_);}
	.st31{fill:url(#SVGID_22_);}
	.st32{fill:url(#SVGID_23_);}
	.st33{fill:url(#SVGID_24_);}
	.st34{fill:url(#SVGID_25_);}
	.st35{fill:url(#SVGID_26_);}
	.st36{fill:url(#SVGID_27_);}
	.st37{fill:url(#SVGID_28_);}
	.st38{fill:url(#SVGID_29_);}
	.st39{fill:url(#SVGID_30_);}
	.st40{fill:url(#SVGID_31_);}
	.st41{fill:url(#SVGID_32_);}
	.st42{fill:url(#SVGID_33_);}
	.st43{fill:url(#SVGID_34_);}
	.st44{fill:url(#SVGID_35_);}
	.st45{fill:url(#SVGID_36_);}
	.st46{fill:url(#SVGID_37_);}
	.st47{fill:url(#SVGID_38_);}
	.st48{fill:url(#SVGID_39_);}
	.st49{fill:url(#SVGID_40_);}
	.st50{fill:url(#SVGID_41_);}
	.st51{fill:url(#SVGID_42_);}
	.st52{fill:url(#SVGID_43_);}
	.st53{fill:url(#SVGID_44_);}
	.st54{fill:url(#SVGID_45_);}
	.st55{fill:url(#SVGID_46_);}
	.st56{fill:url(#SVGID_47_);}
	.st57{fill:url(#SVGID_48_);}
	.st58{fill:url(#SVGID_49_);}
	.st59{fill:url(#SVGID_50_);}
	.st60{fill:url(#SVGID_51_);}
	.st61{fill:url(#SVGID_52_);}
	.st62{fill:url(#SVGID_53_);}
	.st63{fill:url(#SVGID_54_);}
	.st64{fill:url(#SVGID_55_);}
	.st65{fill:url(#SVGID_56_);}
	.st66{opacity:0.5;fill:#010202;}
	.st67{fill:url(#SVGID_57_);}
	.st68{fill:url(#SVGID_58_);}
	.st69{fill:url(#SVGID_59_);}
	.st70{fill:url(#SVGID_60_);}
	.st71{fill:url(#SVGID_61_);}
	.st72{fill:url(#SVGID_62_);}
	.st73{fill:url(#SVGID_63_);}
	.st74{fill:url(#SVGID_64_);}
	.st75{fill:url(#SVGID_65_);}
	.st76{fill:url(#SVGID_66_);}
	.st77{fill:url(#SVGID_67_);}
	.st78{fill:url(#SVGID_68_);}
	.st79{fill:url(#SVGID_69_);}
	.st80{fill:url(#SVGID_70_);}
	.st81{fill:url(#SVGID_71_);}
	.st82{fill:url(#SVGID_72_);}
	.st83{fill:url(#SVGID_73_);}
	.st84{fill:url(#SVGID_74_);}
	.st85{fill:url(#SVGID_75_);}
	.st86{fill:url(#SVGID_76_);}
	.st87{fill:url(#SVGID_77_);}
	.st88{fill:url(#SVGID_78_);}
	.st89{fill:url(#SVGID_79_);}
	.st90{fill:url(#SVGID_80_);}
	.st91{fill:url(#SVGID_81_);}
	.st92{fill:url(#SVGID_82_);}
	.st93{fill:url(#SVGID_83_);}
	.st94{fill:url(#SVGID_84_);}
	.st95{opacity:0.5;fill:url(#SVGID_85_);}
	.st96{fill:url(#SVGID_86_);}
	.st97{fill:url(#SVGID_87_);}
	.st98{opacity:0.5;fill:url(#SVGID_88_);}
	.st99{fill:url(#SVGID_89_);}
	.st100{fill:url(#SVGID_90_);}
	.st101{fill:url(#SVGID_91_);}
	.st102{fill:url(#SVGID_92_);}
	.st103{opacity:0.5;fill:url(#SVGID_93_);}
</style>
<g>
	<g>
		<g>
			<linearGradient id="SVGID_1_" gradientUnits="userSpaceOnUse" x1="950.7999" y1="741.0838" x2="1200" y2="741.0838">
				<stop  offset="0" style="stop-color:#EDEDED"/>
				<stop  offset="1" style="stop-color:#DADADA"/>
			</linearGradient>
			<rect x="950.8" y="682.2" class="st0" width="249.2" height="117.8"/>
			<rect x="984.6" y="711.4" class="st1" width="186" height="44.9"/>
			<linearGradient id="SVGID_2_" gradientUnits="userSpaceOnUse" x1="1038.7321" y1="694.9294" x2="1088.4689" y2="744.6663">
				<stop  offset="0" style="stop-color:#EDEDED"/>
				<stop  offset="1" style="stop-color:#DADADA"/>
			</linearGradient>
			<rect x="980.2" y="706.9" class="st2" width="186" height="44.9"/>
			<polygon class="st3" points="1166.2,706.9 984.6,706.9 984.6,706.9 980.2,706.9 980.2,706.9 980.2,711.4 980.2,751.8 
				984.6,751.8 984.6,711.4 1166.2,711.4 			"/>
			<g>
				<path class="st4" d="M1116.3,612.5c0,0,9.9,7.3,5.4,16.8c-4.5,9.5-23,16.5-23,16.5L1116.3,612.5z"/>
				<linearGradient id="SVGID_3_" gradientUnits="userSpaceOnUse" x1="1098.5063" y1="628.1197" x2="1112.6692" y2="629.2386">
					<stop  offset="0" style="stop-color:#A4C616"/>
					<stop  offset="0.2603" style="stop-color:#9FC319"/>
					<stop  offset="0.5472" style="stop-color:#91B922"/>
					<stop  offset="0.8457" style="stop-color:#79A92B"/>
					<stop  offset="1" style="stop-color:#68A030"/>
				</linearGradient>
				<path class="st5" d="M1116.3,612.5c0,0-11.6-4.1-16.9,5c-5.3,9.1-0.7,28.3-0.7,28.3L1116.3,612.5z"/>
				
					<linearGradient id="SVGID_4_" gradientUnits="userSpaceOnUse" x1="1097.192" y1="677.27" x2="1118.1543" y2="648.5215" gradientTransform="matrix(0.9897 -0.143 0.143 0.9897 -83.6471 131.7041)">
					<stop  offset="0" style="stop-color:#5D8F2A"/>
					<stop  offset="0.3933" style="stop-color:#5E902B;stop-opacity:0.6067"/>
					<stop  offset="0.652" style="stop-color:#60942C;stop-opacity:0.348"/>
					<stop  offset="0.8712" style="stop-color:#649A2E;stop-opacity:0.1288"/>
					<stop  offset="1" style="stop-color:#68A030;stop-opacity:0"/>
				</linearGradient>
				<path class="st6" d="M1102.7,620.8L1102.7,620.8l10.5-2.9l-3.5,6.6l-7.9,2.3l-0.1,0.6l7.6-2.2l-3.5,6.6l-5,1.4l-0.1,0.6l4.7-1.4
					l-3.1,5.8l-3.6,6.8c0.1,0.3,0.1,0.4,0.1,0.4s0.2-0.1,0.4-0.2l3.6-6.8l3.1-5.8l1.5,4.7l0.5-0.4l-1.6-4.9l3.5-6.6l2.5,7.5l0.5-0.4
					l-2.6-7.8l3.5-6.6l3.4,10.3l0.1,0l0.4-0.4l-3.5-10.6l2.5-4.8l-0.5-0.3l-2.5,4.8l-10.8,3.1L1102.7,620.8z"/>
				<path class="st4" d="M1159.1,602.9c0,0-1.4,12.2,8.6,15.4c10,3.1,27.7-5.7,27.7-5.7L1159.1,602.9z"/>
				
					<linearGradient id="SVGID_5_" gradientUnits="userSpaceOnUse" x1="670.8909" y1="838.5131" x2="685.0512" y2="839.6318" gradientTransform="matrix(-0.6788 0.7344 0.7344 0.6788 1022.2443 -461.4528)">
					<stop  offset="0" style="stop-color:#A4C616"/>
					<stop  offset="0.2603" style="stop-color:#9FC319"/>
					<stop  offset="0.5472" style="stop-color:#91B922"/>
					<stop  offset="0.8457" style="stop-color:#79A92B"/>
					<stop  offset="1" style="stop-color:#68A030"/>
				</linearGradient>
				<path class="st7" d="M1159.1,602.9c0,0,4.9-11.3,15.1-9c10.2,2.3,21.2,18.7,21.2,18.7L1159.1,602.9z"/>
				
					<linearGradient id="SVGID_6_" gradientUnits="userSpaceOnUse" x1="644.1867" y1="824.0849" x2="665.1481" y2="795.3376" gradientTransform="matrix(-0.7768 0.6298 0.6298 0.7768 1176.1162 -433.4712)">
					<stop  offset="0" style="stop-color:#5D8F2A"/>
					<stop  offset="0.3933" style="stop-color:#5E902B;stop-opacity:0.6067"/>
					<stop  offset="0.652" style="stop-color:#60942C;stop-opacity:0.348"/>
					<stop  offset="0.8712" style="stop-color:#649A2E;stop-opacity:0.1288"/>
					<stop  offset="1" style="stop-color:#68A030;stop-opacity:0"/>
				</linearGradient>
				<path class="st8" d="M1174.4,598.5L1174.4,598.5l-9.3,5.7l7.3,1.9l7-4.2l0.5,0.4l-6.8,4.1l7.3,1.9l4.5-2.7l0.5,0.4l-4.2,2.5
					l6.4,1.7l7.5,2c0.2,0.2,0.3,0.4,0.3,0.4s-0.1,0.1-0.4,0.2l-7.5-2l-6.4-1.7l2.4,4.3l-0.6,0l-2.5-4.5l-7.3-1.9l3.8,6.9l-0.6,0.1
					l-4-7.2l-7.3-1.9l5.3,9.5l-0.1,0l-0.6,0l-5.4-9.8l-5.2-1.4l0.2-0.6l5.2,1.4l9.6-5.8L1174.4,598.5z"/>
				<polygon class="st1" points="1120,650.4 1120.4,654.9 1170.3,654.9 1170.7,650.4 				"/>
				<polygon class="st9" points="1117.6,640.4 1118.5,650.4 1123,650.4 1122,640.4 				"/>
				<linearGradient id="SVGID_7_" gradientUnits="userSpaceOnUse" x1="1117.5649" y1="645.4225" x2="1173.2023" y2="645.4225">
					<stop  offset="0" style="stop-color:#F6A667"/>
					<stop  offset="1" style="stop-color:#C46572"/>
				</linearGradient>
				<polygon class="st10" points="1122,640.4 1123,650.4 1172.3,650.4 1173.2,640.4 				"/>
				<linearGradient id="SVGID_8_" gradientUnits="userSpaceOnUse" x1="1122.0189" y1="645.4225" x2="1212.833" y2="645.4225">
					<stop  offset="0" style="stop-color:#F6A667"/>
					<stop  offset="1" style="stop-color:#C46572"/>
				</linearGradient>
				<polygon class="st11" points="1122,640.4 1123,650.4 1172.3,650.4 1173.2,640.4 				"/>
				<polygon class="st9" points="1124.5,650.4 1120,650.4 1120.4,654.9 1122.8,682.2 1127.3,682.2 1124.9,654.9 				"/>
				<linearGradient id="SVGID_9_" gradientUnits="userSpaceOnUse" x1="1120.0413" y1="666.2856" x2="1170.7246" y2="666.2856">
					<stop  offset="0" style="stop-color:#F6A667"/>
					<stop  offset="1" style="stop-color:#C46572"/>
				</linearGradient>
				<polygon class="st12" points="1170.7,650.4 1124.5,650.4 1124.9,654.9 1127.3,682.2 1167.9,682.2 1170.3,654.9 				"/>
				<linearGradient id="SVGID_10_" gradientUnits="userSpaceOnUse" x1="1124.4952" y1="666.2856" x2="1213.886" y2="666.2856">
					<stop  offset="0" style="stop-color:#F6A667"/>
					<stop  offset="1" style="stop-color:#C46572"/>
				</linearGradient>
				<polygon class="st13" points="1170.7,650.4 1124.5,650.4 1124.9,654.9 1127.3,682.2 1167.9,682.2 1170.3,654.9 				"/>
				<polygon class="st1" points="1120,650.4 1120.4,654.9 1170.3,654.9 1170.7,650.4 				"/>
				<rect x="1120.5" y="548.9" class="st4" width="3.8" height="14.2"/>
				<path class="st4" d="M1143.9,610.8c-1.4-5-3.4-8.3-5.9-9.9c-2.1-1.3-4.4-1.5-6.9-0.5c-0.5,0.1-1.6,0.3-3,0.7
					c-0.5-0.1-0.9-0.3-1-0.4c-2-1.2-2.7-5.4-2.8-6.6v-20.5c-1-1.8-1.6-3.6-2-5.3c-0.3,1.6-0.9,3.3-1.8,4.9v21.1
					c0,0.6,0.4,5.6,3.1,8.5c-4.2,2-8.8,5.6-9.9,12l3.7,0.6c1.1-6.5,7.4-9.4,11.2-10.5c1,0,2.3-0.3,3.6-0.9c1.9-0.8,3-0.3,3.6,0.1
					c2.2,1.4,7.2,7.8,7.2,36.4h3.8c0-9.9-0.6-18-1.7-24.3c1-2.2,5.9-11.5,15.7-11.5v-3.8C1152.2,600.9,1146.7,606.6,1143.9,610.8z"
					/>
				<path class="st4" d="M1124.3,573.5v-10.4h-3.8l0,10c0.9-1.6,1.4-3.3,1.8-4.9C1122.6,569.9,1123.3,571.7,1124.3,573.5z"/>
				<path class="st14" d="M1124.3,573.5v-10.4h-3.8l0,10c0.9-1.6,1.4-3.3,1.8-4.9C1122.6,569.9,1123.3,571.7,1124.3,573.5z"/>
				<path class="st15" d="M1123.7,544.9c0,0,25.4-2.7,17.8-30.9L1123.7,544.9z"/>
				<path class="st16" d="M1125.2,547.3c0,0,15-20.6,35.6,0H1125.2z"/>
				<path class="st17" d="M1125.2,547.3c0,0,15,20.6,35.6,0H1125.2z"/>
				<path class="st15" d="M1123.7,549.7c0,0,25.4,2.7,17.8,30.9L1123.7,549.7z"/>
				<path class="st18" d="M1123.7,549.7c0,0-10.3,23.3,17.8,30.9L1123.7,549.7z"/>
				<path class="st17" d="M1120.9,549.7c0,0,10.3,23.3-17.8,30.9L1120.9,549.7z"/>
				<path class="st16" d="M1120.9,549.7c0,0-25.4,2.7-17.8,30.9L1120.9,549.7z"/>
				<path class="st17" d="M1119.6,547.3c0,0-15,20.6-35.6,0H1119.6z"/>
				<path class="st15" d="M1119.6,547.3c0,0-15-20.6-35.6,0H1119.6z"/>
				<path class="st15" d="M1120.9,544.9c0,0,10.3-23.3-17.8-30.9L1120.9,544.9z"/>
				<path class="st17" d="M1120.9,544.9c0,0-25.4-2.7-17.8-30.9L1120.9,544.9z"/>
				<path class="st16" d="M1123.7,544.9c0,0-10.3-23.3,17.8-30.9L1123.7,544.9z"/>
				
					<linearGradient id="SVGID_11_" gradientUnits="userSpaceOnUse" x1="843.5573" y1="344.0296" x2="853.6401" y2="354.1124" gradientTransform="matrix(0 1 -1 0 1471.6699 -301.1909)">
					<stop  offset="0" style="stop-color:#FFEEC7"/>
					<stop  offset="1" style="stop-color:#DABEA6"/>
				</linearGradient>
				<circle class="st19" cx="1122.7" cy="547.3" r="7.1"/>
			</g>
		</g>
		<path class="st20" d="M1167.9,682.2l2.4-27.3l0.4-4.5h1.5l0.9-10h-26.3c0-9.9-0.6-18-1.7-24.3c1-2.1,5.3-10.3,13.9-11.4
			c0.1,3.6,1.1,11.1,8.7,13.4c10,3.1,27.7-5.7,27.7-5.7s-11-16.4-21.2-18.7c-7.5-1.7-12.1,4-14.1,7.1c-8.3,0.3-13.5,5.7-16.2,9.8
			c-1.4-5-3.4-8.3-5.9-9.9c-2.1-1.3-4.4-1.5-6.9-0.5c-0.5,0.1-1.6,0.3-3,0.7c-0.5-0.1-0.9-0.3-1-0.4c-2-1.2-2.7-5.4-2.8-6.6v-20.5
			v-4.4c2.6,4.6,7.7,9,17.2,11.5c3.5-13.2-0.2-20.8-5.1-25.2c6.2,2.1,14.7,1.6,24.4-8.1c-9.7-9.7-18.2-10.3-24.4-8.1
			c4.9-4.4,8.6-12,5.1-25.2c-13.1,3.5-17.9,10.5-19.2,16.9c-1.3-6.4-6.1-13.4-19.2-16.9c-3.5,13.1,0.1,20.7,4.9,25
			c-6.2-2-14.5-1.2-24,8.3c9.5,9.5,17.8,10.2,24,8.3c-4.9,4.4-8.4,12-4.9,25c9.8-2.6,14.9-7.2,17.5-12l0,4.5v21.1
			c0,0.6,0.4,5.6,3.1,8.5c-3.6,1.7-7.4,4.6-9.2,9.3c-3.5-0.7-11.1-1.4-15.1,5.4c-5.3,9.1-0.7,28.3-0.7,28.3s18.5-7,23-16.5
			c3.4-7.1-1.3-12.9-3.9-15.4c1.8-5.4,7.3-7.9,10.8-9c1,0,2.3-0.3,3.6-0.9c1.9-0.8,3-0.3,3.6,0.1c2.2,1.4,7.2,7.8,7.2,36.4H1122
			h-4.5l0.9,10h1.5l0.4,4.5l2.4,27.3h-172V800H1200V682.2H1167.9z M1122.2,540.2c0-0.1,0-0.1,0-0.2
			C1122.3,540.1,1122.3,540.1,1122.2,540.2C1122.3,540.2,1122.3,540.2,1122.2,540.2z M1128.8,551C1128.8,551,1128.8,551,1128.8,551
			C1128.8,551,1128.8,551,1128.8,551C1128.8,551,1128.8,551,1128.8,551z M1128.8,543.6C1128.8,543.6,1128.8,543.6,1128.8,543.6
			C1128.8,543.6,1128.8,543.6,1128.8,543.6C1128.8,543.6,1128.8,543.6,1128.8,543.6z M1116.5,543.8c0,0,0,0.1-0.1,0.1
			c-0.1-0.1-0.2-0.2-0.3-0.2C1116.3,543.8,1116.4,543.8,1116.5,543.8z M1116.4,550.6c0,0,0,0.1,0.1,0.1c-0.1,0-0.2,0.1-0.3,0.1
			C1116.3,550.8,1116.4,550.7,1116.4,550.6z"/>
	</g>
	<g>
		<linearGradient id="SVGID_12_" gradientUnits="userSpaceOnUse" x1="173.3039" y1="754.7715" x2="495.0421" y2="1076.5098">
			<stop  offset="0" style="stop-color:#C39065"/>
			<stop  offset="1" style="stop-color:#95745C"/>
		</linearGradient>
		<rect x="123" y="771.5" class="st21" width="134" height="0"/>
		<linearGradient id="SVGID_13_" gradientUnits="userSpaceOnUse" x1="304.8493" y1="623.2261" x2="626.5875" y2="944.9644">
			<stop  offset="0" style="stop-color:#C39065"/>
			<stop  offset="1" style="stop-color:#95745C"/>
		</linearGradient>
		<polygon class="st22" points="385,771.5 521.2,771.5 521.2,800 521.2,800 521.2,771.5 385,771.5 385,771.5 		"/>
		<linearGradient id="SVGID_14_" gradientUnits="userSpaceOnUse" x1="332.3853" y1="473.7405" x2="413.6842" y2="555.0393">
			<stop  offset="0" style="stop-color:#D0D0D0"/>
			<stop  offset="1" style="stop-color:#DEDEDE"/>
		</linearGradient>
		<path class="st23" d="M442.5,583.9C442.5,583.9,442.5,583.8,442.5,583.9L442.5,583.9C442.5,583.8,442.5,583.9,442.5,583.9z"/>
		<linearGradient id="SVGID_15_" gradientUnits="userSpaceOnUse" x1="333.9842" y1="466.1407" x2="587.9444" y2="720.101">
			<stop  offset="0" style="stop-color:#F6F6F6"/>
			<stop  offset="1" style="stop-color:#DEDEDE"/>
		</linearGradient>
		<path class="st24" d="M440.9,572.7c0.3,0.5,0.6,1,0.8,1.6C441.5,573.7,441.3,573.2,440.9,572.7z"/>
		<linearGradient id="SVGID_16_" gradientUnits="userSpaceOnUse" x1="332.9595" y1="467.1653" x2="586.9198" y2="721.1256">
			<stop  offset="0" style="stop-color:#F6F6F6"/>
			<stop  offset="1" style="stop-color:#DEDEDE"/>
		</linearGradient>
		<path class="st25" d="M433.3,568.7L433.3,568.7c1,0,1.9,0.1,2.7,0.4C435.2,568.8,434.3,568.7,433.3,568.7z"/>
		<linearGradient id="SVGID_17_" gradientUnits="userSpaceOnUse" x1="213.6541" y1="586.4707" x2="467.6144" y2="840.431">
			<stop  offset="0" style="stop-color:#F6F6F6"/>
			<stop  offset="1" style="stop-color:#DEDEDE"/>
		</linearGradient>
		<path class="st26" d="M200.3,574.3c0.2-0.5,0.5-1.1,0.8-1.6C200.8,573.2,200.5,573.7,200.3,574.3z"/>
		<linearGradient id="SVGID_18_" gradientUnits="userSpaceOnUse" x1="333.5088" y1="466.6161" x2="587.469" y2="720.5764">
			<stop  offset="0" style="stop-color:#F6F6F6"/>
			<stop  offset="1" style="stop-color:#DEDEDE"/>
		</linearGradient>
		<path class="st27" d="M441.8,574.3c0.2,0.5,0.4,1.1,0.5,1.7C442.2,575.4,442,574.8,441.8,574.3z"/>
		<linearGradient id="SVGID_19_" gradientUnits="userSpaceOnUse" x1="212.4881" y1="587.6368" x2="466.4484" y2="841.597">
			<stop  offset="0" style="stop-color:#F6F6F6"/>
			<stop  offset="1" style="stop-color:#DEDEDE"/>
		</linearGradient>
		<path class="st28" d="M199.7,576c0.1-0.6,0.3-1.2,0.5-1.7C200,574.8,199.9,575.4,199.7,576z"/>
		<linearGradient id="SVGID_20_" gradientUnits="userSpaceOnUse" x1="333.7765" y1="466.3484" x2="587.7368" y2="720.3087">
			<stop  offset="0" style="stop-color:#F6F6F6"/>
			<stop  offset="1" style="stop-color:#DEDEDE"/>
		</linearGradient>
		<path class="st29" d="M436,569.1c0.6,0.2,1.1,0.4,1.6,0.7C437.2,569.5,436.6,569.3,436,569.1z"/>
		<linearGradient id="SVGID_21_" gradientUnits="userSpaceOnUse" x1="334.1477" y1="465.9771" x2="588.108" y2="719.9374">
			<stop  offset="0" style="stop-color:#F6F6F6"/>
			<stop  offset="1" style="stop-color:#DEDEDE"/>
		</linearGradient>
		<path class="st30" d="M440.9,572.7c-0.8-1.2-1.9-2.2-3.2-2.9C439,570.5,440.1,571.5,440.9,572.7z"/>
		<linearGradient id="SVGID_22_" gradientUnits="userSpaceOnUse" x1="216.1085" y1="584.0164" x2="470.0688" y2="837.9766">
			<stop  offset="0" style="stop-color:#F6F6F6"/>
			<stop  offset="1" style="stop-color:#DEDEDE"/>
		</linearGradient>
		<path class="st31" d="M204.4,569.8c-1,0.6-2,1.3-2.7,2.2C202.4,571.1,203.3,570.4,204.4,569.8z"/>
		<linearGradient id="SVGID_23_" gradientUnits="userSpaceOnUse" x1="323.8141" y1="707.2273" x2="406.4274" y2="789.8406">
			<stop  offset="0" style="stop-color:#F6F6F6"/>
			<stop  offset="1" style="stop-color:#DADADA"/>
		</linearGradient>
		<rect x="385" y="765.4" class="st32" width="0" height="6.1"/>
		<linearGradient id="SVGID_24_" gradientUnits="userSpaceOnUse" x1="270.3289" y1="626.4684" x2="270.3289" y2="760.4774">
			<stop  offset="0.9496" style="stop-color:#C8C8C8"/>
			<stop  offset="1" style="stop-color:#B4B4B4"/>
		</linearGradient>
		<path class="st33" d="M270.1,761.2c0.1-0.1,0.3-0.2,0.4-0.3C270.4,761,270.3,761.1,270.1,761.2z"/>
		<linearGradient id="SVGID_25_" gradientUnits="userSpaceOnUse" x1="367.5864" y1="626.4684" x2="367.5864" y2="760.4774">
			<stop  offset="0.9496" style="stop-color:#C8C8C8"/>
			<stop  offset="1" style="stop-color:#B4B4B4"/>
		</linearGradient>
		<path class="st34" d="M367.4,758.2c0.1,0.1,0.3,0.2,0.4,0.3C367.7,758.4,367.5,758.3,367.4,758.2z"/>
		<linearGradient id="SVGID_26_" gradientUnits="userSpaceOnUse" x1="365.2975" y1="626.4684" x2="365.2975" y2="760.4774">
			<stop  offset="0.9496" style="stop-color:#C8C8C8"/>
			<stop  offset="1" style="stop-color:#B4B4B4"/>
		</linearGradient>
		<path class="st35" d="M365.1,756.4c0.1,0.1,0.2,0.2,0.4,0.3C365.4,756.6,365.2,756.5,365.1,756.4z"/>
		<linearGradient id="SVGID_27_" gradientUnits="userSpaceOnUse" x1="364.2009" y1="626.4684" x2="364.2009" y2="760.4774">
			<stop  offset="0.9496" style="stop-color:#C8C8C8"/>
			<stop  offset="1" style="stop-color:#B4B4B4"/>
		</linearGradient>
		<path class="st36" d="M364.1,755.5c0.1,0.1,0.2,0.1,0.2,0.2C364.2,755.7,364.2,755.6,364.1,755.5z"/>
		<linearGradient id="SVGID_28_" gradientUnits="userSpaceOnUse" x1="366.4171" y1="626.4684" x2="366.4171" y2="760.4774">
			<stop  offset="0.9496" style="stop-color:#C8C8C8"/>
			<stop  offset="1" style="stop-color:#B4B4B4"/>
		</linearGradient>
		<path class="st37" d="M366.2,757.3c0.1,0.1,0.3,0.2,0.4,0.3C366.5,757.5,366.3,757.4,366.2,757.3z"/>
		<linearGradient id="SVGID_29_" gradientUnits="userSpaceOnUse" x1="276.7484" y1="626.4684" x2="276.7484" y2="760.4774">
			<stop  offset="0.9496" style="stop-color:#C8C8C8"/>
			<stop  offset="1" style="stop-color:#B4B4B4"/>
		</linearGradient>
		<path class="st38" d="M276.6,756.7c0.1-0.1,0.2-0.2,0.3-0.3C276.8,756.5,276.7,756.6,276.6,756.7z"/>
		<linearGradient id="SVGID_30_" gradientUnits="userSpaceOnUse" x1="268.9958" y1="626.4684" x2="268.9958" y2="760.4774">
			<stop  offset="0.9496" style="stop-color:#C8C8C8"/>
			<stop  offset="1" style="stop-color:#B4B4B4"/>
		</linearGradient>
		<path class="st39" d="M268.7,762c0.2-0.1,0.3-0.2,0.5-0.3C269.1,761.8,268.9,761.9,268.7,762z"/>
		<linearGradient id="SVGID_31_" gradientUnits="userSpaceOnUse" x1="273.1878" y1="626.4684" x2="273.1878" y2="760.4774">
			<stop  offset="0.9496" style="stop-color:#C8C8C8"/>
			<stop  offset="1" style="stop-color:#B4B4B4"/>
		</linearGradient>
		<path class="st40" d="M273.1,759.3c0.1-0.1,0.2-0.1,0.2-0.2C273.2,759.2,273.1,759.3,273.1,759.3z"/>
		<linearGradient id="SVGID_32_" gradientUnits="userSpaceOnUse" x1="274.4565" y1="626.4684" x2="274.4565" y2="760.4774">
			<stop  offset="0.9496" style="stop-color:#C8C8C8"/>
			<stop  offset="1" style="stop-color:#B4B4B4"/>
		</linearGradient>
		<path class="st41" d="M274.3,758.5c0.1-0.1,0.3-0.2,0.4-0.3C274.5,758.3,274.4,758.4,274.3,758.5z"/>
		<linearGradient id="SVGID_33_" gradientUnits="userSpaceOnUse" x1="275.6277" y1="626.4684" x2="275.6277" y2="760.4774">
			<stop  offset="0.9496" style="stop-color:#C8C8C8"/>
			<stop  offset="1" style="stop-color:#B4B4B4"/>
		</linearGradient>
		<path class="st42" d="M275.4,757.6c0.1-0.1,0.3-0.2,0.4-0.3C275.7,757.4,275.6,757.5,275.4,757.6z"/>
		<linearGradient id="SVGID_34_" gradientUnits="userSpaceOnUse" x1="368.8535" y1="626.4684" x2="368.8535" y2="760.4774">
			<stop  offset="0.9496" style="stop-color:#C8C8C8"/>
			<stop  offset="1" style="stop-color:#B4B4B4"/>
		</linearGradient>
		<path class="st43" d="M368.7,759.1c0.1,0.1,0.2,0.1,0.3,0.2C368.9,759.3,368.8,759.2,368.7,759.1z"/>
		<linearGradient id="SVGID_35_" gradientUnits="userSpaceOnUse" x1="271.6803" y1="626.4684" x2="271.6803" y2="760.4774">
			<stop  offset="0.9496" style="stop-color:#C8C8C8"/>
			<stop  offset="1" style="stop-color:#B4B4B4"/>
		</linearGradient>
		<path class="st44" d="M271.5,760.3c0.1-0.1,0.2-0.1,0.3-0.2C271.7,760.2,271.6,760.3,271.5,760.3z"/>
		<linearGradient id="SVGID_36_" gradientUnits="userSpaceOnUse" x1="261.5728" y1="626.4684" x2="261.5728" y2="760.4774">
			<stop  offset="0.9496" style="stop-color:#C8C8C8"/>
			<stop  offset="1" style="stop-color:#B4B4B4"/>
		</linearGradient>
		<path class="st45" d="M261.3,764.9c0.2,0,0.4-0.1,0.5-0.1C261.7,764.8,261.5,764.8,261.3,764.9z"/>
		<linearGradient id="SVGID_37_" gradientUnits="userSpaceOnUse" x1="263.0135" y1="626.4684" x2="263.0135" y2="760.4774">
			<stop  offset="0.9496" style="stop-color:#C8C8C8"/>
			<stop  offset="1" style="stop-color:#B4B4B4"/>
		</linearGradient>
		<path class="st46" d="M262.8,764.5c0.2,0,0.3-0.1,0.5-0.1C263.1,764.4,262.9,764.4,262.8,764.5z"/>
		<linearGradient id="SVGID_38_" gradientUnits="userSpaceOnUse" x1="264.5317" y1="626.4684" x2="264.5317" y2="760.4774">
			<stop  offset="0.9496" style="stop-color:#C8C8C8"/>
			<stop  offset="1" style="stop-color:#B4B4B4"/>
		</linearGradient>
		<path class="st47" d="M264.4,763.9c0.1,0,0.2-0.1,0.2-0.1C264.6,763.9,264.5,763.9,264.4,763.9z"/>
		<linearGradient id="SVGID_39_" gradientUnits="userSpaceOnUse" x1="267.6378" y1="626.4684" x2="267.6378" y2="760.4774">
			<stop  offset="0.9496" style="stop-color:#C8C8C8"/>
			<stop  offset="1" style="stop-color:#B4B4B4"/>
		</linearGradient>
		<path class="st48" d="M267.4,762.7c0.2-0.1,0.3-0.2,0.5-0.2C267.7,762.5,267.6,762.6,267.4,762.7z"/>
		<linearGradient id="SVGID_40_" gradientUnits="userSpaceOnUse" x1="266.2229" y1="626.4684" x2="266.2229" y2="760.4774">
			<stop  offset="0.9496" style="stop-color:#C8C8C8"/>
			<stop  offset="1" style="stop-color:#B4B4B4"/>
		</linearGradient>
		<path class="st49" d="M266,763.3c0.1-0.1,0.3-0.1,0.4-0.2C266.3,763.2,266.2,763.2,266,763.3z"/>
		<linearGradient id="SVGID_41_" gradientUnits="userSpaceOnUse" x1="277.8485" y1="626.4684" x2="277.8485" y2="760.4774">
			<stop  offset="0.9496" style="stop-color:#C8C8C8"/>
			<stop  offset="1" style="stop-color:#B4B4B4"/>
		</linearGradient>
		<path class="st50" d="M277.7,755.7c0.1-0.1,0.1-0.1,0.2-0.2C277.9,755.6,277.8,755.7,277.7,755.7z"/>
		<linearGradient id="SVGID_42_" gradientUnits="userSpaceOnUse" x1="377.5143" y1="626.4684" x2="377.5143" y2="760.4774">
			<stop  offset="0.9496" style="stop-color:#C8C8C8"/>
			<stop  offset="1" style="stop-color:#B4B4B4"/>
		</linearGradient>
		<path class="st51" d="M377.4,763.9c0.1,0,0.2,0.1,0.2,0.1C377.6,763.9,377.5,763.9,377.4,763.9z"/>
		<linearGradient id="SVGID_43_" gradientUnits="userSpaceOnUse" x1="374.4065" y1="626.4684" x2="374.4065" y2="760.4774">
			<stop  offset="0.9496" style="stop-color:#C8C8C8"/>
			<stop  offset="1" style="stop-color:#B4B4B4"/>
		</linearGradient>
		<path class="st52" d="M374.2,762.4c0.2,0.1,0.3,0.2,0.5,0.2C374.5,762.6,374.3,762.5,374.2,762.4z"/>
		<linearGradient id="SVGID_44_" gradientUnits="userSpaceOnUse" x1="381.9101" y1="626.4684" x2="381.9101" y2="760.4774">
			<stop  offset="0.9496" style="stop-color:#C8C8C8"/>
			<stop  offset="1" style="stop-color:#B4B4B4"/>
		</linearGradient>
		<path class="st53" d="M381.6,765.1c0.2,0,0.4,0.1,0.5,0.1C382,765.1,381.8,765.1,381.6,765.1z"/>
		<linearGradient id="SVGID_45_" gradientUnits="userSpaceOnUse" x1="363.0796" y1="744.4259" x2="363.0796" y2="764.9337">
			<stop  offset="0.9496" style="stop-color:#C8C8C8"/>
			<stop  offset="1" style="stop-color:#B4B4B4"/>
		</linearGradient>
		<polygon class="st54" points="363.1,754.7 363.1,754.7 363.1,754.7 		"/>
		<linearGradient id="SVGID_46_" gradientUnits="userSpaceOnUse" x1="385.0223" y1="765.3927" x2="385.0223" y2="765.3927">
			<stop  offset="0.9496" style="stop-color:#C8C8C8"/>
			<stop  offset="1" style="stop-color:#B4B4B4"/>
		</linearGradient>
		<polygon class="st55" points="385,765.4 385,765.4 385,765.4 		"/>
		<linearGradient id="SVGID_47_" gradientUnits="userSpaceOnUse" x1="373.0491" y1="626.4684" x2="373.0491" y2="760.4774">
			<stop  offset="0.9496" style="stop-color:#C8C8C8"/>
			<stop  offset="1" style="stop-color:#B4B4B4"/>
		</linearGradient>
		<path class="st56" d="M372.8,761.7c0.2,0.1,0.3,0.2,0.5,0.3C373.1,761.9,373,761.8,372.8,761.7z"/>
		<linearGradient id="SVGID_48_" gradientUnits="userSpaceOnUse" x1="379.0315" y1="626.4684" x2="379.0315" y2="760.4774">
			<stop  offset="0.9496" style="stop-color:#C8C8C8"/>
			<stop  offset="1" style="stop-color:#B4B4B4"/>
		</linearGradient>
		<path class="st57" d="M378.8,764.3c0.2,0.1,0.3,0.1,0.5,0.1C379.1,764.4,379,764.4,378.8,764.3z"/>
		<linearGradient id="SVGID_49_" gradientUnits="userSpaceOnUse" x1="375.8197" y1="626.4684" x2="375.8197" y2="760.4774">
			<stop  offset="0.9496" style="stop-color:#C8C8C8"/>
			<stop  offset="1" style="stop-color:#B4B4B4"/>
		</linearGradient>
		<path class="st58" d="M375.6,763.1c0.1,0.1,0.3,0.1,0.4,0.2C375.9,763.2,375.8,763.2,375.6,763.1z"/>
		<linearGradient id="SVGID_50_" gradientUnits="userSpaceOnUse" x1="380.4719" y1="626.4684" x2="380.4719" y2="760.4774">
			<stop  offset="0.9496" style="stop-color:#C8C8C8"/>
			<stop  offset="1" style="stop-color:#B4B4B4"/>
		</linearGradient>
		<path class="st59" d="M380.2,764.7c0.2,0,0.4,0.1,0.5,0.1C380.6,764.8,380.4,764.8,380.2,764.7z"/>
		<linearGradient id="SVGID_51_" gradientUnits="userSpaceOnUse" x1="278.9662" y1="751.0177" x2="278.9662" y2="758.3419">
			<stop  offset="0.9496" style="stop-color:#C8C8C8"/>
			<stop  offset="1" style="stop-color:#B4B4B4"/>
		</linearGradient>
		<polygon class="st60" points="279,754.7 279,754.7 279,754.7 		"/>
		<linearGradient id="SVGID_52_" gradientUnits="userSpaceOnUse" x1="383.3724" y1="626.4684" x2="383.3724" y2="760.4774">
			<stop  offset="0.9496" style="stop-color:#C8C8C8"/>
			<stop  offset="1" style="stop-color:#B4B4B4"/>
		</linearGradient>
		<path class="st61" d="M383.1,765.3c0.2,0,0.3,0,0.5,0.1C383.4,765.3,383.3,765.3,383.1,765.3z"/>
		<linearGradient id="SVGID_53_" gradientUnits="userSpaceOnUse" x1="370.3678" y1="626.4684" x2="370.3678" y2="760.4774">
			<stop  offset="0.9496" style="stop-color:#C8C8C8"/>
			<stop  offset="1" style="stop-color:#B4B4B4"/>
		</linearGradient>
		<path class="st62" d="M370.2,760.1c0.1,0.1,0.2,0.1,0.3,0.2C370.4,760.3,370.3,760.2,370.2,760.1z"/>
		<linearGradient id="SVGID_54_" gradientUnits="userSpaceOnUse" x1="371.7164" y1="626.4684" x2="371.7164" y2="760.4774">
			<stop  offset="0.9496" style="stop-color:#C8C8C8"/>
			<stop  offset="1" style="stop-color:#B4B4B4"/>
		</linearGradient>
		<path class="st63" d="M371.5,760.9c0.1,0.1,0.3,0.2,0.5,0.3C371.8,761.1,371.6,761,371.5,760.9z"/>
		<linearGradient id="SVGID_55_" gradientUnits="userSpaceOnUse" x1="260.1342" y1="626.4684" x2="260.1342" y2="760.4774">
			<stop  offset="0.9496" style="stop-color:#C8C8C8"/>
			<stop  offset="1" style="stop-color:#B4B4B4"/>
		</linearGradient>
		<path class="st64" d="M259.9,765.2c0.2,0,0.4-0.1,0.5-0.1C260.2,765.1,260,765.1,259.9,765.2z"/>
		<linearGradient id="SVGID_56_" gradientUnits="userSpaceOnUse" x1="258.6719" y1="626.4684" x2="258.6719" y2="760.4774">
			<stop  offset="0.9496" style="stop-color:#C8C8C8"/>
			<stop  offset="1" style="stop-color:#B4B4B4"/>
		</linearGradient>
		<path class="st65" d="M258.4,765.3c0.2,0,0.3,0,0.5-0.1C258.7,765.3,258.6,765.3,258.4,765.3z"/>
		<path class="st66" d="M275.8,757.3c0.3-0.2,0.5-0.4,0.8-0.6C276.3,756.9,276.1,757.1,275.8,757.3z"/>
		<path class="st66" d="M379.3,764.5c0.3,0.1,0.6,0.2,0.9,0.3C379.9,764.7,379.6,764.6,379.3,764.5z"/>
		<path class="st66" d="M367.8,758.5c0.3,0.2,0.6,0.4,0.9,0.7C368.4,758.9,368.1,758.7,367.8,758.5z"/>
		<path class="st66" d="M271.8,760.1c0.4-0.3,0.8-0.5,1.2-0.8C272.7,759.6,272.2,759.9,271.8,760.1z"/>
		<path class="st66" d="M380.7,764.9c0.3,0.1,0.6,0.1,0.9,0.2C381.3,765,381,764.9,380.7,764.9z"/>
		<path class="st66" d="M274.6,758.2c0.3-0.2,0.5-0.4,0.8-0.6C275.2,757.8,274.9,758,274.6,758.2z"/>
		<path class="st66" d="M382.2,765.2c0.3,0.1,0.6,0.1,1,0.1C382.8,765.2,382.5,765.2,382.2,765.2z"/>
		<path class="st66" d="M383.6,765.3c0.5,0,0.9,0.1,1.4,0.1C384.5,765.4,384.1,765.4,383.6,765.3z"/>
		<path class="st66" d="M273.3,759.1c0.3-0.2,0.6-0.4,1-0.7C274,758.7,273.6,758.9,273.3,759.1z"/>
		<path class="st66" d="M276.9,756.4c0.3-0.2,0.6-0.5,0.8-0.7C277.5,756,277.2,756.2,276.9,756.4z"/>
		<path class="st66" d="M371.9,761.2c0.3,0.2,0.6,0.3,0.9,0.5C372.5,761.5,372.2,761.4,371.9,761.2z"/>
		<path class="st66" d="M363.1,754.7c0.3,0.3,0.7,0.6,1,0.9C363.7,755.3,363.4,755,363.1,754.7z"/>
		<path class="st66" d="M364.3,755.7c0.3,0.2,0.5,0.4,0.8,0.7C364.8,756.2,364.6,756,364.3,755.7z"/>
		<path class="st66" d="M365.5,756.7c0.2,0.2,0.5,0.4,0.7,0.6C366,757.1,365.7,756.9,365.5,756.7z"/>
		<path class="st66" d="M278,755.6c0.3-0.3,0.7-0.6,1-0.9C278.6,755,278.3,755.3,278,755.6z"/>
		<path class="st66" d="M369,759.3c0.4,0.3,0.8,0.6,1.2,0.8C369.8,759.9,369.4,759.6,369,759.3z"/>
		<path class="st66" d="M370.5,760.3c0.3,0.2,0.6,0.4,1,0.6C371.2,760.7,370.8,760.5,370.5,760.3z"/>
		<path class="st66" d="M366.6,757.6c0.3,0.2,0.5,0.4,0.8,0.6C367.1,758,366.9,757.8,366.6,757.6z"/>
		<path class="st66" d="M269.2,761.7c0.3-0.2,0.6-0.3,0.9-0.5C269.8,761.4,269.5,761.5,269.2,761.7z"/>
		<path class="st66" d="M377.6,763.9c0.4,0.1,0.8,0.3,1.2,0.4C378.4,764.2,378,764.1,377.6,763.9z"/>
		<path class="st66" d="M442.4,746.4c-0.1,0.9-0.3,1.8-0.7,2.6C442.1,748.2,442.4,747.4,442.4,746.4z"/>
		<path class="st66" d="M376,763.3c0.5,0.2,0.9,0.4,1.4,0.6C376.9,763.7,376.5,763.5,376,763.3z"/>
		<path class="st66" d="M374.7,762.7c0.3,0.2,0.6,0.3,1,0.5C375.3,763,375,762.8,374.7,762.7z"/>
		<path class="st66" d="M373.3,762c0.3,0.2,0.6,0.3,0.9,0.5C373.9,762.3,373.6,762.1,373.3,762z"/>
		<path class="st66" d="M270.6,760.9c0.3-0.2,0.7-0.4,1-0.6C271.2,760.5,270.9,760.7,270.6,760.9z"/>
		<path class="st66" d="M258.9,765.3c0.3,0,0.6-0.1,1-0.1C259.5,765.2,259.2,765.2,258.9,765.3z"/>
		<path class="st66" d="M208.7,754.7c-5.1,0-9.2-4.1-9.2-9.2v-6c0,0,0,0,0,0c0,0,0,0,0,0v6C199.5,750.6,203.7,754.7,208.7,754.7
			l70.2,0c0,0,0,0,0,0H208.7z"/>
		<path class="st66" d="M433.3,754.7h-70.2c0,0,0,0,0,0L433.3,754.7c3.8,0,7.1-2.3,8.5-5.6C440.4,752.4,437.1,754.7,433.3,754.7z"/>
		<path class="st66" d="M260.4,765.1c0.3-0.1,0.6-0.1,0.9-0.2C261,764.9,260.7,765,260.4,765.1z"/>
		<path class="st66" d="M267.9,762.4c0.3-0.1,0.6-0.3,0.9-0.5C268.5,762.1,268.2,762.3,267.9,762.4z"/>
		<path class="st66" d="M264.6,763.9c0.5-0.2,0.9-0.4,1.4-0.6C265.6,763.5,265.1,763.7,264.6,763.9z"/>
		<path class="st66" d="M266.4,763.1c0.3-0.1,0.7-0.3,1-0.5C267.1,762.8,266.7,763,266.4,763.1z"/>
		<path class="st66" d="M261.8,764.7c0.3-0.1,0.6-0.2,0.9-0.3C262.5,764.6,262.2,764.7,261.8,764.7z"/>
		<path class="st66" d="M263.3,764.3c0.4-0.1,0.8-0.3,1.2-0.4C264,764.1,263.6,764.2,263.3,764.3z"/>
		<path class="st66" d="M257,765.4c0.5,0,0.9,0,1.4-0.1C258,765.4,257.5,765.4,257,765.4z"/>
		<linearGradient id="SVGID_57_" gradientUnits="userSpaceOnUse" x1="232.2133" y1="695.8621" x2="553.9515" y2="1017.6003">
			<stop  offset="0" style="stop-color:#C39065"/>
			<stop  offset="1" style="stop-color:#95745C"/>
		</linearGradient>
		<polygon class="st67" points="521.2,771.5 385,771.5 385,771.5 257,771.5 257,771.5 123,771.5 123,800 521.2,800 		"/>
		<polygon class="st66" points="521.2,771.5 385,771.5 385,771.5 257,771.5 257,771.5 123,771.5 123,800 521.2,800 		"/>
		<linearGradient id="SVGID_58_" gradientUnits="userSpaceOnUse" x1="149.7101" y1="656.4157" x2="403.6704" y2="910.376">
			<stop  offset="0" style="stop-color:#D0D0D0"/>
			<stop  offset="1" style="stop-color:#DEDEDE"/>
		</linearGradient>
		<path class="st68" d="M285,748.7h-76.3c-5.1,0-9.2-4.1-9.2-9.2v6c0,5.1,4.1,9.2,9.2,9.2H279C282.7,751.4,285,748.7,285,748.7z"/>
		<path class="st66" d="M285,748.7h-76.3c-5.1,0-9.2-4.1-9.2-9.2v6c0,5.1,4.1,9.2,9.2,9.2H279C282.7,751.4,285,748.7,285,748.7z"/>
		<linearGradient id="SVGID_59_" gradientUnits="userSpaceOnUse" x1="269.7729" y1="536.353" x2="523.7332" y2="790.3132">
			<stop  offset="0" style="stop-color:#D0D0D0"/>
			<stop  offset="1" style="stop-color:#DEDEDE"/>
		</linearGradient>
		<path class="st69" d="M442.5,739.5c0,5.1-4.1,9.2-9.2,9.2H357c0,0,2.4,2.7,6.1,6h70.2c3.8,0,7.1-2.3,8.5-5.6
			c0.3-0.8,0.6-1.7,0.7-2.6c0-0.3,0-0.6,0-0.9V583.9c0,0,0,0,0,0V739.5z"/>
		<path class="st66" d="M442.5,739.5c0,5.1-4.1,9.2-9.2,9.2H357c0,0,2.4,2.7,6.1,6h70.2c3.8,0,7.1-2.3,8.5-5.6
			c0.3-0.8,0.6-1.7,0.7-2.6c0-0.3,0-0.6,0-0.9V583.9c0,0,0,0,0,0V739.5z"/>
		<linearGradient id="SVGID_60_" gradientUnits="userSpaceOnUse" x1="232.179" y1="567.9459" x2="486.1392" y2="821.9061">
			<stop  offset="0" style="stop-color:#F6F6F6"/>
			<stop  offset="1" style="stop-color:#DEDEDE"/>
		</linearGradient>
		<path class="st70" d="M199.5,583.9c0-5.1,4.1-9.2,9.2-9.2h224.6c5.1,0,9.2,4.1,9.2,9.2v-6c0-0.6-0.1-1.3-0.2-1.9
			c-0.1-0.6-0.3-1.2-0.5-1.7c-0.2-0.5-0.5-1.1-0.8-1.6c-0.8-1.2-1.9-2.2-3.2-2.9c-0.5-0.3-1.1-0.5-1.6-0.7c-0.9-0.3-1.8-0.4-2.7-0.4
			H208.7c-1.6,0-3.1,0.4-4.4,1.1c-1,0.6-2,1.3-2.7,2.2c-0.2,0.2-0.4,0.5-0.5,0.7c-0.3,0.5-0.6,1-0.8,1.6c-0.2,0.5-0.4,1.1-0.5,1.7
			c-0.1,0.6-0.2,1.2-0.2,1.9v161.6c0,0,0,0,0,0V583.9z"/>
		<path class="st66" d="M199.5,583.9c0-5.1,4.1-9.2,9.2-9.2h224.6c5.1,0,9.2,4.1,9.2,9.2v-6c0-0.6-0.1-1.3-0.2-1.9
			c-0.1-0.6-0.3-1.2-0.5-1.7c-0.2-0.5-0.5-1.1-0.8-1.6c-0.8-1.2-1.9-2.2-3.2-2.9c-0.5-0.3-1.1-0.5-1.6-0.7c-0.9-0.3-1.8-0.4-2.7-0.4
			H208.7c-1.6,0-3.1,0.4-4.4,1.1c-1,0.6-2,1.3-2.7,2.2c-0.2,0.2-0.4,0.5-0.5,0.7c-0.3,0.5-0.6,1-0.8,1.6c-0.2,0.5-0.4,1.1-0.5,1.7
			c-0.1,0.6-0.2,1.2-0.2,1.9v161.6c0,0,0,0,0,0V583.9z"/>
		<linearGradient id="SVGID_61_" gradientUnits="userSpaceOnUse" x1="232.7339" y1="573.3919" x2="486.6942" y2="827.3522">
			<stop  offset="0" style="stop-color:#D0D0D0"/>
			<stop  offset="1" style="stop-color:#DEDEDE"/>
		</linearGradient>
		<path class="st71" d="M433.3,574.7H208.7c-5.1,0-9.2,4.1-9.2,9.2v155.7c0,5.1,4.1,9.2,9.2,9.2H285V709h-16c-7.7,0-14-6.3-14-14
			v-0.8v-2.3c0,0,0,0,0,0v-69.3c0-7.5,6.3-13.5,14-13.5h104c7.7,0,14,6,14,13.5v0.5v68.8v2.3v0.8c0,7.7-6.3,14-14,14h-16v39.6h76.3
			c5.1,0,9.2-4.1,9.2-9.2V583.8l0,0C442.5,578.8,438.4,574.7,433.3,574.7z"/>
		<linearGradient id="SVGID_62_" gradientUnits="userSpaceOnUse" x1="229.7334" y1="570.3914" x2="483.6937" y2="824.3517">
			<stop  offset="0" style="stop-color:#F6F6F6"/>
			<stop  offset="1" style="stop-color:#DEDEDE"/>
		</linearGradient>
		<path class="st72" d="M433.3,574.7H208.7c-5.1,0-9.2,4.1-9.2,9.2v155.7c0,5.1,4.1,9.2,9.2,9.2H285V709h-16c-7.7,0-14-6.3-14-14
			v-0.8v-2.3c0,0,0,0,0,0v-69.3c0-7.5,6.3-13.5,14-13.5h104c7.7,0,14,6,14,13.5v0.5v68.8v2.3v0.8c0,7.7-6.3,14-14,14h-16v39.6h76.3
			c5.1,0,9.2-4.1,9.2-9.2V583.8l0,0C442.5,578.8,438.4,574.7,433.3,574.7z"/>
		<path class="st66" d="M433.3,574.7H208.7c-5.1,0-9.2,4.1-9.2,9.2v155.7c0,5.1,4.1,9.2,9.2,9.2H285V709h-16c-7.7,0-14-6.3-14-14
			v-0.8v-2.3c0,0,0,0,0,0v-69.3c0-7.5,6.3-13.5,14-13.5h104c7.7,0,14,6,14,13.5v0.5v68.8v2.3v0.8c0,7.7-6.3,14-14,14h-16v39.6h76.3
			c5.1,0,9.2-4.1,9.2-9.2V583.8l0,0C442.5,578.8,438.4,574.7,433.3,574.7z"/>
		<linearGradient id="SVGID_63_" gradientUnits="userSpaceOnUse" x1="291.814" y1="739.2274" x2="374.4273" y2="821.8407">
			<stop  offset="0" style="stop-color:#F6F6F6"/>
			<stop  offset="1" style="stop-color:#DADADA"/>
		</linearGradient>
		<polygon class="st73" points="385,765.4 321,765.4 257,765.4 257,771.5 385,771.5 		"/>
		<polygon class="st66" points="385,765.4 321,765.4 257,765.4 257,771.5 385,771.5 		"/>
		<linearGradient id="SVGID_64_" gradientUnits="userSpaceOnUse" x1="321.0222" y1="626.4684" x2="321.0222" y2="760.4774">
			<stop  offset="0.9496" style="stop-color:#C8C8C8"/>
			<stop  offset="1" style="stop-color:#B4B4B4"/>
		</linearGradient>
		<path class="st74" d="M385,765.4C385,765.4,385,765.4,385,765.4c-0.5,0-0.9,0-1.4-0.1c-0.2,0-0.3,0-0.5-0.1c-0.3,0-0.6-0.1-1-0.1
			c-0.2,0-0.4-0.1-0.5-0.1c-0.3-0.1-0.6-0.1-0.9-0.2c-0.2,0-0.4-0.1-0.5-0.1c-0.3-0.1-0.6-0.2-0.9-0.3c-0.2,0-0.3-0.1-0.5-0.1
			c-0.4-0.1-0.8-0.3-1.2-0.4c-0.1,0-0.2-0.1-0.2-0.1c-0.5-0.2-0.9-0.4-1.4-0.6c-0.1-0.1-0.3-0.1-0.4-0.2c-0.3-0.1-0.6-0.3-1-0.5
			c-0.2-0.1-0.3-0.2-0.5-0.2c-0.3-0.1-0.6-0.3-0.9-0.5c-0.2-0.1-0.3-0.2-0.5-0.3c-0.3-0.2-0.6-0.3-0.9-0.5c-0.2-0.1-0.3-0.2-0.5-0.3
			c-0.3-0.2-0.7-0.4-1-0.6c-0.1-0.1-0.2-0.1-0.3-0.2c-0.4-0.3-0.8-0.5-1.2-0.8c-0.1-0.1-0.2-0.1-0.3-0.2c-0.3-0.2-0.6-0.4-0.9-0.7
			c-0.1-0.1-0.3-0.2-0.4-0.3c-0.3-0.2-0.5-0.4-0.8-0.6c-0.1-0.1-0.3-0.2-0.4-0.3c-0.3-0.2-0.5-0.4-0.7-0.6c-0.1-0.1-0.2-0.2-0.4-0.3
			c-0.3-0.2-0.5-0.4-0.8-0.7c-0.1-0.1-0.2-0.1-0.2-0.2c-0.3-0.3-0.7-0.6-1-0.9c0,0,0,0,0,0h0c0,0,0,0,0,0H279c0,0,0,0,0,0h0
			c0,0,0,0,0,0c-0.3,0.3-0.7,0.6-1,0.9c-0.1,0.1-0.1,0.1-0.2,0.2c-0.3,0.2-0.5,0.5-0.8,0.7c-0.1,0.1-0.2,0.2-0.3,0.3
			c-0.2,0.2-0.5,0.4-0.8,0.6c-0.1,0.1-0.3,0.2-0.4,0.3c-0.3,0.2-0.5,0.4-0.8,0.6c-0.1,0.1-0.3,0.2-0.4,0.3c-0.3,0.2-0.6,0.5-1,0.7
			c-0.1,0.1-0.2,0.1-0.2,0.2c-0.4,0.3-0.8,0.6-1.2,0.8c-0.1,0.1-0.2,0.1-0.3,0.2c-0.3,0.2-0.7,0.4-1,0.6c-0.1,0.1-0.3,0.2-0.4,0.3
			c-0.3,0.2-0.6,0.3-0.9,0.5c-0.2,0.1-0.3,0.2-0.5,0.3c-0.3,0.2-0.6,0.3-0.9,0.5c-0.2,0.1-0.3,0.2-0.5,0.2c-0.3,0.2-0.6,0.3-1,0.5
			c-0.1,0.1-0.3,0.1-0.4,0.2c-0.5,0.2-0.9,0.4-1.4,0.6c-0.1,0-0.2,0.1-0.2,0.1c-0.4,0.1-0.8,0.3-1.2,0.4c-0.2,0.1-0.3,0.1-0.5,0.1
			c-0.3,0.1-0.6,0.2-0.9,0.3c-0.2,0-0.4,0.1-0.5,0.1c-0.3,0.1-0.6,0.1-0.9,0.2c-0.2,0-0.4,0.1-0.5,0.1c-0.3,0.1-0.6,0.1-1,0.1
			c-0.2,0-0.3,0-0.5,0.1c-0.5,0-0.9,0.1-1.4,0.1h64H385z"/>
		<path class="st66" d="M385,765.4C385,765.4,385,765.4,385,765.4c-0.5,0-0.9,0-1.4-0.1c-0.2,0-0.3,0-0.5-0.1c-0.3,0-0.6-0.1-1-0.1
			c-0.2,0-0.4-0.1-0.5-0.1c-0.3-0.1-0.6-0.1-0.9-0.2c-0.2,0-0.4-0.1-0.5-0.1c-0.3-0.1-0.6-0.2-0.9-0.3c-0.2,0-0.3-0.1-0.5-0.1
			c-0.4-0.1-0.8-0.3-1.2-0.4c-0.1,0-0.2-0.1-0.2-0.1c-0.5-0.2-0.9-0.4-1.4-0.6c-0.1-0.1-0.3-0.1-0.4-0.2c-0.3-0.1-0.6-0.3-1-0.5
			c-0.2-0.1-0.3-0.2-0.5-0.2c-0.3-0.1-0.6-0.3-0.9-0.5c-0.2-0.1-0.3-0.2-0.5-0.3c-0.3-0.2-0.6-0.3-0.9-0.5c-0.2-0.1-0.3-0.2-0.5-0.3
			c-0.3-0.2-0.7-0.4-1-0.6c-0.1-0.1-0.2-0.1-0.3-0.2c-0.4-0.3-0.8-0.5-1.2-0.8c-0.1-0.1-0.2-0.1-0.3-0.2c-0.3-0.2-0.6-0.4-0.9-0.7
			c-0.1-0.1-0.3-0.2-0.4-0.3c-0.3-0.2-0.5-0.4-0.8-0.6c-0.1-0.1-0.3-0.2-0.4-0.3c-0.3-0.2-0.5-0.4-0.7-0.6c-0.1-0.1-0.2-0.2-0.4-0.3
			c-0.3-0.2-0.5-0.4-0.8-0.7c-0.1-0.1-0.2-0.1-0.2-0.2c-0.3-0.3-0.7-0.6-1-0.9c0,0,0,0,0,0h0c0,0,0,0,0,0H279c0,0,0,0,0,0h0
			c0,0,0,0,0,0c-0.3,0.3-0.7,0.6-1,0.9c-0.1,0.1-0.1,0.1-0.2,0.2c-0.3,0.2-0.5,0.5-0.8,0.7c-0.1,0.1-0.2,0.2-0.3,0.3
			c-0.2,0.2-0.5,0.4-0.8,0.6c-0.1,0.1-0.3,0.2-0.4,0.3c-0.3,0.2-0.5,0.4-0.8,0.6c-0.1,0.1-0.3,0.2-0.4,0.3c-0.3,0.2-0.6,0.5-1,0.7
			c-0.1,0.1-0.2,0.1-0.2,0.2c-0.4,0.3-0.8,0.6-1.2,0.8c-0.1,0.1-0.2,0.1-0.3,0.2c-0.3,0.2-0.7,0.4-1,0.6c-0.1,0.1-0.3,0.2-0.4,0.3
			c-0.3,0.2-0.6,0.3-0.9,0.5c-0.2,0.1-0.3,0.2-0.5,0.3c-0.3,0.2-0.6,0.3-0.9,0.5c-0.2,0.1-0.3,0.2-0.5,0.2c-0.3,0.2-0.6,0.3-1,0.5
			c-0.1,0.1-0.3,0.1-0.4,0.2c-0.5,0.2-0.9,0.4-1.4,0.6c-0.1,0-0.2,0.1-0.2,0.1c-0.4,0.1-0.8,0.3-1.2,0.4c-0.2,0.1-0.3,0.1-0.5,0.1
			c-0.3,0.1-0.6,0.2-0.9,0.3c-0.2,0-0.4,0.1-0.5,0.1c-0.3,0.1-0.6,0.1-0.9,0.2c-0.2,0-0.4,0.1-0.5,0.1c-0.3,0.1-0.6,0.1-1,0.1
			c-0.2,0-0.3,0-0.5,0.1c-0.5,0-0.9,0.1-1.4,0.1h64H385z"/>
		<linearGradient id="SVGID_65_" gradientUnits="userSpaceOnUse" x1="186.2343" y1="619.8915" x2="440.1946" y2="873.8518">
			<stop  offset="0" style="stop-color:#D0D0D0"/>
			<stop  offset="1" style="stop-color:#DEDEDE"/>
		</linearGradient>
		<path class="st75" d="M357,748.7v3.4h-72v-3.4c0,0-2.4,2.7-6.1,6h84.1C359.4,751.4,357,748.7,357,748.7z"/>
		<linearGradient id="SVGID_66_" gradientUnits="userSpaceOnUse" x1="321.0225" y1="626.4684" x2="321.0225" y2="760.4774">
			<stop  offset="0.9496" style="stop-color:#C8C8C8"/>
			<stop  offset="1" style="stop-color:#B4B4B4"/>
		</linearGradient>
		<path class="st76" d="M357,748.7v3.4h-72v-3.4c0,0-2.4,2.7-6.1,6h84.1C359.4,751.4,357,748.7,357,748.7z"/>
		<path class="st66" d="M357,748.7v3.4h-72v-3.4c0,0-2.4,2.7-6.1,6h84.1C359.4,751.4,357,748.7,357,748.7z"/>
		<linearGradient id="SVGID_67_" gradientUnits="userSpaceOnUse" x1="199.1437" y1="606.9821" x2="453.104" y2="860.9424">
			<stop  offset="0" style="stop-color:#D0D0D0"/>
			<stop  offset="1" style="stop-color:#DEDEDE"/>
		</linearGradient>
		<rect x="285" y="709" class="st77" width="72" height="39.6"/>
		<linearGradient id="SVGID_68_" gradientUnits="userSpaceOnUse" x1="196.1432" y1="603.9816" x2="450.1035" y2="857.9419">
			<stop  offset="0" style="stop-color:#F6F6F6"/>
			<stop  offset="1" style="stop-color:#DEDEDE"/>
		</linearGradient>
		<rect x="285" y="709" class="st78" width="72" height="39.6"/>
		<linearGradient id="SVGID_69_" gradientUnits="userSpaceOnUse" x1="321.0225" y1="626.4684" x2="321.0225" y2="760.4774">
			<stop  offset="0.9496" style="stop-color:#C8C8C8"/>
			<stop  offset="1" style="stop-color:#B4B4B4"/>
		</linearGradient>
		<rect x="285" y="709" class="st79" width="72" height="39.6"/>
		<rect x="285" y="709" class="st66" width="72" height="39.6"/>
		<linearGradient id="SVGID_70_" gradientUnits="userSpaceOnUse" x1="188.3896" y1="617.7363" x2="442.3499" y2="871.6965">
			<stop  offset="0" style="stop-color:#D0D0D0"/>
			<stop  offset="1" style="stop-color:#DEDEDE"/>
		</linearGradient>
		<rect x="285" y="748.7" class="st80" width="72" height="3.4"/>
		<linearGradient id="SVGID_71_" gradientUnits="userSpaceOnUse" x1="304.6026" y1="733.9493" x2="351.0451" y2="780.3918">
			<stop  offset="0" style="stop-color:#F6F6F6"/>
			<stop  offset="1" style="stop-color:#DADADA"/>
		</linearGradient>
		<rect x="285" y="748.7" class="st81" width="72" height="3.4"/>
		<linearGradient id="SVGID_72_" gradientUnits="userSpaceOnUse" x1="321.0225" y1="626.4684" x2="321.0225" y2="760.4774">
			<stop  offset="0.9496" style="stop-color:#C8C8C8"/>
			<stop  offset="1" style="stop-color:#B4B4B4"/>
		</linearGradient>
		<rect x="285" y="748.7" class="st82" width="72" height="3.4"/>
		<rect x="285" y="748.7" class="st66" width="72" height="3.4"/>
		<linearGradient id="SVGID_73_" gradientUnits="userSpaceOnUse" x1="238.2504" y1="567.8754" x2="492.2107" y2="821.8357">
			<stop  offset="0" style="stop-color:#D0D0D0"/>
			<stop  offset="1" style="stop-color:#DEDEDE"/>
		</linearGradient>
		<path class="st83" d="M373,708.3h-16v0.8h16c7.7,0,14-6.3,14-14v-0.8C387,702,380.8,708.3,373,708.3z"/>
		<linearGradient id="SVGID_74_" gradientUnits="userSpaceOnUse" x1="235.2499" y1="564.8749" x2="489.2102" y2="818.8352">
			<stop  offset="0" style="stop-color:#F6F6F6"/>
			<stop  offset="1" style="stop-color:#DEDEDE"/>
		</linearGradient>
		<path class="st84" d="M373,708.3h-16v0.8h16c7.7,0,14-6.3,14-14v-0.8C387,702,380.8,708.3,373,708.3z"/>
		<linearGradient id="SVGID_75_" gradientUnits="userSpaceOnUse" x1="372.0225" y1="620.209" x2="372.0225" y2="705.8991">
			<stop  offset="0" style="stop-color:#F6F6F6"/>
			<stop  offset="1" style="stop-color:#DADADA"/>
		</linearGradient>
		<path class="st85" d="M373,708.3h-16v0.8h16c7.7,0,14-6.3,14-14v-0.8C387,702,380.8,708.3,373,708.3z"/>
		<path class="st66" d="M373,708.3h-16v0.8h16c7.7,0,14-6.3,14-14v-0.8C387,702,380.8,708.3,373,708.3z"/>
		<linearGradient id="SVGID_76_" gradientUnits="userSpaceOnUse" x1="185.8005" y1="620.3253" x2="439.7608" y2="874.2856">
			<stop  offset="0" style="stop-color:#D0D0D0"/>
			<stop  offset="1" style="stop-color:#DEDEDE"/>
		</linearGradient>
		<path class="st86" d="M269,708.3c-7.7,0-14-6.3-14-14v0.8c0,7.7,6.3,14,14,14h16v-0.8H269z"/>
		<linearGradient id="SVGID_77_" gradientUnits="userSpaceOnUse" x1="182.8" y1="617.3248" x2="436.7603" y2="871.2851">
			<stop  offset="0" style="stop-color:#F6F6F6"/>
			<stop  offset="1" style="stop-color:#DEDEDE"/>
		</linearGradient>
		<path class="st87" d="M269,708.3c-7.7,0-14-6.3-14-14v0.8c0,7.7,6.3,14,14,14h16v-0.8H269z"/>
		<linearGradient id="SVGID_78_" gradientUnits="userSpaceOnUse" x1="270.0222" y1="620.209" x2="270.0222" y2="705.8991">
			<stop  offset="0" style="stop-color:#F6F6F6"/>
			<stop  offset="1" style="stop-color:#DADADA"/>
		</linearGradient>
		<path class="st88" d="M269,708.3c-7.7,0-14-6.3-14-14v0.8c0,7.7,6.3,14,14,14h16v-0.8H269z"/>
		<path class="st66" d="M269,708.3c-7.7,0-14-6.3-14-14v0.8c0,7.7,6.3,14,14,14h16v-0.8H269z"/>
		<linearGradient id="SVGID_79_" gradientUnits="userSpaceOnUse" x1="215.58" y1="590.5458" x2="469.5403" y2="844.506">
			<stop  offset="0" style="stop-color:#D0D0D0"/>
			<stop  offset="1" style="stop-color:#DEDEDE"/>
		</linearGradient>
		<path class="st89" d="M357,708.3h16c7.7,0,14-6.3,14-14v-2.3c0,7.5-6.3,13.5-14,13.5H269c-7.7,0-14-6-14-13.5v2.3
			c0,7.7,6.3,14,14,14h16v0.8h72V708.3z"/>
		<linearGradient id="SVGID_80_" gradientUnits="userSpaceOnUse" x1="212.5796" y1="587.5453" x2="466.5398" y2="841.5056">
			<stop  offset="0" style="stop-color:#F6F6F6"/>
			<stop  offset="1" style="stop-color:#DEDEDE"/>
		</linearGradient>
		<path class="st90" d="M357,708.3h16c7.7,0,14-6.3,14-14v-2.3c0,7.5-6.3,13.5-14,13.5H269c-7.7,0-14-6-14-13.5v2.3
			c0,7.7,6.3,14,14,14h16v0.8h72V708.3z"/>
		<linearGradient id="SVGID_81_" gradientUnits="userSpaceOnUse" x1="321.0222" y1="626.4684" x2="321.0222" y2="760.4774">
			<stop  offset="0.9496" style="stop-color:#C8C8C8"/>
			<stop  offset="1" style="stop-color:#B4B4B4"/>
		</linearGradient>
		<path class="st91" d="M357,708.3h16c7.7,0,14-6.3,14-14v-2.3c0,7.5-6.3,13.5-14,13.5H269c-7.7,0-14-6-14-13.5v2.3
			c0,7.7,6.3,14,14,14h16v0.8h72V708.3z"/>
		<linearGradient id="SVGID_82_" gradientUnits="userSpaceOnUse" x1="321.0222" y1="620.209" x2="321.0222" y2="705.8991">
			<stop  offset="0" style="stop-color:#F6F6F6"/>
			<stop  offset="1" style="stop-color:#DADADA"/>
		</linearGradient>
		<path class="st92" d="M357,708.3h16c7.7,0,14-6.3,14-14v-2.3c0,7.5-6.3,13.5-14,13.5H269c-7.7,0-14-6-14-13.5v2.3
			c0,7.7,6.3,14,14,14h16v0.8h72V708.3z"/>
		<path class="st66" d="M357,708.3h16c7.7,0,14-6.3,14-14v-2.3c0,7.5-6.3,13.5-14,13.5H269c-7.7,0-14-6-14-13.5v2.3
			c0,7.7,6.3,14,14,14h16v0.8h72V708.3z"/>
		<linearGradient id="SVGID_83_" gradientUnits="userSpaceOnUse" x1="286.5078" y1="519.618" x2="540.4681" y2="773.5783">
			<stop  offset="0" style="stop-color:#D0D0D0"/>
			<stop  offset="1" style="stop-color:#DEDEDE"/>
		</linearGradient>
		<path class="st93" d="M387,623.1v-0.5c0-7.5-6.3-13.5-14-13.5C380.8,609.1,387,615.4,387,623.1z"/>
		<linearGradient id="SVGID_84_" gradientUnits="userSpaceOnUse" x1="283.5073" y1="516.6176" x2="537.4676" y2="770.5778">
			<stop  offset="0" style="stop-color:#F6F6F6"/>
			<stop  offset="1" style="stop-color:#DEDEDE"/>
		</linearGradient>
		<path class="st94" d="M387,623.1v-0.5c0-7.5-6.3-13.5-14-13.5C380.8,609.1,387,615.4,387,623.1z"/>
		<linearGradient id="SVGID_85_" gradientUnits="userSpaceOnUse" x1="380.0225" y1="632.8058" x2="380.0225" y2="550.2257">
			<stop  offset="0.3139" style="stop-color:#F6F6F6"/>
			<stop  offset="1" style="stop-color:#DADADA"/>
		</linearGradient>
		<path class="st95" d="M387,623.1v-0.5c0-7.5-6.3-13.5-14-13.5C380.8,609.1,387,615.4,387,623.1z"/>
		<path class="st66" d="M387,623.1v-0.5c0-7.5-6.3-13.5-14-13.5C380.8,609.1,387,615.4,387,623.1z"/>
		<linearGradient id="SVGID_86_" gradientUnits="userSpaceOnUse" x1="208.8135" y1="597.3123" x2="462.7737" y2="851.2726">
			<stop  offset="0" style="stop-color:#D0D0D0"/>
			<stop  offset="1" style="stop-color:#DEDEDE"/>
		</linearGradient>
		<path class="st96" d="M269,609.1c-7.7,0-14,6-14,13.5v69.3c0,0,0,0,0,0v-68.8C255,615.4,261.3,609.1,269,609.1z"/>
		<linearGradient id="SVGID_87_" gradientUnits="userSpaceOnUse" x1="205.813" y1="594.3119" x2="459.7733" y2="848.2721">
			<stop  offset="0" style="stop-color:#F6F6F6"/>
			<stop  offset="1" style="stop-color:#DEDEDE"/>
		</linearGradient>
		<path class="st97" d="M269,609.1c-7.7,0-14,6-14,13.5v69.3c0,0,0,0,0,0v-68.8C255,615.4,261.3,609.1,269,609.1z"/>
		<linearGradient id="SVGID_88_" gradientUnits="userSpaceOnUse" x1="262.0217" y1="632.8058" x2="262.0217" y2="550.2257">
			<stop  offset="0.3139" style="stop-color:#F6F6F6"/>
			<stop  offset="1" style="stop-color:#DADADA"/>
		</linearGradient>
		<path class="st98" d="M269,609.1c-7.7,0-14,6-14,13.5v69.3c0,0,0,0,0,0v-68.8C255,615.4,261.3,609.1,269,609.1z"/>
		<path class="st66" d="M269,609.1c-7.7,0-14,6-14,13.5v69.3c0,0,0,0,0,0v-68.8C255,615.4,261.3,609.1,269,609.1z"/>
		<linearGradient id="SVGID_89_" gradientUnits="userSpaceOnUse" x1="234.9051" y1="571.2208" x2="488.8654" y2="825.181">
			<stop  offset="0" style="stop-color:#D0D0D0"/>
			<stop  offset="1" style="stop-color:#DEDEDE"/>
		</linearGradient>
		<path class="st99" d="M269,705.4h104c7.7,0,14-6,14-13.5v-68.8c0-7.7-6.3-14-14-14H269c-7.7,0-14,6.3-14,14v68.8
			C255,699.4,261.3,705.4,269,705.4z"/>
		<linearGradient id="SVGID_90_" gradientUnits="userSpaceOnUse" x1="231.9046" y1="568.2203" x2="485.8648" y2="822.1805">
			<stop  offset="0" style="stop-color:#F6F6F6"/>
			<stop  offset="1" style="stop-color:#DEDEDE"/>
		</linearGradient>
		<path class="st100" d="M269,705.4h104c7.7,0,14-6,14-13.5v-68.8c0-7.7-6.3-14-14-14H269c-7.7,0-14,6.3-14,14v68.8
			C255,699.4,261.3,705.4,269,705.4z"/>
		<linearGradient id="SVGID_91_" gradientUnits="userSpaceOnUse" x1="321.0222" y1="626.4684" x2="321.0222" y2="760.4774">
			<stop  offset="0.9496" style="stop-color:#C8C8C8"/>
			<stop  offset="1" style="stop-color:#B4B4B4"/>
		</linearGradient>
		<path class="st101" d="M269,705.4h104c7.7,0,14-6,14-13.5v-68.8c0-7.7-6.3-14-14-14H269c-7.7,0-14,6.3-14,14v68.8
			C255,699.4,261.3,705.4,269,705.4z"/>
		<linearGradient id="SVGID_92_" gradientUnits="userSpaceOnUse" x1="321.0222" y1="620.209" x2="321.0222" y2="705.8991">
			<stop  offset="0" style="stop-color:#F6F6F6"/>
			<stop  offset="1" style="stop-color:#DADADA"/>
		</linearGradient>
		<path class="st102" d="M269,705.4h104c7.7,0,14-6,14-13.5v-68.8c0-7.7-6.3-14-14-14H269c-7.7,0-14,6.3-14,14v68.8
			C255,699.4,261.3,705.4,269,705.4z"/>
		<linearGradient id="SVGID_93_" gradientUnits="userSpaceOnUse" x1="321.0222" y1="632.8058" x2="321.0222" y2="550.2257">
			<stop  offset="0.3139" style="stop-color:#F6F6F6"/>
			<stop  offset="1" style="stop-color:#DADADA"/>
		</linearGradient>
		<path class="st103" d="M269,705.4h104c7.7,0,14-6,14-13.5v-68.8c0-7.7-6.3-14-14-14H269c-7.7,0-14,6.3-14,14v68.8
			C255,699.4,261.3,705.4,269,705.4z"/>
		<path class="st66" d="M269,705.4h104c7.7,0,14-6,14-13.5v-68.8c0-7.7-6.3-14-14-14H269c-7.7,0-14,6.3-14,14v68.8
			C255,699.4,261.3,705.4,269,705.4z"/>
	</g>
</g>
</svg>
