<svg id="Foreground" xmlns="http://www.w3.org/2000/svg" xmlns:xlink="http://www.w3.org/1999/xlink" viewBox="0 0 1077 286.01"><defs><style>.cls-1{fill:url(#linear-gradient);}.cls-15,.cls-2{fill:#383432;}.cls-2{opacity:0.15;}.cls-3{fill:url(#linear-gradient-2);}.cls-4{fill:#fff;}.cls-5{fill:#68a030;}.cls-6{fill:url(#linear-gradient-3);}.cls-7{fill:url(#linear-gradient-4);}.cls-8{fill:url(#linear-gradient-5);}.cls-9{fill:url(#linear-gradient-6);}.cls-10{fill:#f8bda7;}.cls-11{fill:url(#linear-gradient-7);}.cls-12{fill:url(#linear-gradient-8);}.cls-13{fill:url(#linear-gradient-9);}.cls-14{fill:url(#linear-gradient-10);}.cls-15{opacity:0.2;}.cls-16{fill:#b7a4d0;}.cls-17{fill:#a390c0;}.cls-18{fill:#957db1;}.cls-19{fill:#8a77a7;}.cls-20{fill:url(#linear-gradient-11);}.cls-21{opacity:0.6;}.cls-22{fill:url(#linear-gradient-12);}.cls-23{fill:url(#linear-gradient-13);}.cls-24{fill:url(#linear-gradient-14);}.cls-25{fill:url(#linear-gradient-15);}.cls-26{fill:url(#linear-gradient-16);}.cls-27{fill:url(#linear-gradient-17);}.cls-28{fill:url(#linear-gradient-18);}.cls-29{fill:url(#linear-gradient-19);}.cls-30{fill:url(#linear-gradient-20);}.cls-31{fill:url(#linear-gradient-21);}.cls-32{fill:url(#linear-gradient-22);}.cls-33{fill:url(#linear-gradient-23);}.cls-34{fill:url(#linear-gradient-24);}.cls-35{fill:url(#linear-gradient-25);}.cls-36{fill:url(#linear-gradient-26);}.cls-37{fill:url(#linear-gradient-27);}.cls-38{fill:url(#linear-gradient-28);}.cls-39{fill:url(#linear-gradient-29);}.cls-40{fill:url(#linear-gradient-30);}.cls-41{fill:url(#linear-gradient-31);}.cls-42{fill:url(#linear-gradient-32);}.cls-43{fill:url(#linear-gradient-33);}.cls-44{fill:url(#linear-gradient-34);}.cls-45{fill:url(#linear-gradient-35);}.cls-46{fill:url(#linear-gradient-36);}.cls-47{fill:url(#linear-gradient-37);}.cls-48{fill:url(#linear-gradient-38);}.cls-49{fill:url(#linear-gradient-39);}.cls-50{fill:url(#linear-gradient-40);}.cls-51{fill:url(#linear-gradient-41);}.cls-52{fill:url(#linear-gradient-42);}.cls-53{fill:url(#linear-gradient-43);}.cls-54{fill:url(#linear-gradient-44);}.cls-55{fill:url(#linear-gradient-45);}.cls-56{fill:url(#linear-gradient-46);}.cls-57{fill:url(#linear-gradient-47);}.cls-58{fill:url(#linear-gradient-48);}.cls-59{fill:url(#linear-gradient-49);}.cls-60{fill:url(#linear-gradient-50);}.cls-61{fill:url(#linear-gradient-51);}.cls-62{fill:url(#linear-gradient-52);}.cls-63{fill:url(#linear-gradient-53);}.cls-64{fill:url(#linear-gradient-54);}.cls-65{fill:url(#linear-gradient-55);}.cls-66{fill:url(#linear-gradient-56);}.cls-67,.cls-93,.cls-96,.cls-99{opacity:0.5;}.cls-68{fill:url(#linear-gradient-57);}.cls-69{fill:url(#linear-gradient-58);}.cls-70{fill:url(#linear-gradient-59);}.cls-71{fill:url(#linear-gradient-60);}.cls-72{fill:url(#linear-gradient-61);}.cls-73{fill:url(#linear-gradient-62);}.cls-74{fill:url(#linear-gradient-63);}.cls-75{fill:url(#linear-gradient-64);}.cls-76{fill:url(#linear-gradient-65);}.cls-77{fill:url(#linear-gradient-66);}.cls-78{fill:url(#linear-gradient-67);}.cls-79{fill:url(#linear-gradient-68);}.cls-80{fill:url(#linear-gradient-70);}.cls-81{fill:url(#linear-gradient-71);}.cls-82{fill:url(#linear-gradient-73);}.cls-83{fill:url(#linear-gradient-74);}.cls-84{fill:url(#linear-gradient-75);}.cls-85{fill:url(#linear-gradient-76);}.cls-86{fill:url(#linear-gradient-77);}.cls-87{fill:url(#linear-gradient-78);}.cls-88{fill:url(#linear-gradient-79);}.cls-89{fill:url(#linear-gradient-80);}.cls-90{fill:url(#linear-gradient-82);}.cls-91{fill:url(#linear-gradient-83);}.cls-92{fill:url(#linear-gradient-84);}.cls-93{fill:url(#linear-gradient-85);}.cls-94{fill:url(#linear-gradient-86);}.cls-95{fill:url(#linear-gradient-87);}.cls-96{fill:url(#linear-gradient-88);}.cls-97{fill:url(#linear-gradient-89);}.cls-98{fill:url(#linear-gradient-90);}.cls-99{fill:url(#linear-gradient-93);}</style><linearGradient id="linear-gradient" x1="827.8" y1="227.09" x2="1077" y2="227.09" gradientUnits="userSpaceOnUse"><stop offset="0" stop-color="#ededed"/><stop offset="1" stop-color="#dadada"/></linearGradient><linearGradient id="linear-gradient-2" x1="915.73" y1="180.94" x2="965.47" y2="230.68" xlink:href="#linear-gradient"/><linearGradient id="linear-gradient-3" x1="1098.51" y1="628.12" x2="1112.67" y2="629.24" gradientUnits="userSpaceOnUse"><stop offset="0" stop-color="#a4c616"/><stop offset="0.25" stop-color="#9fc318"/><stop offset="0.52" stop-color="#92bb1e"/><stop offset="0.8" stop-color="#7cad27"/><stop offset="1" stop-color="#68a030"/></linearGradient><linearGradient id="linear-gradient-4" x1="1097.19" y1="677.27" x2="1118.15" y2="648.52" gradientTransform="translate(-83.65 131.7) rotate(-8.22)" gradientUnits="userSpaceOnUse"><stop offset="0" stop-color="#5d8f2a"/><stop offset="0.25" stop-color="#5d8f2a" stop-opacity="0.98"/><stop offset="0.42" stop-color="#5e902a" stop-opacity="0.92"/><stop offset="0.56" stop-color="#5f922b" stop-opacity="0.81"/><stop offset="0.68" stop-color="#61952c" stop-opacity="0.67"/><stop offset="0.8" stop-color="#63982d" stop-opacity="0.47"/><stop offset="0.91" stop-color="#659c2f" stop-opacity="0.24"/><stop offset="1" stop-color="#68a030" stop-opacity="0"/></linearGradient><linearGradient id="linear-gradient-5" x1="670.89" y1="838.51" x2="685.05" y2="839.63" gradientTransform="matrix(-0.68, 0.73, 0.73, 0.68, 1022.24, -461.45)" xlink:href="#linear-gradient-3"/><linearGradient id="linear-gradient-6" x1="644.19" y1="824.08" x2="665.15" y2="795.34" gradientTransform="matrix(-0.78, 0.63, 0.63, 0.78, 1176.12, -433.47)" xlink:href="#linear-gradient-4"/><linearGradient id="linear-gradient-7" x1="994.56" y1="131.43" x2="1050.2" y2="131.43" gradientUnits="userSpaceOnUse"><stop offset="0" stop-color="#f6a667"/><stop offset="1" stop-color="#c46572"/></linearGradient><linearGradient id="linear-gradient-8" x1="999.02" y1="131.43" x2="1089.83" y2="131.43" xlink:href="#linear-gradient-7"/><linearGradient id="linear-gradient-9" x1="997.04" y1="152.3" x2="1047.72" y2="152.3" xlink:href="#linear-gradient-7"/><linearGradient id="linear-gradient-10" x1="1001.5" y1="152.3" x2="1090.89" y2="152.3" xlink:href="#linear-gradient-7"/><linearGradient id="linear-gradient-11" x1="843.56" y1="344.03" x2="853.64" y2="354.11" gradientTransform="translate(1348.67 -815.18) rotate(90)" gradientUnits="userSpaceOnUse"><stop offset="0" stop-color="#ffeec7"/><stop offset="1" stop-color="#dabea6"/></linearGradient><linearGradient id="linear-gradient-12" x1="50.3" y1="240.78" x2="372.04" y2="562.52" gradientUnits="userSpaceOnUse"><stop offset="0" stop-color="#c39065"/><stop offset="1" stop-color="#95745c"/></linearGradient><linearGradient id="linear-gradient-13" x1="181.85" y1="109.24" x2="503.59" y2="430.97" xlink:href="#linear-gradient-12"/><linearGradient id="linear-gradient-14" x1="332.39" y1="473.74" x2="413.68" y2="555.04" gradientUnits="userSpaceOnUse"><stop offset="0" stop-color="#d0d0d0"/><stop offset="1" stop-color="#dedede"/></linearGradient><linearGradient id="linear-gradient-15" x1="333.98" y1="466.14" x2="587.94" y2="720.1" gradientUnits="userSpaceOnUse"><stop offset="0" stop-color="#f6f6f6"/><stop offset="1" stop-color="#dedede"/></linearGradient><linearGradient id="linear-gradient-16" x1="332.96" y1="467.17" x2="586.92" y2="721.13" xlink:href="#linear-gradient-15"/><linearGradient id="linear-gradient-17" x1="213.65" y1="586.47" x2="467.61" y2="840.43" xlink:href="#linear-gradient-15"/><linearGradient id="linear-gradient-18" x1="333.51" y1="466.62" x2="587.47" y2="720.58" xlink:href="#linear-gradient-15"/><linearGradient id="linear-gradient-19" x1="212.49" y1="587.64" x2="466.45" y2="841.6" xlink:href="#linear-gradient-15"/><linearGradient id="linear-gradient-20" x1="333.78" y1="466.35" x2="587.74" y2="720.31" xlink:href="#linear-gradient-15"/><linearGradient id="linear-gradient-21" x1="334.15" y1="465.98" x2="588.11" y2="719.94" xlink:href="#linear-gradient-15"/><linearGradient id="linear-gradient-22" x1="216.11" y1="584.02" x2="470.07" y2="837.98" xlink:href="#linear-gradient-15"/><linearGradient id="linear-gradient-23" x1="200.81" y1="193.24" x2="283.43" y2="275.85" gradientUnits="userSpaceOnUse"><stop offset="0" stop-color="#f6f6f6"/><stop offset="1" stop-color="#dadada"/></linearGradient><linearGradient id="linear-gradient-24" x1="270.33" y1="626.47" x2="270.33" y2="760.48" gradientUnits="userSpaceOnUse"><stop offset="0.95" stop-color="#c8c8c8"/><stop offset="1" stop-color="#b4b4b4"/></linearGradient><linearGradient id="linear-gradient-25" x1="367.59" y1="626.47" x2="367.59" y2="760.48" xlink:href="#linear-gradient-24"/><linearGradient id="linear-gradient-26" x1="365.3" y1="626.47" x2="365.3" y2="760.48" xlink:href="#linear-gradient-24"/><linearGradient id="linear-gradient-27" x1="364.2" y1="626.47" x2="364.2" y2="760.48" xlink:href="#linear-gradient-24"/><linearGradient id="linear-gradient-28" x1="366.42" y1="626.47" x2="366.42" y2="760.48" xlink:href="#linear-gradient-24"/><linearGradient id="linear-gradient-29" x1="276.75" y1="626.47" x2="276.75" y2="760.48" xlink:href="#linear-gradient-24"/><linearGradient id="linear-gradient-30" x1="269" y1="626.47" x2="269" y2="760.48" xlink:href="#linear-gradient-24"/><linearGradient id="linear-gradient-31" x1="273.19" y1="626.47" x2="273.19" y2="760.48" xlink:href="#linear-gradient-24"/><linearGradient id="linear-gradient-32" x1="274.46" y1="626.47" x2="274.46" y2="760.48" xlink:href="#linear-gradient-24"/><linearGradient id="linear-gradient-33" x1="275.63" y1="626.47" x2="275.63" y2="760.48" xlink:href="#linear-gradient-24"/><linearGradient id="linear-gradient-34" x1="368.85" y1="626.47" x2="368.85" y2="760.48" xlink:href="#linear-gradient-24"/><linearGradient id="linear-gradient-35" x1="271.68" y1="626.47" x2="271.68" y2="760.48" xlink:href="#linear-gradient-24"/><linearGradient id="linear-gradient-36" x1="261.57" y1="626.47" x2="261.57" y2="760.48" xlink:href="#linear-gradient-24"/><linearGradient id="linear-gradient-37" x1="263.01" y1="626.47" x2="263.01" y2="760.48" xlink:href="#linear-gradient-24"/><linearGradient id="linear-gradient-38" x1="264.53" y1="626.47" x2="264.53" y2="760.48" xlink:href="#linear-gradient-24"/><linearGradient id="linear-gradient-39" x1="267.64" y1="626.47" x2="267.64" y2="760.48" xlink:href="#linear-gradient-24"/><linearGradient id="linear-gradient-40" x1="266.22" y1="626.47" x2="266.22" y2="760.48" xlink:href="#linear-gradient-24"/><linearGradient id="linear-gradient-41" x1="277.85" y1="626.47" x2="277.85" y2="760.48" xlink:href="#linear-gradient-24"/><linearGradient id="linear-gradient-42" x1="377.51" y1="626.47" x2="377.51" y2="760.48" xlink:href="#linear-gradient-24"/><linearGradient id="linear-gradient-43" x1="374.41" y1="626.47" x2="374.41" y2="760.48" xlink:href="#linear-gradient-24"/><linearGradient id="linear-gradient-44" x1="381.91" y1="626.47" x2="381.91" y2="760.48" xlink:href="#linear-gradient-24"/><linearGradient id="linear-gradient-45" x1="240.08" y1="230.44" x2="240.08" y2="250.94" xlink:href="#linear-gradient-24"/><linearGradient id="linear-gradient-46" x1="262.02" y1="251.4" x2="262.02" y2="251.4" xlink:href="#linear-gradient-24"/><linearGradient id="linear-gradient-47" x1="373.05" y1="626.47" x2="373.05" y2="760.48" xlink:href="#linear-gradient-24"/><linearGradient id="linear-gradient-48" x1="379.03" y1="626.47" x2="379.03" y2="760.48" xlink:href="#linear-gradient-24"/><linearGradient id="linear-gradient-49" x1="375.82" y1="626.47" x2="375.82" y2="760.48" xlink:href="#linear-gradient-24"/><linearGradient id="linear-gradient-50" x1="380.47" y1="626.47" x2="380.47" y2="760.48" xlink:href="#linear-gradient-24"/><linearGradient id="linear-gradient-51" x1="155.97" y1="237.03" x2="155.97" y2="244.35" xlink:href="#linear-gradient-24"/><linearGradient id="linear-gradient-52" x1="383.37" y1="626.47" x2="383.37" y2="760.48" xlink:href="#linear-gradient-24"/><linearGradient id="linear-gradient-53" x1="370.37" y1="626.47" x2="370.37" y2="760.48" xlink:href="#linear-gradient-24"/><linearGradient id="linear-gradient-54" x1="371.72" y1="626.47" x2="371.72" y2="760.48" xlink:href="#linear-gradient-24"/><linearGradient id="linear-gradient-55" x1="260.13" y1="626.47" x2="260.13" y2="760.48" xlink:href="#linear-gradient-24"/><linearGradient id="linear-gradient-56" x1="258.67" y1="626.47" x2="258.67" y2="760.48" xlink:href="#linear-gradient-24"/><linearGradient id="linear-gradient-57" x1="109.21" y1="181.87" x2="430.95" y2="503.61" xlink:href="#linear-gradient-12"/><linearGradient id="linear-gradient-58" x1="149.71" y1="656.42" x2="403.67" y2="910.38" xlink:href="#linear-gradient-14"/><linearGradient id="linear-gradient-59" x1="269.77" y1="536.35" x2="523.73" y2="790.31" xlink:href="#linear-gradient-14"/><linearGradient id="linear-gradient-60" x1="232.18" y1="567.95" x2="486.14" y2="821.91" xlink:href="#linear-gradient-15"/><linearGradient id="linear-gradient-61" x1="232.73" y1="573.39" x2="486.69" y2="827.35" xlink:href="#linear-gradient-14"/><linearGradient id="linear-gradient-62" x1="229.73" y1="570.39" x2="483.69" y2="824.35" xlink:href="#linear-gradient-15"/><linearGradient id="linear-gradient-63" x1="168.81" y1="225.24" x2="251.43" y2="307.85" xlink:href="#linear-gradient-23"/><linearGradient id="linear-gradient-64" x1="321.02" y1="626.47" x2="321.02" y2="760.48" xlink:href="#linear-gradient-24"/><linearGradient id="linear-gradient-65" x1="186.23" y1="619.89" x2="440.19" y2="873.85" xlink:href="#linear-gradient-14"/><linearGradient id="linear-gradient-66" x1="321.02" y1="626.47" x2="321.02" y2="760.48" xlink:href="#linear-gradient-24"/><linearGradient id="linear-gradient-67" x1="76.14" y1="92.99" x2="330.1" y2="346.95" xlink:href="#linear-gradient-14"/><linearGradient id="linear-gradient-68" x1="73.14" y1="89.99" x2="327.1" y2="343.95" xlink:href="#linear-gradient-15"/><linearGradient id="linear-gradient-70" x1="65.39" y1="103.75" x2="319.35" y2="357.71" xlink:href="#linear-gradient-14"/><linearGradient id="linear-gradient-71" x1="181.6" y1="219.96" x2="228.05" y2="266.4" xlink:href="#linear-gradient-23"/><linearGradient id="linear-gradient-73" x1="238.25" y1="567.88" x2="492.21" y2="821.84" xlink:href="#linear-gradient-14"/><linearGradient id="linear-gradient-74" x1="235.25" y1="564.87" x2="489.21" y2="818.84" xlink:href="#linear-gradient-15"/><linearGradient id="linear-gradient-75" x1="372.02" y1="620.21" x2="372.02" y2="705.9" xlink:href="#linear-gradient-23"/><linearGradient id="linear-gradient-76" x1="185.8" y1="620.33" x2="439.76" y2="874.29" xlink:href="#linear-gradient-14"/><linearGradient id="linear-gradient-77" x1="182.8" y1="617.32" x2="436.76" y2="871.29" xlink:href="#linear-gradient-15"/><linearGradient id="linear-gradient-78" x1="270.02" y1="620.21" x2="270.02" y2="705.9" xlink:href="#linear-gradient-23"/><linearGradient id="linear-gradient-79" x1="215.58" y1="590.55" x2="469.54" y2="844.51" xlink:href="#linear-gradient-14"/><linearGradient id="linear-gradient-80" x1="212.58" y1="587.55" x2="466.54" y2="841.51" xlink:href="#linear-gradient-15"/><linearGradient id="linear-gradient-82" x1="321.02" y1="620.21" x2="321.02" y2="705.9" xlink:href="#linear-gradient-23"/><linearGradient id="linear-gradient-83" x1="286.51" y1="519.62" x2="540.47" y2="773.58" xlink:href="#linear-gradient-14"/><linearGradient id="linear-gradient-84" x1="283.51" y1="516.62" x2="537.47" y2="770.58" xlink:href="#linear-gradient-15"/><linearGradient id="linear-gradient-85" x1="380.02" y1="632.81" x2="380.02" y2="550.23" gradientUnits="userSpaceOnUse"><stop offset="0.31" stop-color="#f6f6f6"/><stop offset="1" stop-color="#dadada"/></linearGradient><linearGradient id="linear-gradient-86" x1="208.81" y1="597.31" x2="462.77" y2="851.27" xlink:href="#linear-gradient-14"/><linearGradient id="linear-gradient-87" x1="205.81" y1="594.31" x2="459.77" y2="848.27" xlink:href="#linear-gradient-15"/><linearGradient id="linear-gradient-88" x1="262.02" y1="632.81" x2="262.02" y2="550.23" xlink:href="#linear-gradient-85"/><linearGradient id="linear-gradient-89" x1="234.91" y1="571.22" x2="488.87" y2="825.18" xlink:href="#linear-gradient-14"/><linearGradient id="linear-gradient-90" x1="231.9" y1="568.22" x2="485.86" y2="822.18" xlink:href="#linear-gradient-15"/><linearGradient id="linear-gradient-93" x1="321.02" y1="632.81" x2="321.02" y2="550.23" xlink:href="#linear-gradient-85"/></defs><title>foreground</title><rect class="cls-1" x="827.8" y="168.18" width="249.2" height="117.83"/><rect class="cls-2" x="861.65" y="197.38" width="185.96" height="44.91"/><rect class="cls-3" x="857.19" y="192.93" width="185.96" height="44.91"/><polygon class="cls-4" points="1043.15 192.93 861.65 192.93 861.65 192.93 857.19 192.93 857.19 192.93 857.19 197.38 857.19 237.83 861.65 237.83 861.65 197.38 1043.15 197.38 1043.15 192.93"/><path class="cls-5" d="M1116.32,612.48s9.93,7.29,5.43,16.75-23,16.47-23,16.47Z" transform="translate(-123 -513.99)"/><path class="cls-6" d="M1116.32,612.48s-11.62-4.09-16.9,5-0.65,28.26-.65,28.26Z" transform="translate(-123 -513.99)"/><path class="cls-7" d="M1102.71,620.8l0,0.07,10.44-3-3.5,6.64-7.88,2.28-0.1.64,7.59-2.2-3.5,6.64-5,1.45-0.1.64,4.71-1.36-3.09,5.85-3.61,6.83,0.1,0.44,0.42-.16,3.61-6.83,3.09-5.85,1.53,4.66,0.47-.44-1.62-4.94,3.5-6.64,2.47,7.51,0.47-.44-2.56-7.79,3.5-6.64,3.39,10.33,0.07,0,0.41-.38-3.5-10.64,2.54-4.8-0.52-.27-2.54,4.8-10.76,3.11Z" transform="translate(-123 -513.99)"/><path class="cls-5" d="M1159.07,602.89s-1.39,12.24,8.62,15.36,27.69-5.69,27.69-5.69Z" transform="translate(-123 -513.99)"/><path class="cls-8" d="M1159.07,602.89s4.88-11.3,15.11-9,21.19,18.7,21.19,18.7Z" transform="translate(-123 -513.99)"/><path class="cls-9" d="M1174.42,598.55l0,0.06-9.31,5.62,7.25,1.93,7-4.24,0.54,0.36-6.77,4.09,7.25,1.93,4.46-2.69,0.54,0.36-4.2,2.53,6.39,1.7,7.47,2,0.26,0.37-0.41.2-7.47-2-6.39-1.7,2.38,4.29-0.64,0-2.53-4.55-7.25-1.93,3.84,6.91-0.64.05-4-7.17L1165,604.8l5.28,9.5-0.07,0-0.56,0-5.44-9.79-5.25-1.4,0.15-.57,5.25,1.4,9.59-5.79Z" transform="translate(-123 -513.99)"/><polygon class="cls-2" points="997.04 136.41 997.43 140.87 1047.33 140.87 1047.72 136.41 997.04 136.41"/><polygon class="cls-10" points="994.57 126.45 995.5 136.41 999.95 136.41 999.02 126.45 994.57 126.45"/><polygon class="cls-11" points="999.02 126.45 999.95 136.41 1049.27 136.41 1050.2 126.45 999.02 126.45"/><polygon class="cls-12" points="999.02 126.45 999.95 136.41 1049.27 136.41 1050.2 126.45 999.02 126.45"/><polygon class="cls-10" points="1001.5 136.41 997.04 136.41 997.43 140.87 999.84 168.18 1004.3 168.18 1001.89 140.87 1001.5 136.41"/><polygon class="cls-13" points="1047.72 136.41 1001.5 136.41 1001.89 140.87 1004.3 168.18 1044.92 168.18 1047.33 140.87 1047.72 136.41"/><polygon class="cls-14" points="1047.72 136.41 1001.5 136.41 1001.89 140.87 1004.3 168.18 1044.92 168.18 1047.33 140.87 1047.72 136.41"/><polygon class="cls-2" points="997.04 136.41 997.43 140.87 1047.33 140.87 1047.72 136.41 997.04 136.41"/><rect class="cls-5" x="997.51" y="34.87" width="3.76" height="14.23"/><path class="cls-5" d="M1143.9,610.79c-1.45-5-3.41-8.32-5.9-9.95a7.21,7.21,0,0,0-6.91-.49,25.12,25.12,0,0,0-3,.66,2.44,2.44,0,0,1-1-.35c-2-1.24-2.74-5.39-2.82-6.63V573.51a18.7,18.7,0,0,1-2-5.34,18.75,18.75,0,0,1-1.75,4.9v21.07c0,0.63.41,5.58,3.15,8.52-4.23,2-8.84,5.61-9.93,12l3.71,0.63c1.11-6.49,7.36-9.37,11.24-10.54a9.47,9.47,0,0,0,3.64-.88,3.49,3.49,0,0,1,3.63.1c2.15,1.4,7.17,7.76,7.17,36.44h3.76a140,140,0,0,0-1.72-24.26c1-2.24,5.95-11.49,15.69-11.49v-3.76C1152.17,600.93,1146.74,606.58,1143.9,610.79Z" transform="translate(-123 -513.99)"/><path class="cls-5" d="M1124.28,573.51V563.09h-3.76v10a18.75,18.75,0,0,0,1.75-4.9A18.7,18.7,0,0,0,1124.28,573.51Z" transform="translate(-123 -513.99)"/><path class="cls-15" d="M1124.28,573.51V563.09h-3.76v10a18.75,18.75,0,0,0,1.75-4.9A18.7,18.7,0,0,0,1124.28,573.51Z" transform="translate(-123 -513.99)"/><path class="cls-16" d="M1123.67,544.86S1149,542.15,1141.5,514Z" transform="translate(-123 -513.99)"/><path class="cls-17" d="M1125.2,547.29s15-20.61,35.65,0H1125.2Z" transform="translate(-123 -513.99)"/><path class="cls-18" d="M1125.2,547.29s15,20.61,35.65,0H1125.2Z" transform="translate(-123 -513.99)"/><path class="cls-16" d="M1123.67,549.72s25.37,2.71,17.83,30.87Z" transform="translate(-123 -513.99)"/><path class="cls-19" d="M1123.67,549.72s-10.33,23.33,17.83,30.87Z" transform="translate(-123 -513.99)"/><path class="cls-18" d="M1120.87,549.72S1131.2,573,1103,580.59Z" transform="translate(-123 -513.99)"/><path class="cls-17" d="M1120.87,549.72s-25.37,2.71-17.82,30.87Z" transform="translate(-123 -513.99)"/><path class="cls-18" d="M1119.59,547.29s-15,20.61-35.65,0h35.65Z" transform="translate(-123 -513.99)"/><path class="cls-16" d="M1119.59,547.29s-15-20.61-35.65,0h35.65Z" transform="translate(-123 -513.99)"/><path class="cls-16" d="M1120.87,544.86S1131.2,521.53,1103,514Z" transform="translate(-123 -513.99)"/><path class="cls-18" d="M1120.87,544.86S1095.5,542.15,1103,514Z" transform="translate(-123 -513.99)"/><path class="cls-17" d="M1123.67,544.86s-10.33-23.33,17.83-30.87Z" transform="translate(-123 -513.99)"/><circle class="cls-20" cx="999.72" cy="33.3" r="7.13"/><path class="cls-21" d="M1167.92,682.17l2.41-27.31,0.39-4.45h1.54l0.93-10h-26.33a140,140,0,0,0-1.72-24.26c1-2.09,5.33-10.31,13.86-11.37,0.07,3.57,1.14,11.09,8.68,13.44,10,3.12,27.69-5.69,27.69-5.69s-11-16.44-21.19-18.7c-7.52-1.67-12.14,4-14.06,7.1-8.25.31-13.46,5.74-16.22,9.83-1.45-5-3.41-8.32-5.9-9.95a7.21,7.21,0,0,0-6.91-.49,25.11,25.11,0,0,0-3,.66,2.44,2.44,0,0,1-1-.35c-2-1.24-2.74-5.39-2.82-6.63v-25c2.61,4.63,7.72,9,17.22,11.52,3.53-13.19-.15-20.79-5.07-25.15,6.25,2.12,14.72,1.56,24.42-8.15-9.71-9.71-18.18-10.27-24.42-8.15,4.92-4.36,8.6-12,5.07-25.15-13.12,3.52-17.88,10.46-19.23,16.87-1.34-6.41-6.1-13.36-19.23-16.87-3.5,13.07.09,20.65,4.94,25-6.21-2-14.53-1.24-24,8.27,9.51,9.51,17.83,10.24,24,8.27-4.85,4.38-8.44,12-4.94,25,9.81-2.63,14.94-7.18,17.47-12v25.53c0,0.63.41,5.58,3.15,8.52-3.59,1.7-7.43,4.58-9.19,9.33-3.49-.73-11.07-1.38-15.05,5.45-5.28,9.05-.65,28.26-0.65,28.26s18.47-7,23-16.47c3.36-7.07-1.33-12.92-3.91-15.43,1.75-5.41,7.29-7.93,10.85-9a9.46,9.46,0,0,0,3.64-.88,3.49,3.49,0,0,1,3.63.1c2.15,1.4,7.17,7.76,7.17,36.44h-25.55l0.93,10H1120l0.39,4.45,2.41,27.31h-172V800H1200V682.17h-32.08Zm-45.69-142,0-.22,0,0.21h-0.08Zm6.55,10.8h0l0,0Zm0-7.42h0l0,0Zm-12.27.25-0.07.13-0.28-.24Zm-0.07,6.78,0.07,0.13-0.35.11Z" transform="translate(-123 -513.99)"/><rect class="cls-22" y="257.49" width="134.02"/><polygon class="cls-23" points="262.02 257.49 398.18 257.49 398.18 286.01 398.18 286.01 398.18 257.49 262.02 257.49 262.02 257.49 262.02 257.49"/><path class="cls-24" d="M442.5,583.86v0h0v0Z" transform="translate(-123 -513.99)"/><path class="cls-25" d="M440.93,572.73a9.16,9.16,0,0,1,.85,1.56A9.16,9.16,0,0,0,440.93,572.73Z" transform="translate(-123 -513.99)"/><path class="cls-26" d="M433.32,568.68h0a9.18,9.18,0,0,1,2.73.41A9.18,9.18,0,0,0,433.32,568.68Z" transform="translate(-123 -513.99)"/><path class="cls-27" d="M200.27,574.29a9.16,9.16,0,0,1,.85-1.56A9.16,9.16,0,0,0,200.27,574.29Z" transform="translate(-123 -513.99)"/><path class="cls-28" d="M441.77,574.29a9.11,9.11,0,0,1,.53,1.72A9.11,9.11,0,0,0,441.77,574.29Z" transform="translate(-123 -513.99)"/><path class="cls-29" d="M199.73,576a9.11,9.11,0,0,1,.53-1.72A9.11,9.11,0,0,0,199.73,576Z" transform="translate(-123 -513.99)"/><path class="cls-30" d="M436,569.09a9.13,9.13,0,0,1,1.65.7A9.13,9.13,0,0,0,436,569.09Z" transform="translate(-123 -513.99)"/><path class="cls-31" d="M440.93,572.73a9.22,9.22,0,0,0-3.24-2.94A9.22,9.22,0,0,1,440.93,572.73Z" transform="translate(-123 -513.99)"/><path class="cls-32" d="M204.35,569.79a9.22,9.22,0,0,0-2.71,2.23A9.22,9.22,0,0,1,204.35,569.79Z" transform="translate(-123 -513.99)"/><rect class="cls-33" x="262.02" y="251.4" height="6.09"/><path class="cls-34" d="M270.11,761.2l0.45-.26Z" transform="translate(-123 -513.99)"/><path class="cls-35" d="M367.39,758.17l0.39,0.29Z" transform="translate(-123 -513.99)"/><path class="cls-36" d="M365.12,756.41l0.35,0.28Z" transform="translate(-123 -513.99)"/><path class="cls-37" d="M364.08,755.55l0.24,0.2Z" transform="translate(-123 -513.99)"/><path class="cls-38" d="M366.22,757.28l0.4,0.31Z" transform="translate(-123 -513.99)"/><path class="cls-39" d="M276.58,756.69l0.34-.28Z" transform="translate(-123 -513.99)"/><path class="cls-40" d="M268.75,762l0.49-.27Z" transform="translate(-123 -513.99)"/><path class="cls-41" d="M273.06,759.31l0.25-.18Z" transform="translate(-123 -513.99)"/><path class="cls-42" d="M274.26,758.46l0.38-.28Z" transform="translate(-123 -513.99)"/><path class="cls-43" d="M275.43,757.59l0.39-.3Z" transform="translate(-123 -513.99)"/><path class="cls-44" d="M368.72,759.13l0.26,0.18Z" transform="translate(-123 -513.99)"/><path class="cls-45" d="M271.54,760.32l0.28-.18Z" transform="translate(-123 -513.99)"/><path class="cls-46" d="M261.31,764.88l0.53-.13Z" transform="translate(-123 -513.99)"/><path class="cls-47" d="M262.77,764.49l0.48-.14Z" transform="translate(-123 -513.99)"/><path class="cls-48" d="M264.42,763.94l0.23-.08Z" transform="translate(-123 -513.99)"/><path class="cls-49" d="M267.39,762.66l0.49-.25Z" transform="translate(-123 -513.99)"/><path class="cls-50" d="M266,763.3l0.39-.18Z" transform="translate(-123 -513.99)"/><path class="cls-51" d="M277.74,755.73l0.22-.18Z" transform="translate(-123 -513.99)"/><path class="cls-52" d="M377.4,763.86l0.23,0.08Z" transform="translate(-123 -513.99)"/><path class="cls-53" d="M374.16,762.42l0.49,0.25Z" transform="translate(-123 -513.99)"/><path class="cls-54" d="M381.64,765.06l0.53,0.09Z" transform="translate(-123 -513.99)"/><polygon class="cls-55" points="240.08 240.69 240.08 240.69 240.08 240.69 240.08 240.69"/><polygon class="cls-56" points="262.02 251.4 262.02 251.4 262.02 251.4 262.02 251.4"/><path class="cls-57" d="M372.8,761.69l0.5,0.27Z" transform="translate(-123 -513.99)"/><path class="cls-58" d="M378.79,764.35l0.48,0.14Z" transform="translate(-123 -513.99)"/><path class="cls-59" d="M375.62,763.12l0.4,0.18Z" transform="translate(-123 -513.99)"/><path class="cls-60" d="M380.2,764.75l0.54,0.13Z" transform="translate(-123 -513.99)"/><polygon class="cls-61" points="155.97 240.69 155.97 240.69 155.97 240.69 155.97 240.69"/><path class="cls-62" d="M383.14,765.28l0.46,0.05Z" transform="translate(-123 -513.99)"/><path class="cls-63" d="M370.22,760.14l0.29,0.18Z" transform="translate(-123 -513.99)"/><path class="cls-64" d="M371.49,760.94l0.45,0.27Z" transform="translate(-123 -513.99)"/><path class="cls-65" d="M259.87,765.16l0.53-.09Z" transform="translate(-123 -513.99)"/><path class="cls-66" d="M258.44,765.33l0.46-.05Z" transform="translate(-123 -513.99)"/><path class="cls-67" d="M275.82,757.28l0.75-.6Z" transform="translate(-123 -513.99)"/><path class="cls-67" d="M379.27,764.49l0.93,0.26Z" transform="translate(-123 -513.99)"/><path class="cls-67" d="M367.78,758.46l0.94,0.67Z" transform="translate(-123 -513.99)"/><path class="cls-67" d="M271.82,760.14l1.24-.83Z" transform="translate(-123 -513.99)"/><path class="cls-67" d="M380.74,764.88l0.9,0.19Z" transform="translate(-123 -513.99)"/><path class="cls-67" d="M274.65,758.18l0.78-.59Z" transform="translate(-123 -513.99)"/><path class="cls-67" d="M382.18,765.16l1,0.12Z" transform="translate(-123 -513.99)"/><path class="cls-67" d="M383.6,765.33c0.47,0,.95.06,1.42,0.06C384.55,765.39,384.08,765.37,383.6,765.33Z" transform="translate(-123 -513.99)"/><path class="cls-67" d="M273.31,759.14l1-.68Z" transform="translate(-123 -513.99)"/><path class="cls-67" d="M276.92,756.41l0.82-.68Z" transform="translate(-123 -513.99)"/><path class="cls-67" d="M371.94,761.2l0.86,0.49Z" transform="translate(-123 -513.99)"/><path class="cls-67" d="M363.08,754.68l1,0.86Z" transform="translate(-123 -513.99)"/><path class="cls-67" d="M364.32,755.74l0.8,0.67Z" transform="translate(-123 -513.99)"/><path class="cls-67" d="M365.47,756.69l0.74,0.59Z" transform="translate(-123 -513.99)"/><path class="cls-67" d="M278,755.55l1-.87Z" transform="translate(-123 -513.99)"/><path class="cls-67" d="M369,759.32l1.24,0.83Z" transform="translate(-123 -513.99)"/><path class="cls-67" d="M370.51,760.33l1,0.61Z" transform="translate(-123 -513.99)"/><path class="cls-67" d="M366.62,757.59l0.77,0.58Z" transform="translate(-123 -513.99)"/><path class="cls-67" d="M269.24,761.69l0.86-.49Z" transform="translate(-123 -513.99)"/><path class="cls-67" d="M377.63,763.94c0.39,0.14.77,0.28,1.16,0.4C378.4,764.22,378,764.09,377.63,763.94Z" transform="translate(-123 -513.99)"/><path class="cls-67" d="M442.45,746.44a9.12,9.12,0,0,1-.67,2.63A9.12,9.12,0,0,0,442.45,746.44Z" transform="translate(-123 -513.99)"/><path class="cls-67" d="M376,763.3c0.46,0.2.92,0.39,1.38,0.56C376.94,763.69,376.48,763.5,376,763.3Z" transform="translate(-123 -513.99)"/><path class="cls-67" d="M374.65,762.66l1,0.45Z" transform="translate(-123 -513.99)"/><path class="cls-67" d="M373.3,762l0.86,0.45Z" transform="translate(-123 -513.99)"/><path class="cls-67" d="M270.55,760.94l1-.61Z" transform="translate(-123 -513.99)"/><path class="cls-67" d="M258.9,765.28l1-.12Z" transform="translate(-123 -513.99)"/><path class="cls-67" d="M208.73,754.68a9.18,9.18,0,0,1-9.18-9.18v0a9.18,9.18,0,0,0,9.18,9.18h0Z" transform="translate(-123 -513.99)"/><path class="cls-67" d="M433.32,754.68h0a9.18,9.18,0,0,0,8.46-5.61A9.18,9.18,0,0,1,433.32,754.68Z" transform="translate(-123 -513.99)"/><path class="cls-67" d="M260.4,765.06l0.91-.19Z" transform="translate(-123 -513.99)"/><path class="cls-67" d="M267.88,762.42l0.87-.45Z" transform="translate(-123 -513.99)"/><path class="cls-67" d="M264.65,763.86c0.46-.18.92-0.36,1.38-0.56C265.57,763.5,265.11,763.69,264.65,763.86Z" transform="translate(-123 -513.99)"/><path class="cls-67" d="M266.42,763.12l1-.45Z" transform="translate(-123 -513.99)"/><path class="cls-67" d="M261.84,764.75l0.93-.26Z" transform="translate(-123 -513.99)"/><path class="cls-67" d="M263.25,764.35c0.39-.12.78-0.26,1.17-0.4C264,764.09,263.64,764.22,263.25,764.35Z" transform="translate(-123 -513.99)"/><path class="cls-67" d="M257,765.39c0.47,0,.95,0,1.42-0.06C258,765.37,257.49,765.39,257,765.39Z" transform="translate(-123 -513.99)"/><polygon class="cls-68" points="398.18 257.49 262.02 257.49 262.02 257.49 134.02 257.49 134.02 257.49 0 257.49 0 286.01 398.18 286.01 398.18 257.49"/><polygon class="cls-67" points="398.18 257.49 262.02 257.49 262.02 257.49 134.02 257.49 134.02 257.49 0 257.49 0 286.01 398.18 286.01 398.18 257.49"/><path class="cls-69" d="M285,748.68H208.73a9.18,9.18,0,0,1-9.18-9.16v6a9.18,9.18,0,0,0,9.18,9.18H279A67.69,67.69,0,0,0,285,748.68Z" transform="translate(-123 -513.99)"/><path class="cls-67" d="M285,748.68H208.73a9.18,9.18,0,0,1-9.18-9.16v6a9.18,9.18,0,0,0,9.18,9.18H279A67.69,67.69,0,0,0,285,748.68Z" transform="translate(-123 -513.99)"/><path class="cls-70" d="M442.5,739.5a9.18,9.18,0,0,1-9.18,9.18H357a67.69,67.69,0,0,0,6.06,6h70.24a9.17,9.17,0,0,0,9.13-8.24,9.3,9.3,0,0,0,0-.94v-6Z" transform="translate(-123 -513.99)"/><path class="cls-67" d="M442.5,739.5a9.18,9.18,0,0,1-9.18,9.18H357a67.69,67.69,0,0,0,6.06,6h70.24a9.17,9.17,0,0,0,9.13-8.24,9.3,9.3,0,0,0,0-.94v-6Z" transform="translate(-123 -513.99)"/><path class="cls-71" d="M199.55,583.86a9.18,9.18,0,0,1,9.18-9.18H433.32a9.18,9.18,0,0,1,9.18,9.16v-6a9.23,9.23,0,0,0-.19-1.85,9.13,9.13,0,0,0-1.38-3.28,9.22,9.22,0,0,0-3.24-2.94,9.13,9.13,0,0,0-4.38-1.11H208.73a9.17,9.17,0,0,0-7.08,3.34q-0.28.34-.53,0.71a9.14,9.14,0,0,0-1.57,5.13v6Z" transform="translate(-123 -513.99)"/><path class="cls-67" d="M199.55,583.86a9.18,9.18,0,0,1,9.18-9.18H433.32a9.18,9.18,0,0,1,9.18,9.16v-6a9.23,9.23,0,0,0-.19-1.85,9.13,9.13,0,0,0-1.38-3.28,9.22,9.22,0,0,0-3.24-2.94,9.13,9.13,0,0,0-4.38-1.11H208.73a9.17,9.17,0,0,0-7.08,3.34q-0.28.34-.53,0.71a9.14,9.14,0,0,0-1.57,5.13v6Z" transform="translate(-123 -513.99)"/><path class="cls-72" d="M433.32,574.68H208.73a9.18,9.18,0,0,0-9.18,9.18V739.52a9.18,9.18,0,0,0,9.18,9.16H285V709H269a14,14,0,0,1-14-14v-3.11h0V622.6a13.75,13.75,0,0,1,14-13.49H373a13.75,13.75,0,0,1,14,13.49V695a14,14,0,0,1-14,14H357v39.64h76.29a9.18,9.18,0,0,0,9.18-9.18V583.84h0A9.18,9.18,0,0,0,433.32,574.68Z" transform="translate(-123 -513.99)"/><path class="cls-73" d="M433.32,574.68H208.73a9.18,9.18,0,0,0-9.18,9.18V739.52a9.18,9.18,0,0,0,9.18,9.16H285V709H269a14,14,0,0,1-14-14v-3.11h0V622.6a13.75,13.75,0,0,1,14-13.49H373a13.75,13.75,0,0,1,14,13.49V695a14,14,0,0,1-14,14H357v39.64h76.29a9.18,9.18,0,0,0,9.18-9.18V583.84h0A9.18,9.18,0,0,0,433.32,574.68Z" transform="translate(-123 -513.99)"/><path class="cls-67" d="M433.32,574.68H208.73a9.18,9.18,0,0,0-9.18,9.18V739.52a9.18,9.18,0,0,0,9.18,9.16H285V709H269a14,14,0,0,1-14-14v-3.11h0V622.6a13.75,13.75,0,0,1,14-13.49H373a13.75,13.75,0,0,1,14,13.49V695a14,14,0,0,1-14,14H357v39.64h76.29a9.18,9.18,0,0,0,9.18-9.18V583.84h0A9.18,9.18,0,0,0,433.32,574.68Z" transform="translate(-123 -513.99)"/><polygon class="cls-74" points="262.02 251.4 198.02 251.4 134.02 251.4 134.02 257.49 262.02 257.49 262.02 251.4"/><polygon class="cls-67" points="262.02 251.4 198.02 251.4 134.02 251.4 134.02 257.49 262.02 257.49 262.02 251.4"/><path class="cls-75" d="M385,765.39h0c-0.47,0-.95,0-1.42-0.06l-0.46-.05-1-.12-0.53-.09-0.9-.19-0.54-.13-0.93-.26-0.48-.14c-0.39-.12-0.78-0.26-1.16-0.4l-0.23-.08c-0.46-.18-0.92-0.36-1.38-0.56l-0.4-.18-1-.45-0.49-.25L373.3,762l-0.5-.27-0.86-.49-0.45-.27-1-.61-0.29-.18-1.24-.83-0.26-.18-0.94-.67-0.39-.29-0.77-.58-0.4-.31-0.74-.59-0.35-.28-0.8-.67-0.24-.2-1-.86H279l-1,.87-0.22.18-0.82.68-0.34.28-0.75.6-0.39.3-0.78.59-0.38.28-1,.68-0.25.18-1.24.83-0.28.18-1,.61-0.45.26-0.86.49-0.49.27-0.87.45-0.49.25-1,.45-0.39.18c-0.46.2-.92,0.39-1.38,0.56l-0.23.08c-0.39.14-.78,0.28-1.17,0.4l-0.48.14-0.93.26-0.53.13-0.91.19-0.53.09-1,.12-0.46.05c-0.47,0-.95.06-1.42,0.06H385Z" transform="translate(-123 -513.99)"/><path class="cls-67" d="M385,765.39h0c-0.47,0-.95,0-1.42-0.06l-0.46-.05-1-.12-0.53-.09-0.9-.19-0.54-.13-0.93-.26-0.48-.14c-0.39-.12-0.78-0.26-1.16-0.4l-0.23-.08c-0.46-.18-0.92-0.36-1.38-0.56l-0.4-.18-1-.45-0.49-.25L373.3,762l-0.5-.27-0.86-.49-0.45-.27-1-.61-0.29-.18-1.24-.83-0.26-.18-0.94-.67-0.39-.29-0.77-.58-0.4-.31-0.74-.59-0.35-.28-0.8-.67-0.24-.2-1-.86H279l-1,.87-0.22.18-0.82.68-0.34.28-0.75.6-0.39.3-0.78.59-0.38.28-1,.68-0.25.18-1.24.83-0.28.18-1,.61-0.45.26-0.86.49-0.49.27-0.87.45-0.49.25-1,.45-0.39.18c-0.46.2-.92,0.39-1.38,0.56l-0.23.08c-0.39.14-.78,0.28-1.17,0.4l-0.48.14-0.93.26-0.53.13-0.91.19-0.53.09-1,.12-0.46.05c-0.47,0-.95.06-1.42,0.06H385Z" transform="translate(-123 -513.99)"/><path class="cls-76" d="M357,748.68v3.38H285v-3.38a67.69,67.69,0,0,1-6.06,6h84.11A67.69,67.69,0,0,1,357,748.68Z" transform="translate(-123 -513.99)"/><path class="cls-77" d="M357,748.68v3.38H285v-3.38a67.69,67.69,0,0,1-6.06,6h84.11A67.69,67.69,0,0,1,357,748.68Z" transform="translate(-123 -513.99)"/><path class="cls-67" d="M357,748.68v3.38H285v-3.38a67.69,67.69,0,0,1-6.06,6h84.11A67.69,67.69,0,0,1,357,748.68Z" transform="translate(-123 -513.99)"/><rect class="cls-78" x="162.02" y="195.05" width="72" height="39.64"/><rect class="cls-79" x="162.02" y="195.05" width="72" height="39.64"/><rect class="cls-77" x="162.02" y="195.05" width="72" height="39.64"/><rect class="cls-67" x="162.02" y="195.05" width="72" height="39.64"/><rect class="cls-80" x="162.02" y="234.69" width="72" height="3.38"/><rect class="cls-81" x="162.02" y="234.69" width="72" height="3.38"/><rect class="cls-77" x="162.02" y="234.69" width="72" height="3.38"/><rect class="cls-67" x="162.02" y="234.69" width="72" height="3.38"/><path class="cls-82" d="M373,708.25H357V709h16a14,14,0,0,0,14-14v-0.79A14,14,0,0,1,373,708.25Z" transform="translate(-123 -513.99)"/><path class="cls-83" d="M373,708.25H357V709h16a14,14,0,0,0,14-14v-0.79A14,14,0,0,1,373,708.25Z" transform="translate(-123 -513.99)"/><path class="cls-84" d="M373,708.25H357V709h16a14,14,0,0,0,14-14v-0.79A14,14,0,0,1,373,708.25Z" transform="translate(-123 -513.99)"/><path class="cls-67" d="M373,708.25H357V709h16a14,14,0,0,0,14-14v-0.79A14,14,0,0,1,373,708.25Z" transform="translate(-123 -513.99)"/><path class="cls-85" d="M269,708.25a14,14,0,0,1-14-14V695a14,14,0,0,0,14,14h16v-0.79H269Z" transform="translate(-123 -513.99)"/><path class="cls-86" d="M269,708.25a14,14,0,0,1-14-14V695a14,14,0,0,0,14,14h16v-0.79H269Z" transform="translate(-123 -513.99)"/><path class="cls-87" d="M269,708.25a14,14,0,0,1-14-14V695a14,14,0,0,0,14,14h16v-0.79H269Z" transform="translate(-123 -513.99)"/><path class="cls-67" d="M269,708.25a14,14,0,0,1-14-14V695a14,14,0,0,0,14,14h16v-0.79H269Z" transform="translate(-123 -513.99)"/><path class="cls-88" d="M357,708.25h16a14,14,0,0,0,14-14v-2.33a13.75,13.75,0,0,1-14,13.49H269a13.75,13.75,0,0,1-14-13.48v2.32a14,14,0,0,0,14,14h16V709h72v-0.79Z" transform="translate(-123 -513.99)"/><path class="cls-89" d="M357,708.25h16a14,14,0,0,0,14-14v-2.33a13.75,13.75,0,0,1-14,13.49H269a13.75,13.75,0,0,1-14-13.48v2.32a14,14,0,0,0,14,14h16V709h72v-0.79Z" transform="translate(-123 -513.99)"/><path class="cls-75" d="M357,708.25h16a14,14,0,0,0,14-14v-2.33a13.75,13.75,0,0,1-14,13.49H269a13.75,13.75,0,0,1-14-13.48v2.32a14,14,0,0,0,14,14h16V709h72v-0.79Z" transform="translate(-123 -513.99)"/><path class="cls-90" d="M357,708.25h16a14,14,0,0,0,14-14v-2.33a13.75,13.75,0,0,1-14,13.49H269a13.75,13.75,0,0,1-14-13.48v2.32a14,14,0,0,0,14,14h16V709h72v-0.79Z" transform="translate(-123 -513.99)"/><path class="cls-67" d="M357,708.25h16a14,14,0,0,0,14-14v-2.33a13.75,13.75,0,0,1-14,13.49H269a13.75,13.75,0,0,1-14-13.48v2.32a14,14,0,0,0,14,14h16V709h72v-0.79Z" transform="translate(-123 -513.99)"/><path class="cls-91" d="M387,623.11V622.6a13.75,13.75,0,0,0-14-13.49A14,14,0,0,1,387,623.11Z" transform="translate(-123 -513.99)"/><path class="cls-92" d="M387,623.11V622.6a13.75,13.75,0,0,0-14-13.49A14,14,0,0,1,387,623.11Z" transform="translate(-123 -513.99)"/><path class="cls-93" d="M387,623.11V622.6a13.75,13.75,0,0,0-14-13.49A14,14,0,0,1,387,623.11Z" transform="translate(-123 -513.99)"/><path class="cls-67" d="M387,623.11V622.6a13.75,13.75,0,0,0-14-13.49A14,14,0,0,1,387,623.11Z" transform="translate(-123 -513.99)"/><path class="cls-94" d="M269,609.11a13.75,13.75,0,0,0-14,13.49v69.32h0V623.11A14,14,0,0,1,269,609.11Z" transform="translate(-123 -513.99)"/><path class="cls-95" d="M269,609.11a13.75,13.75,0,0,0-14,13.49v69.32h0V623.11A14,14,0,0,1,269,609.11Z" transform="translate(-123 -513.99)"/><path class="cls-96" d="M269,609.11a13.75,13.75,0,0,0-14,13.49v69.32h0V623.11A14,14,0,0,1,269,609.11Z" transform="translate(-123 -513.99)"/><path class="cls-67" d="M269,609.11a13.75,13.75,0,0,0-14,13.49v69.32h0V623.11A14,14,0,0,1,269,609.11Z" transform="translate(-123 -513.99)"/><path class="cls-97" d="M269,705.42H373a13.75,13.75,0,0,0,14-13.49V623.11a14,14,0,0,0-14-14H269a14,14,0,0,0-14,14v68.82A13.75,13.75,0,0,0,269,705.42Z" transform="translate(-123 -513.99)"/><path class="cls-98" d="M269,705.42H373a13.75,13.75,0,0,0,14-13.49V623.11a14,14,0,0,0-14-14H269a14,14,0,0,0-14,14v68.82A13.75,13.75,0,0,0,269,705.42Z" transform="translate(-123 -513.99)"/><path class="cls-75" d="M269,705.42H373a13.75,13.75,0,0,0,14-13.49V623.11a14,14,0,0,0-14-14H269a14,14,0,0,0-14,14v68.82A13.75,13.75,0,0,0,269,705.42Z" transform="translate(-123 -513.99)"/><path class="cls-90" d="M269,705.42H373a13.75,13.75,0,0,0,14-13.49V623.11a14,14,0,0,0-14-14H269a14,14,0,0,0-14,14v68.82A13.75,13.75,0,0,0,269,705.42Z" transform="translate(-123 -513.99)"/><path class="cls-99" d="M269,705.42H373a13.75,13.75,0,0,0,14-13.49V623.11a14,14,0,0,0-14-14H269a14,14,0,0,0-14,14v68.82A13.75,13.75,0,0,0,269,705.42Z" transform="translate(-123 -513.99)"/><path class="cls-67" d="M269,705.42H373a13.75,13.75,0,0,0,14-13.49V623.11a14,14,0,0,0-14-14H269a14,14,0,0,0-14,14v68.82A13.75,13.75,0,0,0,269,705.42Z" transform="translate(-123 -513.99)"/></svg>