<svg id="Key" xmlns="http://www.w3.org/2000/svg" viewBox="0 0 42.5 31.48"><defs><style>.cls-1{fill:#ffde00;}</style></defs><title>key</title><path class="cls-1" d="M120.75,658.49c-3.55-4.72-9.32-6.36-12.88-3.68-2.74,2.06-3.38,6.08-1.92,10l-2.52,1.9-0.35,3.17-3.06-.61-3.15,2.37L98.65,674l-2,1.5-1.77-2.35-5.55,4.18,1.77,2.35-4.85,0-5.35,4,1,1.36,11.43-1,17.25-13c3.34,2.48,7.38,3,10.11.92C124.29,669.2,124.3,663.21,120.75,658.49ZM113,664.3c-1.79-2.37-1.79-5.38,0-6.72s4.67-.5,6.46,1.87,1.79,5.38,0,6.72S114.81,666.68,113,664.3Z" transform="translate(-80.91 -653.52)"/></svg>