<svg id="Lamp" xmlns="http://www.w3.org/2000/svg" xmlns:xlink="http://www.w3.org/1999/xlink" viewBox="0 0 262.31 266.79"><defs><style>.cls-1{fill:#9e1460;}.cls-2{fill:#1ab0d8;}.cls-3{fill:url(#linear-gradient);}.cls-4{fill:url(#linear-gradient-2);}.cls-5{opacity:0.5;fill:url(#linear-gradient-3);}</style><linearGradient id="linear-gradient" x1="117.58" y1="35.57" x2="144.51" y2="62.5" gradientUnits="userSpaceOnUse"><stop offset="0" stop-color="#1ab0d8"/><stop offset="1" stop-color="#006e98"/></linearGradient><linearGradient id="linear-gradient-2" x1="794" y1="51.04" x2="877.74" y2="134.78" xlink:href="#linear-gradient"/><linearGradient id="linear-gradient-3" x1="131.16" y1="86.67" x2="131.16" y2="219.63" gradientUnits="userSpaceOnUse"><stop offset="0" stop-color="#ffeec7"/><stop offset="1" stop-color="#fff" stop-opacity="0"/></linearGradient></defs><title>lamp</title><rect class="cls-1" x="130.4" width="1.52" height="81.17"/><polygon class="cls-2" points="124.84 43.28 121.81 56.28 126.11 56.28 129.14 43.28 124.84 43.28"/><polygon class="cls-3" points="129.14 43.28 126.11 56.28 140.5 56.28 137.47 43.28 129.14 43.28"/><path class="cls-2" d="M848.68,79.86c14.1,0,26.71,4.59,35.19,11.82-8.12-9.66-22.77-16.12-39.49-16.12-25.52,0-46.21,15-46.24,33.56h4.69C805.77,92.62,825.17,79.86,848.68,79.86Z" transform="translate(-713.23 -20.66)"/><path class="cls-4" d="M883.88,91.68c-8.48-7.23-21.1-11.82-35.19-11.82-23.51,0-42.91,12.76-45.84,29.26h87.78A27,27,0,0,0,883.88,91.68Z" transform="translate(-713.23 -20.66)"/><polygon class="cls-5" points="176.2 88.46 171.5 88.46 131.16 88.46 90.81 88.46 86.11 88.46 0 266.79 131.16 266.79 262.31 266.79 176.2 88.46"/></svg>