<svg xmlns="http://www.w3.org/2000/svg" xmlns:xlink="http://www.w3.org/1999/xlink" viewBox="0 0 124.76 85.66"><defs><style>.cls-1{isolation:isolate;}.cls-2,.cls-4{fill:#1d1d1b;}.cls-2{opacity:0.15;}.cls-3{fill:#f6f6f6;}.cls-4{opacity:0.1;}.cls-22,.cls-5{fill:#fff;}.cls-5{opacity:0.33;}.cls-6{fill:#706f6f;}.cls-7{fill:url(#linear-gradient);}.cls-8{fill:#aaa;}.cls-60,.cls-9{mix-blend-mode:multiply;}.cls-9{fill:url(#linear-gradient-2);}.cls-10{fill:url(#linear-gradient-3);}.cls-11{fill:#c9e5de;}.cls-12{fill:url(#linear-gradient-4);}.cls-13{fill:url(#linear-gradient-5);}.cls-14{fill:url(#linear-gradient-6);}.cls-15{fill:url(#linear-gradient-7);}.cls-16{fill:#d9a883;}.cls-17{fill:#bd8964;}.cls-18,.cls-20{opacity:0.24;}.cls-18{fill:url(#linear-gradient-8);}.cls-19{fill:url(#linear-gradient-9);}.cls-20{fill:url(#linear-gradient-10);}.cls-21{fill:#4d1d12;}.cls-23{fill:#17a8dc;}.cls-24{fill:#2a9dce;}.cls-25{fill:#182c4b;}.cls-26{fill:#1c2a3a;}.cls-27,.cls-28,.cls-30,.cls-31{opacity:0.64;}.cls-27{fill:url(#linear-gradient-11);}.cls-28{fill:url(#linear-gradient-12);}.cls-29,.cls-32{opacity:0.39;}.cls-29{fill:url(#linear-gradient-13);}.cls-30{fill:url(#linear-gradient-14);}.cls-31{fill:url(#linear-gradient-15);}.cls-32{fill:url(#linear-gradient-16);}.cls-33{fill:url(#linear-gradient-17);}.cls-34{fill:url(#radial-gradient);}.cls-35{fill:url(#linear-gradient-18);}.cls-36{fill:url(#radial-gradient-2);}.cls-37{fill:#e7f2fb;}.cls-38{fill:#e30613;}.cls-39{fill:url(#linear-gradient-19);}.cls-40{fill:url(#linear-gradient-20);}.cls-41{fill:url(#linear-gradient-21);}.cls-42{fill:url(#linear-gradient-22);}.cls-43{fill:url(#linear-gradient-23);}.cls-44{fill:url(#linear-gradient-24);}.cls-45{fill:url(#linear-gradient-25);}.cls-46{fill:url(#linear-gradient-26);}.cls-47{fill:url(#linear-gradient-27);}.cls-48{fill:url(#linear-gradient-28);}.cls-49{fill:url(#linear-gradient-29);}.cls-50{fill:url(#linear-gradient-30);}.cls-51{fill:url(#linear-gradient-31);}.cls-52{fill:url(#linear-gradient-32);}.cls-53{fill:url(#linear-gradient-33);}.cls-54{fill:#d9e9f8;}.cls-55{fill:#99c8ea;}.cls-56{fill:#733514;}.cls-57{fill:#2b87b9;opacity:0.12;}.cls-58{fill:url(#linear-gradient-34);}.cls-59{fill:url(#linear-gradient-35);}.cls-60{fill:url(#linear-gradient-36);}.cls-61{fill:#c6c6c6;}</style><linearGradient id="linear-gradient" x1="34.69" y1="239.7" x2="46.56" y2="251.57" gradientTransform="matrix(0.4, 0.42, -0.79, 0.31, 230.8, -66.23)" gradientUnits="userSpaceOnUse"><stop offset="0" stop-color="#2fb2d7"/><stop offset="1" stop-color="#0087ba"/></linearGradient><linearGradient id="linear-gradient-2" x1="24.49" y1="270.49" x2="65.2" y2="311.19" gradientTransform="matrix(0.4, 0.42, -0.79, 0.31, 230.8, -66.23)" gradientUnits="userSpaceOnUse"><stop offset="0" stop-color="#f6a667"/><stop offset="1" stop-color="#c46572"/></linearGradient><linearGradient id="linear-gradient-3" x1="93.88" y1="216.14" x2="134.58" y2="256.85" xlink:href="#linear-gradient"/><linearGradient id="linear-gradient-4" x1="96.7" y1="234.63" x2="119.56" y2="234.63" gradientTransform="matrix(0.4, 0.42, -0.79, 0.31, 265.16, 565.24)" gradientUnits="userSpaceOnUse"><stop offset="0" stop-color="#f5ddcc"/><stop offset="1" stop-color="#dbad8b"/></linearGradient><linearGradient id="linear-gradient-5" x1="96.7" y1="235.11" x2="119.56" y2="235.11" xlink:href="#linear-gradient-4"/><linearGradient id="linear-gradient-6" x1="96.72" y1="240.38" x2="119.56" y2="240.38" xlink:href="#linear-gradient-4"/><linearGradient id="linear-gradient-7" x1="96.7" y1="235.14" x2="119.56" y2="235.14" xlink:href="#linear-gradient-4"/><linearGradient id="linear-gradient-8" x1="107.37" y1="237.7" x2="112.39" y2="240.01" gradientTransform="matrix(0.4, 0.42, -0.79, 0.31, 265.16, 565.24)" gradientUnits="userSpaceOnUse"><stop offset="0" stop-color="#f5ddcc" stop-opacity="0"/><stop offset="1" stop-color="#b28870"/></linearGradient><linearGradient id="linear-gradient-9" x1="96.7" y1="235.18" x2="119.56" y2="235.18" xlink:href="#linear-gradient-4"/><linearGradient id="linear-gradient-10" x1="109.42" y1="233.27" x2="114.43" y2="235.57" xlink:href="#linear-gradient-8"/><linearGradient id="linear-gradient-11" x1="103.24" y1="233.46" x2="104.97" y2="232.04" gradientTransform="matrix(0.4, 0.42, -0.79, 0.31, 265.16, 565.24)" gradientUnits="userSpaceOnUse"><stop offset="0" stop-color="#cbe9fc"/><stop offset="0.06" stop-color="#cceafc" stop-opacity="0.97"/><stop offset="0.13" stop-color="#d0ebfc" stop-opacity="0.9"/><stop offset="0.23" stop-color="#d7eefd" stop-opacity="0.78"/><stop offset="0.33" stop-color="#e0f2fe" stop-opacity="0.61"/><stop offset="0.44" stop-color="#ebf7fe" stop-opacity="0.39"/><stop offset="0.51" stop-color="#f3faff" stop-opacity="0.24"/><stop offset="1" stop-color="#fff" stop-opacity="0"/></linearGradient><linearGradient id="linear-gradient-12" x1="103.23" y1="233.45" x2="104.96" y2="232.03" xlink:href="#linear-gradient-11"/><linearGradient id="linear-gradient-13" x1="235.49" y1="-42.92" x2="235.49" y2="-41.47" gradientTransform="matrix(0.71, 0.18, -0.45, 0.48, -65.29, 659.91)" gradientUnits="userSpaceOnUse"><stop offset="0" stop-color="#cbe9fc"/><stop offset="0.1" stop-color="#cceafc" stop-opacity="0.97"/><stop offset="0.24" stop-color="#d0ebfc" stop-opacity="0.9"/><stop offset="0.41" stop-color="#d7eefd" stop-opacity="0.78"/><stop offset="0.6" stop-color="#e0f2fe" stop-opacity="0.61"/><stop offset="0.8" stop-color="#ebf7fe" stop-opacity="0.39"/><stop offset="0.92" stop-color="#f3faff" stop-opacity="0.24"/><stop offset="1" stop-color="#fff" stop-opacity="0"/></linearGradient><linearGradient id="linear-gradient-14" x1="112.25" y1="233.5" x2="113.98" y2="232.08" xlink:href="#linear-gradient-11"/><linearGradient id="linear-gradient-15" x1="112.25" y1="233.49" x2="113.97" y2="232.07" xlink:href="#linear-gradient-11"/><linearGradient id="linear-gradient-16" x1="243.61" y1="-38.08" x2="243.61" y2="-36.62" xlink:href="#linear-gradient-13"/><linearGradient id="linear-gradient-17" x1="96.7" y1="237.46" x2="119.56" y2="237.46" xlink:href="#linear-gradient-4"/><radialGradient id="radial-gradient" cx="108.27" cy="237.46" r="0.64" gradientTransform="matrix(0.4, 0.42, -0.79, 0.31, 265.16, 565.24)" gradientUnits="userSpaceOnUse"><stop offset="0" stop-color="#fff"/><stop offset="0.07" stop-color="#fff" stop-opacity="0.97"/><stop offset="0.17" stop-color="#fdfeff" stop-opacity="0.9"/><stop offset="0.29" stop-color="#fcfeff" stop-opacity="0.78"/><stop offset="0.42" stop-color="#f9fcff" stop-opacity="0.62"/><stop offset="0.56" stop-color="#f6fbff" stop-opacity="0.41"/><stop offset="0.66" stop-color="#f3faff" stop-opacity="0.24"/><stop offset="1" stop-color="#fff" stop-opacity="0"/></radialGradient><linearGradient id="linear-gradient-18" x1="96.7" y1="239.75" x2="119.56" y2="239.75" xlink:href="#linear-gradient-4"/><radialGradient id="radial-gradient-2" cx="108.41" cy="240.15" r="4.38" gradientTransform="matrix(0.4, 0.42, -0.79, 0.31, 265.16, 565.24)" gradientUnits="userSpaceOnUse"><stop offset="0" stop-color="#9a1915"/><stop offset="0.57" stop-color="#5b1a14"/><stop offset="1" stop-color="#2f1b14"/></radialGradient><linearGradient id="linear-gradient-19" x1="107.61" y1="247.57" x2="107.61" y2="244.69" gradientTransform="matrix(0.4, 0.42, -0.79, 0.31, 265.16, 565.24)" gradientUnits="userSpaceOnUse"><stop offset="0" stop-color="#1ba4d9"/><stop offset="1" stop-color="#2e5ca8"/></linearGradient><linearGradient id="linear-gradient-20" x1="108.93" y1="247.57" x2="108.93" y2="244.69" xlink:href="#linear-gradient-19"/><linearGradient id="linear-gradient-21" x1="96.7" y1="243.91" x2="119.56" y2="243.91" xlink:href="#linear-gradient-4"/><linearGradient id="linear-gradient-22" x1="107.95" y1="247.57" x2="107.95" y2="244.69" xlink:href="#linear-gradient-19"/><linearGradient id="linear-gradient-23" x1="96.71" y1="243.91" x2="119.55" y2="243.91" xlink:href="#linear-gradient-4"/><linearGradient id="linear-gradient-24" x1="108.59" y1="247.57" x2="108.59" y2="244.69" xlink:href="#linear-gradient-19"/><linearGradient id="linear-gradient-25" x1="107.29" y1="247.57" x2="107.29" y2="244.69" xlink:href="#linear-gradient-19"/><linearGradient id="linear-gradient-26" x1="109.25" y1="247.57" x2="109.25" y2="244.69" xlink:href="#linear-gradient-19"/><linearGradient id="linear-gradient-27" x1="108.27" y1="257.39" x2="108.27" y2="250.28" gradientTransform="matrix(0.4, 0.42, -0.79, 0.31, 265.16, 565.24)" gradientUnits="userSpaceOnUse"><stop offset="0" stop-color="#1ba4d9"/><stop offset="1" stop-color="#0071ab"/></linearGradient><linearGradient id="linear-gradient-28" x1="108.27" y1="247.57" x2="108.27" y2="244.69" xlink:href="#linear-gradient-19"/><linearGradient id="linear-gradient-29" x1="96.7" y1="243.91" x2="119.56" y2="243.91" xlink:href="#linear-gradient-4"/><linearGradient id="linear-gradient-30" x1="108.27" y1="257.38" x2="108.27" y2="250.27" xlink:href="#linear-gradient-27"/><linearGradient id="linear-gradient-31" x1="108.27" y1="247.57" x2="108.27" y2="244.69" xlink:href="#linear-gradient-19"/><linearGradient id="linear-gradient-32" x1="108.27" y1="257.37" x2="108.27" y2="250.27" gradientTransform="matrix(0.4, 0.42, -0.79, 0.31, 230.8, -66.23)" xlink:href="#linear-gradient-27"/><linearGradient id="linear-gradient-33" x1="108.27" y1="247.57" x2="108.27" y2="244.69" gradientTransform="matrix(0.4, 0.42, -0.79, 0.31, 230.8, -66.23)" xlink:href="#linear-gradient-19"/><linearGradient id="linear-gradient-34" x1="107.49" y1="233.57" x2="142.06" y2="268.14" gradientTransform="matrix(0.4, 0.42, -0.79, 0.31, 265.16, 565.24)" xlink:href="#linear-gradient"/><linearGradient id="linear-gradient-35" x1="81.45" y1="275.1" x2="101.34" y2="294.99" xlink:href="#linear-gradient"/><linearGradient id="linear-gradient-36" x1="103.04" y1="275.1" x2="122.92" y2="294.99" xlink:href="#linear-gradient-2"/></defs><title>newspaper</title><g class="cls-1"><g id="Newspaper"><polygon class="cls-2" points="96.28 29.83 68.25 0.87 0 27.74 28.02 56.7 56.05 85.66 124.3 58.79 96.28 29.83"/><polygon class="cls-3" points="28.48 55.83 0.46 26.87 68.71 0 96.73 28.96 28.48 55.83"/><polygon class="cls-3" points="56.51 84.79 28.48 55.83 96.73 28.96 124.76 57.92 56.51 84.79"/><polygon class="cls-4" points="28.48 55.83 0.46 26.87 68.71 0 96.73 28.96 28.48 55.83"/><polygon class="cls-5" points="56.51 84.79 0.46 26.87 68.71 0 124.76 57.92 56.51 84.79"/><polygon class="cls-6" points="77.33 33.19 54.08 9.16 55.97 8.42 79.22 32.45 77.33 33.19"/><polygon class="cls-7" points="51.37 31.66 44.59 24.66 57.8 19.45 64.58 26.46 51.37 31.66"/><polygon class="cls-8" points="55.4 18.32 48.62 11.32 49.56 10.94 56.35 17.95 55.4 18.32"/><polygon class="cls-8" points="52.95 19.29 46.17 12.28 47.11 11.91 53.89 18.92 52.95 19.29"/><polygon class="cls-8" points="50.49 20.26 43.71 13.25 44.66 12.88 51.44 19.88 50.49 20.26"/><polygon class="cls-8" points="48.04 21.22 41.26 14.21 42.2 13.84 48.98 20.85 48.04 21.22"/><polygon class="cls-8" points="45.59 22.19 38.81 15.18 39.75 14.81 46.53 21.82 45.59 22.19"/><polygon class="cls-8" points="43.13 23.15 36.35 16.15 37.3 15.78 44.08 22.78 43.13 23.15"/><polygon class="cls-8" points="69.06 76.44 63.22 70.4 64.03 70.08 69.88 76.12 69.06 76.44"/><polygon class="cls-8" points="66.95 77.27 61.11 71.24 61.92 70.92 67.76 76.95 66.95 77.27"/><polygon class="cls-8" points="64.83 78.11 58.99 72.07 59.8 71.75 65.65 77.79 64.83 78.11"/><polygon class="cls-8" points="62.72 78.94 56.88 72.9 57.69 72.58 63.53 78.62 62.72 78.94"/><polygon class="cls-8" points="60.61 79.77 54.76 73.73 55.58 73.41 61.42 79.45 60.61 79.77"/><polygon class="cls-8" points="58.49 80.6 52.65 74.57 53.46 74.25 59.3 80.28 58.49 80.6"/><polygon class="cls-8" points="51.48 43.37 28.23 19.34 29.17 18.97 52.42 43 51.48 43.37"/><polygon class="cls-8" points="49.02 44.34 25.77 20.31 26.72 19.94 49.97 43.97 49.02 44.34"/><polygon class="cls-8" points="46.57 45.3 23.32 21.28 24.26 20.91 47.51 44.93 46.57 45.3"/><polygon class="cls-8" points="44.12 46.27 20.86 22.24 21.81 21.87 45.06 45.9 44.12 46.27"/><polygon class="cls-8" points="41.66 47.24 18.41 23.21 19.36 22.84 42.6 46.87 41.66 47.24"/><polygon class="cls-8" points="39.21 48.2 15.96 24.18 16.9 23.8 40.15 47.83 39.21 48.2"/><polygon class="cls-6" points="50.08 37.21 31.53 18.05 33.42 17.3 51.97 36.47 50.08 37.21"/><polygon class="cls-9" points="30.56 51.61 7.31 27.58 14.11 24.9 37.36 48.93 30.56 51.61"/><polygon class="cls-10" points="93.12 66.97 69.87 42.94 93.13 33.79 116.38 57.81 93.12 66.97"/><polygon class="cls-11" points="93.12 66.97 69.87 42.94 93.13 33.79 116.38 57.81 93.12 66.97"/><path class="cls-12" d="M117.32,685.85l0.53,0.54c0.64,0.65,1.19,1.19,1.66,1.64,2.21,0.3,4.2.24,8.7-1.82a9.4,9.4,0,0,0,4-3.47,1,1,0,0,1,0-.42,1.5,1.5,0,0,0-.6-1.47c-0.43-.24-0.63-0.28-0.6-0.56a2,2,0,0,0-1.13-1,13.85,13.85,0,0,1-2.51-.95,5,5,0,0,0-3.09-.36,14.55,14.55,0,0,0-3.31,1.26c-0.58.23-1.81,0.5-2.6,0.84s-1.08,1.16-1.34.5a0.48,0.48,0,0,1,.27-0.58c-2.31.77-3.78,1.23-3.78,1.23l0.06,0.22a23.23,23.23,0,0,0,3.26,3.88Zm1.21-.39a0.58,0.58,0,0,1-.16-0.69,1.49,1.49,0,0,0,.39.6,2.46,2.46,0,0,0,.67.49A1.29,1.29,0,0,1,118.53,685.46Zm4.41,1.31a0.42,0.42,0,0,0,.3-0.31c0-.07.18,0.09,0.12,0.19S122.66,686.88,122.93,686.77Zm8.17-3.29c0.18,0.29-.76.7-0.76,0.7,0.35-.47-0.28-0.88-0.44-1.11s0.63-.73.63-0.73A2.27,2.27,0,0,0,131.1,683.47Zm-1.84.15c0.76,0.79.18,1.91-1.31,2.49s-3.32.42-4.08-.37-0.18-1.91,1.31-2.49S128.5,682.83,129.27,683.62Zm-7.48,1.32c-0.52-.44.51,0.2,0.47,0s-0.55-.18-1.08-0.64-0.17-.8-0.41-0.9,0.2,0.77-.18.28,0.1-.65.1-0.65a2.85,2.85,0,0,1,1.05.1c-1.37,0-.24,1.05-0.24,1.05s1,1.11,1.58.33a0.94,0.94,0,0,1-.34.64A0.93,0.93,0,0,1,121.78,684.95Zm0.78-1.16c0.4,0.41.48,0.84,0.19,1a1.44,1.44,0,0,1-1.25-.53c-0.4-.41-0.48-0.84-0.19-1A1.44,1.44,0,0,1,122.56,683.79Zm4.54-4.55a2.26,2.26,0,0,0,1,.81,1.47,1.47,0,0,1-1.27-.15,1.93,1.93,0,0,0-1.19-.76A2,2,0,0,1,127.11,679.24Zm-7.87,3.09a1,1,0,0,0-.56,0c-0.28.11,0.19-.19,0.35-0.18S119.35,682.35,119.23,682.33Zm2.34-2.85c1.49-.59,3.32-0.42,4.08.37s0.18,1.91-1.31,2.49-3.32.42-4.08-.37S120.08,680.07,121.57,679.48Zm-2.56,3a1.4,1.4,0,0,0,.2.49,8.49,8.49,0,0,0,1.34,1.68,10.92,10.92,0,0,0,1.76,1.52,3.16,3.16,0,0,0,.59.33,4.77,4.77,0,0,1-1.69-.13,4.4,4.4,0,0,1-2-1.17,2.33,2.33,0,0,1-.72-1.69A1.61,1.61,0,0,1,119,682.49Z" transform="translate(-34.36 -631.47)"/><path class="cls-13" d="M118.86,679.39a19.34,19.34,0,0,0,2.13-1l0,0a0.75,0.75,0,0,0-.46,0,1,1,0,0,1,.62-0.15c0.21,0,.17.16,0.1,0.28a0.88,0.88,0,0,0,.15.17l0.1-.07h0c0.15-.11.39-0.32,0.18-0.46a3,3,0,0,0-1.83.15,6.39,6.39,0,0,0-2.2,1.1,0.38,0.38,0,0,0,0,.48A10.64,10.64,0,0,1,118.86,679.39Z" transform="translate(-34.36 -631.47)"/><path class="cls-14" d="M122.11,690.12h0s1.41-.69,3.69-1.73h0C123.61,689.39,122.23,690.06,122.11,690.12Z" transform="translate(-34.36 -631.47)"/><path class="cls-15" d="M129.53,686.83a0.41,0.41,0,0,1,.2.07,1.1,1.1,0,0,0,.22,0l-0.19.06a0.06,0.06,0,0,1,0,0,0.79,0.79,0,0,1-.49.29,1.21,1.21,0,0,0,.18-0.19c-0.76.25-2.16,0.72-2.61,0.94a5,5,0,0,1-.92.33,0.62,0.62,0,0,0,.46.12,6.18,6.18,0,0,0,1.95-.47,3.58,3.58,0,0,0,1.84-1.16,0.32,0.32,0,0,0-.31-0.15l-0.39.08Z" transform="translate(-34.36 -631.47)"/><path class="cls-16" d="M121.17,678.14a1,1,0,0,0-.62.15,0.75,0.75,0,0,1,.46,0l0,0a1,1,0,0,1,.28-0.13,0.13,0.13,0,0,0,0,.18C121.34,678.3,121.38,678.16,121.17,678.14Z" transform="translate(-34.36 -631.47)"/><path class="cls-17" d="M129.73,686.9a0.41,0.41,0,0,0-.2-0.07A0.8,0.8,0,0,0,129.73,686.9Z" transform="translate(-34.36 -631.47)"/><path class="cls-17" d="M129.26,687.29a0.79,0.79,0,0,0,.49-0.29,0.06,0.06,0,0,0,0,0l-0.31.1A1.21,1.21,0,0,1,129.26,687.29Z" transform="translate(-34.36 -631.47)"/><path class="cls-18" d="M121.86,690l0.23,0.11h0l-0.28-.13Z" transform="translate(-34.36 -631.47)"/><path class="cls-19" d="M124.53,688.43c-0.57-.21.7-0.39,1.11-0.49a13,13,0,0,0,2.11-.83c0.67-.34,2.33-1,3.33-1.45a2.05,2.05,0,0,0,1.41-1.55,2.87,2.87,0,0,0-.28-1.36,9.4,9.4,0,0,1-4,3.47c-4.5,2.06-6.49,2.12-8.7,1.82,0.67,0.64,1.19,1.09,1.58,1.41a9,9,0,0,0,.74.55l0.28,0.13c0.12-.06,1.51-0.74,3.69-1.73A2.48,2.48,0,0,1,124.53,688.43Z" transform="translate(-34.36 -631.47)"/><path class="cls-20" d="M124.53,688.43c-0.57-.21.7-0.39,1.11-0.49a13,13,0,0,0,2.11-.83c0.67-.34,2.33-1,3.33-1.45a2.05,2.05,0,0,0,1.41-1.55,2.87,2.87,0,0,0-.28-1.36,9.4,9.4,0,0,1-4,3.47c-4.5,2.06-6.49,2.12-8.7,1.82,0.67,0.64,1.19,1.09,1.58,1.41a9,9,0,0,0,.74.55l0.28,0.13c0.12-.06,1.51-0.74,3.69-1.73A2.48,2.48,0,0,1,124.53,688.43Z" transform="translate(-34.36 -631.47)"/><path class="cls-21" d="M134.82,677.83a0.12,0.12,0,0,1,0,.05A0,0,0,0,0,134.82,677.83Z" transform="translate(-34.36 -631.47)"/><path class="cls-21" d="M117,680.56c0.26,0.66.55-.16,1.34-0.5s2-.61,2.6-0.84a14.55,14.55,0,0,1,3.31-1.26,5,5,0,0,1,3.09.36,13.85,13.85,0,0,0,2.51.95,2,2,0,0,1,1.13,1c0,0.28.17,0.32,0.6,0.56a1.5,1.5,0,0,1,.6,1.47,1,1,0,0,0,0,.42,2.87,2.87,0,0,1,.28,1.36,2.05,2.05,0,0,1-1.41,1.55c-1,.46-2.66,1.11-3.33,1.45a13,13,0,0,1-2.11.83c-0.41.1-1.68,0.28-1.11,0.49a2.48,2.48,0,0,0,1.27,0h0l0.12,0a5,5,0,0,0,.92-0.33c0.44-.22,1.84-0.69,2.61-0.94l0.31-.1,0.19-.06a1.1,1.1,0,0,1-.22,0,0.8,0.8,0,0,1-.2-0.07l-0.07,0,0.39-.08a14.81,14.81,0,0,0,5.76-2.47s-0.56,0-.19-0.25,1.81-2.38,1.56-2.8c0,0-.69.47-0.64,0.22a5.67,5.67,0,0,0,.26-1.19s-1,.31-0.59-0.06a1.31,1.31,0,0,0,.48-0.66s-0.48.42-.56,0.21,1-1.09.84-1.41a3.59,3.59,0,0,1-1.81.1c-0.73-.24-0.88-0.48-0.45-0.56a0.68,0.68,0,0,1,.31,0,1.28,1.28,0,0,0-1.17-.21c-1.18.09,0.1-.26,0.24-0.24a3,3,0,0,0-1.15-.22c-0.7,0-.65-0.34.14-0.43a17,17,0,0,0-4.43-.32c-1.58.25-.69-0.23-0.69-0.23a13.7,13.7,0,0,0-6.25,2.32l-0.1.07a0.88,0.88,0,0,1-.15-0.17,0.13,0.13,0,0,1,0-.18,1,1,0,0,0-.28.13,19.34,19.34,0,0,1-2.13,1,10.64,10.64,0,0,0-1.23.39,2.19,2.19,0,0,0-.37.2A0.48,0.48,0,0,0,117,680.56Zm17.53-.57a1.82,1.82,0,0,0,.63-0.34c0.08,0.34-1.47,1.36-1.47,1.48a2.59,2.59,0,0,0,.79-0.4,5,5,0,0,1-.93.89c-0.59.44,0.29,0.18,0.69,0a9,9,0,0,0,1.14-.65,7.3,7.3,0,0,1-1.39,1.63,0.39,0.39,0,0,0-.06-0.34,4.82,4.82,0,0,0-.93.48,0.47,0.47,0,0,1-.19-0.42,1.4,1.4,0,0,0,.13-0.17,2.7,2.7,0,0,1-.43-0.31,1,1,0,0,1,.33-0.48,1.56,1.56,0,0,0-.61,0,2.43,2.43,0,0,0,.4-0.53,1,1,0,0,0-.52.09,1.39,1.39,0,0,0,.34-0.25c0-.08-0.23,0-0.45-0.16s0.32-.29.32-0.29A16.5,16.5,0,0,0,136,678.6C135.92,678.74,134.49,679.9,134.52,680Zm-3.22.05a4.06,4.06,0,0,0-2.38-1.36c-0.49-.14-1.83-0.76-1.83-0.76a9.07,9.07,0,0,0,1.16.1,2.76,2.76,0,0,1,.71.08s0.24,0.07,0,.09,0.25,0.21.37,0.24a2.2,2.2,0,0,1,.69.15c0,0.07-.53.16-0.19,0.22a11.31,11.31,0,0,0,1.24.06,1.49,1.49,0,0,0-.32.23,1,1,0,0,0,.79,0,1.68,1.68,0,0,1,.88.06c-0.11,0-.94.22-0.63,0.44s2.56-.46,2.56-0.46A6.87,6.87,0,0,1,131.3,680Z" transform="translate(-34.36 -631.47)"/><path class="cls-22" d="M124.34,682.34c1.49-.59,2.08-1.7,1.31-2.49s-2.59-1-4.08-.37-2.08,1.7-1.31,2.49S122.85,682.93,124.34,682.34Zm-3.23-.7c-0.43-.44-0.24-1,0.4-1.45a2.72,2.72,0,0,1,.5-0.25,2.82,2.82,0,0,1,2.79.25c0.5,0.51.16,1.22-.74,1.64l-0.15.07A2.82,2.82,0,0,1,121.11,681.64Z" transform="translate(-34.36 -631.47)"/><path class="cls-23" d="M122,681.72a1.34,1.34,0,0,1-.65-0.32,0.51,0.51,0,0,1-.1-0.15,1,1,0,0,0,.38.09,0.74,0.74,0,0,0,.14.21A1,1,0,0,0,122,681.72Z" transform="translate(-34.36 -631.47)"/><path class="cls-24" d="M121.51,680.19c-0.64.42-.83,1-0.4,1.45a2.14,2.14,0,0,0,1.51.49,3.56,3.56,0,0,0,1.29-.24l0.15-.07-0.18-.24h0a0.78,0.78,0,0,1-.45-0.12,1.83,1.83,0,0,1-.61.1,1.08,1.08,0,0,1-.76-0.25c-0.24-.25-0.09-0.6.34-0.81-0.43-.17-0.83-0.32-0.83-0.32h0Zm0.14,0.82a0.43,0.43,0,0,1-.41-0.21,0.82,0.82,0,0,1,.34-0.39,0.33,0.33,0,0,1,.14,0c0.2,0,.46.09,0.4,0.14a1.33,1.33,0,0,0-.32.41,0.17,0.17,0,0,1-.16.06h0Z" transform="translate(-34.36 -631.47)"/><path class="cls-25" d="M122.47,681.19a0.48,0.48,0,0,1-.22-0.11,0.23,0.23,0,0,1,.12-0.2l0.25,0.11A0.56,0.56,0,0,0,122.47,681.19Z" transform="translate(-34.36 -631.47)"/><path class="cls-26" d="M122.35,680.5c-0.42.21-.58,0.56-0.34,0.81a1.08,1.08,0,0,0,.76.25,1.83,1.83,0,0,0,.61-0.1l-0.05,0,0-.06a1.18,1.18,0,0,1-.35.06,0.21,0.21,0,0,1-.14,0c-0.06-.07.09-0.2,0.34-0.3l0.2-.06-0.2-.15a6.48,6.48,0,0,0-.79-0.37h0Z" transform="translate(-34.36 -631.47)"/><path class="cls-23" d="M124.67,680.59a1.06,1.06,0,0,0-.46-0.15l-0.08-.1,0,0a0.42,0.42,0,0,0-.09-0.18,1.25,1.25,0,0,1,.57.3A0.48,0.48,0,0,1,124.67,680.59Z" transform="translate(-34.36 -631.47)"/><path class="cls-24" d="M123.29,679.69a3.56,3.56,0,0,0-1.29.24,2.73,2.73,0,0,0-.5.25s0.41,0.14.83,0.32l0.12-.06a1.79,1.79,0,0,1,.65-0.12h0.2l0.07,0a0.44,0.44,0,0,1,.16,0,0.26,0.26,0,0,1,.19.06,0.09,0.09,0,0,1,0,.13,0.65,0.65,0,0,1,.16.11,0.39,0.39,0,0,1,.1.19h0.07a0.71,0.71,0,0,1,.5.16c0.18,0.18,0,.44-0.3.57a1.19,1.19,0,0,1-.39.08l0.18,0.24c0.9-.41,1.24-1.13.74-1.64a2.14,2.14,0,0,0-1.51-.49h0Z" transform="translate(-34.36 -631.47)"/><path class="cls-27" d="M122.47,680.45a1.79,1.79,0,0,1,.85-0.11l0.07,0a0.35,0.35,0,0,1,.35,0,0.09,0.09,0,0,1,0,.13,0.65,0.65,0,0,1,.16.11,0.39,0.39,0,0,1,.1.19,0.76,0.76,0,0,1,.57.16c0.18,0.18,0,.44-0.3.57a1.19,1.19,0,0,1-.39.08l0.18,0.24c0.9-.41,1.24-1.13.74-1.64a2.82,2.82,0,0,0-2.79-.25,2.72,2.72,0,0,0-.5.25s0.41,0.14.83,0.32Z" transform="translate(-34.36 -631.47)"/><path class="cls-25" d="M123.34,681h0a0.77,0.77,0,0,1,.26-0.16,1.19,1.19,0,0,1,.36-0.08,0.39,0.39,0,0,0-.1-0.19,0.65,0.65,0,0,0-.16-0.11,0.25,0.25,0,0,1-.11.08,0.35,0.35,0,0,1-.35,0c-0.05-.05,0-0.12,0-0.17a1.79,1.79,0,0,0-.85.11l-0.12.06a6.48,6.48,0,0,1,.79.37Z" transform="translate(-34.36 -631.47)"/><path class="cls-26" d="M123.11,680.33a1.79,1.79,0,0,0-.65.12l-0.12.06a6.48,6.48,0,0,1,.79.37l0.2,0.15h0a0.77,0.77,0,0,1,.26-0.16,1.19,1.19,0,0,1,.36-0.08,0.39,0.39,0,0,0-.1-0.19,0.65,0.65,0,0,0-.16-0.11,0.25,0.25,0,0,1-.11.08,0.44,0.44,0,0,1-.16,0,0.27,0.27,0,0,1-.19-0.06c-0.05-.05,0-0.12,0-0.17h-0.2Z" transform="translate(-34.36 -631.47)"/><path class="cls-28" d="M123.34,681h0a0.77,0.77,0,0,1,.26-0.16,1.19,1.19,0,0,1,.36-0.08,0.39,0.39,0,0,0-.1-0.19,0.65,0.65,0,0,0-.16-0.11,0.25,0.25,0,0,1-.11.08,0.35,0.35,0,0,1-.35,0c-0.05-.05,0-0.12,0-0.17a1.79,1.79,0,0,0-.85.11l-0.12.06a6.48,6.48,0,0,1,.79.37Z" transform="translate(-34.36 -631.47)"/><path class="cls-23" d="M122.13,680.53c0.08-.07-0.39-0.2-0.55-0.12a0.82,0.82,0,0,0-.34.39,0.43,0.43,0,0,0,.57.14A1.33,1.33,0,0,1,122.13,680.53Z" transform="translate(-34.36 -631.47)"/><path class="cls-24" d="M121.72,680.39a0.33,0.33,0,0,0-.14,0,0.82,0.82,0,0,0-.34.39,0.43,0.43,0,0,0,.41.21,0.17,0.17,0,0,0,.16-0.06,1.33,1.33,0,0,1,.32-0.41c0.06-.06-0.21-0.14-0.4-0.14h0Z" transform="translate(-34.36 -631.47)"/><path class="cls-29" d="M122.13,680.53c0.08-.07-0.39-0.2-0.55-0.12a0.82,0.82,0,0,0-.34.39,0.43,0.43,0,0,0,.57.14A1.33,1.33,0,0,1,122.13,680.53Z" transform="translate(-34.36 -631.47)"/><path class="cls-22" d="M124.56,680.93a0.76,0.76,0,0,0-.57-0.16,1.19,1.19,0,0,0-.36.08,0.77,0.77,0,0,0-.26.16h0l-0.2.06c-0.25.1-.41,0.24-0.34,0.3a0.63,0.63,0,0,0,.49,0l0,0.06,0.05,0a0.81,0.81,0,0,0,.5.12,1.19,1.19,0,0,0,.39-0.08C124.6,681.37,124.74,681.11,124.56,680.93Z" transform="translate(-34.36 -631.47)"/><path class="cls-22" d="M123.27,680.51a0.35,0.35,0,0,0,.35,0,0.25,0.25,0,0,0,.11-0.08,0.09,0.09,0,0,0,0-.13,0.35,0.35,0,0,0-.35,0l-0.07,0C123.24,680.39,123.22,680.46,123.27,680.51Z" transform="translate(-34.36 -631.47)"/><path class="cls-22" d="M123.87,685.75c0.76,0.79,2.59,1,4.08.37s2.08-1.7,1.31-2.49-2.59-1-4.08-.37S123.1,685,123.87,685.75Zm4.54-1.79c0.5,0.51.16,1.22-.74,1.64l-0.15.07a2.82,2.82,0,0,1-2.79-.25c-0.43-.44-0.24-1,0.4-1.45a2.7,2.7,0,0,1,.5-0.25A2.82,2.82,0,0,1,128.41,684Z" transform="translate(-34.36 -631.47)"/><path class="cls-23" d="M125.61,685.5a1.33,1.33,0,0,1-.65-0.32,0.51,0.51,0,0,1-.1-0.15,1,1,0,0,0,.37.09,0.78,0.78,0,0,0,.14.21A1,1,0,0,0,125.61,685.5Z" transform="translate(-34.36 -631.47)"/><path class="cls-24" d="M125.12,684c-0.64.42-.83,1-0.4,1.45a2.14,2.14,0,0,0,1.51.49,3.56,3.56,0,0,0,1.28-.24l0.15-.07-0.18-.24h0a0.78,0.78,0,0,1-.45-0.12,1.83,1.83,0,0,1-.61.1,1.08,1.08,0,0,1-.76-0.25c-0.24-.25-0.09-0.6.34-0.81-0.43-.17-0.83-0.32-0.83-0.32h0Zm0.14,0.82a0.43,0.43,0,0,1-.41-0.21,0.82,0.82,0,0,1,.35-0.39,0.33,0.33,0,0,1,.14,0c0.2,0,.46.09,0.4,0.14a1.32,1.32,0,0,0-.32.41,0.17,0.17,0,0,1-.16.06h0Z" transform="translate(-34.36 -631.47)"/><path class="cls-25" d="M126.08,685a0.5,0.5,0,0,1-.22-0.11,0.23,0.23,0,0,1,.12-0.2l0.25,0.11A0.56,0.56,0,0,0,126.08,685Z" transform="translate(-34.36 -631.47)"/><path class="cls-26" d="M126,684.28c-0.42.21-.58,0.56-0.34,0.81a1.08,1.08,0,0,0,.76.25,1.83,1.83,0,0,0,.61-0.1l-0.05,0,0-.06a1.18,1.18,0,0,1-.35.06,0.21,0.21,0,0,1-.14,0c-0.06-.07.09-0.2,0.34-0.3l0.2-.06-0.2-.15a6.55,6.55,0,0,0-.79-0.37h0Z" transform="translate(-34.36 -631.47)"/><path class="cls-23" d="M128.28,684.36a1,1,0,0,0-.46-0.15l-0.08-.1-0.05,0a0.42,0.42,0,0,0-.09-0.17,1.26,1.26,0,0,1,.57.3A0.48,0.48,0,0,1,128.28,684.36Z" transform="translate(-34.36 -631.47)"/><path class="cls-24" d="M126.91,683.47a3.55,3.55,0,0,0-1.28.24,2.7,2.7,0,0,0-.5.25s0.41,0.14.83,0.32l0.12-.06a1.79,1.79,0,0,1,.65-0.12h0.2l0.07,0a0.44,0.44,0,0,1,.16,0,0.27,0.27,0,0,1,.19.06,0.09,0.09,0,0,1,0,.13,0.65,0.65,0,0,1,.16.11,0.4,0.4,0,0,1,.11.19h0.07a0.71,0.71,0,0,1,.5.16c0.18,0.18,0,.44-0.3.57a1.18,1.18,0,0,1-.38.08l0.18,0.24c0.9-.41,1.24-1.13.74-1.64a2.14,2.14,0,0,0-1.51-.49h0Z" transform="translate(-34.36 -631.47)"/><path class="cls-30" d="M126,684.28l0.12-.06a1.79,1.79,0,0,1,.85-0.11l0.07,0a0.35,0.35,0,0,1,.35,0,0.09,0.09,0,0,1,0,.13,0.65,0.65,0,0,1,.16.11,0.4,0.4,0,0,1,.11.19,0.76,0.76,0,0,1,.57.16c0.18,0.18,0,.44-0.3.57a1.18,1.18,0,0,1-.38.08l0.18,0.24c0.9-.41,1.24-1.13.74-1.64a2.82,2.82,0,0,0-2.79-.25,2.7,2.7,0,0,0-.5.25S125.53,684.1,126,684.28Z" transform="translate(-34.36 -631.47)"/><path class="cls-25" d="M127,684.79h0a0.77,0.77,0,0,1,.26-0.16,1.18,1.18,0,0,1,.36-0.08,0.4,0.4,0,0,0-.11-0.19,0.65,0.65,0,0,0-.16-0.11,0.25,0.25,0,0,1-.11.08,0.35,0.35,0,0,1-.35,0c-0.05-.05,0-0.12,0-0.17a1.79,1.79,0,0,0-.85.11l-0.12.06a6.54,6.54,0,0,1,.79.37Z" transform="translate(-34.36 -631.47)"/><path class="cls-26" d="M126.72,684.1a1.79,1.79,0,0,0-.65.12l-0.12.06a6.55,6.55,0,0,1,.79.37l0.2,0.15h0a0.77,0.77,0,0,1,.26-0.16,1.18,1.18,0,0,1,.36-0.08,0.4,0.4,0,0,0-.11-0.19,0.65,0.65,0,0,0-.16-0.11,0.25,0.25,0,0,1-.11.08,0.44,0.44,0,0,1-.16,0,0.26,0.26,0,0,1-.19-0.06c-0.05-.05,0-0.12,0-0.17h-0.2Z" transform="translate(-34.36 -631.47)"/><path class="cls-31" d="M127,684.79h0a0.77,0.77,0,0,1,.26-0.16,1.18,1.18,0,0,1,.36-0.08,0.4,0.4,0,0,0-.11-0.19,0.65,0.65,0,0,0-.16-0.11,0.25,0.25,0,0,1-.11.08,0.35,0.35,0,0,1-.35,0c-0.05-.05,0-0.12,0-0.17a1.79,1.79,0,0,0-.85.11l-0.12.06a6.54,6.54,0,0,1,.79.37Z" transform="translate(-34.36 -631.47)"/><path class="cls-23" d="M125.74,684.3c0.08-.07-0.39-0.2-0.55-0.12a0.82,0.82,0,0,0-.35.39,0.43,0.43,0,0,0,.57.14A1.32,1.32,0,0,1,125.74,684.3Z" transform="translate(-34.36 -631.47)"/><path class="cls-24" d="M125.34,684.16a0.33,0.33,0,0,0-.14,0,0.82,0.82,0,0,0-.35.39,0.43,0.43,0,0,0,.41.21,0.17,0.17,0,0,0,.16-0.06,1.32,1.32,0,0,1,.32-0.41c0.06-.05-0.21-0.14-0.4-0.14h0Z" transform="translate(-34.36 -631.47)"/><path class="cls-32" d="M125.74,684.3c0.08-.07-0.39-0.2-0.55-0.12a0.82,0.82,0,0,0-.35.39,0.43,0.43,0,0,0,.57.14A1.32,1.32,0,0,1,125.74,684.3Z" transform="translate(-34.36 -631.47)"/><path class="cls-22" d="M127,684.78h0l-0.2.06c-0.25.1-.41,0.24-0.34,0.3a0.63,0.63,0,0,0,.49,0l0,0.06,0.05,0a0.81,0.81,0,0,0,.5.12,1.18,1.18,0,0,0,.38-0.08c0.34-.13.48-0.39,0.3-0.57a0.76,0.76,0,0,0-.57-0.16,1.18,1.18,0,0,0-.36.08A0.77,0.77,0,0,0,127,684.78Z" transform="translate(-34.36 -631.47)"/><path class="cls-22" d="M126.88,684.29a0.35,0.35,0,0,0,.35,0,0.25,0.25,0,0,0,.11-0.08,0.09,0.09,0,0,0,0-.13,0.35,0.35,0,0,0-.35,0l-0.07,0C126.85,684.16,126.83,684.23,126.88,684.29Z" transform="translate(-34.36 -631.47)"/><path class="cls-16" d="M123.08,684.54c-0.62.78-1.58-.33-1.58-0.33s-1.13-1,.24-1.05a2.85,2.85,0,0,0-1.05-.1s-0.48.16-.1,0.65-0.06-.38.18-0.28,0,0.4.41,0.9,1,0.45,1.08.64-1-.46-0.47,0a0.93,0.93,0,0,0,1,.24A0.94,0.94,0,0,0,123.08,684.54Z" transform="translate(-34.36 -631.47)"/><path class="cls-21" d="M125.63,679.14a1.93,1.93,0,0,1,1.19.76,1.47,1.47,0,0,0,1.27.15,2.26,2.26,0,0,1-1-.81A2,2,0,0,0,125.63,679.14Z" transform="translate(-34.36 -631.47)"/><path class="cls-21" d="M129.9,683.07c0.17,0.23.8,0.64,0.44,1.11,0,0,.94-0.41.76-0.7a2.27,2.27,0,0,1-.57-1.14S129.73,682.83,129.9,683.07Z" transform="translate(-34.36 -631.47)"/><path class="cls-33" d="M121.31,683.25c-0.29.12-.21,0.54,0.19,1a1.44,1.44,0,0,0,1.25.53c0.29-.12.21-0.54-0.19-1A1.44,1.44,0,0,0,121.31,683.25Z" transform="translate(-34.36 -631.47)"/><path class="cls-34" d="M121.31,683.25c-0.29.12-.21,0.54,0.19,1a1.44,1.44,0,0,0,1.25.53c0.29-.12.21-0.54-0.19-1A1.44,1.44,0,0,0,121.31,683.25Z" transform="translate(-34.36 -631.47)"/><path class="cls-35" d="M121.21,686.38a4.77,4.77,0,0,0,1.69.13,3.16,3.16,0,0,1-.59-0.33l-0.43.1a5.7,5.7,0,0,1-1.68-1.48c-1.41-1.46-1.32-1.62-1.32-1.62l0.33-.2a1.4,1.4,0,0,1-.2-0.49,1.61,1.61,0,0,0-.57,1,8.13,8.13,0,0,0,1.18,1.51A10.76,10.76,0,0,0,121.21,686.38Z" transform="translate(-34.36 -631.47)"/><path class="cls-36" d="M121.21,686.38a4.77,4.77,0,0,0,1.69.13,3.16,3.16,0,0,1-.59-0.33l-0.43.1a5.7,5.7,0,0,1-1.68-1.48c-1.41-1.46-1.32-1.62-1.32-1.62l0.33-.2a1.4,1.4,0,0,1-.2-0.49,1.61,1.61,0,0,0-.57,1,8.13,8.13,0,0,0,1.18,1.51A10.76,10.76,0,0,0,121.21,686.38Z" transform="translate(-34.36 -631.47)"/><path class="cls-22" d="M120.2,684.8a5.7,5.7,0,0,0,1.68,1.48l0.43-.1a10.92,10.92,0,0,1-1.76-1.52,8.49,8.49,0,0,1-1.34-1.68l-0.33.2S118.79,683.34,120.2,684.8Z" transform="translate(-34.36 -631.47)"/><path class="cls-22" d="M119.16,685.21a4.4,4.4,0,0,0,2,1.17,10.76,10.76,0,0,1-1.58-1.35,8.13,8.13,0,0,1-1.18-1.51A2.33,2.33,0,0,0,119.16,685.21Z" transform="translate(-34.36 -631.47)"/><path class="cls-16" d="M119,682.18c-0.16,0-.63.29-0.35,0.18a1,1,0,0,1,.56,0C119.35,682.35,119.19,682.18,119,682.18Z" transform="translate(-34.36 -631.47)"/><path class="cls-16" d="M123.23,686.46a0.42,0.42,0,0,1-.3.31c-0.27.11,0.35,0,.41-0.12S123.25,686.38,123.23,686.46Z" transform="translate(-34.36 -631.47)"/><path class="cls-16" d="M118.37,684.77a0.58,0.58,0,0,0,.16.69,1.29,1.29,0,0,0,.9.4,2.46,2.46,0,0,1-.67-0.49A1.49,1.49,0,0,1,118.37,684.77Z" transform="translate(-34.36 -631.47)"/><polygon class="cls-37" points="77.08 50.27 77.08 50.27 77.02 50.29 77.08 50.36 77.08 50.27"/><path class="cls-37" d="M120.32,691l0.12,0-0.05,0h0l0.06,0-0.13-.05h0Z" transform="translate(-34.36 -631.47)"/><path class="cls-37" d="M120.38,691.06h0.06l-0.11,0Z" transform="translate(-34.36 -631.47)"/><path class="cls-38" d="M117.32,685.85l-0.53-.55Z" transform="translate(-34.36 -631.47)"/><path class="cls-38" d="M117.32,685.85l0.53,0.54Z" transform="translate(-34.36 -631.47)"/><path class="cls-39" d="M116.37,685.91l0,0h-0.19l0,0h0.18Z" transform="translate(-34.36 -631.47)"/><path class="cls-40" d="M116.77,686.51l0.09-.11,0,0-0.09.1Z" transform="translate(-34.36 -631.47)"/><path class="cls-41" d="M116.37,685.91l0.95-.05-1,0Z" transform="translate(-34.36 -631.47)"/><path class="cls-42" d="M116.37,685.91l0.95-.05-1,0Z" transform="translate(-34.36 -631.47)"/><path class="cls-43" d="M116.85,686.41l0.46-.55-0.5.51Z" transform="translate(-34.36 -631.47)"/><path class="cls-44" d="M116.85,686.41l0.46-.55-0.5.51Z" transform="translate(-34.36 -631.47)"/><path class="cls-37" d="M116.19,685.92l0,0h-0.78l0.08,0.09Z" transform="translate(-34.36 -631.47)"/><path class="cls-45" d="M116.19,685.92l0,0h-0.78l0.08,0.09Z" transform="translate(-34.36 -631.47)"/><path class="cls-37" d="M116.33,686.87l0.08,0.09,0.36-.44,0,0Z" transform="translate(-34.36 -631.47)"/><path class="cls-46" d="M116.33,686.87l0.08,0.09,0.36-.44,0,0Z" transform="translate(-34.36 -631.47)"/><path class="cls-47" d="M116.82,686.37l-0.22-.23-0.23-.23h-0.18l0.53,0.55Z" transform="translate(-34.36 -631.47)"/><path class="cls-48" d="M116.82,686.37l-0.22-.23-0.23-.23h-0.18l0.53,0.55Z" transform="translate(-34.36 -631.47)"/><path class="cls-49" d="M116.6,686.13l0.22,0.23,0.5-.51-0.95.05Z" transform="translate(-34.36 -631.47)"/><path class="cls-50" d="M116.6,686.13l0.22,0.23,0.5-.51-0.95.05Z" transform="translate(-34.36 -631.47)"/><path class="cls-51" d="M116.6,686.13l0.22,0.23,0.5-.51-0.95.05Z" transform="translate(-34.36 -631.47)"/><polygon class="cls-37" points="82.36 55 81.83 54.45 81.08 54.49 81.96 55.4 82.36 55"/><polygon class="cls-52" points="82.36 55 81.83 54.45 81.08 54.49 81.96 55.4 82.36 55"/><polygon class="cls-53" points="82.36 55 81.83 54.45 81.08 54.49 81.96 55.4 82.36 55"/><path class="cls-37" d="M116.77,686.51l-0.36.44,1.7,1.76a8.64,8.64,0,0,1,3,.73c-0.39-.32-0.91-0.77-1.58-1.41-0.47-.45-1-1-1.66-1.64l-0.53-.54-0.46.55Z" transform="translate(-34.36 -631.47)"/><path class="cls-54" d="M121.09,689.44a8.64,8.64,0,0,0-3-.73l2.21,2.28,0.13,0.05,0.43,0.19,1.41-1a1.13,1.13,0,0,1-.42-0.21l0,0A9,9,0,0,1,121.09,689.44Z" transform="translate(-34.36 -631.47)"/><path class="cls-37" d="M111.45,681.84l3.91,4h1l1,0-0.53-.55a23.23,23.23,0,0,1-3.26-3.88,0.48,0.48,0,0,1-.12-0.37l-2,.35a1.78,1.78,0,0,1,.07.33h0v0.1Z" transform="translate(-34.36 -631.47)"/><path class="cls-55" d="M111.44,681.74v0.09h0v-0.1Z" transform="translate(-34.36 -631.47)"/><path class="cls-55" d="M120.44,691l-0.12,0h0Z" transform="translate(-34.36 -631.47)"/><path class="cls-56" d="M131.74,679.62c-0.31-.22.51-0.4,0.63-0.44a1.68,1.68,0,0,0-.88-0.06,1,1,0,0,1-.79,0,1.49,1.49,0,0,1,.32-0.23,11.31,11.31,0,0,1-1.24-.06c-0.33-.06.16-0.15,0.19-0.22a2.2,2.2,0,0,0-.69-0.15c-0.12,0-.53-0.23-0.37-0.24s0-.09,0-0.09a2.76,2.76,0,0,0-.71-0.08,9.07,9.07,0,0,1-1.16-.1s1.34,0.62,1.83.76A4.06,4.06,0,0,1,131.3,680a6.87,6.87,0,0,0,3-.88S132,679.84,131.74,679.62Z" transform="translate(-34.36 -631.47)"/><path class="cls-56" d="M132.31,680.22s-0.55.14-.32,0.29,0.48,0.08.45,0.16a1.39,1.39,0,0,1-.34.25,1,1,0,0,1,.52-0.09,2.43,2.43,0,0,1-.4.53,1.56,1.56,0,0,1,.61,0,1,1,0,0,0-.33.48,2.7,2.7,0,0,0,.43.31,1.4,1.4,0,0,1-.13.17,0.47,0.47,0,0,0,.19.42,4.82,4.82,0,0,1,.93-0.48,0.39,0.39,0,0,1,.06.34,7.3,7.3,0,0,0,1.39-1.63,9,9,0,0,1-1.14.65c-0.4.16-1.28,0.42-.69,0a5,5,0,0,0,.93-0.89,2.59,2.59,0,0,1-.79.4c0-.12,1.55-1.13,1.47-1.48a1.82,1.82,0,0,1-.63.34c0-.09,1.4-1.25,1.44-1.39A16.5,16.5,0,0,1,132.31,680.22Z" transform="translate(-34.36 -631.47)"/><path class="cls-37" d="M120.39,691.07l0.05,0h-0.05Z" transform="translate(-34.36 -631.47)"/><path class="cls-57" d="M120.39,691.07l0.05,0h-0.05Z" transform="translate(-34.36 -631.47)"/><path class="cls-37" d="M120.26,691l0.06,0h0l-0.05,0h0Z" transform="translate(-34.36 -631.47)"/><path class="cls-58" d="M120.26,691l0.06,0h0l-0.05,0h0Z" transform="translate(-34.36 -631.47)"/><polygon class="cls-8" points="83.75 70.66 60.5 46.63 61.44 46.26 84.69 70.29 83.75 70.66"/><polygon class="cls-8" points="81.29 71.63 58.04 47.6 58.99 47.23 82.24 71.25 81.29 71.63"/><polygon class="cls-8" points="78.84 72.59 55.59 48.57 56.53 48.19 79.78 72.22 78.84 72.59"/><polygon class="cls-8" points="76.39 73.56 53.14 49.53 54.08 49.16 77.33 73.19 76.39 73.56"/><polygon class="cls-8" points="73.93 74.53 50.68 50.5 51.63 50.13 74.88 74.15 73.93 74.53"/><polygon class="cls-8" points="71.48 75.49 48.23 51.46 49.17 51.09 72.42 75.12 71.48 75.49"/><polygon class="cls-6" points="73.78 54.83 64.38 45.11 66.26 44.36 75.67 54.09 73.78 54.83"/><polygon class="cls-59" points="42.51 64.08 35.24 56.58 46.54 52.13 53.8 59.64 42.51 64.08"/><polygon class="cls-8" points="71.87 35.34 65.09 28.34 66.03 27.96 72.81 34.97 71.87 35.34"/><polygon class="cls-8" points="69.42 36.31 62.64 29.3 63.58 28.93 70.36 35.94 69.42 36.31"/><polygon class="cls-8" points="66.96 37.27 60.18 30.27 61.13 29.9 67.91 36.9 66.96 37.27"/><polygon class="cls-8" points="64.51 38.24 57.73 31.23 58.67 30.86 65.45 37.87 64.51 38.24"/><polygon class="cls-8" points="62.06 39.21 55.27 32.2 56.22 31.83 63 38.84 62.06 39.21"/><polygon class="cls-8" points="59.6 40.17 52.82 33.16 53.77 32.79 60.55 39.8 59.6 40.17"/><polygon class="cls-60" points="51.23 73.09 43.96 65.59 55.26 61.14 62.52 68.65 51.23 73.09"/><polygon class="cls-61" points="88.24 28.74 65.1 4.83 59.35 7.09 82.49 31 88.24 28.74"/></g></g></svg>