<svg id="Paper_shredder" data-name="Paper shredder" xmlns="http://www.w3.org/2000/svg" xmlns:xlink="http://www.w3.org/1999/xlink" viewBox="0 0 73.87 79.68"><defs><style>.cls-1{fill:#f6f6f6;}.cls-2{fill:#36a9e1;opacity:0.5;}.cls-3,.cls-4{opacity:0.6;}.cls-3{fill:url(#linear-gradient);}.cls-4{fill:url(#linear-gradient-2);}.cls-5{opacity:0.49;fill:url(#linear-gradient-3);}.cls-6{fill:#575756;}.cls-7{fill:#706f6f;}.cls-8{fill:#3c3c3b;}.cls-9{fill:#ededed;}.cls-10{fill:#c6c6c6;}</style><linearGradient id="linear-gradient" x1="-0.47" y1="59.39" x2="19.36" y2="34.15" gradientUnits="userSpaceOnUse"><stop offset="0" stop-color="#91c8dd"/><stop offset="1" stop-color="#0087ba"/></linearGradient><linearGradient id="linear-gradient-2" x1="69.79" y1="57.19" x2="85.82" y2="40.67" xlink:href="#linear-gradient"/><linearGradient id="linear-gradient-3" x1="9.64" y1="91.18" x2="68.48" y2="16.29" gradientUnits="userSpaceOnUse"><stop offset="0" stop-color="#91c8dd"/><stop offset="0.32" stop-color="#6fb2d2"/><stop offset="0.54" stop-color="#afdff9"/><stop offset="0.65" stop-color="#7cbadf"/><stop offset="0.78" stop-color="#9ed9f8"/><stop offset="1" stop-color="#0087ba"/></linearGradient></defs><title>paper_shredder</title><path class="cls-1" d="M842,491.87s-3.81-17.28-4-30.59-46.24-14-45.28,0-5,30.59-5,30.59h4.07s2.07-9.63,3.6-18.64l-0.92,18.64h4.19l1.26-31.45,1.26,31.45h4.19l-0.76-31.7,2.94,31.7h3.35l-0.84-31.7,3.69,31.7h4L816.52,459l3.77,32.87h3.52l-1.59-31.2,4.28,31.2h3.86l-3.27-32.2,6,32.2h3.35l-4.7-33.38,6.71,33.38H842Z" transform="translate(-778.45 -428.14)"/><polygon class="cls-2" points="72.03 79.68 1.84 79.68 4.86 74.06 69.01 74.06 72.03 79.68"/><polygon class="cls-3" points="1.84 33.2 1.84 55.99 1.84 79.68 4.86 74.06 4.86 55.99 4.86 33.2 1.84 33.2"/><polygon class="cls-4" points="69.01 33.2 69.01 55.99 69.01 74.06 72.03 79.68 72.03 55.99 72.03 33.2 69.01 33.2"/><rect class="cls-5" x="1.84" y="33.2" width="70.18" height="46.47"/><polygon class="cls-6" points="73.87 21.53 0 21.53 3.18 14.8 71.22 14.8 73.87 21.53"/><rect class="cls-7" y="21.53" width="73.87" height="11.8"/><polygon class="cls-8" points="65.65 18.17 8.22 18.17 8.71 16.71 65.16 16.71 65.65 18.17"/><rect class="cls-1" x="14.3" width="45.28" height="18"/><rect class="cls-9" x="14.3" width="45.28" height="7.94"/><rect class="cls-10" x="41.06" y="3.34" width="13.33" height="1.27"/></svg>