<svg id="Paper_shelf" data-name="Paper shelf" xmlns="http://www.w3.org/2000/svg" xmlns:xlink="http://www.w3.org/1999/xlink" viewBox="0 0 130 56.1"><defs><style>.cls-1{fill:#383432;}.cls-1,.cls-7{opacity:0.15;}.cls-2,.cls-5{fill:#fff;}.cls-3{fill:#dadada;}.cls-4{fill:#878787;}.cls-5{opacity:0.3;}.cls-6{fill:url(#linear-gradient);}.cls-7{fill:#12100b;}.cls-8{fill:#c6c6c6;}.cls-9{fill:url(#linear-gradient-2);}</style><linearGradient id="linear-gradient" x1="89.58" y1="14.51" x2="75.15" y2="14.51" gradientUnits="userSpaceOnUse"><stop offset="0" stop-color="#fff" stop-opacity="0"/><stop offset="1" stop-color="#575756" stop-opacity="0.25"/></linearGradient><linearGradient id="linear-gradient-2" x1="32.1" y1="0.9" x2="122.9" y2="91.7" gradientUnits="userSpaceOnUse"><stop offset="0" stop-color="#c39065"/><stop offset="1" stop-color="#95745c"/></linearGradient></defs><title>paper_shelf</title><polygon class="cls-1" points="106.46 32.8 106.46 3.78 77.91 3.78 27.33 3.78 27.33 32.8 77.91 32.8 106.46 32.8"/><rect class="cls-2" x="23.54" y="28.09" width="50.58" height="0.93"/><rect class="cls-3" x="74.12" y="28.09" width="28.55" height="0.93"/><polygon class="cls-4" points="74.12 27.14 23.54 27.14 23.54 28.07 74.12 28.07 102.67 28.07 102.67 27.14 74.12 27.14"/><rect class="cls-2" x="23.54" y="26.21" width="50.58" height="0.93"/><rect class="cls-3" x="74.12" y="26.21" width="28.55" height="0.93"/><polygon class="cls-4" points="74.12 25.27 23.54 25.27 23.54 26.2 74.12 26.2 102.67 26.2 102.67 25.27 74.12 25.27"/><rect class="cls-2" x="23.54" y="24.34" width="50.58" height="0.93"/><rect class="cls-3" x="74.12" y="24.34" width="28.55" height="0.93"/><polygon class="cls-4" points="74.12 23.4 23.54 23.4 23.54 24.33 74.12 24.33 102.67 24.33 102.67 23.4 74.12 23.4"/><rect class="cls-2" x="23.54" y="22.47" width="50.58" height="0.93"/><rect class="cls-3" x="74.12" y="22.47" width="28.55" height="0.93"/><polygon class="cls-4" points="74.12 21.53 23.54 21.53 23.54 22.46 74.12 22.46 102.67 22.46 102.67 21.53 74.12 21.53"/><rect class="cls-2" x="23.54" y="20.6" width="50.58" height="0.93"/><rect class="cls-3" x="74.12" y="20.6" width="28.55" height="0.93"/><polygon class="cls-4" points="74.12 19.66 23.54 19.66 23.54 20.59 74.12 20.59 102.67 20.59 102.67 19.66 74.12 19.66"/><rect class="cls-2" x="23.54" y="18.73" width="50.58" height="0.93"/><rect class="cls-3" x="74.12" y="18.73" width="28.55" height="0.93"/><polygon class="cls-4" points="74.12 17.78 23.54 17.78 23.54 18.71 74.12 18.71 102.67 18.71 102.67 17.78 74.12 17.78"/><rect class="cls-2" x="23.54" y="16.85" width="50.58" height="0.93"/><rect class="cls-3" x="74.12" y="16.85" width="28.55" height="0.93"/><polygon class="cls-4" points="74.12 15.91 23.54 15.91 23.54 16.84 74.12 16.84 102.67 16.84 102.67 15.91 74.12 15.91"/><rect class="cls-2" x="23.54" y="14.98" width="50.58" height="0.93"/><rect class="cls-3" x="74.12" y="14.98" width="28.55" height="0.93"/><polygon class="cls-4" points="74.12 14.04 23.54 14.04 23.54 14.97 74.12 14.97 102.67 14.97 102.67 14.04 74.12 14.04"/><rect class="cls-2" x="23.54" y="13.11" width="50.58" height="0.93"/><rect class="cls-3" x="74.12" y="13.11" width="28.55" height="0.93"/><polygon class="cls-4" points="74.12 12.17 23.54 12.17 23.54 13.1 74.12 13.1 102.67 13.1 102.67 12.17 74.12 12.17"/><rect class="cls-2" x="23.54" y="11.24" width="50.58" height="0.93"/><rect class="cls-3" x="74.12" y="11.24" width="28.55" height="0.93"/><polygon class="cls-4" points="74.12 10.3 23.54 10.3 23.54 11.23 74.12 11.23 102.67 11.23 102.67 10.3 74.12 10.3"/><rect class="cls-2" x="23.54" y="9.37" width="50.58" height="0.93"/><rect class="cls-3" x="74.12" y="9.37" width="28.55" height="0.93"/><polygon class="cls-4" points="74.12 8.42 23.54 8.42 23.54 9.36 74.12 9.36 102.67 9.36 102.67 8.42 74.12 8.42"/><rect class="cls-2" x="23.54" y="7.49" width="50.58" height="0.93"/><rect class="cls-3" x="74.12" y="7.49" width="28.55" height="0.93"/><polygon class="cls-4" points="74.12 6.55 23.54 6.55 23.54 7.48 74.12 7.48 102.67 7.48 102.67 6.55 74.12 6.55"/><rect class="cls-2" x="23.54" y="5.62" width="50.58" height="0.93"/><rect class="cls-3" x="74.12" y="5.62" width="28.55" height="0.93"/><polygon class="cls-4" points="74.12 4.68 23.54 4.68 23.54 5.61 74.12 5.61 102.67 5.61 102.67 4.68 74.12 4.68"/><rect class="cls-2" x="23.54" y="3.75" width="50.58" height="0.93"/><rect class="cls-3" x="74.12" y="3.75" width="28.55" height="0.93"/><polygon class="cls-4" points="74.12 2.81 23.54 2.81 23.54 3.74 74.12 3.74 102.67 3.74 102.67 2.81 74.12 2.81"/><rect class="cls-2" x="23.54" y="1.88" width="50.58" height="0.93"/><rect class="cls-3" x="74.12" y="1.88" width="28.55" height="0.93"/><polygon class="cls-4" points="74.12 0.94 23.54 0.94 23.54 1.87 74.12 1.87 102.67 1.87 102.67 0.94 74.12 0.94"/><rect class="cls-2" x="23.54" width="50.58" height="0.93"/><rect class="cls-3" x="74.12" width="28.55" height="0.93"/><rect class="cls-5" x="23.54" width="50.58" height="29.01"/><rect class="cls-6" x="74.12" width="28.55" height="29.01"/><rect class="cls-7" x="1.6" y="30.41" width="128.4" height="8.37"/><rect class="cls-7" x="16.28" y="37.19" width="9.39" height="18.91"/><rect class="cls-3" x="15.96" y="37.19" width="9.39" height="18.59"/><circle class="cls-7" cx="20.98" cy="41.31" r="1.83"/><circle class="cls-7" cx="20.98" cy="51.31" r="1.83"/><circle class="cls-8" cx="20.66" cy="40.99" r="1.83"/><circle class="cls-8" cx="20.66" cy="50.99" r="1.83"/><rect class="cls-7" x="103.05" y="37.19" width="9.39" height="18.91"/><rect class="cls-3" x="102.73" y="37.19" width="9.39" height="18.59"/><circle class="cls-7" cx="107.75" cy="41.31" r="1.83"/><circle class="cls-7" cx="107.75" cy="51.31" r="1.83"/><circle class="cls-8" cx="107.43" cy="40.99" r="1.83"/><circle class="cls-8" cx="107.43" cy="50.99" r="1.83"/><rect class="cls-9" y="28.81" width="128.4" height="8.37"/></svg>