<svg id="Pipe_fix" data-name="Pipe fix" xmlns="http://www.w3.org/2000/svg" viewBox="0 0 58.64 48.52"><defs><style>.cls-1{fill:#ccc3b0;}.cls-2{fill:#e8dcc5;}.cls-3{fill:#a59b88;}.cls-4{fill:#82a1a4;}.cls-5{fill:#648284;}.cls-6{fill:#92b3b7;}</style></defs><title>pipe_fixed</title><path class="cls-1" d="M568.6,12.65S545.79,24.31,545,28.31s2.09,10,5.83,10S553.23,32.31,568.6,12.65Z" transform="translate(-511.05 -6.65)"/><path class="cls-2" d="M550.87,32.15s3.52-8.5-4.11-13.5a59,59,0,0,1-13-12s4.22,26,9.53,27.5S550.87,32.15,550.87,32.15Z" transform="translate(-511.05 -6.65)"/><path class="cls-1" d="M512.78,31.67a35.91,35.91,0,0,0,0,22l2.31-.09c2.22-5.75,7.62-18.47,8.83-21.32C518.86,32.09,514.8,31.9,512.78,31.67Z" transform="translate(-511.05 -6.65)"/><path class="cls-1" d="M568.76,33l-6.66-.06c-0.76,2.79-2.52,9-4.3,14.05,2.39,0.39,4.1.71,4.7,2.19,0.42,1,1.86,2.59,2.67,4.33,1.2,0.05,2.4.09,3.58,0.15C568.76,53.67,570.84,43,568.76,33Z" transform="translate(-511.05 -6.65)"/><path class="cls-1" d="M542.32,43.6l4.4-10.85-8.78-.15-5.4,12.51A49,49,0,0,1,542.32,43.6Z" transform="translate(-511.05 -6.65)"/><path class="cls-3" d="M523.92,32.26c-1.21,2.85-6.61,15.57-8.83,21.32l1.67-.06c1.94-5,7.77-18.15,9.12-21.2Z" transform="translate(-511.05 -6.65)"/><path class="cls-3" d="M543.91,43.61l4.39-10.83-1.59,0-4.4,10.85C542.86,43.59,543.39,43.59,543.91,43.61Z" transform="translate(-511.05 -6.65)"/><path class="cls-2" d="M562.1,32.94c0.25-.93.4-1.48,0.4-1.48s-12-.37-13.66,0l-0.53,1.31,12.07,0.15Z" transform="translate(-511.05 -6.65)"/><path class="cls-2" d="M556.24,46.73L557.8,47c1.78-5,3.53-11.26,4.3-14.05l-1.72,0C559.91,34.67,558.13,41.15,556.24,46.73Z" transform="translate(-511.05 -6.65)"/><path class="cls-2" d="M550,44.88a24.91,24.91,0,0,0,6.24,1.85c1.89-5.57,3.67-12.06,4.14-13.81l-12.07-.15-4.39,10.83A15.8,15.8,0,0,1,550,44.88Z" transform="translate(-511.05 -6.65)"/><path class="cls-2" d="M516.76,53.52c-0.3.77-.51,1.35-0.59,1.65l3.21-.38s-0.08-.57-0.13-1.35Z" transform="translate(-511.05 -6.65)"/><path class="cls-2" d="M537.93,32.6l0.4-.93s-8.5-.47-12.17,0l-0.29.65c3.14,0.09,6.56.17,10.09,0.25Z" transform="translate(-511.05 -6.65)"/><path class="cls-2" d="M530.56,45.6l2-.49,5.4-12.51-2,0Z" transform="translate(-511.05 -6.65)"/><path class="cls-2" d="M521.38,48.63c3,0.38,2.25-1.25,7.63-2.62l1.56-.4,5.4-13c-3.53-.07-6.95-0.15-10.09-0.25-1.35,3.06-7.19,16.25-9.12,21.2l2.49-.08C519.14,51.55,519.25,48.36,521.38,48.63Z" transform="translate(-511.05 -6.65)"/><path class="cls-4" d="M557.8,47a39.64,39.64,0,0,1-2.63,6.21c3.34,0.07,6.68.17,10,.31-0.81-1.74-2.26-3.29-2.67-4.33C561.9,47.7,560.19,47.38,557.8,47Z" transform="translate(-511.05 -6.65)"/><path class="cls-4" d="M532.53,45.11L529,53.2c2.91-.05,6.08-0.09,9.44-0.11l3.84-9.49A49,49,0,0,0,532.53,45.11Z" transform="translate(-511.05 -6.65)"/><path class="cls-5" d="M542.32,43.6l-3.84,9.49h1.6l3.84-9.48C543.39,43.59,542.86,43.59,542.32,43.6Z" transform="translate(-511.05 -6.65)"/><path class="cls-6" d="M540.07,53.08L539.5,54.5s11.83-.33,14.33,0c0.37,0,.83-0.44,1.34-1.3l-1.45,0C549,53.08,544.42,53.07,540.07,53.08Z" transform="translate(-511.05 -6.65)"/><path class="cls-6" d="M553.72,53.17l1.45,0A39.64,39.64,0,0,0,557.8,47l-1.56-.26A59.55,59.55,0,0,1,553.72,53.17Z" transform="translate(-511.05 -6.65)"/><path class="cls-6" d="M553.72,53.17a59.55,59.55,0,0,0,2.52-6.44A24.91,24.91,0,0,1,550,44.88a15.8,15.8,0,0,0-6.09-1.27l-3.84,9.48C544.42,53.07,549,53.08,553.72,53.17Z" transform="translate(-511.05 -6.65)"/><path class="cls-6" d="M529,53.2l-1.63,0c-3.15.06-5.9,0.14-8.15,0.21,0,0.78.13,1.35,0.13,1.35l9.45-1.12Z" transform="translate(-511.05 -6.65)"/><path class="cls-6" d="M530.56,45.6l-3.16,7.63,1.63,0,3.49-8.09Z" transform="translate(-511.05 -6.65)"/><path class="cls-6" d="M529,46c-5.37,1.38-4.62,3-7.62,2.63-2.12-.27-2.24,2.92-2.13,4.81,2.26-.07,5-0.14,8.15-0.21l3.16-7.63Z" transform="translate(-511.05 -6.65)"/></svg>