<svg id="Servers" xmlns="http://www.w3.org/2000/svg" xmlns:xlink="http://www.w3.org/1999/xlink" viewBox="0 0 154.96 245.57"><defs><style>.cls-1{fill:url(#linear-gradient);}.cls-2{fill:#c6c6c6;}.cls-3{fill:#f6f6f6;}.cls-4{fill:#575756;}.cls-5{fill:#d67753;}.cls-6{fill:#f4c4b8;}.cls-7{fill:#47ae4c;}.cls-8{fill:#90bf21;}.cls-9{fill:#e52420;}.cls-10{fill:#f3912a;}.cls-11{fill:url(#linear-gradient-2);}.cls-12{fill:url(#linear-gradient-3);}.cls-13{fill:url(#linear-gradient-4);}.cls-14{fill:url(#linear-gradient-5);}.cls-15{fill:url(#linear-gradient-6);}.cls-16{fill:url(#linear-gradient-7);}.cls-17{fill:url(#linear-gradient-8);}</style><linearGradient id="linear-gradient" x1="77.48" y1="26.33" x2="77.48" y2="3.03" gradientUnits="userSpaceOnUse"><stop offset="0" stop-color="#e0e0e0"/><stop offset="1" stop-color="#9c9c9c"/></linearGradient><linearGradient id="linear-gradient-2" x1="77.48" y1="57.22" x2="77.48" y2="33.92" xlink:href="#linear-gradient"/><linearGradient id="linear-gradient-3" x1="77.48" y1="88.11" x2="77.48" y2="64.81" xlink:href="#linear-gradient"/><linearGradient id="linear-gradient-4" x1="77.48" y1="119" x2="77.48" y2="95.7" xlink:href="#linear-gradient"/><linearGradient id="linear-gradient-5" x1="77.48" y1="149.89" x2="77.48" y2="126.59" xlink:href="#linear-gradient"/><linearGradient id="linear-gradient-6" x1="77.48" y1="180.78" x2="77.48" y2="157.48" xlink:href="#linear-gradient"/><linearGradient id="linear-gradient-7" x1="77.48" y1="211.67" x2="77.48" y2="188.37" xlink:href="#linear-gradient"/><linearGradient id="linear-gradient-8" x1="77.48" y1="242.56" x2="77.48" y2="219.26" xlink:href="#linear-gradient"/></defs><title>servers</title><rect class="cls-1" width="154.96" height="29.34"/><rect class="cls-2" x="143.38" width="0.84" height="29.34"/><rect class="cls-3" x="144.22" width="0.84" height="29.34"/><rect class="cls-2" x="11.58" width="0.84" height="29.34"/><rect class="cls-3" x="12.42" width="0.84" height="29.34"/><circle class="cls-4" cx="36.19" cy="10.69" r="2.49"/><circle class="cls-4" cx="36.19" cy="18.65" r="2.49"/><circle class="cls-4" cx="44.15" cy="10.69" r="2.49"/><circle class="cls-4" cx="44.15" cy="18.65" r="2.49"/><circle class="cls-4" cx="52.11" cy="10.69" r="2.49"/><circle class="cls-4" cx="52.11" cy="18.65" r="2.49"/><circle class="cls-4" cx="60.07" cy="10.69" r="2.49"/><circle class="cls-4" cx="60.07" cy="18.65" r="2.49"/><circle class="cls-4" cx="94.89" cy="10.69" r="2.49"/><circle class="cls-4" cx="94.89" cy="18.65" r="2.49"/><circle class="cls-4" cx="102.85" cy="10.69" r="2.49"/><circle class="cls-4" cx="102.85" cy="18.65" r="2.49"/><circle class="cls-4" cx="110.81" cy="10.69" r="2.49"/><circle class="cls-4" cx="110.81" cy="18.65" r="2.49"/><circle class="cls-4" cx="118.77" cy="10.69" r="2.49"/><circle class="cls-4" cx="118.77" cy="18.65" r="2.49"/><ellipse class="cls-5" cx="77.48" cy="14.67" rx="11.94" ry="7.29"/><polygon class="cls-6" points="74.81 14.2 74.39 14.22 75.24 10.67 74.09 10.67 73.56 14.27 71.08 14.42 71.6 10.67 70.77 10.95 70.38 14.46 69.54 14.51 69.22 15.09 70.3 15.16 69.94 18.39 70.49 18.75 70.98 15.2 73.4 15.35 72.91 18.67 73.3 18.75 74.11 15.39 75.24 15.46 74.81 14.2"/><path class="cls-6" d="M563.37,174.83l-0.16-.89-1,0-0.7-3.92h-0.79l0.1,0.59h-0.26l-1.27,3.2-0.83,0v0.55l0.61,0.07-1.64,4.14,0.67-.36,1.67-3.71,1.73,0.19,0.49,2.88h0.87l-0.5-2.79Zm-3.36-1,1-2.12,0.37,2.17Z" transform="translate(-483.02 -159.74)"/><polygon class="cls-6" points="85.74 15.46 81.94 17.43 81.03 11.11 80.55 10.83 80.89 17.98 80.55 18.16 80.55 18.75 80.92 18.6 80.95 19.11 82.13 18.75 82.05 18.14 85.5 16.73 85.74 15.46"/><circle class="cls-7" cx="132.76" cy="14.67" r="5.46"/><circle class="cls-8" cx="133.59" cy="13.84" r="4.63"/><rect class="cls-9" x="17.21" y="9.88" width="12.55" height="4.25"/><rect class="cls-10" x="17.21" y="15.22" width="12.55" height="4.25"/><rect class="cls-11" y="30.89" width="154.96" height="29.34"/><rect class="cls-2" x="143.38" y="30.89" width="0.84" height="29.34"/><rect class="cls-3" x="144.22" y="30.89" width="0.84" height="29.34"/><rect class="cls-2" x="11.58" y="30.89" width="0.84" height="29.34"/><rect class="cls-3" x="12.42" y="30.89" width="0.84" height="29.34"/><circle class="cls-4" cx="36.19" cy="41.58" r="2.49"/><circle class="cls-4" cx="36.19" cy="49.54" r="2.49"/><circle class="cls-4" cx="44.15" cy="41.58" r="2.49"/><circle class="cls-4" cx="44.15" cy="49.54" r="2.49"/><circle class="cls-4" cx="52.11" cy="41.58" r="2.49"/><circle class="cls-4" cx="52.11" cy="49.54" r="2.49"/><circle class="cls-4" cx="60.07" cy="41.58" r="2.49"/><circle class="cls-4" cx="60.07" cy="49.54" r="2.49"/><circle class="cls-4" cx="94.89" cy="41.58" r="2.49"/><circle class="cls-4" cx="94.89" cy="49.54" r="2.49"/><circle class="cls-4" cx="102.85" cy="41.58" r="2.49"/><circle class="cls-4" cx="102.85" cy="49.54" r="2.49"/><circle class="cls-4" cx="110.81" cy="41.58" r="2.49"/><circle class="cls-4" cx="110.81" cy="49.54" r="2.49"/><circle class="cls-4" cx="118.77" cy="41.58" r="2.49"/><circle class="cls-4" cx="118.77" cy="49.54" r="2.49"/><ellipse class="cls-5" cx="77.48" cy="45.56" rx="11.94" ry="7.29"/><polygon class="cls-6" points="74.81 45.09 74.39 45.11 75.24 41.56 74.09 41.56 73.56 45.16 71.08 45.31 71.6 41.56 70.77 41.84 70.38 45.35 69.54 45.4 69.22 45.98 70.3 46.05 69.94 49.28 70.49 49.64 70.98 46.09 73.4 46.24 72.91 49.56 73.3 49.64 74.11 46.28 75.24 46.35 74.81 45.09"/><path class="cls-6" d="M563.37,205.72l-0.16-.89-1,0-0.7-3.92h-0.79l0.1,0.59h-0.26l-1.27,3.2-0.83,0v0.55l0.61,0.07-1.64,4.14,0.67-.36,1.67-3.71,1.73,0.19,0.49,2.88h0.87l-0.5-2.79Zm-3.36-1,1-2.12,0.37,2.17Z" transform="translate(-483.02 -159.74)"/><polygon class="cls-6" points="85.74 46.35 81.94 48.32 81.03 42 80.55 41.72 80.89 48.87 80.55 49.05 80.55 49.64 80.92 49.49 80.95 50 82.13 49.64 82.05 49.03 85.5 47.62 85.74 46.35"/><circle class="cls-7" cx="132.76" cy="45.56" r="5.46"/><circle class="cls-8" cx="133.59" cy="44.73" r="4.63"/><rect class="cls-9" x="17.21" y="40.77" width="12.55" height="4.25"/><rect class="cls-10" x="17.21" y="46.11" width="12.55" height="4.25"/><rect class="cls-12" y="61.78" width="154.96" height="29.34"/><rect class="cls-2" x="143.38" y="61.78" width="0.84" height="29.34"/><rect class="cls-3" x="144.22" y="61.78" width="0.84" height="29.34"/><rect class="cls-2" x="11.58" y="61.78" width="0.84" height="29.34"/><rect class="cls-3" x="12.42" y="61.78" width="0.84" height="29.34"/><circle class="cls-4" cx="36.19" cy="72.47" r="2.49"/><circle class="cls-4" cx="36.19" cy="80.43" r="2.49"/><circle class="cls-4" cx="44.15" cy="72.47" r="2.49"/><circle class="cls-4" cx="44.15" cy="80.43" r="2.49"/><circle class="cls-4" cx="52.11" cy="72.47" r="2.49"/><circle class="cls-4" cx="52.11" cy="80.43" r="2.49"/><circle class="cls-4" cx="60.07" cy="72.47" r="2.49"/><circle class="cls-4" cx="60.07" cy="80.43" r="2.49"/><circle class="cls-4" cx="94.89" cy="72.47" r="2.49"/><circle class="cls-4" cx="94.89" cy="80.43" r="2.49"/><circle class="cls-4" cx="102.85" cy="72.47" r="2.49"/><circle class="cls-4" cx="102.85" cy="80.43" r="2.49"/><circle class="cls-4" cx="110.81" cy="72.47" r="2.49"/><circle class="cls-4" cx="110.81" cy="80.43" r="2.49"/><circle class="cls-4" cx="118.77" cy="72.47" r="2.49"/><circle class="cls-4" cx="118.77" cy="80.43" r="2.49"/><ellipse class="cls-5" cx="77.48" cy="76.45" rx="11.94" ry="7.29"/><polygon class="cls-6" points="74.81 75.98 74.39 76 75.24 72.45 74.09 72.45 73.56 76.05 71.08 76.2 71.6 72.45 70.77 72.73 70.38 76.24 69.54 76.29 69.22 76.87 70.3 76.94 69.94 80.17 70.49 80.53 70.98 76.98 73.4 77.13 72.91 80.45 73.3 80.53 74.11 77.17 75.24 77.24 74.81 75.98"/><path class="cls-6" d="M563.37,236.61l-0.16-.89-1,0-0.7-3.92h-0.79l0.1,0.59h-0.26l-1.27,3.2-0.83,0v0.55l0.61,0.07-1.64,4.14,0.67-.36,1.67-3.71,1.73,0.19,0.49,2.88h0.87l-0.5-2.79Zm-3.36-1,1-2.12,0.37,2.17Z" transform="translate(-483.02 -159.74)"/><polygon class="cls-6" points="85.74 77.24 81.94 79.21 81.03 72.89 80.55 72.61 80.89 79.76 80.55 79.94 80.55 80.53 80.92 80.38 80.95 80.89 82.13 80.53 82.05 79.92 85.5 78.51 85.74 77.24"/><circle class="cls-7" cx="132.76" cy="76.45" r="5.46"/><circle class="cls-8" cx="133.59" cy="75.62" r="4.63"/><rect class="cls-9" x="17.21" y="71.66" width="12.55" height="4.25"/><rect class="cls-10" x="17.21" y="77" width="12.55" height="4.25"/><rect class="cls-13" y="92.67" width="154.96" height="29.34"/><rect class="cls-2" x="143.38" y="92.67" width="0.84" height="29.34"/><rect class="cls-3" x="144.22" y="92.67" width="0.84" height="29.34"/><rect class="cls-2" x="11.58" y="92.67" width="0.84" height="29.34"/><rect class="cls-3" x="12.42" y="92.67" width="0.84" height="29.34"/><circle class="cls-4" cx="36.19" cy="103.36" r="2.49"/><circle class="cls-4" cx="36.19" cy="111.32" r="2.49"/><circle class="cls-4" cx="44.15" cy="103.36" r="2.49"/><circle class="cls-4" cx="44.15" cy="111.32" r="2.49"/><circle class="cls-4" cx="52.11" cy="103.36" r="2.49"/><circle class="cls-4" cx="52.11" cy="111.32" r="2.49"/><circle class="cls-4" cx="60.07" cy="103.36" r="2.49"/><circle class="cls-4" cx="60.07" cy="111.32" r="2.49"/><circle class="cls-4" cx="94.89" cy="103.36" r="2.49"/><circle class="cls-4" cx="94.89" cy="111.32" r="2.49"/><circle class="cls-4" cx="102.85" cy="103.36" r="2.49"/><circle class="cls-4" cx="102.85" cy="111.32" r="2.49"/><circle class="cls-4" cx="110.81" cy="103.36" r="2.49"/><circle class="cls-4" cx="110.81" cy="111.32" r="2.49"/><circle class="cls-4" cx="118.77" cy="103.36" r="2.49"/><circle class="cls-4" cx="118.77" cy="111.32" r="2.49"/><ellipse class="cls-5" cx="77.48" cy="107.34" rx="11.94" ry="7.29"/><polygon class="cls-6" points="74.81 106.87 74.39 106.89 75.24 103.34 74.09 103.34 73.56 106.94 71.08 107.09 71.6 103.34 70.77 103.62 70.38 107.13 69.54 107.18 69.22 107.76 70.3 107.83 69.94 111.06 70.49 111.42 70.98 107.87 73.4 108.02 72.91 111.34 73.3 111.42 74.11 108.06 75.24 108.13 74.81 106.87"/><path class="cls-6" d="M563.37,267.5l-0.16-.89-1,0-0.7-3.92h-0.79l0.1,0.59h-0.26l-1.27,3.2-0.83,0V267L559,267l-1.64,4.14,0.67-.36,1.67-3.71,1.73,0.19,0.49,2.88h0.87l-0.5-2.79Zm-3.36-1,1-2.12,0.37,2.17Z" transform="translate(-483.02 -159.74)"/><polygon class="cls-6" points="85.74 108.13 81.94 110.1 81.03 103.78 80.55 103.5 80.89 110.65 80.55 110.83 80.55 111.42 80.92 111.27 80.95 111.78 82.13 111.42 82.05 110.81 85.5 109.4 85.74 108.13"/><circle class="cls-7" cx="132.76" cy="107.34" r="5.46"/><circle class="cls-8" cx="133.59" cy="106.51" r="4.63"/><rect class="cls-9" x="17.21" y="102.55" width="12.55" height="4.25"/><rect class="cls-10" x="17.21" y="107.89" width="12.55" height="4.25"/><rect class="cls-14" y="123.56" width="154.96" height="29.34"/><rect class="cls-2" x="143.38" y="123.56" width="0.84" height="29.34"/><rect class="cls-3" x="144.22" y="123.56" width="0.84" height="29.34"/><rect class="cls-2" x="11.58" y="123.56" width="0.84" height="29.34"/><rect class="cls-3" x="12.42" y="123.56" width="0.84" height="29.34"/><circle class="cls-4" cx="36.19" cy="134.25" r="2.49"/><circle class="cls-4" cx="36.19" cy="142.21" r="2.49"/><circle class="cls-4" cx="44.15" cy="134.25" r="2.49"/><circle class="cls-4" cx="44.15" cy="142.21" r="2.49"/><circle class="cls-4" cx="52.11" cy="134.25" r="2.49"/><circle class="cls-4" cx="52.11" cy="142.21" r="2.49"/><circle class="cls-4" cx="60.07" cy="134.25" r="2.49"/><circle class="cls-4" cx="60.07" cy="142.21" r="2.49"/><circle class="cls-4" cx="94.89" cy="134.25" r="2.49"/><circle class="cls-4" cx="94.89" cy="142.21" r="2.49"/><circle class="cls-4" cx="102.85" cy="134.25" r="2.49"/><circle class="cls-4" cx="102.85" cy="142.21" r="2.49"/><circle class="cls-4" cx="110.81" cy="134.25" r="2.49"/><circle class="cls-4" cx="110.81" cy="142.21" r="2.49"/><circle class="cls-4" cx="118.77" cy="134.25" r="2.49"/><circle class="cls-4" cx="118.77" cy="142.21" r="2.49"/><ellipse class="cls-5" cx="77.48" cy="138.23" rx="11.94" ry="7.29"/><polygon class="cls-6" points="74.81 137.75 74.39 137.78 75.24 134.23 74.09 134.23 73.56 137.83 71.08 137.98 71.6 134.23 70.77 134.51 70.38 138.02 69.54 138.07 69.22 138.65 70.3 138.71 69.94 141.95 70.49 142.31 70.98 138.76 73.4 138.91 72.91 142.23 73.3 142.31 74.11 138.95 75.24 139.02 74.81 137.75"/><path class="cls-6" d="M563.37,298.39l-0.16-.89-1,0-0.7-3.92h-0.79l0.1,0.59h-0.26l-1.27,3.2-0.83,0v0.55l0.61,0.07L557.39,302l0.67-.36,1.67-3.71,1.73,0.19,0.49,2.88h0.87l-0.5-2.79Zm-3.36-1,1-2.12,0.37,2.17Z" transform="translate(-483.02 -159.74)"/><polygon class="cls-6" points="85.74 139.02 81.94 140.99 81.03 134.67 80.55 134.39 80.89 141.54 80.55 141.72 80.55 142.31 80.92 142.16 80.95 142.67 82.13 142.31 82.05 141.7 85.5 140.29 85.74 139.02"/><circle class="cls-7" cx="132.76" cy="138.23" r="5.46"/><circle class="cls-8" cx="133.59" cy="137.4" r="4.63"/><rect class="cls-9" x="17.21" y="133.44" width="12.55" height="4.25"/><rect class="cls-10" x="17.21" y="138.78" width="12.55" height="4.25"/><rect class="cls-15" y="154.45" width="154.96" height="29.34"/><rect class="cls-2" x="143.38" y="154.45" width="0.84" height="29.34"/><rect class="cls-3" x="144.22" y="154.45" width="0.84" height="29.34"/><rect class="cls-2" x="11.58" y="154.45" width="0.84" height="29.34"/><rect class="cls-3" x="12.42" y="154.45" width="0.84" height="29.34"/><circle class="cls-4" cx="36.19" cy="165.14" r="2.49"/><circle class="cls-4" cx="36.19" cy="173.1" r="2.49"/><circle class="cls-4" cx="44.15" cy="165.14" r="2.49"/><circle class="cls-4" cx="44.15" cy="173.1" r="2.49"/><circle class="cls-4" cx="52.11" cy="165.14" r="2.49"/><circle class="cls-4" cx="52.11" cy="173.1" r="2.49"/><circle class="cls-4" cx="60.07" cy="165.14" r="2.49"/><circle class="cls-4" cx="60.07" cy="173.1" r="2.49"/><circle class="cls-4" cx="94.89" cy="165.14" r="2.49"/><circle class="cls-4" cx="94.89" cy="173.1" r="2.49"/><circle class="cls-4" cx="102.85" cy="165.14" r="2.49"/><circle class="cls-4" cx="102.85" cy="173.1" r="2.49"/><circle class="cls-4" cx="110.81" cy="165.14" r="2.49"/><circle class="cls-4" cx="110.81" cy="173.1" r="2.49"/><circle class="cls-4" cx="118.77" cy="165.14" r="2.49"/><circle class="cls-4" cx="118.77" cy="173.1" r="2.49"/><ellipse class="cls-5" cx="77.48" cy="169.12" rx="11.94" ry="7.29"/><polygon class="cls-6" points="74.81 168.64 74.39 168.67 75.24 165.12 74.09 165.12 73.56 168.72 71.08 168.87 71.6 165.12 70.77 165.4 70.38 168.91 69.54 168.96 69.22 169.54 70.3 169.6 69.94 172.84 70.49 173.2 70.98 169.65 73.4 169.8 72.91 173.12 73.3 173.2 74.11 169.84 75.24 169.91 74.81 168.64"/><path class="cls-6" d="M563.37,329.28l-0.16-.89-1,0-0.7-3.92h-0.79l0.1,0.59h-0.26l-1.27,3.2-0.83,0v0.55L559,328.8l-1.64,4.14,0.67-.36,1.67-3.71,1.73,0.19,0.49,2.88h0.87l-0.5-2.79Zm-3.36-1,1-2.12,0.37,2.17Z" transform="translate(-483.02 -159.74)"/><polygon class="cls-6" points="85.74 169.91 81.94 171.88 81.03 165.56 80.55 165.28 80.89 172.43 80.55 172.6 80.55 173.2 80.92 173.05 80.95 173.56 82.13 173.2 82.05 172.59 85.5 171.18 85.74 169.91"/><circle class="cls-7" cx="132.76" cy="169.12" r="5.46"/><circle class="cls-8" cx="133.59" cy="168.29" r="4.63"/><rect class="cls-9" x="17.21" y="164.33" width="12.55" height="4.25"/><rect class="cls-10" x="17.21" y="169.67" width="12.55" height="4.25"/><rect class="cls-16" y="185.34" width="154.96" height="29.34"/><rect class="cls-2" x="143.38" y="185.34" width="0.84" height="29.34"/><rect class="cls-3" x="144.22" y="185.34" width="0.84" height="29.34"/><rect class="cls-2" x="11.58" y="185.34" width="0.84" height="29.34"/><rect class="cls-3" x="12.42" y="185.34" width="0.84" height="29.34"/><circle class="cls-4" cx="36.19" cy="196.03" r="2.49"/><circle class="cls-4" cx="36.19" cy="203.99" r="2.49"/><circle class="cls-4" cx="44.15" cy="196.03" r="2.49"/><circle class="cls-4" cx="44.15" cy="203.99" r="2.49"/><circle class="cls-4" cx="52.11" cy="196.03" r="2.49"/><circle class="cls-4" cx="52.11" cy="203.99" r="2.49"/><circle class="cls-4" cx="60.07" cy="196.03" r="2.49"/><circle class="cls-4" cx="60.07" cy="203.99" r="2.49"/><circle class="cls-4" cx="94.89" cy="196.03" r="2.49"/><circle class="cls-4" cx="94.89" cy="203.99" r="2.49"/><circle class="cls-4" cx="102.85" cy="196.03" r="2.49"/><circle class="cls-4" cx="102.85" cy="203.99" r="2.49"/><circle class="cls-4" cx="110.81" cy="196.03" r="2.49"/><circle class="cls-4" cx="110.81" cy="203.99" r="2.49"/><circle class="cls-4" cx="118.77" cy="196.03" r="2.49"/><circle class="cls-4" cx="118.77" cy="203.99" r="2.49"/><ellipse class="cls-5" cx="77.48" cy="200.01" rx="11.94" ry="7.29"/><polygon class="cls-6" points="74.81 199.53 74.39 199.56 75.24 196.01 74.09 196.01 73.56 199.61 71.08 199.76 71.6 196.01 70.77 196.29 70.38 199.8 69.54 199.85 69.22 200.43 70.3 200.49 69.94 203.73 70.49 204.09 70.98 200.54 73.4 200.69 72.91 204.01 73.3 204.09 74.11 200.73 75.24 200.8 74.81 199.53"/><path class="cls-6" d="M563.37,360.17l-0.16-.89-1,0-0.7-3.92h-0.79l0.1,0.59h-0.26l-1.27,3.2-0.83,0v0.55l0.61,0.07-1.64,4.14,0.67-.36,1.67-3.71,1.73,0.19,0.49,2.88h0.87l-0.5-2.79Zm-3.36-1,1-2.12,0.37,2.17Z" transform="translate(-483.02 -159.74)"/><polygon class="cls-6" points="85.74 200.8 81.94 202.77 81.03 196.44 80.55 196.17 80.89 203.32 80.55 203.49 80.55 204.09 80.92 203.94 80.95 204.44 82.13 204.09 82.05 203.48 85.5 202.07 85.74 200.8"/><circle class="cls-7" cx="132.76" cy="200.01" r="5.46"/><circle class="cls-8" cx="133.59" cy="199.18" r="4.63"/><rect class="cls-9" x="17.21" y="195.21" width="12.55" height="4.25"/><rect class="cls-10" x="17.21" y="200.56" width="12.55" height="4.25"/><rect class="cls-17" y="216.23" width="154.96" height="29.34"/><rect class="cls-2" x="143.38" y="216.23" width="0.84" height="29.34"/><rect class="cls-3" x="144.22" y="216.23" width="0.84" height="29.34"/><rect class="cls-2" x="11.58" y="216.23" width="0.84" height="29.34"/><rect class="cls-3" x="12.42" y="216.23" width="0.84" height="29.34"/><circle class="cls-4" cx="36.19" cy="226.92" r="2.49"/><circle class="cls-4" cx="36.19" cy="234.88" r="2.49"/><circle class="cls-4" cx="44.15" cy="226.92" r="2.49"/><circle class="cls-4" cx="44.15" cy="234.88" r="2.49"/><circle class="cls-4" cx="52.11" cy="226.92" r="2.49"/><circle class="cls-4" cx="52.11" cy="234.88" r="2.49"/><circle class="cls-4" cx="60.07" cy="226.92" r="2.49"/><circle class="cls-4" cx="60.07" cy="234.88" r="2.49"/><circle class="cls-4" cx="94.89" cy="226.92" r="2.49"/><circle class="cls-4" cx="94.89" cy="234.88" r="2.49"/><circle class="cls-4" cx="102.85" cy="226.92" r="2.49"/><circle class="cls-4" cx="102.85" cy="234.88" r="2.49"/><circle class="cls-4" cx="110.81" cy="226.92" r="2.49"/><circle class="cls-4" cx="110.81" cy="234.88" r="2.49"/><circle class="cls-4" cx="118.77" cy="226.92" r="2.49"/><circle class="cls-4" cx="118.77" cy="234.88" r="2.49"/><ellipse class="cls-5" cx="77.48" cy="230.9" rx="11.94" ry="7.29"/><polygon class="cls-6" points="74.81 230.42 74.39 230.45 75.24 226.9 74.09 226.9 73.56 230.5 71.08 230.65 71.6 226.9 70.77 227.18 70.38 230.69 69.54 230.74 69.22 231.32 70.3 231.38 69.94 234.62 70.49 234.98 70.98 231.43 73.4 231.58 72.91 234.9 73.3 234.98 74.11 231.62 75.24 231.69 74.81 230.42"/><path class="cls-6" d="M563.37,391.05l-0.16-.89-1,0-0.7-3.92h-0.79l0.1,0.59h-0.26l-1.27,3.2-0.83,0v0.55l0.61,0.07-1.64,4.14,0.67-.36,1.67-3.71,1.73,0.19,0.49,2.88h0.87l-0.5-2.79ZM560,390l1-2.12,0.37,2.17Z" transform="translate(-483.02 -159.74)"/><polygon class="cls-6" points="85.74 231.69 81.94 233.66 81.03 227.33 80.55 227.06 80.89 234.21 80.55 234.38 80.55 234.98 80.92 234.83 80.95 235.33 82.13 234.98 82.05 234.37 85.5 232.96 85.74 231.69"/><circle class="cls-7" cx="132.76" cy="230.9" r="5.46"/><circle class="cls-8" cx="133.59" cy="230.07" r="4.63"/><rect class="cls-9" x="17.21" y="226.1" width="12.55" height="4.25"/><rect class="cls-10" x="17.21" y="231.45" width="12.55" height="4.25"/></svg>