<svg id="Layer_1" data-name="Layer 1" xmlns="http://www.w3.org/2000/svg" xmlns:xlink="http://www.w3.org/1999/xlink" viewBox="0 0 825.86 435.56"><defs><style>.cls-1{fill:#63328a;}.cls-2{fill:#43295a;}.cls-3{fill:#e52429;}.cls-4{fill:#c1282d;}.cls-5{fill:#ea5c67;}.cls-6{fill:#e0b285;}.cls-7{fill:#c69c6c;}.cls-8{fill:#d4155b;}.cls-9{fill:#cdcccc;}.cls-10{fill:#d7d7d7;}.cls-11{fill:#e84989;}.cls-12{fill:#a81759;}.cls-13{fill:#ffde00;}.cls-14{opacity:0.15;}.cls-15{fill:url(#linear-gradient);}.cls-16{fill:url(#linear-gradient-2);}.cls-17,.cls-22{fill:#fff;}.cls-17{opacity:0.9;}.cls-18{fill:url(#linear-gradient-3);}.cls-19{opacity:0.1;}.cls-20{fill:url(#linear-gradient-4);}.cls-21{fill:url(#linear-gradient-5);}.cls-22{opacity:0.49;}.cls-23{fill:url(#linear-gradient-6);}.cls-24{fill:url(#linear-gradient-7);}.cls-25{fill:url(#linear-gradient-8);}.cls-26{fill:url(#linear-gradient-10);}.cls-27{fill:url(#linear-gradient-11);}.cls-28{fill:url(#linear-gradient-12);}.cls-29{fill:url(#linear-gradient-13);}.cls-30{fill:url(#linear-gradient-14);}.cls-31{fill:url(#linear-gradient-15);}.cls-32{fill:url(#linear-gradient-16);}.cls-33{fill:url(#linear-gradient-17);}.cls-34{fill:url(#linear-gradient-18);}.cls-35{fill:url(#linear-gradient-19);}.cls-36{fill:url(#linear-gradient-20);}.cls-37{fill:url(#linear-gradient-21);}.cls-38{fill:url(#linear-gradient-22);}.cls-39,.cls-40,.cls-41,.cls-42{opacity:0.7;}.cls-39{fill:url(#linear-gradient-23);}.cls-40{fill:url(#linear-gradient-24);}.cls-41{fill:url(#linear-gradient-25);}.cls-42{fill:url(#linear-gradient-26);}</style><linearGradient id="linear-gradient" x1="987.06" y1="508.75" x2="1202.82" y2="508.75" gradientTransform="translate(-23.33 143.09) rotate(-18.54)" gradientUnits="userSpaceOnUse"><stop offset="0" stop-color="#a4c616"/><stop offset="0.25" stop-color="#9fc318"/><stop offset="0.52" stop-color="#92bb1e"/><stop offset="0.8" stop-color="#7cad27"/><stop offset="1" stop-color="#68a030"/></linearGradient><linearGradient id="linear-gradient-2" x1="987.06" y1="510.12" x2="1202.82" y2="510.12" xlink:href="#linear-gradient"/><linearGradient id="linear-gradient-3" x1="987.06" y1="536.17" x2="1202.82" y2="536.17" gradientTransform="translate(-778.38 86.33) rotate(-18.54)" xlink:href="#linear-gradient"/><linearGradient id="linear-gradient-4" x1="987.06" y1="524.46" x2="1202.82" y2="524.46" xlink:href="#linear-gradient"/><linearGradient id="linear-gradient-5" x1="987.06" y1="525.81" x2="1202.82" y2="525.81" xlink:href="#linear-gradient"/><linearGradient id="linear-gradient-6" x1="987.06" y1="524.97" x2="1202.82" y2="524.97" xlink:href="#linear-gradient"/><linearGradient id="linear-gradient-7" x1="987.06" y1="526.25" x2="1202.82" y2="526.25" xlink:href="#linear-gradient"/><linearGradient id="linear-gradient-8" x1="222.49" y1="-789.35" x2="222.49" y2="-779.3" gradientTransform="matrix(0.99, 0.11, 0.11, -0.99, 197.61, -528.3)" gradientUnits="userSpaceOnUse"><stop offset="0.33" stop-color="#fff"/><stop offset="0.61" stop-color="#fcfcfc"/><stop offset="0.8" stop-color="#f3f3f3"/><stop offset="0.97" stop-color="#e4e4e4"/><stop offset="1" stop-color="#e0e0e0"/></linearGradient><linearGradient id="linear-gradient-10" x1="214.82" y1="-789.35" x2="214.82" y2="-779.3" gradientTransform="matrix(0.99, 0.11, 0.11, -0.99, 952.67, -471.54)" xlink:href="#linear-gradient-8"/><linearGradient id="linear-gradient-11" x1="221.97" y1="-789.35" x2="221.97" y2="-779.3" gradientTransform="matrix(0.99, 0.11, 0.11, -0.99, 952.67, -471.54)" xlink:href="#linear-gradient-8"/><linearGradient id="linear-gradient-12" x1="987.06" y1="526.36" x2="1202.82" y2="526.36" xlink:href="#linear-gradient"/><linearGradient id="linear-gradient-13" x1="216.49" y1="-789.35" x2="216.49" y2="-779.3" gradientTransform="matrix(0.99, 0.11, 0.11, -0.99, 952.67, -471.54)" xlink:href="#linear-gradient-8"/><linearGradient id="linear-gradient-14" x1="987.06" y1="527.89" x2="1202.82" y2="527.89" xlink:href="#linear-gradient"/><linearGradient id="linear-gradient-15" x1="218.92" y1="-789.35" x2="218.92" y2="-779.3" gradientTransform="matrix(0.99, 0.11, 0.11, -0.99, 952.67, -471.54)" xlink:href="#linear-gradient-8"/><linearGradient id="linear-gradient-16" x1="214.8" y1="-789.35" x2="214.8" y2="-779.3" gradientTransform="matrix(0.99, 0.11, 0.11, -0.99, 952.67, -471.54)" xlink:href="#linear-gradient-8"/><linearGradient id="linear-gradient-17" x1="221.95" y1="-789.35" x2="221.95" y2="-779.3" gradientTransform="matrix(0.99, 0.11, 0.11, -0.99, 952.67, -471.54)" xlink:href="#linear-gradient-8"/><linearGradient id="linear-gradient-18" x1="214.81" y1="-789.35" x2="214.81" y2="-779.3" gradientTransform="matrix(0.99, 0.11, 0.11, -0.99, 952.67, -471.54)" xlink:href="#linear-gradient-8"/><linearGradient id="linear-gradient-19" x1="987.06" y1="528.36" x2="1202.82" y2="528.36" xlink:href="#linear-gradient"/><linearGradient id="linear-gradient-20" x1="215.79" y1="-789.35" x2="215.79" y2="-779.3" gradientTransform="matrix(0.99, 0.11, 0.11, -0.99, 952.67, -471.54)" xlink:href="#linear-gradient-8"/><linearGradient id="linear-gradient-21" x1="987.06" y1="532.62" x2="1202.82" y2="532.62" xlink:href="#linear-gradient"/><linearGradient id="linear-gradient-22" x1="218.3" y1="-789.35" x2="218.3" y2="-779.3" gradientTransform="matrix(0.99, 0.11, 0.11, -0.99, 952.67, -471.54)" xlink:href="#linear-gradient-8"/><linearGradient id="linear-gradient-23" x1="214.62" y1="-805.43" x2="221.07" y2="-798.97" gradientTransform="matrix(0.99, 0.11, 0.11, -0.99, 197.61, -528.3)" gradientUnits="userSpaceOnUse"><stop offset="0" stop-color="#ffd52e"/><stop offset="1" stop-color="#f8aa30"/></linearGradient><linearGradient id="linear-gradient-24" x1="212.59" y1="-803.4" x2="219.04" y2="-796.95" gradientTransform="matrix(0.99, 0.11, 0.11, -0.99, 952.67, -471.54)" xlink:href="#linear-gradient-23"/><linearGradient id="linear-gradient-25" x1="217.3" y1="-803.4" x2="223.75" y2="-796.95" gradientTransform="matrix(0.99, 0.11, 0.11, -0.99, 952.67, -471.54)" xlink:href="#linear-gradient-23"/><linearGradient id="linear-gradient-26" x1="222.01" y1="-803.4" x2="228.47" y2="-796.94" gradientTransform="matrix(0.99, 0.11, 0.11, -0.99, 952.67, -471.54)" xlink:href="#linear-gradient-23"/></defs><title>inventory_key</title><rect class="cls-1" y="34.24" width="370" height="100"/><rect class="cls-2" x="10" y="44.24" width="80" height="80"/><rect class="cls-2" x="100" y="44.24" width="80" height="80"/><rect class="cls-2" x="190" y="44.24" width="80" height="80"/><rect class="cls-2" x="280" y="44.24" width="80" height="80"/><path class="cls-3" d="M971,484.61v6.95h1.12V484.7Z" transform="translate(-755.06 -56.76)"/><path class="cls-4" d="M972.1,484.7v7.62h1.12v-7.54Z" transform="translate(-755.06 -56.76)"/><path class="cls-5" d="M973.22,484.79v6.13h1.12v-6.06Z" transform="translate(-755.06 -56.76)"/><path class="cls-3" d="M974.34,484.86v6.65h1.12v-6.58Z" transform="translate(-755.06 -56.76)"/><path class="cls-4" d="M975.46,484.93v7.33h1.12V485Z" transform="translate(-755.06 -56.76)"/><path class="cls-5" d="M976.59,485v5.87h1.12v-5.81Z" transform="translate(-755.06 -56.76)"/><path class="cls-3" d="M977.71,485.05v6.45h1.12v-6.4Z" transform="translate(-755.06 -56.76)"/><path class="cls-4" d="M978.83,485.11v7.16H980v-7.11Z" transform="translate(-755.06 -56.76)"/><path class="cls-5" d="M980,485.16v5.71h1.12V485.2Z" transform="translate(-755.06 -56.76)"/><path class="cls-3" d="M981.08,485.2v6.31h1.12v-6.27Z" transform="translate(-755.06 -56.76)"/><path class="cls-4" d="M982.2,485.24v7h1.12v-7Z" transform="translate(-755.06 -56.76)"/><path class="cls-5" d="M983.32,485.27v5.59h1.12V485.3Z" transform="translate(-755.06 -56.76)"/><path class="cls-3" d="M984.44,485.3v6.21h1.12v-6.18Z" transform="translate(-755.06 -56.76)"/><path class="cls-4" d="M985.57,485.33v6.94h1.12v-6.92Z" transform="translate(-755.06 -56.76)"/><path class="cls-5" d="M986.69,485.35v5.52h1.12v-5.5Z" transform="translate(-755.06 -56.76)"/><path class="cls-3" d="M987.81,485.36v6.14h1.12v-6.13h-1.12Z" transform="translate(-755.06 -56.76)"/><path class="cls-4" d="M988.93,485.37v6.89h1.12v-6.88h-1.12Z" transform="translate(-755.06 -56.76)"/><path class="cls-5" d="M990.06,485.38v5.48h1.12v-5.48h-1.12Z" transform="translate(-755.06 -56.76)"/><path class="cls-3" d="M991.18,485.39v6.12h1.12v-6.12h-1.12Z" transform="translate(-755.06 -56.76)"/><path class="cls-4" d="M992.3,485.38v6.88h1.12v-6.88H992.3Z" transform="translate(-755.06 -56.76)"/><path class="cls-5" d="M993.42,485.38v5.48h1.12v-5.49h-1.12Z" transform="translate(-755.06 -56.76)"/><path class="cls-3" d="M994.55,485.37v6.14h1.12v-6.15h-1.12Z" transform="translate(-755.06 -56.76)"/><path class="cls-4" d="M995.67,485.36v6.91h1.12v-6.92Z" transform="translate(-755.06 -56.76)"/><path class="cls-5" d="M996.79,485.34v5.52h1.12v-5.54Z" transform="translate(-755.06 -56.76)"/><path class="cls-3" d="M997.91,485.32v6.18H999V485.3Z" transform="translate(-755.06 -56.76)"/><path class="cls-4" d="M999,485.3v7h1.12v-7Z" transform="translate(-755.06 -56.76)"/><path class="cls-5" d="M1000.16,485.27v5.59h1.12v-5.62Z" transform="translate(-755.06 -56.76)"/><path class="cls-3" d="M1001.28,485.24v6.27h1.12v-6.3Z" transform="translate(-755.06 -56.76)"/><path class="cls-4" d="M1002.4,485.21v7.06h1.12v-7.1Z" transform="translate(-755.06 -56.76)"/><path class="cls-5" d="M1003.53,485.17v5.7h1.12v-5.74Z" transform="translate(-755.06 -56.76)"/><path class="cls-3" d="M1004.65,485.13v6.38h1.12v-6.43Z" transform="translate(-755.06 -56.76)"/><path class="cls-4" d="M1005.77,485.08v7.18h1.12V485Z" transform="translate(-755.06 -56.76)"/><path class="cls-5" d="M1006.89,485v5.83H1008V485Z" transform="translate(-755.06 -56.76)"/><path class="cls-3" d="M1008,485v6.53h1.12v-6.58Z" transform="translate(-755.06 -56.76)"/><path class="cls-4" d="M1009.14,484.92v7.34h1.12v-7.4Z" transform="translate(-755.06 -56.76)"/><path class="cls-5" d="M1010.26,484.87v6h1.12V484.8Z" transform="translate(-755.06 -56.76)"/><path class="cls-3" d="M1011.38,484.8v6.7h1.12v-6.77Z" transform="translate(-755.06 -56.76)"/><path class="cls-4" d="M1012.51,484.74v7.53h1.12v-7.59Z" transform="translate(-755.06 -56.76)"/><path class="cls-5" d="M1013.63,484.67v6.19h1.12V484.6Z" transform="translate(-755.06 -56.76)"/><path class="cls-3" d="M1014.75,484.6v6.91h1.12v-7Z" transform="translate(-755.06 -56.76)"/><path class="cls-4" d="M1015.87,484.52v7.74H1017v-7.82Z" transform="translate(-755.06 -56.76)"/><path class="cls-5" d="M1017,484.44v6.42h1.12v-6.51Z" transform="translate(-755.06 -56.76)"/><path class="cls-3" d="M1018.12,484.36v7.15h1.12v-7.24Z" transform="translate(-755.06 -56.76)"/><path class="cls-4" d="M1019.24,484.27v8h1.12v-8.09Z" transform="translate(-755.06 -56.76)"/><path class="cls-5" d="M1020.36,490.86h1.12v-6.78l-1.12.1v6.69Z" transform="translate(-755.06 -56.76)"/><polygon class="cls-5" points="266.43 423.55 266.41 423.55 266.43 423.57 266.43 423.55"/><path class="cls-6" d="M1024.42,483.8l-2.94-3.47v3.75C1023.37,483.92,1024.42,483.8,1024.42,483.8Z" transform="translate(-755.06 -56.76)"/><path class="cls-6" d="M993.48,479.79s0-1.38,0-3.9c-12.16-.08-23.11-0.44-23.11-0.44L968,484.36l2.94,0.26V481h1.12v0.76h1.12v-1.4h1.12V481h1.12v0.76h1.12v-1.4h1.12V481h1.12v0.76H980v-1.4h1.12V481h1.12v0.76h1.12v-1.4h1.12V481h1.12v0.76h1.12v-1.4h1.12V481h1.12v0.76h1.12v-1.4h1.12V481h1.12v0.76h1.12v-1.4h1.12V481h1.12v0.76h1.12v-1.4h1.12V481H999v0.76h1.12v-1.4h1.12V481h1.12v0.76h1.12v-1.4h1.12V481h1.12v0.76h1.12v-1.4H1008V481h1.12v0.76h1.12v-1.4h1.12V481h1.12v0.76h1.12v-1.4h1.12V481h1.12v0.76H1017v-1.4h1.12V481h1.12v0.76h1.12v-1.4h1.1l-4.12-4.87c-5.41.36-12.76,0.47-20,.46,0,1.34.07,2.58,0.12,3.68Z" transform="translate(-755.06 -56.76)"/><path class="cls-6" d="M972.1,481.77V481H971v3.6l1.12,0.09v-2.93Z" transform="translate(-755.06 -56.76)"/><path class="cls-6" d="M973.22,484.79v-3H972.1v2.93Z" transform="translate(-755.06 -56.76)"/><path class="cls-6" d="M974.34,484.86v-4.49h-1.12v4.42Z" transform="translate(-755.06 -56.76)"/><path class="cls-6" d="M975.46,484.93v-4h-1.12v3.9Z" transform="translate(-755.06 -56.76)"/><path class="cls-6" d="M976.59,485v-3.28h-1.12v3.22Z" transform="translate(-755.06 -56.76)"/><path class="cls-6" d="M977.71,485.05v-4.74h-1.12V485Z" transform="translate(-755.06 -56.76)"/><path class="cls-6" d="M978.83,485.11V481h-1.12v4.1Z" transform="translate(-755.06 -56.76)"/><path class="cls-6" d="M980,485.16v-3.44h-1.12v3.39Z" transform="translate(-755.06 -56.76)"/><path class="cls-6" d="M981.08,485.2v-4.89H980v4.84Z" transform="translate(-755.06 -56.76)"/><path class="cls-6" d="M982.2,485.24V481h-1.12v4.24Z" transform="translate(-755.06 -56.76)"/><path class="cls-6" d="M983.32,485.27v-3.56H982.2v3.53Z" transform="translate(-755.06 -56.76)"/><path class="cls-6" d="M984.44,485.3v-5h-1.12v5Z" transform="translate(-755.06 -56.76)"/><path class="cls-6" d="M985.57,485.33V481h-1.12v4.35Z" transform="translate(-755.06 -56.76)"/><path class="cls-6" d="M986.69,485.35v-3.63h-1.12v3.62Z" transform="translate(-755.06 -56.76)"/><path class="cls-6" d="M987.81,485.36v-5.05h-1.12v5Z" transform="translate(-755.06 -56.76)"/><path class="cls-6" d="M988.93,485.37V481h-1.12v4.41h1.12Z" transform="translate(-755.06 -56.76)"/><path class="cls-6" d="M990.06,485.38v-3.67h-1.12v3.66h1.12Z" transform="translate(-755.06 -56.76)"/><path class="cls-6" d="M991.18,485.39v-5.07h-1.12v5.07h1.12Z" transform="translate(-755.06 -56.76)"/><path class="cls-6" d="M992.3,485.38V481h-1.12v4.43h1.12Z" transform="translate(-755.06 -56.76)"/><path class="cls-6" d="M993.42,485.38v-3.67H992.3v3.67h1.12Z" transform="translate(-755.06 -56.76)"/><path class="cls-6" d="M994.55,485.37v-5.06h-1.12v5.07h1.12Z" transform="translate(-755.06 -56.76)"/><path class="cls-6" d="M995.67,485.36V481h-1.12v4.41h1.12Z" transform="translate(-755.06 -56.76)"/><path class="cls-6" d="M996.79,485.34v-3.63h-1.12v3.65Z" transform="translate(-755.06 -56.76)"/><path class="cls-6" d="M997.91,485.32v-5h-1.12v5Z" transform="translate(-755.06 -56.76)"/><path class="cls-6" d="M999,485.3V481h-1.12v4.37Z" transform="translate(-755.06 -56.76)"/><path class="cls-6" d="M1000.16,485.27v-3.56H999v3.59Z" transform="translate(-755.06 -56.76)"/><path class="cls-6" d="M1001.28,485.24v-4.93h-1.12v5Z" transform="translate(-755.06 -56.76)"/><path class="cls-6" d="M1002.4,485.21V481h-1.12v4.28Z" transform="translate(-755.06 -56.76)"/><path class="cls-6" d="M1003.53,485.17v-3.45h-1.12v3.49Z" transform="translate(-755.06 -56.76)"/><path class="cls-6" d="M1004.65,485.13v-4.81h-1.12v4.86Z" transform="translate(-755.06 -56.76)"/><path class="cls-6" d="M1005.77,485.08V481h-1.12v4.17Z" transform="translate(-755.06 -56.76)"/><path class="cls-6" d="M1006.89,485v-3.32h-1.12v3.37Z" transform="translate(-755.06 -56.76)"/><path class="cls-6" d="M1008,485v-4.67h-1.12V485Z" transform="translate(-755.06 -56.76)"/><path class="cls-6" d="M1009.14,484.92v-4H1008v4Z" transform="translate(-755.06 -56.76)"/><path class="cls-6" d="M1010.26,484.87v-3.15h-1.12v3.21Z" transform="translate(-755.06 -56.76)"/><path class="cls-6" d="M1011.38,484.8v-4.49h-1.12v4.56Z" transform="translate(-755.06 -56.76)"/><path class="cls-6" d="M1012.51,484.74V481h-1.12v3.85Z" transform="translate(-755.06 -56.76)"/><path class="cls-6" d="M1013.63,484.67v-3h-1.12v3Z" transform="translate(-755.06 -56.76)"/><path class="cls-6" d="M1014.75,484.6v-4.28h-1.12v4.36Z" transform="translate(-755.06 -56.76)"/><path class="cls-6" d="M1015.87,484.52V481h-1.12v3.64Z" transform="translate(-755.06 -56.76)"/><path class="cls-6" d="M1017,484.44v-2.73h-1.12v2.81Z" transform="translate(-755.06 -56.76)"/><path class="cls-6" d="M1018.12,484.36v-4H1017v4.13Z" transform="translate(-755.06 -56.76)"/><path class="cls-6" d="M1019.24,484.27V481h-1.12v3.4Z" transform="translate(-755.06 -56.76)"/><path class="cls-6" d="M1020.36,484.18v-2.46h-1.12v2.56Z" transform="translate(-755.06 -56.76)"/><path class="cls-6" d="M1020.36,481.71v2.46l1.12-.1v-3.75l0,0h-1.1v1.4Z" transform="translate(-755.06 -56.76)"/><path class="cls-7" d="M998,426.32h-4.39c0.09,22.56,0,41.66-.08,49.57l3.79,0C997.06,465.08,997.39,446.66,998,426.32Z" transform="translate(-755.06 -56.76)"/><path class="cls-7" d="M993.48,479.79l3.93-.2c0-1.1-.09-2.34-0.12-3.68l-3.79,0C993.49,478.4,993.48,479.79,993.48,479.79Z" transform="translate(-755.06 -56.76)"/><g id="knife"><path class="cls-8" d="M824.54,112.63l-22.92,23.28,9.71,9.56,18-18.33a4.59,4.59,0,0,1,6.48-.05l0.15,0.17,1.66-1.69c1-1,.7-2.77-0.56-4l-8.56-8.43C827.3,111.89,825.49,111.66,824.54,112.63Z" transform="translate(-755.06 -56.76)"/><path class="cls-9" d="M796.53,144l4,9.25,0.94-1-4-9.25Z" transform="translate(-755.06 -56.76)"/><path class="cls-9" d="M787.27,153.36l4,9.25,5.41-5.49-4-9.25Z" transform="translate(-755.06 -56.76)"/><path class="cls-9" d="M771.85,169a21.91,21.91,0,0,0,6.57.94l-2.28-5.3Z" transform="translate(-755.06 -56.76)"/><path class="cls-9" d="M778.85,161.92l3.26,7.58a12.27,12.27,0,0,0,2.2-.78l-3.69-8.59Z" transform="translate(-755.06 -56.76)"/><path class="cls-9" d="M798.82,141.64l4,9.25,1.46-1.48-4-9.25Z" transform="translate(-755.06 -56.76)"/><path class="cls-9" d="M806.54,147.09l3.16-3.21-6.65-6.54-0.49.5Z" transform="translate(-755.06 -56.76)"/><path class="cls-10" d="M776.14,164.67l2.28,5.3a15.91,15.91,0,0,0,3.68-.47l-3.26-7.58Z" transform="translate(-755.06 -56.76)"/><path class="cls-10" d="M780.62,160.12l3.69,8.59a10.55,10.55,0,0,0,3.05-2.15l3.89-4-4-9.25Z" transform="translate(-755.06 -56.76)"/><path class="cls-10" d="M797.47,143l4,9.25,1.35-1.37-4-9.25Z" transform="translate(-755.06 -56.76)"/><path class="cls-10" d="M800.28,140.16l4,9.25,2.29-2.32-4-9.25Z" transform="translate(-755.06 -56.76)"/><path class="cls-9" d="M792.68,147.87l4,9.25,3.85-3.91-4-9.25Z" transform="translate(-755.06 -56.76)"/><rect class="cls-11" x="807.77" y="132.92" width="2.54" height="9.96" rx="0.99" ry="0.99" transform="translate(-611.88 560.92) rotate(-45.45)"/><rect class="cls-12" x="808.34" y="132.34" width="2.54" height="9.96" rx="0.99" ry="0.99" transform="translate(-611.3 561.15) rotate(-45.45)"/><rect class="cls-11" x="810.89" y="129.75" width="2.54" height="9.96" rx="0.99" ry="0.99" transform="translate(-608.69 562.2) rotate(-45.45)"/><rect class="cls-12" x="811.46" y="129.17" width="2.54" height="9.96" rx="0.99" ry="0.99" transform="translate(-608.1 562.43) rotate(-45.45)"/><rect class="cls-11" x="814.01" y="126.58" width="2.54" height="9.96" rx="0.99" ry="0.99" transform="translate(-605.5 563.48) rotate(-45.45)"/><rect class="cls-12" x="814.58" y="126" width="2.54" height="9.96" rx="0.99" ry="0.99" transform="translate(-604.91 563.71) rotate(-45.45)"/><rect class="cls-11" x="817.13" y="123.41" width="2.54" height="9.96" rx="0.99" ry="0.99" transform="translate(-602.3 564.75) rotate(-45.45)"/><rect class="cls-12" x="817.7" y="122.83" width="2.54" height="9.96" rx="0.99" ry="0.99" transform="translate(-601.72 564.99) rotate(-45.45)"/><rect class="cls-11" x="820.25" y="120.24" width="2.54" height="9.96" rx="0.99" ry="0.99" transform="translate(-599.11 566.03) rotate(-45.45)"/><rect class="cls-12" x="820.83" y="119.66" width="2.54" height="9.96" rx="0.99" ry="0.99" transform="translate(-598.53 566.27) rotate(-45.45)"/><rect class="cls-11" x="823.38" y="117.06" width="2.54" height="9.96" rx="0.99" ry="0.99" transform="translate(-595.92 567.31) rotate(-45.45)"/><rect class="cls-12" x="823.95" y="116.49" width="2.54" height="9.96" rx="0.99" ry="0.99" transform="translate(-595.34 567.55) rotate(-45.45)"/></g><path class="cls-13" d="M1577,64.1c-5.24-7-13.76-9.39-19-5.43-4,3-5,9-2.83,14.72l-3.72,2.8-0.51,4.68-4.51-.9-4.65,3.5,2.61,3.47-2.94,2.21-2.61-3.47-8.2,6.17,2.61,3.47-7.16,0-7.9,5.95,1.51,2,16.87-1.54L1562,82.53c4.92,3.66,10.89,4.4,14.93,1.35C1582.22,79.92,1582.24,71.06,1577,64.1Zm-11.4,8.58c-2.64-3.5-2.65-7.95,0-9.92s6.89-.74,9.53,2.76,2.65,7.95,0,9.92S1568.23,76.18,1565.59,72.68Z" transform="translate(-755.06 -56.76)"/><path class="cls-14" d="M1090.16,325.1h0.05a1.5,1.5,0,0,1,1.33,1.65l-0.11,1-0.21,1.23,2.58,0.28,0-.43a1.5,1.5,0,0,0-1.33-1.65h-0.06c2.1-14.75,6.32-33.08,13.73-38.33a14.6,14.6,0,0,1,2-1.16h-5.39C1096.06,293.86,1092.15,311.09,1090.16,325.1Z" transform="translate(-755.06 -56.76)"/><polygon class="cls-14" points="325.89 295.28 325.89 295.28 325.06 295.19 322.5 294.92 322.31 296.71 327.37 297.26 328.21 297.35 328.21 297.35 340.47 298.66 343.03 274.75 340.53 274.49 338.16 296.6 325.89 295.28"/><path class="cls-15" d="M1086.49,324.7c0.34-2.29.73-4.69,1.2-7.15,2.62-14,6.27-24,10.86-29.89h-3.78c-3.91,6.06-7.06,15.36-9.4,27.82-0.58,3.11-1.06,6.14-1.46,8.95H1084Z" transform="translate(-755.06 -56.76)"/><path class="cls-14" d="M1087.68,317.55c-0.46,2.46-.86,4.86-1.2,7.15l3.67,0.39c2-14,5.91-31.23,12.64-37.43h-4.25C1093.95,293.57,1090.3,303.57,1087.68,317.55Z" transform="translate(-755.06 -56.76)"/><path class="cls-16" d="M1087.68,317.55c-0.46,2.46-.86,4.86-1.2,7.15l3.67,0.39c2-14,5.91-31.23,12.64-37.43h-4.25C1093.95,293.57,1090.3,303.57,1087.68,317.55Z" transform="translate(-755.06 -56.76)"/><polygon class="cls-17" points="338.48 274.27 340.53 274.49 340.72 272.69 338.75 272.48 338.69 273.04 338.48 274.27"/><polygon class="cls-17" points="327.03 273.04 327.11 271.24 322.56 270.75 320 294.65 322.5 294.92 324.87 272.81 327.03 273.04"/><path class="cls-14" d="M1089.82,337.2l-1-.11h0l-6.24-.67h0l-0.76-.08,0.29-6.54-2.16-.23-2.37,22.11,2.56,0.27-2.17-.23,0.57-5.28a1.5,1.5,0,0,1,1.65-1.33h0a1.5,1.5,0,0,1,1.33,1.65L1081,352l12.27,1.31,2.37-22.11-2-.22,0.21-1.23,0.06-.55-2.58-.28Zm-3.62,10.06-0.57,5.28-3-.32,0.57-5.28a1.5,1.5,0,0,1,1.65-1.33h0A1.5,1.5,0,0,1,1086.2,347.27Zm4.69,0.5-0.57,5.28-3-.32,0.57-5.28a1.5,1.5,0,0,1,1.65-1.33h0A1.5,1.5,0,0,1,1090.89,347.77Z" transform="translate(-755.06 -56.76)"/><path class="cls-17" d="M1089.82,337.2l-1-.11h0l-6.24-.67h0l-0.76-.08,0.29-6.54-2.16-.23-2.37,22.11,2.56,0.27-2.17-.23,0.57-5.28a1.5,1.5,0,0,1,1.65-1.33h0a1.5,1.5,0,0,1,1.33,1.65L1081,352l12.27,1.31,2.37-22.11-2-.22,0.21-1.23,0.06-.55-2.58-.28Zm-3.62,10.06-0.57,5.28-3-.32,0.57-5.28a1.5,1.5,0,0,1,1.65-1.33h0A1.5,1.5,0,0,1,1086.2,347.27Zm4.69,0.5-0.57,5.28-3-.32,0.57-5.28a1.5,1.5,0,0,1,1.65-1.33h0A1.5,1.5,0,0,1,1090.89,347.77Z" transform="translate(-755.06 -56.76)"/><polygon class="cls-14" points="327.5 279.66 333.75 280.33 333.75 280.33 327.5 279.66 327.5 279.66"/><polygon class="cls-18" points="327.5 279.66 333.75 280.33 333.75 280.33 327.5 279.66 327.5 279.66"/><polygon class="cls-17" points="327.5 279.66 333.75 280.33 333.75 280.33 327.5 279.66 327.5 279.66"/><path class="cls-19" d="M1082.93,325.83a1.49,1.49,0,0,1,1-1.24l0-.16a1.49,1.49,0,0,0-1.58,1.33l-0.11,1-0.06,1.25,0.52,0.06Z" transform="translate(-755.06 -56.76)"/><path class="cls-14" d="M1090.95,326.69l-0.11,1h0l-0.13,1.24,0.52,0.06,0.21-1.23,0.11-1a1.5,1.5,0,0,0-1.33-1.65h-0.05v0.1A1.49,1.49,0,0,1,1090.95,326.69Z" transform="translate(-755.06 -56.76)"/><path class="cls-19" d="M1090.95,326.69l-0.11,1h0l-0.13,1.24,0.52,0.06,0.21-1.23,0.11-1a1.5,1.5,0,0,0-1.33-1.65h-0.05v0.1A1.49,1.49,0,0,1,1090.95,326.69Z" transform="translate(-755.06 -56.76)"/><path class="cls-20" d="M1084.58,324.5l1.91,0.2h0l-2.51-.27h-0.07l0,0.16A1.48,1.48,0,0,1,1084.58,324.5Z" transform="translate(-755.06 -56.76)"/><path class="cls-19" d="M1084.58,324.5l1.91,0.2h0l-2.51-.27h-0.07l0,0.16A1.48,1.48,0,0,1,1084.58,324.5Z" transform="translate(-755.06 -56.76)"/><path class="cls-14" d="M1086.49,324.7l3.13,0.34a1.49,1.49,0,0,1,.53.16v-0.1l-3.67-.39h0Z" transform="translate(-755.06 -56.76)"/><path class="cls-21" d="M1086.49,324.7l3.13,0.34a1.49,1.49,0,0,1,.53.16v-0.1l-3.67-.39h0Z" transform="translate(-755.06 -56.76)"/><path class="cls-19" d="M1086.49,324.7l3.13,0.34a1.49,1.49,0,0,1,.53.16v-0.1l-3.67-.39h0Z" transform="translate(-755.06 -56.76)"/><polygon class="cls-17" points="327.44 273.08 327.63 271.29 327.11 271.24 327.03 273.04 327.44 273.08"/><polygon class="cls-19" points="327.44 273.08 327.63 271.29 327.11 271.24 327.03 273.04 327.44 273.08"/><polygon class="cls-14" points="327.03 273.04 326.74 279.58 327.44 273.08 327.03 273.04"/><polygon class="cls-17" points="327.03 273.04 326.74 279.58 327.44 273.08 327.03 273.04"/><polygon class="cls-19" points="327.03 273.04 326.74 279.58 327.44 273.08 327.03 273.04"/><polygon class="cls-14" points="334.76 280.44 336.17 272.21 335.65 272.15 334.76 280.44"/><polygon class="cls-17" points="334.76 280.44 336.17 272.21 335.65 272.15 334.76 280.44"/><polygon class="cls-19" points="334.76 280.44 336.17 272.21 335.65 272.15 334.76 280.44"/><path class="cls-19" d="M1082.82,326.82a1.49,1.49,0,0,1,.93-1.22l0.14-1a1.49,1.49,0,0,0-1,1.24l-0.24,2.23h0Z" transform="translate(-755.06 -56.76)"/><path class="cls-22" d="M1082.82,326.82a1.49,1.49,0,0,1,.93-1.22l0.14-1a1.49,1.49,0,0,0-1,1.24l-0.24,2.23h0Z" transform="translate(-755.06 -56.76)"/><path class="cls-14" d="M1090.84,327.67l0.11-1a1.49,1.49,0,0,0-.8-1.49l-0.14,1A1.49,1.49,0,0,1,1090.84,327.67Z" transform="translate(-755.06 -56.76)"/><path class="cls-19" d="M1090.84,327.67l0.11-1a1.49,1.49,0,0,0-.8-1.49l-0.14,1A1.49,1.49,0,0,1,1090.84,327.67Z" transform="translate(-755.06 -56.76)"/><path class="cls-22" d="M1090.84,327.67l0.11-1a1.49,1.49,0,0,0-.8-1.49l-0.14,1A1.49,1.49,0,0,1,1090.84,327.67Z" transform="translate(-755.06 -56.76)"/><path class="cls-23" d="M1084.47,325.49l1.87,0.2,0.14-1-1.91-.2a1.48,1.48,0,0,0-.68.09l-0.14,1A1.48,1.48,0,0,1,1084.47,325.49Z" transform="translate(-755.06 -56.76)"/><path class="cls-19" d="M1084.47,325.49l1.87,0.2,0.14-1-1.91-.2a1.48,1.48,0,0,0-.68.09l-0.14,1A1.48,1.48,0,0,1,1084.47,325.49Z" transform="translate(-755.06 -56.76)"/><path class="cls-22" d="M1084.47,325.49l1.87,0.2,0.14-1-1.91-.2a1.48,1.48,0,0,0-.68.09l-0.14,1A1.48,1.48,0,0,1,1084.47,325.49Z" transform="translate(-755.06 -56.76)"/><path class="cls-14" d="M1089.51,326a1.49,1.49,0,0,1,.5.15l0.14-1a1.49,1.49,0,0,0-.53-0.16l-3.13-.34-0.14,1Z" transform="translate(-755.06 -56.76)"/><path class="cls-24" d="M1089.51,326a1.49,1.49,0,0,1,.5.15l0.14-1a1.49,1.49,0,0,0-.53-0.16l-3.13-.34-0.14,1Z" transform="translate(-755.06 -56.76)"/><path class="cls-19" d="M1089.51,326a1.49,1.49,0,0,1,.5.15l0.14-1a1.49,1.49,0,0,0-.53-0.16l-3.13-.34-0.14,1Z" transform="translate(-755.06 -56.76)"/><path class="cls-22" d="M1089.51,326a1.49,1.49,0,0,1,.5.15l0.14-1a1.49,1.49,0,0,0-.53-0.16l-3.13-.34-0.14,1Z" transform="translate(-755.06 -56.76)"/><polygon class="cls-17" points="327.63 271.29 327.63 271.29 327.44 273.08 327.44 273.08 327.63 271.29"/><polygon class="cls-19" points="327.63 271.29 327.63 271.29 327.44 273.08 327.44 273.08 327.63 271.29"/><polygon class="cls-22" points="327.63 271.29 327.63 271.29 327.44 273.08 327.44 273.08 327.63 271.29"/><polygon class="cls-14" points="327.44 273.08 326.74 279.58 327.44 273.08 327.44 273.08"/><polygon class="cls-17" points="327.44 273.08 326.74 279.58 327.44 273.08 327.44 273.08"/><polygon class="cls-19" points="327.44 273.08 326.74 279.58 327.44 273.08 327.44 273.08"/><polygon class="cls-22" points="327.44 273.08 326.74 279.58 327.44 273.08 327.44 273.08"/><polygon class="cls-14" points="335.65 272.15 335.78 270.91 335.78 270.91 335.65 272.15 335.65 272.15"/><polygon class="cls-19" points="335.65 272.15 335.78 270.91 335.78 270.91 335.65 272.15 335.65 272.15"/><polygon class="cls-25" points="335.65 272.15 335.78 270.91 335.78 270.91 335.65 272.15 335.65 272.15"/><polygon class="cls-14" points="335.65 272.15 334.76 280.44 335.65 272.15 335.65 272.15"/><polygon class="cls-17" points="335.65 272.15 334.76 280.44 335.65 272.15 335.65 272.15"/><polygon class="cls-19" points="335.65 272.15 334.76 280.44 335.65 272.15 335.65 272.15"/><polygon class="cls-25" points="335.65 272.15 334.76 280.44 335.65 272.15 335.65 272.15"/><path class="cls-19" d="M1083.75,325.59a1.49,1.49,0,0,0-.93,1.22l-0.13,1.24,0.74,0.08Q1083.58,326.9,1083.75,325.59Z" transform="translate(-755.06 -56.76)"/><path class="cls-22" d="M1083.75,325.59a1.49,1.49,0,0,0-.93,1.22l-0.13,1.24,0.74,0.08Q1083.58,326.9,1083.75,325.59Z" transform="translate(-755.06 -56.76)"/><path class="cls-26" d="M1083.75,325.59a1.49,1.49,0,0,0-.93,1.22l-0.13,1.24,0.74,0.08Q1083.58,326.9,1083.75,325.59Z" transform="translate(-755.06 -56.76)"/><path class="cls-14" d="M1090,326.18q-0.18,1.34-.34,2.63l1,0.11,0.13-1.24A1.49,1.49,0,0,0,1090,326.18Z" transform="translate(-755.06 -56.76)"/><path class="cls-19" d="M1090,326.18q-0.18,1.34-.34,2.63l1,0.11,0.13-1.24A1.49,1.49,0,0,0,1090,326.18Z" transform="translate(-755.06 -56.76)"/><path class="cls-22" d="M1090,326.18q-0.18,1.34-.34,2.63l1,0.11,0.13-1.24A1.49,1.49,0,0,0,1090,326.18Z" transform="translate(-755.06 -56.76)"/><path class="cls-27" d="M1090,326.18q-0.18,1.34-.34,2.63l1,0.11,0.13-1.24A1.49,1.49,0,0,0,1090,326.18Z" transform="translate(-755.06 -56.76)"/><path class="cls-28" d="M1086.23,326.5l0.12-.81-1.87-.2a1.48,1.48,0,0,0-.72.11q-0.18,1.31-.33,2.54l1.17,0.13,0-.43A1.49,1.49,0,0,1,1086.23,326.5Z" transform="translate(-755.06 -56.76)"/><path class="cls-19" d="M1086.23,326.5l0.12-.81-1.87-.2a1.48,1.48,0,0,0-.72.11q-0.18,1.31-.33,2.54l1.17,0.13,0-.43A1.49,1.49,0,0,1,1086.23,326.5Z" transform="translate(-755.06 -56.76)"/><path class="cls-22" d="M1086.23,326.5l0.12-.81-1.87-.2a1.48,1.48,0,0,0-.72.11q-0.18,1.31-.33,2.54l1.17,0.13,0-.43A1.49,1.49,0,0,1,1086.23,326.5Z" transform="translate(-755.06 -56.76)"/><path class="cls-29" d="M1086.23,326.5l0.12-.81-1.87-.2a1.48,1.48,0,0,0-.72.11q-0.18,1.31-.33,2.54l1.17,0.13,0-.43A1.49,1.49,0,0,1,1086.23,326.5Z" transform="translate(-755.06 -56.76)"/><path class="cls-14" d="M1089.51,326l-3.17-.34-0.12.81a1.49,1.49,0,0,0-1.58,1.33l0,0.43,5.07,0.54q0.16-1.29.34-2.63A1.49,1.49,0,0,0,1089.51,326Z" transform="translate(-755.06 -56.76)"/><path class="cls-30" d="M1089.51,326l-3.17-.34-0.12.81a1.49,1.49,0,0,0-1.58,1.33l0,0.43,5.07,0.54q0.16-1.29.34-2.63A1.49,1.49,0,0,0,1089.51,326Z" transform="translate(-755.06 -56.76)"/><path class="cls-19" d="M1089.51,326l-3.17-.34-0.12.81a1.49,1.49,0,0,0-1.58,1.33l0,0.43,5.07,0.54q0.16-1.29.34-2.63A1.49,1.49,0,0,0,1089.51,326Z" transform="translate(-755.06 -56.76)"/><path class="cls-22" d="M1089.51,326l-3.17-.34-0.12.81a1.49,1.49,0,0,0-1.58,1.33l0,0.43,5.07,0.54q0.16-1.29.34-2.63A1.49,1.49,0,0,0,1089.51,326Z" transform="translate(-755.06 -56.76)"/><path class="cls-31" d="M1089.51,326l-3.17-.34-0.12.81a1.49,1.49,0,0,0-1.58,1.33l0,0.43,5.07,0.54q0.16-1.29.34-2.63A1.49,1.49,0,0,0,1089.51,326Z" transform="translate(-755.06 -56.76)"/><path class="cls-17" d="M1082.69,328.06l-0.19,1.79,0.72,0.08c0.07-.58.14-1.18,0.21-1.79Z" transform="translate(-755.06 -56.76)"/><path class="cls-19" d="M1082.69,328.06l-0.19,1.79,0.72,0.08c0.07-.58.14-1.18,0.21-1.79Z" transform="translate(-755.06 -56.76)"/><path class="cls-22" d="M1082.69,328.06l-0.19,1.79,0.72,0.08c0.07-.58.14-1.18,0.21-1.79Z" transform="translate(-755.06 -56.76)"/><path class="cls-32" d="M1082.69,328.06l-0.19,1.79,0.72,0.08c0.07-.58.14-1.18,0.21-1.79Z" transform="translate(-755.06 -56.76)"/><path class="cls-14" d="M1089.66,328.8c-0.38,3.06-.67,5.88-0.86,8.29l1,0.11,0.89-8.29Z" transform="translate(-755.06 -56.76)"/><path class="cls-17" d="M1089.66,328.8c-0.38,3.06-.67,5.88-0.86,8.29l1,0.11,0.89-8.29Z" transform="translate(-755.06 -56.76)"/><path class="cls-19" d="M1089.66,328.8c-0.38,3.06-.67,5.88-0.86,8.29l1,0.11,0.89-8.29Z" transform="translate(-755.06 -56.76)"/><path class="cls-22" d="M1089.66,328.8c-0.38,3.06-.67,5.88-0.86,8.29l1,0.11,0.89-8.29Z" transform="translate(-755.06 -56.76)"/><path class="cls-33" d="M1089.66,328.8c-0.38,3.06-.67,5.88-0.86,8.29l1,0.11,0.89-8.29Z" transform="translate(-755.06 -56.76)"/><path class="cls-14" d="M1082.5,329.85l-0.7,6.49,0.76,0.08c0.15-1.72.36-3.94,0.65-6.5Z" transform="translate(-755.06 -56.76)"/><path class="cls-17" d="M1082.5,329.85l-0.7,6.49,0.76,0.08c0.15-1.72.36-3.94,0.65-6.5Z" transform="translate(-755.06 -56.76)"/><path class="cls-19" d="M1082.5,329.85l-0.7,6.49,0.76,0.08c0.15-1.72.36-3.94,0.65-6.5Z" transform="translate(-755.06 -56.76)"/><path class="cls-22" d="M1082.5,329.85l-0.7,6.49,0.76,0.08c0.15-1.72.36-3.94,0.65-6.5Z" transform="translate(-755.06 -56.76)"/><path class="cls-34" d="M1082.5,329.85l-0.7,6.49,0.76,0.08c0.15-1.72.36-3.94,0.65-6.5Z" transform="translate(-755.06 -56.76)"/><path class="cls-35" d="M1083.21,329.93l1.27,0.14,0.06-1.25,0.06-.55-1.17-.13C1083.35,328.75,1083.28,329.35,1083.21,329.93Z" transform="translate(-755.06 -56.76)"/><path class="cls-17" d="M1083.21,329.93l1.27,0.14,0.06-1.25,0.06-.55-1.17-.13C1083.35,328.75,1083.28,329.35,1083.21,329.93Z" transform="translate(-755.06 -56.76)"/><path class="cls-19" d="M1083.21,329.93l1.27,0.14,0.06-1.25,0.06-.55-1.17-.13C1083.35,328.75,1083.28,329.35,1083.21,329.93Z" transform="translate(-755.06 -56.76)"/><path class="cls-22" d="M1083.21,329.93l1.27,0.14,0.06-1.25,0.06-.55-1.17-.13C1083.35,328.75,1083.28,329.35,1083.21,329.93Z" transform="translate(-755.06 -56.76)"/><path class="cls-36" d="M1083.21,329.93l1.27,0.14,0.06-1.25,0.06-.55-1.17-.13C1083.35,328.75,1083.28,329.35,1083.21,329.93Z" transform="translate(-755.06 -56.76)"/><path class="cls-14" d="M1084.6,328.26l-0.06.55-0.06,1.25-1.27-.14c-0.29,2.56-.51,4.78-0.65,6.5l6.24,0.67c0.2-2.41.48-5.23,0.86-8.29Z" transform="translate(-755.06 -56.76)"/><path class="cls-37" d="M1084.6,328.26l-0.06.55-0.06,1.25-1.27-.14c-0.29,2.56-.51,4.78-0.65,6.5l6.24,0.67c0.2-2.41.48-5.23,0.86-8.29Z" transform="translate(-755.06 -56.76)"/><path class="cls-17" d="M1084.6,328.26l-0.06.55-0.06,1.25-1.27-.14c-0.29,2.56-.51,4.78-0.65,6.5l6.24,0.67c0.2-2.41.48-5.23,0.86-8.29Z" transform="translate(-755.06 -56.76)"/><path class="cls-19" d="M1084.6,328.26l-0.06.55-0.06,1.25-1.27-.14c-0.29,2.56-.51,4.78-0.65,6.5l6.24,0.67c0.2-2.41.48-5.23,0.86-8.29Z" transform="translate(-755.06 -56.76)"/><path class="cls-22" d="M1084.6,328.26l-0.06.55-0.06,1.25-1.27-.14c-0.29,2.56-.51,4.78-0.65,6.5l6.24,0.67c0.2-2.41.48-5.23,0.86-8.29Z" transform="translate(-755.06 -56.76)"/><path class="cls-38" d="M1084.6,328.26l-0.06.55-0.06,1.25-1.27-.14c-0.29,2.56-.51,4.78-0.65,6.5l6.24,0.67c0.2-2.41.48-5.23,0.86-8.29Z" transform="translate(-755.06 -56.76)"/><polygon class="cls-14" points="325.89 295.28 325.06 295.19 325.89 295.28 325.89 295.28"/><polygon class="cls-39" points="325.89 295.28 325.06 295.19 325.89 295.28 325.89 295.28"/><path class="cls-14" d="M1081.52,346.76a1.5,1.5,0,0,0-1.33-1.65h0a1.5,1.5,0,0,0-1.65,1.33l-0.57,5.28,2.17,0.23L1081,352Z" transform="translate(-755.06 -56.76)"/><path class="cls-17" d="M1081.52,346.76a1.5,1.5,0,0,0-1.33-1.65h0a1.5,1.5,0,0,0-1.65,1.33l-0.57,5.28,2.17,0.23L1081,352Z" transform="translate(-755.06 -56.76)"/><path class="cls-40" d="M1081.52,346.76a1.5,1.5,0,0,0-1.33-1.65h0a1.5,1.5,0,0,0-1.65,1.33l-0.57,5.28,2.17,0.23L1081,352Z" transform="translate(-755.06 -56.76)"/><path class="cls-14" d="M1084.87,345.62h0a1.5,1.5,0,0,0-1.65,1.33l-0.57,5.28,3,0.32,0.57-5.28A1.5,1.5,0,0,0,1084.87,345.62Z" transform="translate(-755.06 -56.76)"/><path class="cls-17" d="M1084.87,345.62h0a1.5,1.5,0,0,0-1.65,1.33l-0.57,5.28,3,0.32,0.57-5.28A1.5,1.5,0,0,0,1084.87,345.62Z" transform="translate(-755.06 -56.76)"/><path class="cls-41" d="M1084.87,345.62h0a1.5,1.5,0,0,0-1.65,1.33l-0.57,5.28,3,0.32,0.57-5.28A1.5,1.5,0,0,0,1084.87,345.62Z" transform="translate(-755.06 -56.76)"/><path class="cls-14" d="M1089.56,346.12h0a1.5,1.5,0,0,0-1.65,1.33l-0.57,5.28,3,0.32,0.57-5.28A1.5,1.5,0,0,0,1089.56,346.12Z" transform="translate(-755.06 -56.76)"/><path class="cls-17" d="M1089.56,346.12h0a1.5,1.5,0,0,0-1.65,1.33l-0.57,5.28,3,0.32,0.57-5.28A1.5,1.5,0,0,0,1089.56,346.12Z" transform="translate(-755.06 -56.76)"/><path class="cls-42" d="M1089.56,346.12h0a1.5,1.5,0,0,0-1.65,1.33l-0.57,5.28,3,0.32,0.57-5.28A1.5,1.5,0,0,0,1089.56,346.12Z" transform="translate(-755.06 -56.76)"/></svg>