<svg id="Layer_1" data-name="Layer 1" xmlns="http://www.w3.org/2000/svg" xmlns:xlink="http://www.w3.org/1999/xlink" viewBox="0 0 822.68 151"><defs><style>.cls-1{fill:#63328a;}.cls-2{fill:#43295a;}.cls-3{fill:#e52429;}.cls-4{fill:#c1282d;}.cls-5{fill:#ea5c67;}.cls-6{fill:#e0b285;}.cls-7{fill:#c69c6c;}.cls-8{fill:#d4155b;}.cls-9{fill:#cdcccc;}.cls-10{fill:#d7d7d7;}.cls-11{fill:#e84989;}.cls-12{fill:#a81759;}.cls-13{fill:#ffde00;}.cls-14{opacity:0.15;}.cls-15{fill:url(#linear-gradient);}.cls-16{fill:url(#linear-gradient-2);}.cls-17,.cls-22{fill:#fff;}.cls-17{opacity:0.9;}.cls-18{fill:url(#linear-gradient-3);}.cls-19{opacity:0.1;}.cls-20{fill:url(#linear-gradient-4);}.cls-21{fill:url(#linear-gradient-5);}.cls-22{opacity:0.49;}.cls-23{fill:url(#linear-gradient-6);}.cls-24{fill:url(#linear-gradient-7);}.cls-25{fill:url(#linear-gradient-8);}.cls-26{fill:url(#linear-gradient-10);}.cls-27{fill:url(#linear-gradient-11);}.cls-28{fill:url(#linear-gradient-12);}.cls-29{fill:url(#linear-gradient-13);}.cls-30{fill:url(#linear-gradient-14);}.cls-31{fill:url(#linear-gradient-15);}.cls-32{fill:url(#linear-gradient-16);}.cls-33{fill:url(#linear-gradient-17);}.cls-34{fill:url(#linear-gradient-18);}.cls-35{fill:url(#linear-gradient-19);}.cls-36{fill:url(#linear-gradient-20);}.cls-37{fill:url(#linear-gradient-21);}.cls-38{fill:url(#linear-gradient-22);}.cls-39,.cls-40,.cls-41,.cls-42{opacity:0.7;}.cls-39{fill:url(#linear-gradient-23);}.cls-40{fill:url(#linear-gradient-24);}.cls-41{fill:url(#linear-gradient-25);}.cls-42{fill:url(#linear-gradient-26);}</style><linearGradient id="linear-gradient" x1="945.36" y1="297.89" x2="1161.12" y2="297.89" gradientTransform="translate(-23.33 143.09) rotate(-18.54)" gradientUnits="userSpaceOnUse"><stop offset="0" stop-color="#a4c616"/><stop offset="0.25" stop-color="#9fc318"/><stop offset="0.52" stop-color="#92bb1e"/><stop offset="0.8" stop-color="#7cad27"/><stop offset="1" stop-color="#68a030"/></linearGradient><linearGradient id="linear-gradient-2" x1="945.36" y1="299.26" x2="1161.12" y2="299.26" xlink:href="#linear-gradient"/><linearGradient id="linear-gradient-3" x1="945.36" y1="325.31" x2="1161.12" y2="325.31" gradientTransform="translate(-778.38 103.09) rotate(-18.54)" xlink:href="#linear-gradient"/><linearGradient id="linear-gradient-4" x1="945.36" y1="313.6" x2="1161.12" y2="313.6" xlink:href="#linear-gradient"/><linearGradient id="linear-gradient-5" x1="945.36" y1="314.95" x2="1161.12" y2="314.95" xlink:href="#linear-gradient"/><linearGradient id="linear-gradient-6" x1="945.36" y1="314.11" x2="1161.12" y2="314.11" xlink:href="#linear-gradient"/><linearGradient id="linear-gradient-7" x1="945.36" y1="315.39" x2="1161.12" y2="315.39" xlink:href="#linear-gradient"/><linearGradient id="linear-gradient-8" x1="96.65" y1="-615.11" x2="96.65" y2="-605.06" gradientTransform="matrix(0.99, 0.11, 0.11, -0.99, 197.61, -511.54)" gradientUnits="userSpaceOnUse"><stop offset="0.33" stop-color="#fff"/><stop offset="0.61" stop-color="#fcfcfc"/><stop offset="0.8" stop-color="#f3f3f3"/><stop offset="0.97" stop-color="#e4e4e4"/><stop offset="1" stop-color="#e0e0e0"/></linearGradient><linearGradient id="linear-gradient-10" x1="88.99" y1="-615.11" x2="88.99" y2="-605.06" gradientTransform="matrix(0.99, 0.11, 0.11, -0.99, 952.67, -471.54)" xlink:href="#linear-gradient-8"/><linearGradient id="linear-gradient-11" x1="96.13" y1="-615.11" x2="96.13" y2="-605.06" gradientTransform="matrix(0.99, 0.11, 0.11, -0.99, 952.67, -471.54)" xlink:href="#linear-gradient-8"/><linearGradient id="linear-gradient-12" x1="945.36" y1="315.51" x2="1161.12" y2="315.51" xlink:href="#linear-gradient"/><linearGradient id="linear-gradient-13" x1="90.65" y1="-615.11" x2="90.65" y2="-605.06" gradientTransform="matrix(0.99, 0.11, 0.11, -0.99, 952.67, -471.54)" xlink:href="#linear-gradient-8"/><linearGradient id="linear-gradient-14" x1="945.36" y1="317.03" x2="1161.12" y2="317.03" xlink:href="#linear-gradient"/><linearGradient id="linear-gradient-15" x1="93.09" y1="-615.11" x2="93.09" y2="-605.06" gradientTransform="matrix(0.99, 0.11, 0.11, -0.99, 952.67, -471.54)" xlink:href="#linear-gradient-8"/><linearGradient id="linear-gradient-16" x1="88.96" y1="-615.11" x2="88.96" y2="-605.06" gradientTransform="matrix(0.99, 0.11, 0.11, -0.99, 952.67, -471.54)" xlink:href="#linear-gradient-8"/><linearGradient id="linear-gradient-17" x1="96.11" y1="-615.11" x2="96.11" y2="-605.06" gradientTransform="matrix(0.99, 0.11, 0.11, -0.99, 952.67, -471.54)" xlink:href="#linear-gradient-8"/><linearGradient id="linear-gradient-18" x1="88.97" y1="-615.11" x2="88.97" y2="-605.06" gradientTransform="matrix(0.99, 0.11, 0.11, -0.99, 952.67, -471.54)" xlink:href="#linear-gradient-8"/><linearGradient id="linear-gradient-19" x1="945.36" y1="317.5" x2="1161.12" y2="317.5" xlink:href="#linear-gradient"/><linearGradient id="linear-gradient-20" x1="89.95" y1="-615.11" x2="89.95" y2="-605.06" gradientTransform="matrix(0.99, 0.11, 0.11, -0.99, 952.67, -471.54)" xlink:href="#linear-gradient-8"/><linearGradient id="linear-gradient-21" x1="945.36" y1="321.76" x2="1161.12" y2="321.76" xlink:href="#linear-gradient"/><linearGradient id="linear-gradient-22" x1="92.47" y1="-615.11" x2="92.47" y2="-605.06" gradientTransform="matrix(0.99, 0.11, 0.11, -0.99, 952.67, -471.54)" xlink:href="#linear-gradient-8"/><linearGradient id="linear-gradient-23" x1="88.78" y1="-631.18" x2="95.23" y2="-624.73" gradientTransform="matrix(0.99, 0.11, 0.11, -0.99, 197.61, -511.54)" gradientUnits="userSpaceOnUse"><stop offset="0" stop-color="#ffd52e"/><stop offset="1" stop-color="#f8aa30"/></linearGradient><linearGradient id="linear-gradient-24" x1="86.75" y1="-629.15" x2="93.2" y2="-622.7" gradientTransform="matrix(0.99, 0.11, 0.11, -0.99, 952.67, -471.54)" xlink:href="#linear-gradient-23"/><linearGradient id="linear-gradient-25" x1="91.46" y1="-629.15" x2="97.92" y2="-622.7" gradientTransform="matrix(0.99, 0.11, 0.11, -0.99, 952.67, -471.54)" xlink:href="#linear-gradient-23"/><linearGradient id="linear-gradient-26" x1="96.18" y1="-629.15" x2="102.63" y2="-622.7" gradientTransform="matrix(0.99, 0.11, 0.11, -0.99, 952.67, -471.54)" xlink:href="#linear-gradient-23"/></defs><title>inventory_broomstick</title><rect class="cls-1" y="51" width="370" height="100"/><rect class="cls-2" x="10" y="61" width="80" height="80"/><rect class="cls-2" x="100" y="61" width="80" height="80"/><rect class="cls-2" x="190" y="61" width="80" height="80"/><rect class="cls-2" x="280" y="61" width="80" height="80"/><path class="cls-3" d="M1524.29,98.29v6.95h1.12V98.38Z" transform="translate(-755.06 -40)"/><path class="cls-4" d="M1525.41,98.38V106h1.12V98.46Z" transform="translate(-755.06 -40)"/><path class="cls-5" d="M1526.53,98.46v6.13h1.12V98.54Z" transform="translate(-755.06 -40)"/><path class="cls-3" d="M1527.65,98.54v6.65h1.12V98.61Z" transform="translate(-755.06 -40)"/><path class="cls-4" d="M1528.78,98.61v7.33h1.12V98.67Z" transform="translate(-755.06 -40)"/><path class="cls-5" d="M1529.9,98.67v5.87H1531V98.73Z" transform="translate(-755.06 -40)"/><path class="cls-3" d="M1531,98.73v6.45h1.12v-6.4Z" transform="translate(-755.06 -40)"/><path class="cls-4" d="M1532.14,98.79v7.16h1.12V98.83Z" transform="translate(-755.06 -40)"/><path class="cls-5" d="M1533.27,98.83v5.71h1.12V98.88Z" transform="translate(-755.06 -40)"/><path class="cls-3" d="M1534.39,98.88v6.31h1.12V98.92Z" transform="translate(-755.06 -40)"/><path class="cls-4" d="M1535.51,98.92v7h1.12V99Z" transform="translate(-755.06 -40)"/><path class="cls-5" d="M1536.63,99v5.59h1.12V99Z" transform="translate(-755.06 -40)"/><path class="cls-3" d="M1537.76,99v6.21h1.12V99Z" transform="translate(-755.06 -40)"/><path class="cls-4" d="M1538.88,99v6.94H1540V99Z" transform="translate(-755.06 -40)"/><path class="cls-5" d="M1540,99v5.52h1.12V99Z" transform="translate(-755.06 -40)"/><path class="cls-3" d="M1541.12,99v6.14h1.12V99.05h-1.12Z" transform="translate(-755.06 -40)"/><path class="cls-4" d="M1542.25,99.05v6.89h1.12V99.06h-1.12Z" transform="translate(-755.06 -40)"/><path class="cls-5" d="M1543.37,99.06v5.48h1.12V99.06h-1.12Z" transform="translate(-755.06 -40)"/><path class="cls-3" d="M1544.49,99.06v6.12h1.12V99.06h-1.12Z" transform="translate(-755.06 -40)"/><path class="cls-4" d="M1545.61,99.06v6.88h1.12V99.06h-1.12Z" transform="translate(-755.06 -40)"/><path class="cls-5" d="M1546.74,99.06v5.48h1.12V99h-1.12Z" transform="translate(-755.06 -40)"/><path class="cls-3" d="M1547.86,99v6.14H1549V99h-1.12Z" transform="translate(-755.06 -40)"/><path class="cls-4" d="M1549,99v6.91h1.12V99Z" transform="translate(-755.06 -40)"/><path class="cls-5" d="M1550.1,99v5.52h1.12V99Z" transform="translate(-755.06 -40)"/><path class="cls-3" d="M1551.23,99v6.18h1.12V99Z" transform="translate(-755.06 -40)"/><path class="cls-4" d="M1552.35,99v7h1.12V99Z" transform="translate(-755.06 -40)"/><path class="cls-5" d="M1553.47,99v5.59h1.12V98.92Z" transform="translate(-755.06 -40)"/><path class="cls-3" d="M1554.59,98.92v6.27h1.12v-6.3Z" transform="translate(-755.06 -40)"/><path class="cls-4" d="M1555.72,98.88v7.06h1.12v-7.1Z" transform="translate(-755.06 -40)"/><path class="cls-5" d="M1556.84,98.85v5.7H1558V98.8Z" transform="translate(-755.06 -40)"/><path class="cls-3" d="M1558,98.8v6.38h1.12V98.76Z" transform="translate(-755.06 -40)"/><path class="cls-4" d="M1559.08,98.76v7.18h1.12V98.71Z" transform="translate(-755.06 -40)"/><path class="cls-5" d="M1560.21,98.71v5.83h1.12V98.66Z" transform="translate(-755.06 -40)"/><path class="cls-3" d="M1561.33,98.66v6.53h1.12V98.6Z" transform="translate(-755.06 -40)"/><path class="cls-4" d="M1562.45,98.6v7.34h1.12v-7.4Z" transform="translate(-755.06 -40)"/><path class="cls-5" d="M1563.57,98.55v6h1.12V98.48Z" transform="translate(-755.06 -40)"/><path class="cls-3" d="M1564.7,98.48v6.7h1.12V98.42Z" transform="translate(-755.06 -40)"/><path class="cls-4" d="M1565.82,98.42v7.53h1.12V98.35Z" transform="translate(-755.06 -40)"/><path class="cls-5" d="M1566.94,98.35v6.19h1.12V98.27Z" transform="translate(-755.06 -40)"/><path class="cls-3" d="M1568.06,98.27v6.91h1.12v-7Z" transform="translate(-755.06 -40)"/><path class="cls-4" d="M1569.19,98.2v7.74h1.12V98.12Z" transform="translate(-755.06 -40)"/><path class="cls-5" d="M1570.31,98.12v6.42h1.12V98Z" transform="translate(-755.06 -40)"/><path class="cls-3" d="M1571.43,98v7.15h1.12V97.95Z" transform="translate(-755.06 -40)"/><path class="cls-4" d="M1572.55,97.95v8h1.12V97.86Z" transform="translate(-755.06 -40)"/><path class="cls-5" d="M1573.68,104.54h1.12V97.76l-1.12.1v6.69Z" transform="translate(-755.06 -40)"/><polygon class="cls-5" points="819.74 53.99 819.72 53.99 819.74 54.01 819.74 53.99"/><path class="cls-6" d="M1577.74,97.48L1574.8,94v3.75C1576.68,97.59,1577.74,97.48,1577.74,97.48Z" transform="translate(-755.06 -40)"/><path class="cls-6" d="M1546.79,93.46s0-1.38,0-3.9c-12.16-.08-23.11-0.44-23.11-0.44L1521.35,98l2.94,0.26v-3.6h1.12v0.76h1.12V94h1.12v0.59h1.12v0.76h1.12V94H1531v0.64h1.12v0.76h1.12V94h1.12v0.64h1.12v0.76h1.12V94h1.12v0.64h1.12v0.76H1540V94h1.12v0.64h1.12v0.76h1.12V94h1.12v0.64h1.12v0.76h1.12V94h1.12v0.64H1549v0.76h1.12V94h1.12v0.64h1.12v0.76h1.12V94h1.12v0.64h1.12v0.76h1.12V94H1558v0.64h1.12v0.76h1.12V94h1.12v0.64h1.12v0.76h1.12V94h1.12v0.64h1.12v0.76h1.12V94h1.12v0.64h1.12v0.76h1.12V94h1.12v0.64h1.12v0.76h1.12V94h1.1l-4.12-4.87c-5.41.36-12.76,0.47-20,.46,0,1.34.07,2.58,0.12,3.68Z" transform="translate(-755.06 -40)"/><path class="cls-6" d="M1525.41,95.45V94.69h-1.12v3.6l1.12,0.09V95.45Z" transform="translate(-755.06 -40)"/><path class="cls-6" d="M1526.53,98.46v-3h-1.12v2.93Z" transform="translate(-755.06 -40)"/><path class="cls-6" d="M1527.65,98.54V94h-1.12v4.42Z" transform="translate(-755.06 -40)"/><path class="cls-6" d="M1528.78,98.61v-4h-1.12v3.9Z" transform="translate(-755.06 -40)"/><path class="cls-6" d="M1529.9,98.67V95.39h-1.12v3.22Z" transform="translate(-755.06 -40)"/><path class="cls-6" d="M1531,98.73V94h-1.12v4.68Z" transform="translate(-755.06 -40)"/><path class="cls-6" d="M1532.14,98.79V94.63H1531v4.1Z" transform="translate(-755.06 -40)"/><path class="cls-6" d="M1533.27,98.83V95.39h-1.12v3.39Z" transform="translate(-755.06 -40)"/><path class="cls-6" d="M1534.39,98.88V94h-1.12v4.84Z" transform="translate(-755.06 -40)"/><path class="cls-6" d="M1535.51,98.92V94.63h-1.12v4.24Z" transform="translate(-755.06 -40)"/><path class="cls-6" d="M1536.63,99V95.39h-1.12v3.53Z" transform="translate(-755.06 -40)"/><path class="cls-6" d="M1537.76,99V94h-1.12v5Z" transform="translate(-755.06 -40)"/><path class="cls-6" d="M1538.88,99V94.63h-1.12V99Z" transform="translate(-755.06 -40)"/><path class="cls-6" d="M1540,99V95.39h-1.12V99Z" transform="translate(-755.06 -40)"/><path class="cls-6" d="M1541.12,99V94H1540v5Z" transform="translate(-755.06 -40)"/><path class="cls-6" d="M1542.25,99.05V94.63h-1.12V99h1.12Z" transform="translate(-755.06 -40)"/><path class="cls-6" d="M1543.37,99.06V95.39h-1.12v3.66h1.12Z" transform="translate(-755.06 -40)"/><path class="cls-6" d="M1544.49,99.06V94h-1.12v5.07h1.12Z" transform="translate(-755.06 -40)"/><path class="cls-6" d="M1545.61,99.06V94.63h-1.12v4.43h1.12Z" transform="translate(-755.06 -40)"/><path class="cls-6" d="M1546.74,99.06V95.39h-1.12v3.67h1.12Z" transform="translate(-755.06 -40)"/><path class="cls-6" d="M1547.86,99V94h-1.12v5.07h1.12Z" transform="translate(-755.06 -40)"/><path class="cls-6" d="M1549,99v-4.4h-1.12V99H1549Z" transform="translate(-755.06 -40)"/><path class="cls-6" d="M1550.1,99V95.39H1549V99Z" transform="translate(-755.06 -40)"/><path class="cls-6" d="M1551.23,99V94h-1.12v5Z" transform="translate(-755.06 -40)"/><path class="cls-6" d="M1552.35,99V94.63h-1.12V99Z" transform="translate(-755.06 -40)"/><path class="cls-6" d="M1553.47,99V95.39h-1.12V99Z" transform="translate(-755.06 -40)"/><path class="cls-6" d="M1554.59,98.92V94h-1.12v5Z" transform="translate(-755.06 -40)"/><path class="cls-6" d="M1555.72,98.88V94.63h-1.12v4.28Z" transform="translate(-755.06 -40)"/><path class="cls-6" d="M1556.84,98.85V95.39h-1.12v3.49Z" transform="translate(-755.06 -40)"/><path class="cls-6" d="M1558,98.8V94h-1.12v4.86Z" transform="translate(-755.06 -40)"/><path class="cls-6" d="M1559.08,98.76V94.63H1558V98.8Z" transform="translate(-755.06 -40)"/><path class="cls-6" d="M1560.21,98.71V95.39h-1.12v3.37Z" transform="translate(-755.06 -40)"/><path class="cls-6" d="M1561.33,98.66V94h-1.12v4.72Z" transform="translate(-755.06 -40)"/><path class="cls-6" d="M1562.45,98.6v-4h-1.12v4Z" transform="translate(-755.06 -40)"/><path class="cls-6" d="M1563.57,98.55V95.39h-1.12V98.6Z" transform="translate(-755.06 -40)"/><path class="cls-6" d="M1564.7,98.48V94h-1.12v4.56Z" transform="translate(-755.06 -40)"/><path class="cls-6" d="M1565.82,98.42V94.63h-1.12v3.85Z" transform="translate(-755.06 -40)"/><path class="cls-6" d="M1566.94,98.35v-3h-1.12v3Z" transform="translate(-755.06 -40)"/><path class="cls-6" d="M1568.06,98.27V94h-1.12v4.36Z" transform="translate(-755.06 -40)"/><path class="cls-6" d="M1569.19,98.2V94.63h-1.12v3.64Z" transform="translate(-755.06 -40)"/><path class="cls-6" d="M1570.31,98.12V95.39h-1.12V98.2Z" transform="translate(-755.06 -40)"/><path class="cls-6" d="M1571.43,98V94h-1.12v4.13Z" transform="translate(-755.06 -40)"/><path class="cls-6" d="M1572.55,97.95V94.63h-1.12V98Z" transform="translate(-755.06 -40)"/><path class="cls-6" d="M1573.68,97.86V95.39h-1.12v2.56Z" transform="translate(-755.06 -40)"/><path class="cls-6" d="M1573.68,95.39v2.46l1.12-.1V94l0,0h-1.1v1.4Z" transform="translate(-755.06 -40)"/><path class="cls-7" d="M1551.29,40h-4.39c0.09,22.56,0,41.66-.08,49.57l3.79,0C1550.37,78.76,1550.71,60.34,1551.29,40Z" transform="translate(-755.06 -40)"/><path class="cls-7" d="M1546.79,93.46l3.93-.2c0-1.1-.09-2.34-0.12-3.68l-3.79,0C1546.8,92.08,1546.79,93.46,1546.79,93.46Z" transform="translate(-755.06 -40)"/><g id="knife"><path class="cls-8" d="M824.54,112.63l-22.92,23.28,9.71,9.56,18-18.33a4.59,4.59,0,0,1,6.48-.05l0.15,0.17,1.66-1.69c1-1,.7-2.77-0.56-4l-8.56-8.43C827.3,111.89,825.49,111.66,824.54,112.63Z" transform="translate(-755.06 -40)"/><path class="cls-9" d="M796.53,144l4,9.25,0.94-1-4-9.25Z" transform="translate(-755.06 -40)"/><path class="cls-9" d="M787.27,153.36l4,9.25,5.41-5.49-4-9.25Z" transform="translate(-755.06 -40)"/><path class="cls-9" d="M771.85,169a21.91,21.91,0,0,0,6.57.94l-2.28-5.3Z" transform="translate(-755.06 -40)"/><path class="cls-9" d="M778.85,161.92l3.26,7.58a12.27,12.27,0,0,0,2.2-.78l-3.69-8.59Z" transform="translate(-755.06 -40)"/><path class="cls-9" d="M798.82,141.64l4,9.25,1.46-1.48-4-9.25Z" transform="translate(-755.06 -40)"/><path class="cls-9" d="M806.54,147.09l3.16-3.21-6.65-6.54-0.49.5Z" transform="translate(-755.06 -40)"/><path class="cls-10" d="M776.14,164.67l2.28,5.3a15.91,15.91,0,0,0,3.68-.47l-3.26-7.58Z" transform="translate(-755.06 -40)"/><path class="cls-10" d="M780.62,160.12l3.69,8.59a10.55,10.55,0,0,0,3.05-2.15l3.89-4-4-9.25Z" transform="translate(-755.06 -40)"/><path class="cls-10" d="M797.47,143l4,9.25,1.35-1.37-4-9.25Z" transform="translate(-755.06 -40)"/><path class="cls-10" d="M800.28,140.16l4,9.25,2.29-2.32-4-9.25Z" transform="translate(-755.06 -40)"/><path class="cls-9" d="M792.68,147.87l4,9.25,3.85-3.91-4-9.25Z" transform="translate(-755.06 -40)"/><rect class="cls-11" x="807.77" y="132.92" width="2.54" height="9.96" rx="0.99" ry="0.99" transform="translate(-611.88 577.68) rotate(-45.45)"/><rect class="cls-12" x="808.34" y="132.34" width="2.54" height="9.96" rx="0.99" ry="0.99" transform="translate(-611.3 577.92) rotate(-45.45)"/><rect class="cls-11" x="810.89" y="129.75" width="2.54" height="9.96" rx="0.99" ry="0.99" transform="translate(-608.69 578.96) rotate(-45.45)"/><rect class="cls-12" x="811.46" y="129.17" width="2.54" height="9.96" rx="0.99" ry="0.99" transform="translate(-608.1 579.2) rotate(-45.45)"/><rect class="cls-11" x="814.01" y="126.58" width="2.54" height="9.96" rx="0.99" ry="0.99" transform="translate(-605.5 580.24) rotate(-45.45)"/><rect class="cls-12" x="814.58" y="126" width="2.54" height="9.96" rx="0.99" ry="0.99" transform="translate(-604.91 580.47) rotate(-45.45)"/><rect class="cls-11" x="817.13" y="123.41" width="2.54" height="9.96" rx="0.99" ry="0.99" transform="translate(-602.3 581.52) rotate(-45.45)"/><rect class="cls-12" x="817.7" y="122.83" width="2.54" height="9.96" rx="0.99" ry="0.99" transform="translate(-601.72 581.75) rotate(-45.45)"/><rect class="cls-11" x="820.25" y="120.24" width="2.54" height="9.96" rx="0.99" ry="0.99" transform="translate(-599.11 582.8) rotate(-45.45)"/><rect class="cls-12" x="820.83" y="119.66" width="2.54" height="9.96" rx="0.99" ry="0.99" transform="translate(-598.53 583.03) rotate(-45.45)"/><rect class="cls-11" x="823.38" y="117.06" width="2.54" height="9.96" rx="0.99" ry="0.99" transform="translate(-595.92 584.08) rotate(-45.45)"/><rect class="cls-12" x="823.95" y="116.49" width="2.54" height="9.96" rx="0.99" ry="0.99" transform="translate(-595.34 584.31) rotate(-45.45)"/></g><path class="cls-13" d="M918.4,124.25c-5.24-7-13.76-9.39-19-5.43-4,3-5,9-2.83,14.72l-3.72,2.8L892.32,141l-4.51-.9-4.65,3.5,2.61,3.47-2.94,2.21-2.61-3.47L872,152l2.61,3.47-7.16,0-7.9,5.95,1.51,2L878,161.85l25.47-19.17c4.92,3.66,10.89,4.4,14.93,1.35C923.63,140.07,923.64,131.22,918.4,124.25ZM907,132.84c-2.64-3.5-2.65-7.95,0-9.92s6.89-.74,9.53,2.76,2.65,7.95,0,9.92S909.64,136.34,907,132.84Z" transform="translate(-755.06 -40)"/><path class="cls-14" d="M983.59,138.43h0.05a1.5,1.5,0,0,1,1.33,1.65l-0.11,1-0.21,1.23,2.58,0.28,0-.43A1.5,1.5,0,0,0,986,140.5H985.9c2.1-14.75,6.32-33.08,13.73-38.33a14.6,14.6,0,0,1,2-1.16h-5.39C989.5,107.2,985.58,124.43,983.59,138.43Z" transform="translate(-755.06 -40)"/><polygon class="cls-14" points="219.33 125.38 219.33 125.38 218.5 125.29 215.94 125.02 215.75 126.81 220.81 127.36 221.64 127.44 221.64 127.44 233.91 128.76 236.47 104.86 233.96 104.59 231.59 126.7 219.33 125.38"/><path class="cls-15" d="M979.92,138c0.34-2.29.73-4.69,1.2-7.15,2.62-14,6.27-24,10.86-29.89H988.2c-3.91,6.06-7.06,15.36-9.4,27.82-0.58,3.11-1.06,6.14-1.46,8.95h0.07Z" transform="translate(-755.06 -40)"/><path class="cls-14" d="M981.11,130.89c-0.46,2.46-.86,4.86-1.2,7.15l3.67,0.39c2-14,5.91-31.23,12.64-37.43H992C987.38,106.91,983.73,116.91,981.11,130.89Z" transform="translate(-755.06 -40)"/><path class="cls-16" d="M981.11,130.89c-0.46,2.46-.86,4.86-1.2,7.15l3.67,0.39c2-14,5.91-31.23,12.64-37.43H992C987.38,106.91,983.73,116.91,981.11,130.89Z" transform="translate(-755.06 -40)"/><polygon class="cls-17" points="231.91 104.37 233.96 104.59 234.16 102.79 232.18 102.58 232.12 103.14 231.91 104.37"/><polygon class="cls-17" points="220.47 103.14 220.55 101.34 215.99 100.85 213.43 124.75 215.94 125.02 218.3 102.91 220.47 103.14"/><path class="cls-14" d="M983.25,150.54l-1-.11h0l-6.24-.67h0l-0.76-.08,0.29-6.54-2.16-.23L971,165l2.56,0.27-2.17-.23,0.57-5.28a1.5,1.5,0,0,1,1.65-1.33h0A1.5,1.5,0,0,1,975,160.1l-0.57,5.28,12.27,1.31L989,144.59l-2-.22,0.21-1.23,0.06-.55-2.58-.28Zm-3.62,10.06-0.57,5.28-3-.32,0.57-5.28a1.5,1.5,0,0,1,1.65-1.33h0A1.5,1.5,0,0,1,979.64,160.6Zm4.69,0.5-0.57,5.28-3-.32,0.57-5.28a1.5,1.5,0,0,1,1.65-1.33h0A1.5,1.5,0,0,1,984.32,161.1Z" transform="translate(-755.06 -40)"/><path class="cls-17" d="M983.25,150.54l-1-.11h0l-6.24-.67h0l-0.76-.08,0.29-6.54-2.16-.23L971,165l2.56,0.27-2.17-.23,0.57-5.28a1.5,1.5,0,0,1,1.65-1.33h0A1.5,1.5,0,0,1,975,160.1l-0.57,5.28,12.27,1.31L989,144.59l-2-.22,0.21-1.23,0.06-.55-2.58-.28Zm-3.62,10.06-0.57,5.28-3-.32,0.57-5.28a1.5,1.5,0,0,1,1.65-1.33h0A1.5,1.5,0,0,1,979.64,160.6Zm4.69,0.5-0.57,5.28-3-.32,0.57-5.28a1.5,1.5,0,0,1,1.65-1.33h0A1.5,1.5,0,0,1,984.32,161.1Z" transform="translate(-755.06 -40)"/><polygon class="cls-14" points="220.94 109.76 227.18 110.43 227.18 110.43 220.94 109.76 220.94 109.76"/><polygon class="cls-18" points="220.94 109.76 227.18 110.43 227.18 110.43 220.94 109.76 220.94 109.76"/><polygon class="cls-17" points="220.94 109.76 227.18 110.43 227.18 110.43 220.94 109.76 220.94 109.76"/><path class="cls-19" d="M976.36,139.16a1.49,1.49,0,0,1,1-1.24l0-.16a1.49,1.49,0,0,0-1.58,1.33l-0.11,1-0.06,1.25,0.52,0.06Z" transform="translate(-755.06 -40)"/><path class="cls-14" d="M984.38,140l-0.11,1h0l-0.13,1.24,0.52,0.06,0.21-1.23,0.11-1a1.5,1.5,0,0,0-1.33-1.65h-0.05v0.1A1.49,1.49,0,0,1,984.38,140Z" transform="translate(-755.06 -40)"/><path class="cls-19" d="M984.38,140l-0.11,1h0l-0.13,1.24,0.52,0.06,0.21-1.23,0.11-1a1.5,1.5,0,0,0-1.33-1.65h-0.05v0.1A1.49,1.49,0,0,1,984.38,140Z" transform="translate(-755.06 -40)"/><path class="cls-20" d="M978,137.83l1.91,0.2h0l-2.51-.27h-0.07l0,0.16A1.48,1.48,0,0,1,978,137.83Z" transform="translate(-755.06 -40)"/><path class="cls-19" d="M978,137.83l1.91,0.2h0l-2.51-.27h-0.07l0,0.16A1.48,1.48,0,0,1,978,137.83Z" transform="translate(-755.06 -40)"/><path class="cls-14" d="M979.92,138l3.13,0.34a1.49,1.49,0,0,1,.53.16v-0.1l-3.67-.39h0Z" transform="translate(-755.06 -40)"/><path class="cls-21" d="M979.92,138l3.13,0.34a1.49,1.49,0,0,1,.53.16v-0.1l-3.67-.39h0Z" transform="translate(-755.06 -40)"/><path class="cls-19" d="M979.92,138l3.13,0.34a1.49,1.49,0,0,1,.53.16v-0.1l-3.67-.39h0Z" transform="translate(-755.06 -40)"/><polygon class="cls-17" points="220.87 103.19 221.06 101.39 220.55 101.34 220.47 103.14 220.87 103.19"/><polygon class="cls-19" points="220.87 103.19 221.06 101.39 220.55 101.34 220.47 103.14 220.87 103.19"/><polygon class="cls-14" points="220.47 103.14 220.18 109.68 220.87 103.19 220.47 103.14"/><polygon class="cls-17" points="220.47 103.14 220.18 109.68 220.87 103.19 220.47 103.14"/><polygon class="cls-19" points="220.47 103.14 220.18 109.68 220.87 103.19 220.47 103.14"/><polygon class="cls-14" points="228.19 110.54 229.6 102.31 229.08 102.25 228.19 110.54"/><polygon class="cls-17" points="228.19 110.54 229.6 102.31 229.08 102.25 228.19 110.54"/><polygon class="cls-19" points="228.19 110.54 229.6 102.31 229.08 102.25 228.19 110.54"/><path class="cls-19" d="M976.25,140.15a1.49,1.49,0,0,1,.93-1.22l0.14-1a1.49,1.49,0,0,0-1,1.24l-0.24,2.23h0Z" transform="translate(-755.06 -40)"/><path class="cls-22" d="M976.25,140.15a1.49,1.49,0,0,1,.93-1.22l0.14-1a1.49,1.49,0,0,0-1,1.24l-0.24,2.23h0Z" transform="translate(-755.06 -40)"/><path class="cls-14" d="M984.27,141l0.11-1a1.49,1.49,0,0,0-.8-1.49l-0.14,1A1.49,1.49,0,0,1,984.27,141Z" transform="translate(-755.06 -40)"/><path class="cls-19" d="M984.27,141l0.11-1a1.49,1.49,0,0,0-.8-1.49l-0.14,1A1.49,1.49,0,0,1,984.27,141Z" transform="translate(-755.06 -40)"/><path class="cls-22" d="M984.27,141l0.11-1a1.49,1.49,0,0,0-.8-1.49l-0.14,1A1.49,1.49,0,0,1,984.27,141Z" transform="translate(-755.06 -40)"/><path class="cls-23" d="M977.9,138.82l1.87,0.2,0.14-1-1.91-.2a1.48,1.48,0,0,0-.68.09l-0.14,1A1.48,1.48,0,0,1,977.9,138.82Z" transform="translate(-755.06 -40)"/><path class="cls-19" d="M977.9,138.82l1.87,0.2,0.14-1-1.91-.2a1.48,1.48,0,0,0-.68.09l-0.14,1A1.48,1.48,0,0,1,977.9,138.82Z" transform="translate(-755.06 -40)"/><path class="cls-22" d="M977.9,138.82l1.87,0.2,0.14-1-1.91-.2a1.48,1.48,0,0,0-.68.09l-0.14,1A1.48,1.48,0,0,1,977.9,138.82Z" transform="translate(-755.06 -40)"/><path class="cls-14" d="M982.94,139.36a1.49,1.49,0,0,1,.5.15l0.14-1a1.49,1.49,0,0,0-.53-0.16l-3.13-.34-0.14,1Z" transform="translate(-755.06 -40)"/><path class="cls-24" d="M982.94,139.36a1.49,1.49,0,0,1,.5.15l0.14-1a1.49,1.49,0,0,0-.53-0.16l-3.13-.34-0.14,1Z" transform="translate(-755.06 -40)"/><path class="cls-19" d="M982.94,139.36a1.49,1.49,0,0,1,.5.15l0.14-1a1.49,1.49,0,0,0-.53-0.16l-3.13-.34-0.14,1Z" transform="translate(-755.06 -40)"/><path class="cls-22" d="M982.94,139.36a1.49,1.49,0,0,1,.5.15l0.14-1a1.49,1.49,0,0,0-.53-0.16l-3.13-.34-0.14,1Z" transform="translate(-755.06 -40)"/><polygon class="cls-17" points="221.06 101.39 221.06 101.39 220.87 103.19 220.87 103.19 221.06 101.39"/><polygon class="cls-19" points="221.06 101.39 221.06 101.39 220.87 103.19 220.87 103.19 221.06 101.39"/><polygon class="cls-22" points="221.06 101.39 221.06 101.39 220.87 103.19 220.87 103.19 221.06 101.39"/><polygon class="cls-14" points="220.87 103.19 220.18 109.68 220.87 103.19 220.87 103.19"/><polygon class="cls-17" points="220.87 103.19 220.18 109.68 220.87 103.19 220.87 103.19"/><polygon class="cls-19" points="220.87 103.19 220.18 109.68 220.87 103.19 220.87 103.19"/><polygon class="cls-22" points="220.87 103.19 220.18 109.68 220.87 103.19 220.87 103.19"/><polygon class="cls-14" points="229.08 102.25 229.22 101.01 229.22 101.01 229.08 102.25 229.08 102.25"/><polygon class="cls-19" points="229.08 102.25 229.22 101.01 229.22 101.01 229.08 102.25 229.08 102.25"/><polygon class="cls-25" points="229.08 102.25 229.22 101.01 229.22 101.01 229.08 102.25 229.08 102.25"/><polygon class="cls-14" points="229.08 102.25 228.19 110.54 229.08 102.25 229.08 102.25"/><polygon class="cls-17" points="229.08 102.25 228.19 110.54 229.08 102.25 229.08 102.25"/><polygon class="cls-19" points="229.08 102.25 228.19 110.54 229.08 102.25 229.08 102.25"/><polygon class="cls-25" points="229.08 102.25 228.19 110.54 229.08 102.25 229.08 102.25"/><path class="cls-19" d="M977.19,138.93a1.49,1.49,0,0,0-.93,1.22l-0.13,1.24,0.74,0.08Q977,140.24,977.19,138.93Z" transform="translate(-755.06 -40)"/><path class="cls-22" d="M977.19,138.93a1.49,1.49,0,0,0-.93,1.22l-0.13,1.24,0.74,0.08Q977,140.24,977.19,138.93Z" transform="translate(-755.06 -40)"/><path class="cls-26" d="M977.19,138.93a1.49,1.49,0,0,0-.93,1.22l-0.13,1.24,0.74,0.08Q977,140.24,977.19,138.93Z" transform="translate(-755.06 -40)"/><path class="cls-14" d="M983.44,139.51q-0.18,1.34-.34,2.63l1,0.11,0.13-1.24A1.49,1.49,0,0,0,983.44,139.51Z" transform="translate(-755.06 -40)"/><path class="cls-19" d="M983.44,139.51q-0.18,1.34-.34,2.63l1,0.11,0.13-1.24A1.49,1.49,0,0,0,983.44,139.51Z" transform="translate(-755.06 -40)"/><path class="cls-22" d="M983.44,139.51q-0.18,1.34-.34,2.63l1,0.11,0.13-1.24A1.49,1.49,0,0,0,983.44,139.51Z" transform="translate(-755.06 -40)"/><path class="cls-27" d="M983.44,139.51q-0.18,1.34-.34,2.63l1,0.11,0.13-1.24A1.49,1.49,0,0,0,983.44,139.51Z" transform="translate(-755.06 -40)"/><path class="cls-28" d="M979.66,139.83l0.12-.81-1.87-.2a1.48,1.48,0,0,0-.72.11q-0.18,1.31-.33,2.54L978,141.6l0-.43A1.49,1.49,0,0,1,979.66,139.83Z" transform="translate(-755.06 -40)"/><path class="cls-19" d="M979.66,139.83l0.12-.81-1.87-.2a1.48,1.48,0,0,0-.72.11q-0.18,1.31-.33,2.54L978,141.6l0-.43A1.49,1.49,0,0,1,979.66,139.83Z" transform="translate(-755.06 -40)"/><path class="cls-22" d="M979.66,139.83l0.12-.81-1.87-.2a1.48,1.48,0,0,0-.72.11q-0.18,1.31-.33,2.54L978,141.6l0-.43A1.49,1.49,0,0,1,979.66,139.83Z" transform="translate(-755.06 -40)"/><path class="cls-29" d="M979.66,139.83l0.12-.81-1.87-.2a1.48,1.48,0,0,0-.72.11q-0.18,1.31-.33,2.54L978,141.6l0-.43A1.49,1.49,0,0,1,979.66,139.83Z" transform="translate(-755.06 -40)"/><path class="cls-14" d="M982.94,139.36l-3.17-.34-0.12.81a1.49,1.49,0,0,0-1.58,1.33l0,0.43,5.07,0.54q0.16-1.29.34-2.63A1.49,1.49,0,0,0,982.94,139.36Z" transform="translate(-755.06 -40)"/><path class="cls-30" d="M982.94,139.36l-3.17-.34-0.12.81a1.49,1.49,0,0,0-1.58,1.33l0,0.43,5.07,0.54q0.16-1.29.34-2.63A1.49,1.49,0,0,0,982.94,139.36Z" transform="translate(-755.06 -40)"/><path class="cls-19" d="M982.94,139.36l-3.17-.34-0.12.81a1.49,1.49,0,0,0-1.58,1.33l0,0.43,5.07,0.54q0.16-1.29.34-2.63A1.49,1.49,0,0,0,982.94,139.36Z" transform="translate(-755.06 -40)"/><path class="cls-22" d="M982.94,139.36l-3.17-.34-0.12.81a1.49,1.49,0,0,0-1.58,1.33l0,0.43,5.07,0.54q0.16-1.29.34-2.63A1.49,1.49,0,0,0,982.94,139.36Z" transform="translate(-755.06 -40)"/><path class="cls-31" d="M982.94,139.36l-3.17-.34-0.12.81a1.49,1.49,0,0,0-1.58,1.33l0,0.43,5.07,0.54q0.16-1.29.34-2.63A1.49,1.49,0,0,0,982.94,139.36Z" transform="translate(-755.06 -40)"/><path class="cls-17" d="M976.12,141.39l-0.19,1.79,0.72,0.08c0.07-.58.14-1.18,0.21-1.79Z" transform="translate(-755.06 -40)"/><path class="cls-19" d="M976.12,141.39l-0.19,1.79,0.72,0.08c0.07-.58.14-1.18,0.21-1.79Z" transform="translate(-755.06 -40)"/><path class="cls-22" d="M976.12,141.39l-0.19,1.79,0.72,0.08c0.07-.58.14-1.18,0.21-1.79Z" transform="translate(-755.06 -40)"/><path class="cls-32" d="M976.12,141.39l-0.19,1.79,0.72,0.08c0.07-.58.14-1.18,0.21-1.79Z" transform="translate(-755.06 -40)"/><path class="cls-14" d="M983.1,142.14c-0.38,3.06-.67,5.88-0.86,8.29l1,0.11,0.89-8.29Z" transform="translate(-755.06 -40)"/><path class="cls-17" d="M983.1,142.14c-0.38,3.06-.67,5.88-0.86,8.29l1,0.11,0.89-8.29Z" transform="translate(-755.06 -40)"/><path class="cls-19" d="M983.1,142.14c-0.38,3.06-.67,5.88-0.86,8.29l1,0.11,0.89-8.29Z" transform="translate(-755.06 -40)"/><path class="cls-22" d="M983.1,142.14c-0.38,3.06-.67,5.88-0.86,8.29l1,0.11,0.89-8.29Z" transform="translate(-755.06 -40)"/><path class="cls-33" d="M983.1,142.14c-0.38,3.06-.67,5.88-0.86,8.29l1,0.11,0.89-8.29Z" transform="translate(-755.06 -40)"/><path class="cls-14" d="M975.93,143.18l-0.7,6.49,0.76,0.08c0.15-1.72.36-3.94,0.65-6.5Z" transform="translate(-755.06 -40)"/><path class="cls-17" d="M975.93,143.18l-0.7,6.49,0.76,0.08c0.15-1.72.36-3.94,0.65-6.5Z" transform="translate(-755.06 -40)"/><path class="cls-19" d="M975.93,143.18l-0.7,6.49,0.76,0.08c0.15-1.72.36-3.94,0.65-6.5Z" transform="translate(-755.06 -40)"/><path class="cls-22" d="M975.93,143.18l-0.7,6.49,0.76,0.08c0.15-1.72.36-3.94,0.65-6.5Z" transform="translate(-755.06 -40)"/><path class="cls-34" d="M975.93,143.18l-0.7,6.49,0.76,0.08c0.15-1.72.36-3.94,0.65-6.5Z" transform="translate(-755.06 -40)"/><path class="cls-35" d="M976.65,143.26l1.27,0.14,0.06-1.25,0.06-.55-1.17-.13C976.78,142.08,976.71,142.68,976.65,143.26Z" transform="translate(-755.06 -40)"/><path class="cls-17" d="M976.65,143.26l1.27,0.14,0.06-1.25,0.06-.55-1.17-.13C976.78,142.08,976.71,142.68,976.65,143.26Z" transform="translate(-755.06 -40)"/><path class="cls-19" d="M976.65,143.26l1.27,0.14,0.06-1.25,0.06-.55-1.17-.13C976.78,142.08,976.71,142.68,976.65,143.26Z" transform="translate(-755.06 -40)"/><path class="cls-22" d="M976.65,143.26l1.27,0.14,0.06-1.25,0.06-.55-1.17-.13C976.78,142.08,976.71,142.68,976.65,143.26Z" transform="translate(-755.06 -40)"/><path class="cls-36" d="M976.65,143.26l1.27,0.14,0.06-1.25,0.06-.55-1.17-.13C976.78,142.08,976.71,142.68,976.65,143.26Z" transform="translate(-755.06 -40)"/><path class="cls-14" d="M978,141.6l-0.06.55-0.06,1.25-1.27-.14c-0.29,2.56-.51,4.78-0.65,6.5l6.24,0.67c0.2-2.41.48-5.23,0.86-8.29Z" transform="translate(-755.06 -40)"/><path class="cls-37" d="M978,141.6l-0.06.55-0.06,1.25-1.27-.14c-0.29,2.56-.51,4.78-0.65,6.5l6.24,0.67c0.2-2.41.48-5.23,0.86-8.29Z" transform="translate(-755.06 -40)"/><path class="cls-17" d="M978,141.6l-0.06.55-0.06,1.25-1.27-.14c-0.29,2.56-.51,4.78-0.65,6.5l6.24,0.67c0.2-2.41.48-5.23,0.86-8.29Z" transform="translate(-755.06 -40)"/><path class="cls-19" d="M978,141.6l-0.06.55-0.06,1.25-1.27-.14c-0.29,2.56-.51,4.78-0.65,6.5l6.24,0.67c0.2-2.41.48-5.23,0.86-8.29Z" transform="translate(-755.06 -40)"/><path class="cls-22" d="M978,141.6l-0.06.55-0.06,1.25-1.27-.14c-0.29,2.56-.51,4.78-0.65,6.5l6.24,0.67c0.2-2.41.48-5.23,0.86-8.29Z" transform="translate(-755.06 -40)"/><path class="cls-38" d="M978,141.6l-0.06.55-0.06,1.25-1.27-.14c-0.29,2.56-.51,4.78-0.65,6.5l6.24,0.67c0.2-2.41.48-5.23,0.86-8.29Z" transform="translate(-755.06 -40)"/><polygon class="cls-14" points="219.33 125.38 218.5 125.29 219.33 125.38 219.33 125.38"/><polygon class="cls-39" points="219.33 125.38 218.5 125.29 219.33 125.38 219.33 125.38"/><path class="cls-14" d="M975,160.1a1.5,1.5,0,0,0-1.33-1.65h0a1.5,1.5,0,0,0-1.65,1.33l-0.57,5.28,2.17,0.23,0.83,0.09Z" transform="translate(-755.06 -40)"/><path class="cls-17" d="M975,160.1a1.5,1.5,0,0,0-1.33-1.65h0a1.5,1.5,0,0,0-1.65,1.33l-0.57,5.28,2.17,0.23,0.83,0.09Z" transform="translate(-755.06 -40)"/><path class="cls-40" d="M975,160.1a1.5,1.5,0,0,0-1.33-1.65h0a1.5,1.5,0,0,0-1.65,1.33l-0.57,5.28,2.17,0.23,0.83,0.09Z" transform="translate(-755.06 -40)"/><path class="cls-14" d="M978.31,159h0a1.5,1.5,0,0,0-1.65,1.33l-0.57,5.28,3,0.32,0.57-5.28A1.5,1.5,0,0,0,978.31,159Z" transform="translate(-755.06 -40)"/><path class="cls-17" d="M978.31,159h0a1.5,1.5,0,0,0-1.65,1.33l-0.57,5.28,3,0.32,0.57-5.28A1.5,1.5,0,0,0,978.31,159Z" transform="translate(-755.06 -40)"/><path class="cls-41" d="M978.31,159h0a1.5,1.5,0,0,0-1.65,1.33l-0.57,5.28,3,0.32,0.57-5.28A1.5,1.5,0,0,0,978.31,159Z" transform="translate(-755.06 -40)"/><path class="cls-14" d="M983,159.45h0a1.5,1.5,0,0,0-1.65,1.33l-0.57,5.28,3,0.32,0.57-5.28A1.5,1.5,0,0,0,983,159.45Z" transform="translate(-755.06 -40)"/><path class="cls-17" d="M983,159.45h0a1.5,1.5,0,0,0-1.65,1.33l-0.57,5.28,3,0.32,0.57-5.28A1.5,1.5,0,0,0,983,159.45Z" transform="translate(-755.06 -40)"/><path class="cls-42" d="M983,159.45h0a1.5,1.5,0,0,0-1.65,1.33l-0.57,5.28,3,0.32,0.57-5.28A1.5,1.5,0,0,0,983,159.45Z" transform="translate(-755.06 -40)"/></svg>